G04 Layer_Color=65535*
%FSLAX23Y23*%
%MOIN*%
G70*
G01*
G75*
%ADD10C,0.008*%
%ADD12C,0.010*%
%ADD19C,0.004*%
%ADD20C,0.004*%
%ADD21C,0.006*%
D10*
X2648Y3588D02*
G03*
X2850Y3588I101J-58D01*
G01*
X2966Y3530D02*
G03*
X2966Y3530I-217J0D01*
G01*
X2651Y3589D02*
X2848D01*
X2111Y3792D02*
X2364D01*
Y3245D02*
Y3792D01*
X2111Y3245D02*
X2364D01*
X2111D02*
Y3792D01*
X2710Y3927D02*
X2728Y3880D01*
X2746Y3927D02*
X2728Y3880D01*
X2752Y3927D02*
Y3880D01*
Y3927D02*
X2772D01*
X2779Y3925D01*
X2781Y3923D01*
X2784Y3918D01*
Y3914D01*
X2781Y3909D01*
X2779Y3907D01*
X2772Y3905D01*
X2752D01*
X2768D02*
X2784Y3880D01*
D12*
X2897Y3530D02*
G03*
X2897Y3530I-148J0D01*
G01*
X3006Y3876D02*
G03*
X2843Y3924I-181J-314D01*
G01*
X2655D02*
G03*
X2493Y3876I19J-362D01*
G01*
X2968Y3924D02*
X3005Y3874D01*
X2493D02*
X2530Y3924D01*
X2943Y3874D02*
X3005D01*
X2493D02*
X2555D01*
X2435Y3696D02*
X2429Y3702D01*
X2421Y3705D01*
X2409D01*
X2401Y3702D01*
X2395Y3696D01*
Y3691D01*
X2398Y3685D01*
X2401Y3682D01*
X2406Y3679D01*
X2424Y3674D01*
X2429Y3671D01*
X2432Y3668D01*
X2435Y3662D01*
Y3654D01*
X2429Y3648D01*
X2421Y3645D01*
X2409D01*
X2401Y3648D01*
X2395Y3654D01*
X2448Y3705D02*
X2463Y3645D01*
X2477Y3705D02*
X2463Y3645D01*
X2477Y3705D02*
X2491Y3645D01*
X2506Y3705D02*
X2491Y3645D01*
X2438Y3584D02*
X2435Y3590D01*
X2429Y3595D01*
X2424Y3598D01*
X2412D01*
X2406Y3595D01*
X2401Y3590D01*
X2398Y3584D01*
X2395Y3575D01*
Y3561D01*
X2398Y3553D01*
X2401Y3547D01*
X2406Y3541D01*
X2412Y3538D01*
X2424D01*
X2429Y3541D01*
X2435Y3547D01*
X2438Y3553D01*
Y3561D01*
X2424D02*
X2438D01*
X2395Y3492D02*
Y3432D01*
Y3492D02*
X2421D01*
X2429Y3489D01*
X2432Y3486D01*
X2435Y3480D01*
Y3475D01*
X2432Y3469D01*
X2429Y3466D01*
X2421Y3463D01*
X2395D02*
X2421D01*
X2429Y3460D01*
X2432Y3457D01*
X2435Y3452D01*
Y3443D01*
X2432Y3437D01*
X2429Y3435D01*
X2421Y3432D01*
X2395D01*
X2441Y3325D02*
X2418Y3385D01*
X2395Y3325D01*
X2404Y3345D02*
X2432D01*
D19*
X2564Y3821D02*
G03*
X2521Y3782I-4J-39D01*
G01*
X2977D02*
G03*
X2938Y3821I-39J0D01*
G01*
X2521Y3317D02*
G03*
X2564Y3278I39J0D01*
G01*
X2938Y3278D02*
G03*
X2977Y3317I0J39D01*
G01*
D20*
X2564Y3278D02*
X2938D01*
X2564Y3821D02*
X2940D01*
X2722Y3294D02*
X2777D01*
X2977Y3317D02*
Y3782D01*
X2722Y3278D02*
Y3294D01*
X2777Y3278D02*
Y3294D01*
X2521Y3782D02*
X2521Y3317D01*
D21*
X2200Y3869D02*
X2170D01*
Y3820D01*
X2200D01*
X2170Y3846D02*
X2189D01*
X2209Y3869D02*
Y3820D01*
Y3869D02*
X2241Y3820D01*
Y3869D02*
Y3820D01*
X2290Y3857D02*
X2288Y3862D01*
X2283Y3867D01*
X2278Y3869D01*
X2269D01*
X2264Y3867D01*
X2260Y3862D01*
X2257Y3857D01*
X2255Y3850D01*
Y3839D01*
X2257Y3832D01*
X2260Y3827D01*
X2264Y3822D01*
X2269Y3820D01*
X2278D01*
X2283Y3822D01*
X2288Y3827D01*
X2290Y3832D01*
M02*
