G04 Layer_Physical_Order=4*
G04 Layer_Color=16711680*
%FSLAX23Y23*%
%MOIN*%
G70*
G01*
G75*
%ADD10C,0.008*%
%ADD11C,0.030*%
%ADD12C,0.010*%
%ADD13O,0.118X0.079*%
G04:AMPARAMS|DCode=14|XSize=79mil|YSize=98mil|CornerRadius=0mil|HoleSize=0mil|Usage=FLASHONLY|Rotation=0.000|XOffset=0mil|YOffset=0mil|HoleType=Round|Shape=Octagon|*
%AMOCTAGOND14*
4,1,8,-0.020,0.049,0.020,0.049,0.039,0.030,0.039,-0.030,0.020,-0.049,-0.020,-0.049,-0.039,-0.030,-0.039,0.030,-0.020,0.049,0.0*
%
%ADD14OCTAGOND14*%

%ADD15O,0.079X0.098*%
%ADD16O,0.079X0.098*%
G04:AMPARAMS|DCode=17|XSize=138mil|YSize=197mil|CornerRadius=0mil|HoleSize=0mil|Usage=FLASHONLY|Rotation=0.000|XOffset=0mil|YOffset=0mil|HoleType=Round|Shape=Octagon|*
%AMOCTAGOND17*
4,1,8,-0.034,0.098,0.034,0.098,0.069,0.064,0.069,-0.064,0.034,-0.098,-0.034,-0.098,-0.069,-0.064,-0.069,0.064,-0.034,0.098,0.0*
%
%ADD17OCTAGOND17*%

%ADD18O,0.157X0.067*%
G36*
X3015Y3800D02*
Y3450D01*
X2975Y3410D01*
X2895D01*
X2785Y3300D01*
Y3190D01*
X2775Y3180D01*
X2725D01*
X2710Y3195D01*
Y3320D01*
X2615Y3415D01*
X2540D01*
X2415Y3540D01*
X2255D01*
Y3600D01*
X2480D01*
X2520Y3640D01*
X2670D01*
X2785Y3755D01*
Y3840D01*
X2805Y3860D01*
X2955D01*
X3015Y3800D01*
D02*
G37*
D10*
X2235Y3600D02*
X2480D01*
X2235Y3540D02*
X2415D01*
X2710Y3195D02*
Y3320D01*
X2615Y3415D02*
X2710Y3320D01*
X2540Y3415D02*
X2615D01*
X2415Y3540D02*
X2540Y3415D01*
X2480Y3600D02*
X2520Y3640D01*
X2670D01*
X2785Y3755D01*
Y3840D01*
X2805Y3860D01*
X2955D01*
X3015Y3800D01*
Y3450D02*
Y3800D01*
X2975Y3410D02*
X3015Y3450D01*
X2895Y3410D02*
X2975D01*
X2785Y3300D02*
X2895Y3410D01*
X2785Y3190D02*
Y3300D01*
X2775Y3180D02*
X2785Y3190D01*
X2725Y3180D02*
X2775D01*
X2710Y3195D02*
X2725Y3180D01*
D11*
X2540Y3120D02*
X2815D01*
X2290Y3370D02*
X2540Y3120D01*
X2205Y3370D02*
X2290D01*
X2570Y3235D02*
X2651D01*
X2335Y3470D02*
X2570Y3235D01*
X2205Y3470D02*
X2335D01*
X2848Y3153D02*
Y3235D01*
X2815Y3120D02*
X2848Y3153D01*
X2561Y3806D02*
X2651D01*
X2425Y3670D02*
X2561Y3806D01*
X2205Y3670D02*
X2425D01*
D12*
X2315Y3180D02*
Y3120D01*
Y3180D02*
X2289D01*
X2281Y3177D01*
X2278Y3174D01*
X2275Y3169D01*
Y3163D01*
X2278Y3157D01*
X2281Y3154D01*
X2289Y3151D01*
X2315D02*
X2289D01*
X2281Y3149D01*
X2278Y3146D01*
X2275Y3140D01*
Y3131D01*
X2278Y3126D01*
X2281Y3123D01*
X2289Y3120D01*
X2315D01*
X2244Y3180D02*
X2250Y3177D01*
X2256Y3171D01*
X2259Y3166D01*
X2262Y3157D01*
Y3143D01*
X2259Y3134D01*
X2256Y3129D01*
X2250Y3123D01*
X2244Y3120D01*
X2233D01*
X2227Y3123D01*
X2222Y3129D01*
X2219Y3134D01*
X2216Y3143D01*
Y3157D01*
X2219Y3166D01*
X2222Y3171D01*
X2227Y3177D01*
X2233Y3180D01*
X2244D01*
X2182D02*
Y3120D01*
X2202Y3180D02*
X2162D01*
D13*
X2848Y3806D02*
D03*
X2651D02*
D03*
D14*
Y3235D02*
D03*
D15*
X2749D02*
D03*
D16*
X2848D02*
D03*
D17*
X2570Y3530D02*
D03*
X2928D02*
D03*
D18*
X2205Y3370D02*
D03*
Y3470D02*
D03*
Y3570D02*
D03*
Y3670D02*
D03*
M02*
