M48
;DRILL file {KiCad 4.0.6} date 08/17/17 22:48:50
;FORMAT={2:4/ absolute / inch / suppress leading zeros}
FMAT,2
INCH,TZ
T1C0.026
T2C0.031
T3C0.032
T4C0.035
T5C0.039
T6C0.039
T7C0.047
%
G90
G05
M72
T1
X65933Y-27791
X66472Y-27122
X67075Y-27752
T2
X46200Y-31831
X46200Y-33800
X56900Y-33522
X56908Y-34635
X64909Y-33157
X64909Y-35323
X65894Y-33157
X65894Y-35323
X68453Y-34142
X70374Y-34142
T3
X47358Y-36346
X48366Y-37913
X48366Y-40913
X49366Y-37913
X49366Y-40913
X50366Y-37913
X50366Y-40913
X51358Y-36346
X51366Y-37913
X51366Y-40913
X52823Y-29969
X52823Y-30969
X53020Y-33559
X53020Y-37559
X55067Y-29811
X55067Y-31189
X55067Y-37189
X56067Y-29811
X56067Y-31189
X56067Y-37189
X57067Y-29811
X57067Y-31189
X57067Y-37189
X58067Y-29811
X58067Y-31189
X58067Y-37189
X59067Y-29811
X59067Y-31189
X59067Y-37189
X59594Y-34339
X60067Y-29811
X60067Y-31189
X60067Y-37189
X61067Y-29811
X61067Y-31189
X61067Y-37189
X62067Y-29811
X62067Y-31189
X62067Y-37189
X63067Y-29811
X63067Y-31189
X63067Y-37189
X63594Y-34339
X64067Y-31189
X64067Y-37189
X64484Y-29614
X65067Y-31189
X65067Y-37189
X66067Y-31189
X66067Y-37189
X67067Y-31189
X67067Y-37189
X68067Y-31189
X68067Y-37189
X68484Y-29614
X69067Y-31189
X69067Y-37189
X70067Y-31189
X70067Y-37189
X71067Y-31189
X71067Y-37189
X72067Y-31189
X72067Y-37189
X73067Y-31189
X73067Y-37189
X74067Y-31189
X74067Y-37189
T4
X56642Y-41228
X57626Y-41228
X58610Y-41228
X59594Y-41228
X63531Y-41228
X64516Y-41228
X65500Y-41228
X69240Y-41228
X70224Y-41228
X71209Y-41228
X79476Y-31780
X79476Y-32764
X79476Y-33748
X79476Y-34732
T5
X48177Y-27055
X49177Y-27055
X50177Y-27055
X51177Y-27055
X52177Y-27055
X53177Y-27055
X54177Y-27055
X55177Y-27055
X56177Y-27055
X57177Y-27055
X58177Y-27055
X59177Y-27055
X60177Y-27055
X61177Y-27055
X62177Y-27055
X63177Y-27055
T6
X70012Y-27055
X71012Y-27055
X72012Y-27055
T7
X41950Y-30000
X41950Y-31968
X43934Y-30984
T0
M30
