G04 #@! TF.FileFunction,Profile,NP*
%FSLAX45Y45*%
G04 Gerber Fmt 4.5, Leading zero omitted, Abs format (unit mm)*
G04 Created by KiCad (PCBNEW 4.0.6) date 08/17/17 22:48:44*
%MOMM*%
%LPD*%
G01*
G04 APERTURE LIST*
%ADD10C,0.100000*%
%ADD11C,0.200000*%
G04 APERTURE END LIST*
D10*
D11*
X10657000Y-6722000D02*
X11057000Y-6722000D01*
X10657000Y-7022000D02*
X11057000Y-7022000D01*
X11157000Y-6822000D02*
G75*
G03X11057000Y-6722000I-100000J0D01*
G01*
X11057000Y-7022000D02*
G75*
G03X11157000Y-6922000I0J100000D01*
G01*
X11157000Y-6922000D02*
X11157000Y-6822000D01*
X10557000Y-6922000D02*
X10557000Y-6822000D01*
X10557000Y-6922000D02*
G75*
G03X10657000Y-7022000I100000J0D01*
G01*
X10657000Y-6722000D02*
G75*
G03X10557000Y-6822000I0J-100000D01*
G01*
X19887000Y-10022000D02*
G75*
G03X19987000Y-10122000I100000J0D01*
G01*
X11057000Y-10122000D02*
G75*
G03X11157000Y-10022000I0J100000D01*
G01*
X20387000Y-10122000D02*
G75*
G03X20487000Y-10022000I0J100000D01*
G01*
X11157000Y-9922000D02*
G75*
G03X11057000Y-9822000I-100000J0D01*
G01*
X20487000Y-9922000D02*
G75*
G03X20387000Y-9822000I-100000J0D01*
G01*
X10557000Y-10022000D02*
G75*
G03X10657000Y-10122000I100000J0D01*
G01*
X10657000Y-9822000D02*
X11057000Y-9822000D01*
X19987000Y-9822000D02*
X20387000Y-9822000D01*
X10557000Y-10022000D02*
X10557000Y-9922000D01*
X19887000Y-10022000D02*
X19887000Y-9922000D01*
X10657000Y-9822000D02*
G75*
G03X10557000Y-9922000I0J-100000D01*
G01*
X19987000Y-9822000D02*
G75*
G03X19887000Y-9922000I0J-100000D01*
G01*
X10657000Y-10122000D02*
X11057000Y-10122000D01*
X19987000Y-10122000D02*
X20387000Y-10122000D01*
X11157000Y-10022000D02*
X11157000Y-9922000D01*
X20487000Y-10022000D02*
X20487000Y-9922000D01*
X19817000Y-7022000D02*
X20217000Y-7022000D01*
X19717000Y-6922000D02*
G75*
G03X19817000Y-7022000I100000J0D01*
G01*
X19717000Y-6922000D02*
X19717000Y-6822000D01*
X19817000Y-6722000D02*
G75*
G03X19717000Y-6822000I0J-100000D01*
G01*
X19817000Y-6722000D02*
X20217000Y-6722000D01*
X20317000Y-6822000D02*
G75*
G03X20217000Y-6722000I-100000J0D01*
G01*
X20317000Y-6922000D02*
X20317000Y-6822000D01*
X20217000Y-7022000D02*
G75*
G03X20317000Y-6922000I0J100000D01*
G01*
X11487000Y-7022000D02*
X11887000Y-7022000D01*
X18987000Y-10122000D02*
X19387000Y-10122000D01*
X11487000Y-10122000D02*
X11887000Y-10122000D01*
X11387000Y-6922000D02*
X11387000Y-6822000D01*
X18887000Y-10022000D02*
X18887000Y-9922000D01*
X11387000Y-10022000D02*
X11387000Y-9922000D01*
X11387000Y-6922000D02*
G75*
G03X11487000Y-7022000I100000J0D01*
G01*
X18887000Y-10022000D02*
G75*
G03X18987000Y-10122000I100000J0D01*
G01*
X11387000Y-10022000D02*
G75*
G03X11487000Y-10122000I100000J0D01*
G01*
X11487000Y-6722000D02*
X11887000Y-6722000D01*
X18987000Y-9822000D02*
X19387000Y-9822000D01*
X11487000Y-9822000D02*
X11887000Y-9822000D01*
X11987000Y-6822000D02*
G75*
G03X11887000Y-6722000I-100000J0D01*
G01*
X19487000Y-9922000D02*
G75*
G03X19387000Y-9822000I-100000J0D01*
G01*
X11987000Y-9922000D02*
G75*
G03X11887000Y-9822000I-100000J0D01*
G01*
X11887000Y-7022000D02*
G75*
G03X11987000Y-6922000I0J100000D01*
G01*
X19387000Y-10122000D02*
G75*
G03X19487000Y-10022000I0J100000D01*
G01*
X11887000Y-10122000D02*
G75*
G03X11987000Y-10022000I0J100000D01*
G01*
X11487000Y-6722000D02*
G75*
G03X11387000Y-6822000I0J-100000D01*
G01*
X18987000Y-9822000D02*
G75*
G03X18887000Y-9922000I0J-100000D01*
G01*
X11487000Y-9822000D02*
G75*
G03X11387000Y-9922000I0J-100000D01*
G01*
X11987000Y-6922000D02*
X11987000Y-6822000D01*
X19487000Y-10022000D02*
X19487000Y-9922000D01*
X11987000Y-10022000D02*
X11987000Y-9922000D01*
X19487000Y-6922000D02*
X19487000Y-6822000D01*
X18887000Y-6922000D02*
X18887000Y-6822000D01*
X18987000Y-6722000D02*
X19387000Y-6722000D01*
X18987000Y-7022000D02*
X19387000Y-7022000D01*
X19487000Y-6822000D02*
G75*
G03X19387000Y-6722000I-100000J0D01*
G01*
X19387000Y-7022000D02*
G75*
G03X19487000Y-6922000I0J100000D01*
G01*
X18987000Y-6722000D02*
G75*
G03X18887000Y-6822000I0J-100000D01*
G01*
X18887000Y-6922000D02*
G75*
G03X18987000Y-7022000I100000J0D01*
G01*
D10*
X10287000Y-6472000D02*
X10287000Y-6622000D01*
X20637000Y-6472000D02*
X10287000Y-6472000D01*
X20637000Y-10922000D02*
X20637000Y-6472000D01*
X10287000Y-10922000D02*
X20637000Y-10922000D01*
X10287000Y-6604000D02*
X10287000Y-10922000D01*
M02*
