G04 #@! TF.FileFunction,Legend,Top*
%FSLAX45Y45*%
G04 Gerber Fmt 4.5, Leading zero omitted, Abs format (unit mm)*
G04 Created by KiCad (PCBNEW 4.0.6) date 08/17/17 22:48:44*
%MOMM*%
%LPD*%
G01*
G04 APERTURE LIST*
%ADD10C,0.100000*%
%ADD11C,0.150000*%
%ADD12C,0.200000*%
%ADD13C,0.120000*%
%ADD14C,0.063500*%
%ADD15C,0.127000*%
%ADD16C,0.304800*%
%ADD17C,0.381000*%
G04 APERTURE END LIST*
D10*
D11*
X18511043Y-6876257D02*
X18525329Y-6881019D01*
X18530091Y-6885781D01*
X18534852Y-6895305D01*
X18534852Y-6909590D01*
X18530091Y-6919114D01*
X18525329Y-6923876D01*
X18515805Y-6928638D01*
X18477710Y-6928638D01*
X18477710Y-6828638D01*
X18511043Y-6828638D01*
X18520567Y-6833400D01*
X18525329Y-6838162D01*
X18530091Y-6847686D01*
X18530091Y-6857209D01*
X18525329Y-6866733D01*
X18520567Y-6871495D01*
X18511043Y-6876257D01*
X18477710Y-6876257D01*
X17527591Y-6887367D02*
X17575210Y-6887367D01*
X17518067Y-6915938D02*
X17551400Y-6815938D01*
X17584733Y-6915938D01*
X18142738Y-10187752D02*
X18042738Y-10187752D01*
X18142738Y-10082991D02*
X18095119Y-10116324D01*
X18142738Y-10140133D02*
X18042738Y-10140133D01*
X18042738Y-10102038D01*
X18047500Y-10092514D01*
X18052262Y-10087752D01*
X18061786Y-10082991D01*
X18076071Y-10082991D01*
X18085595Y-10087752D01*
X18090357Y-10092514D01*
X18095119Y-10102038D01*
X18095119Y-10140133D01*
X18042738Y-9944895D02*
X18042738Y-9925848D01*
X18047500Y-9916324D01*
X18057024Y-9906800D01*
X18076071Y-9902038D01*
X18109405Y-9902038D01*
X18128452Y-9906800D01*
X18137976Y-9916324D01*
X18142738Y-9925848D01*
X18142738Y-9944895D01*
X18137976Y-9954419D01*
X18128452Y-9963943D01*
X18109405Y-9968705D01*
X18076071Y-9968705D01*
X18057024Y-9963943D01*
X18047500Y-9954419D01*
X18042738Y-9944895D01*
X18042738Y-9859181D02*
X18123691Y-9859181D01*
X18133214Y-9854419D01*
X18137976Y-9849657D01*
X18142738Y-9840133D01*
X18142738Y-9821086D01*
X18137976Y-9811562D01*
X18133214Y-9806800D01*
X18123691Y-9802038D01*
X18042738Y-9802038D01*
X18042738Y-9768705D02*
X18042738Y-9711562D01*
X18142738Y-9740133D02*
X18042738Y-9740133D01*
X17793500Y-10032990D02*
X17788738Y-10042514D01*
X17788738Y-10056800D01*
X17793500Y-10071086D01*
X17803024Y-10080610D01*
X17812548Y-10085371D01*
X17831595Y-10090133D01*
X17845881Y-10090133D01*
X17864929Y-10085371D01*
X17874452Y-10080610D01*
X17883976Y-10071086D01*
X17888738Y-10056800D01*
X17888738Y-10047276D01*
X17883976Y-10032990D01*
X17879214Y-10028229D01*
X17845881Y-10028229D01*
X17845881Y-10047276D01*
X17888738Y-9985371D02*
X17788738Y-9985371D01*
X17888738Y-9928229D01*
X17788738Y-9928229D01*
X17888738Y-9880610D02*
X17788738Y-9880610D01*
X17788738Y-9856800D01*
X17793500Y-9842514D01*
X17803024Y-9832990D01*
X17812548Y-9828229D01*
X17831595Y-9823467D01*
X17845881Y-9823467D01*
X17864929Y-9828229D01*
X17874452Y-9832990D01*
X17883976Y-9842514D01*
X17888738Y-9856800D01*
X17888738Y-9880610D01*
X17634738Y-10121086D02*
X17534738Y-10121086D01*
X17634738Y-10016324D02*
X17587119Y-10049657D01*
X17634738Y-10073467D02*
X17534738Y-10073467D01*
X17534738Y-10035371D01*
X17539500Y-10025848D01*
X17544262Y-10021086D01*
X17553786Y-10016324D01*
X17568071Y-10016324D01*
X17577595Y-10021086D01*
X17582357Y-10025848D01*
X17587119Y-10035371D01*
X17587119Y-10073467D01*
X17634738Y-9897276D02*
X17534738Y-9897276D01*
X17634738Y-9849657D02*
X17534738Y-9849657D01*
X17634738Y-9792514D01*
X17534738Y-9792514D01*
X16685414Y-10079824D02*
X16690176Y-10084586D01*
X16694938Y-10098871D01*
X16694938Y-10108395D01*
X16690176Y-10122681D01*
X16680652Y-10132205D01*
X16671129Y-10136967D01*
X16652081Y-10141729D01*
X16637795Y-10141729D01*
X16618748Y-10136967D01*
X16609224Y-10132205D01*
X16599700Y-10122681D01*
X16594938Y-10108395D01*
X16594938Y-10098871D01*
X16599700Y-10084586D01*
X16604462Y-10079824D01*
X16694938Y-9989348D02*
X16694938Y-10036967D01*
X16594938Y-10036967D01*
X16694938Y-9956014D02*
X16594938Y-9956014D01*
X16694938Y-9898871D02*
X16637795Y-9941729D01*
X16594938Y-9898871D02*
X16652081Y-9956014D01*
X16440938Y-10127443D02*
X16340938Y-10127443D01*
X16340938Y-10103633D01*
X16345700Y-10089348D01*
X16355224Y-10079824D01*
X16364748Y-10075062D01*
X16383795Y-10070300D01*
X16398081Y-10070300D01*
X16417129Y-10075062D01*
X16426652Y-10079824D01*
X16436176Y-10089348D01*
X16440938Y-10103633D01*
X16440938Y-10127443D01*
X16412367Y-10032205D02*
X16412367Y-9984586D01*
X16440938Y-10041729D02*
X16340938Y-10008395D01*
X16440938Y-9975062D01*
X16340938Y-9956014D02*
X16340938Y-9898871D01*
X16440938Y-9927443D02*
X16340938Y-9927443D01*
X16091700Y-10096490D02*
X16086938Y-10106014D01*
X16086938Y-10120300D01*
X16091700Y-10134586D01*
X16101224Y-10144110D01*
X16110748Y-10148871D01*
X16129795Y-10153633D01*
X16144081Y-10153633D01*
X16163129Y-10148871D01*
X16172652Y-10144110D01*
X16182176Y-10134586D01*
X16186938Y-10120300D01*
X16186938Y-10110776D01*
X16182176Y-10096490D01*
X16177414Y-10091729D01*
X16144081Y-10091729D01*
X16144081Y-10110776D01*
X16186938Y-10048871D02*
X16086938Y-10048871D01*
X16186938Y-9991729D01*
X16086938Y-9991729D01*
X16186938Y-9944110D02*
X16086938Y-9944110D01*
X16086938Y-9920300D01*
X16091700Y-9906014D01*
X16101224Y-9896490D01*
X16110748Y-9891729D01*
X16129795Y-9886967D01*
X16144081Y-9886967D01*
X16163129Y-9891729D01*
X16172652Y-9896490D01*
X16182176Y-9906014D01*
X16186938Y-9920300D01*
X16186938Y-9944110D01*
X15105862Y-10048871D02*
X15101100Y-10044110D01*
X15096338Y-10034586D01*
X15096338Y-10010776D01*
X15101100Y-10001252D01*
X15105862Y-9996490D01*
X15115386Y-9991729D01*
X15124909Y-9991729D01*
X15139195Y-9996490D01*
X15196338Y-10053633D01*
X15196338Y-9991729D01*
X14942338Y-9991729D02*
X14942338Y-10048871D01*
X14942338Y-10020300D02*
X14842338Y-10020300D01*
X14856624Y-10029824D01*
X14866148Y-10039348D01*
X14870909Y-10048871D01*
X14650243Y-10148871D02*
X14650243Y-10072681D01*
X14688338Y-10110776D02*
X14612148Y-10110776D01*
X14588338Y-9977443D02*
X14588338Y-10025062D01*
X14635957Y-10029824D01*
X14631195Y-10025062D01*
X14626433Y-10015538D01*
X14626433Y-9991729D01*
X14631195Y-9982205D01*
X14635957Y-9977443D01*
X14645481Y-9972681D01*
X14669290Y-9972681D01*
X14678814Y-9977443D01*
X14683576Y-9982205D01*
X14688338Y-9991729D01*
X14688338Y-10015538D01*
X14683576Y-10025062D01*
X14678814Y-10029824D01*
X14588338Y-9944110D02*
X14688338Y-9910776D01*
X14588338Y-9877443D01*
X14339100Y-10096490D02*
X14334338Y-10106014D01*
X14334338Y-10120300D01*
X14339100Y-10134586D01*
X14348624Y-10144110D01*
X14358148Y-10148871D01*
X14377195Y-10153633D01*
X14391481Y-10153633D01*
X14410529Y-10148871D01*
X14420052Y-10144110D01*
X14429576Y-10134586D01*
X14434338Y-10120300D01*
X14434338Y-10110776D01*
X14429576Y-10096490D01*
X14424814Y-10091729D01*
X14391481Y-10091729D01*
X14391481Y-10110776D01*
X14434338Y-10048871D02*
X14334338Y-10048871D01*
X14434338Y-9991729D01*
X14334338Y-9991729D01*
X14434338Y-9944110D02*
X14334338Y-9944110D01*
X14334338Y-9920300D01*
X14339100Y-9906014D01*
X14348624Y-9896490D01*
X14358148Y-9891729D01*
X14377195Y-9886967D01*
X14391481Y-9886967D01*
X14410529Y-9891729D01*
X14420052Y-9896490D01*
X14429576Y-9906014D01*
X14434338Y-9920300D01*
X14434338Y-9944110D01*
X19558010Y-8281200D02*
X19548486Y-8276438D01*
X19534200Y-8276438D01*
X19519914Y-8281200D01*
X19510391Y-8290724D01*
X19505629Y-8300248D01*
X19500867Y-8319295D01*
X19500867Y-8333581D01*
X19505629Y-8352629D01*
X19510391Y-8362152D01*
X19519914Y-8371676D01*
X19534200Y-8376438D01*
X19543724Y-8376438D01*
X19558010Y-8371676D01*
X19562772Y-8366914D01*
X19562772Y-8333581D01*
X19543724Y-8333581D01*
X19605629Y-8376438D02*
X19605629Y-8276438D01*
X19662772Y-8376438D01*
X19662772Y-8276438D01*
X19710391Y-8376438D02*
X19710391Y-8276438D01*
X19734200Y-8276438D01*
X19748486Y-8281200D01*
X19758010Y-8290724D01*
X19762772Y-8300248D01*
X19767533Y-8319295D01*
X19767533Y-8333581D01*
X19762772Y-8352629D01*
X19758010Y-8362152D01*
X19748486Y-8371676D01*
X19734200Y-8376438D01*
X19710391Y-8376438D01*
X19523086Y-8866976D02*
X19537371Y-8871738D01*
X19561181Y-8871738D01*
X19570705Y-8866976D01*
X19575467Y-8862214D01*
X19580229Y-8852691D01*
X19580229Y-8843167D01*
X19575467Y-8833643D01*
X19570705Y-8828881D01*
X19561181Y-8824119D01*
X19542133Y-8819357D01*
X19532610Y-8814595D01*
X19527848Y-8809833D01*
X19523086Y-8800310D01*
X19523086Y-8790786D01*
X19527848Y-8781262D01*
X19532610Y-8776500D01*
X19542133Y-8771738D01*
X19565943Y-8771738D01*
X19580229Y-8776500D01*
X19613562Y-8771738D02*
X19637371Y-8871738D01*
X19656419Y-8800310D01*
X19675467Y-8871738D01*
X19699276Y-8771738D01*
X19603243Y-8565357D02*
X19617529Y-8570119D01*
X19622291Y-8574881D01*
X19627052Y-8584405D01*
X19627052Y-8598691D01*
X19622291Y-8608214D01*
X19617529Y-8612976D01*
X19608005Y-8617738D01*
X19569910Y-8617738D01*
X19569910Y-8517738D01*
X19603243Y-8517738D01*
X19612767Y-8522500D01*
X19617529Y-8527262D01*
X19622291Y-8536786D01*
X19622291Y-8546310D01*
X19617529Y-8555833D01*
X19612767Y-8560595D01*
X19603243Y-8565357D01*
X19569910Y-8565357D01*
X19572291Y-8106567D02*
X19619910Y-8106567D01*
X19562767Y-8135138D02*
X19596100Y-8035138D01*
X19629433Y-8135138D01*
D12*
X10657000Y-6722000D02*
X11057000Y-6722000D01*
X10657000Y-7022000D02*
X11057000Y-7022000D01*
X11157000Y-6822000D02*
G75*
G03X11057000Y-6722000I-100000J0D01*
G01*
X11057000Y-7022000D02*
G75*
G03X11157000Y-6922000I0J100000D01*
G01*
X11157000Y-6922000D02*
X11157000Y-6822000D01*
X10557000Y-6922000D02*
X10557000Y-6822000D01*
X10557000Y-6922000D02*
G75*
G03X10657000Y-7022000I100000J0D01*
G01*
X10657000Y-6722000D02*
G75*
G03X10557000Y-6822000I0J-100000D01*
G01*
X19887000Y-10022000D02*
G75*
G03X19987000Y-10122000I100000J0D01*
G01*
X11057000Y-10122000D02*
G75*
G03X11157000Y-10022000I0J100000D01*
G01*
X20387000Y-10122000D02*
G75*
G03X20487000Y-10022000I0J100000D01*
G01*
X11157000Y-9922000D02*
G75*
G03X11057000Y-9822000I-100000J0D01*
G01*
X20487000Y-9922000D02*
G75*
G03X20387000Y-9822000I-100000J0D01*
G01*
X10557000Y-10022000D02*
G75*
G03X10657000Y-10122000I100000J0D01*
G01*
X10657000Y-9822000D02*
X11057000Y-9822000D01*
X19987000Y-9822000D02*
X20387000Y-9822000D01*
X10557000Y-10022000D02*
X10557000Y-9922000D01*
X19887000Y-10022000D02*
X19887000Y-9922000D01*
X10657000Y-9822000D02*
G75*
G03X10557000Y-9922000I0J-100000D01*
G01*
X19987000Y-9822000D02*
G75*
G03X19887000Y-9922000I0J-100000D01*
G01*
X10657000Y-10122000D02*
X11057000Y-10122000D01*
X19987000Y-10122000D02*
X20387000Y-10122000D01*
X11157000Y-10022000D02*
X11157000Y-9922000D01*
X20487000Y-10022000D02*
X20487000Y-9922000D01*
X19817000Y-7022000D02*
X20217000Y-7022000D01*
X19717000Y-6922000D02*
G75*
G03X19817000Y-7022000I100000J0D01*
G01*
X19717000Y-6922000D02*
X19717000Y-6822000D01*
X19817000Y-6722000D02*
G75*
G03X19717000Y-6822000I0J-100000D01*
G01*
X19817000Y-6722000D02*
X20217000Y-6722000D01*
X20317000Y-6822000D02*
G75*
G03X20217000Y-6722000I-100000J0D01*
G01*
X20317000Y-6922000D02*
X20317000Y-6822000D01*
X20217000Y-7022000D02*
G75*
G03X20317000Y-6922000I0J100000D01*
G01*
X11487000Y-7022000D02*
X11887000Y-7022000D01*
X18987000Y-10122000D02*
X19387000Y-10122000D01*
X11487000Y-10122000D02*
X11887000Y-10122000D01*
X11387000Y-6922000D02*
X11387000Y-6822000D01*
X18887000Y-10022000D02*
X18887000Y-9922000D01*
X11387000Y-10022000D02*
X11387000Y-9922000D01*
X11387000Y-6922000D02*
G75*
G03X11487000Y-7022000I100000J0D01*
G01*
X18887000Y-10022000D02*
G75*
G03X18987000Y-10122000I100000J0D01*
G01*
X11387000Y-10022000D02*
G75*
G03X11487000Y-10122000I100000J0D01*
G01*
X11487000Y-6722000D02*
X11887000Y-6722000D01*
X18987000Y-9822000D02*
X19387000Y-9822000D01*
X11487000Y-9822000D02*
X11887000Y-9822000D01*
X11987000Y-6822000D02*
G75*
G03X11887000Y-6722000I-100000J0D01*
G01*
X19487000Y-9922000D02*
G75*
G03X19387000Y-9822000I-100000J0D01*
G01*
X11987000Y-9922000D02*
G75*
G03X11887000Y-9822000I-100000J0D01*
G01*
X11887000Y-7022000D02*
G75*
G03X11987000Y-6922000I0J100000D01*
G01*
X19387000Y-10122000D02*
G75*
G03X19487000Y-10022000I0J100000D01*
G01*
X11887000Y-10122000D02*
G75*
G03X11987000Y-10022000I0J100000D01*
G01*
X11487000Y-6722000D02*
G75*
G03X11387000Y-6822000I0J-100000D01*
G01*
X18987000Y-9822000D02*
G75*
G03X18887000Y-9922000I0J-100000D01*
G01*
X11487000Y-9822000D02*
G75*
G03X11387000Y-9922000I0J-100000D01*
G01*
X11987000Y-6922000D02*
X11987000Y-6822000D01*
X19487000Y-10022000D02*
X19487000Y-9922000D01*
X11987000Y-10022000D02*
X11987000Y-9922000D01*
X19487000Y-6922000D02*
X19487000Y-6822000D01*
X18887000Y-6922000D02*
X18887000Y-6822000D01*
X18987000Y-6722000D02*
X19387000Y-6722000D01*
X18987000Y-7022000D02*
X19387000Y-7022000D01*
X19487000Y-6822000D02*
G75*
G03X19387000Y-6722000I-100000J0D01*
G01*
X19387000Y-7022000D02*
G75*
G03X19487000Y-6922000I0J100000D01*
G01*
X18987000Y-6722000D02*
G75*
G03X18887000Y-6822000I0J-100000D01*
G01*
X18887000Y-6922000D02*
G75*
G03X18987000Y-7022000I100000J0D01*
G01*
D10*
X10287000Y-6472000D02*
X10287000Y-6622000D01*
X20637000Y-6472000D02*
X10287000Y-6472000D01*
X20637000Y-10922000D02*
X20637000Y-6472000D01*
X10287000Y-10922000D02*
X20637000Y-10922000D01*
X10287000Y-6604000D02*
X10287000Y-10922000D01*
D11*
X13164751Y-7984489D02*
G75*
G03X13004800Y-7845200I-149951J-10711D01*
G01*
X11514800Y-8745200D02*
X11954800Y-8745200D01*
X11404800Y-8675200D02*
X12054800Y-8675200D01*
X11344800Y-8605200D02*
X12114800Y-8605200D01*
X11304800Y-8535200D02*
X12164800Y-8535200D01*
X11274800Y-8465200D02*
X12184800Y-8465200D01*
X11264800Y-8395200D02*
X12204800Y-8395200D01*
X11254800Y-8325200D02*
X12214800Y-8325200D01*
X13164800Y-8645200D02*
X13164800Y-7985200D01*
X11734800Y-8805200D02*
X13024800Y-8805200D01*
X11734800Y-7845200D02*
X13004800Y-7845200D01*
X12214904Y-8325200D02*
G75*
G03X12214904Y-8325200I-480104J0D01*
G01*
X13025511Y-8805151D02*
G75*
G03X13164800Y-8645200I-10711J149951D01*
G01*
X10943336Y-7844536D02*
X11019536Y-7844536D01*
X10943336Y-7895336D02*
X11019536Y-7895336D01*
X10740136Y-7844536D02*
G75*
G03X10879836Y-8035036I165100J-25400D01*
G01*
X10892536Y-7704836D02*
G75*
G03X10740136Y-7882636I12700J-165100D01*
G01*
X10816336Y-8009636D02*
G75*
G03X11044936Y-7958836I88900J139700D01*
G01*
X11044936Y-7781036D02*
G75*
G03X10816336Y-7730236I-139700J-88900D01*
G01*
X10524236Y-7539736D02*
X10536936Y-7539736D01*
X10905236Y-7539736D02*
X10765536Y-7539736D01*
X10524236Y-8200136D02*
X10536936Y-8200136D01*
X10905236Y-8200136D02*
X10765536Y-8200136D01*
X10613136Y-7755636D02*
X10600436Y-7793736D01*
X10600436Y-7793736D02*
X10587736Y-7869936D01*
X10587736Y-7869936D02*
X10600436Y-7946136D01*
X10600436Y-7946136D02*
X10613136Y-7984236D01*
X10702036Y-7742936D02*
X10702036Y-7996936D01*
X10778236Y-8162036D02*
G75*
G03X11197336Y-7996936I127000J292100D01*
G01*
X11197336Y-7742936D02*
G75*
G03X10778236Y-7577836I-292100J-127000D01*
G01*
X11235436Y-8073136D02*
X11235436Y-7984236D01*
X11235436Y-7755636D02*
X11235436Y-7666736D01*
X10943336Y-8035036D02*
X10943336Y-8085836D01*
X10943336Y-8085836D02*
X10867136Y-8085836D01*
X10867136Y-8085836D02*
X10867136Y-8035036D01*
X10943336Y-7704836D02*
X10943336Y-7654036D01*
X10943336Y-7654036D02*
X10867136Y-7654036D01*
X10867136Y-7654036D02*
X10867136Y-7704836D01*
X10879836Y-7920736D02*
X10879836Y-8035036D01*
X10930636Y-7920736D02*
X10930636Y-8035036D01*
X10879836Y-7819136D02*
X10879836Y-7704836D01*
X10930636Y-7819136D02*
X10930636Y-7704836D01*
X10867136Y-7895336D02*
X10740136Y-7895336D01*
X10867136Y-7844536D02*
X10740136Y-7844536D01*
X10943336Y-7819136D02*
X10867136Y-7819136D01*
X10867136Y-7819136D02*
X10867136Y-7920736D01*
X10867136Y-7920736D02*
X10943336Y-7920736D01*
X10943336Y-7920736D02*
X10943336Y-7819136D01*
X11235436Y-7666736D02*
X11095736Y-7539736D01*
X11095736Y-7539736D02*
X10905236Y-7539736D01*
X11235436Y-8073136D02*
X11095736Y-8200136D01*
X11095736Y-8200136D02*
X10905236Y-8200136D01*
X10524236Y-8174736D02*
X10498836Y-8174736D01*
X10498836Y-8174736D02*
X10498836Y-8060436D01*
X10498836Y-8060436D02*
X10524236Y-8060436D01*
X10524236Y-7565136D02*
X10498836Y-7565136D01*
X10498836Y-7565136D02*
X10498836Y-7679436D01*
X10498836Y-7679436D02*
X10524236Y-7679436D01*
X10524236Y-7539736D02*
X10524236Y-8200136D01*
X14727600Y-8654600D02*
X14177600Y-8654600D01*
X14728462Y-8643738D02*
G75*
G03X14728462Y-8643738I-275862J0D01*
G01*
D13*
X14452600Y-8204600D02*
X14452600Y-8324600D01*
X14517600Y-8264600D02*
X14387600Y-8264600D01*
D11*
X14727600Y-8664600D02*
X14177600Y-8664600D01*
X14722600Y-8674600D02*
X14182600Y-8674600D01*
X14722600Y-8684600D02*
X14182600Y-8684600D01*
X14722600Y-8694600D02*
X14182600Y-8694600D01*
X14717600Y-8704600D02*
X14187600Y-8704600D01*
X14712600Y-8714600D02*
X14187600Y-8714600D01*
X14712600Y-8724600D02*
X14192600Y-8724600D01*
X14712600Y-8734600D02*
X14192600Y-8734600D01*
X14707600Y-8744600D02*
X14197600Y-8744600D01*
X14702600Y-8754600D02*
X14202600Y-8754600D01*
X14697600Y-8764600D02*
X14207600Y-8764600D01*
X14692600Y-8774600D02*
X14222600Y-8774600D01*
X14687600Y-8784600D02*
X14222600Y-8784600D01*
X14682600Y-8794600D02*
X14222600Y-8794600D01*
X14672600Y-8804600D02*
X14232600Y-8804600D01*
X14662600Y-8814600D02*
X14242600Y-8814600D01*
X14657600Y-8824600D02*
X14252600Y-8824600D01*
X14647600Y-8834600D02*
X14257600Y-8834600D01*
X14637600Y-8844600D02*
X14267600Y-8844600D01*
X14627600Y-8854600D02*
X14277600Y-8854600D01*
X14612600Y-8864600D02*
X14287600Y-8864600D01*
X14602600Y-8874600D02*
X14302600Y-8874600D01*
X14582600Y-8884600D02*
X14322600Y-8884600D01*
X14562600Y-8894600D02*
X14342600Y-8894600D01*
X14542600Y-8904600D02*
X14367600Y-8904600D01*
D14*
X11939256Y-6872000D02*
G75*
G03X11939256Y-6872000I-252166J0D01*
G01*
X19439473Y-6872000D02*
G75*
G03X19439473Y-6872000I-252525J0D01*
G01*
X19439473Y-9971816D02*
G75*
G03X19439473Y-9971816I-252525J0D01*
G01*
X11939256Y-9971816D02*
G75*
G03X11939256Y-9971816I-252166J0D01*
G01*
D15*
X11775456Y-6872000D02*
G75*
G03X11775456Y-6872000I-88366J0D01*
G01*
X11562122Y-6872000D02*
X11812058Y-6872000D01*
X11687090Y-6996968D02*
X11687090Y-6747032D01*
X19275314Y-6872000D02*
G75*
G03X19275314Y-6872000I-88366J0D01*
G01*
X19061980Y-6872000D02*
X19311916Y-6872000D01*
X19186948Y-6996968D02*
X19186948Y-6747032D01*
X11775456Y-9971816D02*
G75*
G03X11775456Y-9971816I-88366J0D01*
G01*
X11562122Y-9971816D02*
X11812058Y-9971816D01*
X11687090Y-10096784D02*
X11687090Y-9846848D01*
X19275314Y-9971816D02*
G75*
G03X19275314Y-9971816I-88366J0D01*
G01*
X19061980Y-9971816D02*
X19311916Y-9971816D01*
X19186948Y-10096784D02*
X19186948Y-9846848D01*
D13*
X16704000Y-7214000D02*
X17064000Y-7214000D01*
X16700152Y-7212848D02*
G75*
G02X16884000Y-6769000I183848J183848D01*
G01*
X17067848Y-7212848D02*
G75*
G03X16884000Y-6769000I-183848J183848D01*
G01*
D16*
X13544000Y-7490080D02*
X13544000Y-7993000D01*
X13544000Y-7993000D02*
X13290000Y-7993000D01*
X13290000Y-7993000D02*
X13290000Y-7485000D01*
X13290000Y-7485000D02*
X13544000Y-7485000D01*
X13480500Y-7485000D02*
X13544000Y-7548500D01*
D11*
X17342000Y-10237000D02*
X18332000Y-10237000D01*
X17342000Y-10812000D02*
X18332000Y-10812000D01*
X17342000Y-10237000D02*
X17342000Y-10812000D01*
X18332000Y-10237000D02*
X18332000Y-10812000D01*
X17537000Y-10922000D02*
X17637000Y-10922000D01*
X17587000Y-10872000D02*
X17637000Y-10922000D01*
X17587000Y-10872000D02*
X17537000Y-10922000D01*
X14142000Y-10237000D02*
X15382000Y-10237000D01*
X14142000Y-10812000D02*
X15382000Y-10812000D01*
X14142000Y-10237000D02*
X14142000Y-10812000D01*
X15382000Y-10237000D02*
X15382000Y-10812000D01*
X14337000Y-10922000D02*
X14437000Y-10922000D01*
X14387000Y-10872000D02*
X14437000Y-10922000D01*
X14387000Y-10872000D02*
X14337000Y-10922000D01*
X15892000Y-10237000D02*
X16882000Y-10237000D01*
X15892000Y-10812000D02*
X16882000Y-10812000D01*
X15892000Y-10237000D02*
X15892000Y-10812000D01*
X16882000Y-10237000D02*
X16882000Y-10812000D01*
X16087000Y-10922000D02*
X16187000Y-10922000D01*
X16137000Y-10872000D02*
X16187000Y-10922000D01*
X16137000Y-10872000D02*
X16087000Y-10922000D01*
D13*
X17910000Y-7011000D02*
X18430000Y-7011000D01*
X18430000Y-7011000D02*
X18430000Y-6733000D01*
X18430000Y-6733000D02*
X17910000Y-6733000D01*
X17910000Y-6733000D02*
X17910000Y-7011000D01*
X17783000Y-7011000D02*
X17644000Y-7011000D01*
X17644000Y-7011000D02*
X17644000Y-6872000D01*
D16*
X16146000Y-7445000D02*
X16146000Y-7699000D01*
X16146000Y-7699000D02*
X13860000Y-7699000D01*
X13860000Y-7699000D02*
X13860000Y-7445000D01*
X16146000Y-7445000D02*
X13860000Y-7445000D01*
X14114000Y-7445000D02*
X14114000Y-7699000D01*
X12029000Y-9232000D02*
X12130600Y-9232000D01*
X12130600Y-9232000D02*
X12130600Y-9130400D01*
X12130600Y-9130400D02*
X12943400Y-9130400D01*
X12943400Y-9130400D02*
X12943400Y-9333600D01*
X12943400Y-9333600D02*
X12130600Y-9333600D01*
X12130600Y-9333600D02*
X12130600Y-9232000D01*
X12130600Y-9181200D02*
X12181400Y-9130400D01*
X13045000Y-9232000D02*
X12943400Y-9232000D01*
X16379000Y-7522000D02*
X16480600Y-7522000D01*
X16480600Y-7522000D02*
X16480600Y-7420400D01*
X16480600Y-7420400D02*
X17293400Y-7420400D01*
X17293400Y-7420400D02*
X17293400Y-7623600D01*
X17293400Y-7623600D02*
X16480600Y-7623600D01*
X16480600Y-7623600D02*
X16480600Y-7522000D01*
X16480600Y-7471200D02*
X16531400Y-7420400D01*
X17395000Y-7522000D02*
X17293400Y-7522000D01*
X13467000Y-8524000D02*
X13467000Y-8625600D01*
X13467000Y-8625600D02*
X13568600Y-8625600D01*
X13568600Y-8625600D02*
X13568600Y-9438400D01*
X13568600Y-9438400D02*
X13365400Y-9438400D01*
X13365400Y-9438400D02*
X13365400Y-8625600D01*
X13365400Y-8625600D02*
X13467000Y-8625600D01*
X13517800Y-8625600D02*
X13568600Y-8676400D01*
X13467000Y-9540000D02*
X13467000Y-9438400D01*
D13*
X16868000Y-9103000D02*
X16356000Y-9103000D01*
X16868000Y-8841000D02*
X16356000Y-8841000D01*
X16868000Y-9103000D02*
X16868000Y-8841000D01*
X16356000Y-9103000D02*
X16356000Y-8841000D01*
X16868000Y-8553000D02*
X16356000Y-8553000D01*
X16868000Y-8291000D02*
X16356000Y-8291000D01*
X16868000Y-8553000D02*
X16868000Y-8291000D01*
X16356000Y-8553000D02*
X16356000Y-8291000D01*
D17*
X13733000Y-8557000D02*
X13860000Y-8557000D01*
X13860000Y-8557000D02*
X13860000Y-8811000D01*
X13860000Y-8811000D02*
X13733000Y-8811000D01*
X13733000Y-8049000D02*
X19067000Y-8049000D01*
X19067000Y-8049000D02*
X19067000Y-9319000D01*
X19067000Y-9319000D02*
X13733000Y-9319000D01*
X13733000Y-9319000D02*
X13733000Y-8049000D01*
X12158000Y-9884000D02*
X12285000Y-9884000D01*
X12285000Y-9884000D02*
X12285000Y-10138000D01*
X12285000Y-10138000D02*
X12158000Y-10138000D01*
X12158000Y-9757000D02*
X13174000Y-9757000D01*
X13174000Y-9757000D02*
X13174000Y-10265000D01*
X13174000Y-10265000D02*
X12158000Y-10265000D01*
X12158000Y-10265000D02*
X12158000Y-9757000D01*
D13*
X17318500Y-8924500D02*
G75*
G02X17318500Y-8419500I0J252500D01*
G01*
X17943500Y-8924500D02*
G75*
G03X17943500Y-8419500I0J252500D01*
G01*
X17318500Y-8419500D02*
X17943500Y-8419500D01*
X17318500Y-8924500D02*
X17943500Y-8924500D01*
D11*
X20422000Y-7827000D02*
X20422000Y-9067000D01*
X19847000Y-7827000D02*
X19847000Y-9067000D01*
X20422000Y-7827000D02*
X19847000Y-7827000D01*
X20422000Y-9067000D02*
X19847000Y-9067000D01*
X19737000Y-8022000D02*
X19737000Y-8122000D01*
X19787000Y-8072000D02*
X19737000Y-8122000D01*
X19787000Y-8072000D02*
X19737000Y-8022000D01*
D16*
X15137000Y-8722000D02*
X15238600Y-8722000D01*
X15238600Y-8722000D02*
X15238600Y-8620400D01*
X15238600Y-8620400D02*
X16051400Y-8620400D01*
X16051400Y-8620400D02*
X16051400Y-8823600D01*
X16051400Y-8823600D02*
X15238600Y-8823600D01*
X15238600Y-8823600D02*
X15238600Y-8722000D01*
X15238600Y-8671200D02*
X15289400Y-8620400D01*
X16153000Y-8722000D02*
X16051400Y-8722000D01*
D11*
X11794333Y-7782714D02*
X11789571Y-7787476D01*
X11775286Y-7792238D01*
X11765762Y-7792238D01*
X11751476Y-7787476D01*
X11741952Y-7777952D01*
X11737190Y-7768429D01*
X11732429Y-7749381D01*
X11732429Y-7735095D01*
X11737190Y-7716048D01*
X11741952Y-7706524D01*
X11751476Y-7697000D01*
X11765762Y-7692238D01*
X11775286Y-7692238D01*
X11789571Y-7697000D01*
X11794333Y-7701762D01*
X11827667Y-7692238D02*
X11889571Y-7692238D01*
X11856238Y-7730333D01*
X11870524Y-7730333D01*
X11880048Y-7735095D01*
X11884810Y-7739857D01*
X11889571Y-7749381D01*
X11889571Y-7773190D01*
X11884810Y-7782714D01*
X11880048Y-7787476D01*
X11870524Y-7792238D01*
X11841952Y-7792238D01*
X11832429Y-7787476D01*
X11827667Y-7782714D01*
X10862476Y-7411238D02*
X10829143Y-7363619D01*
X10805333Y-7411238D02*
X10805333Y-7311238D01*
X10843429Y-7311238D01*
X10852952Y-7316000D01*
X10857714Y-7320762D01*
X10862476Y-7330286D01*
X10862476Y-7344571D01*
X10857714Y-7354095D01*
X10852952Y-7358857D01*
X10843429Y-7363619D01*
X10805333Y-7363619D01*
X10891048Y-7311238D02*
X10924381Y-7411238D01*
X10957714Y-7311238D01*
X11043429Y-7411238D02*
X10986286Y-7411238D01*
X11014857Y-7411238D02*
X11014857Y-7311238D01*
X11005333Y-7325524D01*
X10995810Y-7335048D01*
X10986286Y-7339809D01*
X14435933Y-9052714D02*
X14431171Y-9057476D01*
X14416886Y-9062238D01*
X14407362Y-9062238D01*
X14393076Y-9057476D01*
X14383552Y-9047952D01*
X14378790Y-9038429D01*
X14374029Y-9019381D01*
X14374029Y-9005095D01*
X14378790Y-8986048D01*
X14383552Y-8976524D01*
X14393076Y-8967000D01*
X14407362Y-8962238D01*
X14416886Y-8962238D01*
X14431171Y-8967000D01*
X14435933Y-8971762D01*
X14531171Y-9062238D02*
X14474029Y-9062238D01*
X14502600Y-9062238D02*
X14502600Y-8962238D01*
X14493076Y-8976524D01*
X14483552Y-8986048D01*
X14474029Y-8990810D01*
X16887476Y-7363762D02*
X16877952Y-7359000D01*
X16868429Y-7349476D01*
X16854143Y-7335190D01*
X16844619Y-7330429D01*
X16835095Y-7330429D01*
X16839857Y-7354238D02*
X16830333Y-7349476D01*
X16820810Y-7339952D01*
X16816048Y-7320905D01*
X16816048Y-7287571D01*
X16820810Y-7268524D01*
X16830333Y-7259000D01*
X16839857Y-7254238D01*
X16858905Y-7254238D01*
X16868429Y-7259000D01*
X16877952Y-7268524D01*
X16882714Y-7287571D01*
X16882714Y-7320905D01*
X16877952Y-7339952D01*
X16868429Y-7349476D01*
X16858905Y-7354238D01*
X16839857Y-7354238D01*
X16977952Y-7354238D02*
X16920810Y-7354238D01*
X16949381Y-7354238D02*
X16949381Y-7254238D01*
X16939857Y-7268524D01*
X16930333Y-7278048D01*
X16920810Y-7282809D01*
X13095533Y-7774714D02*
X13090771Y-7779476D01*
X13076486Y-7784238D01*
X13066962Y-7784238D01*
X13052676Y-7779476D01*
X13043152Y-7769952D01*
X13038390Y-7760429D01*
X13033629Y-7741381D01*
X13033629Y-7727095D01*
X13038390Y-7708048D01*
X13043152Y-7698524D01*
X13052676Y-7689000D01*
X13066962Y-7684238D01*
X13076486Y-7684238D01*
X13090771Y-7689000D01*
X13095533Y-7693762D01*
X13133629Y-7693762D02*
X13138390Y-7689000D01*
X13147914Y-7684238D01*
X13171724Y-7684238D01*
X13181248Y-7689000D01*
X13186010Y-7693762D01*
X13190771Y-7703286D01*
X13190771Y-7712809D01*
X13186010Y-7727095D01*
X13128867Y-7784238D01*
X13190771Y-7784238D01*
X17149767Y-10422738D02*
X17149767Y-10494167D01*
X17145005Y-10508452D01*
X17135481Y-10517976D01*
X17121195Y-10522738D01*
X17111671Y-10522738D01*
X17249767Y-10522738D02*
X17192624Y-10522738D01*
X17221195Y-10522738D02*
X17221195Y-10422738D01*
X17211671Y-10437024D01*
X17202148Y-10446548D01*
X17192624Y-10451310D01*
X13962067Y-10435438D02*
X13962067Y-10506867D01*
X13957305Y-10521152D01*
X13947781Y-10530676D01*
X13933495Y-10535438D01*
X13923971Y-10535438D01*
X14004924Y-10444962D02*
X14009686Y-10440200D01*
X14019209Y-10435438D01*
X14043019Y-10435438D01*
X14052543Y-10440200D01*
X14057305Y-10444962D01*
X14062067Y-10454486D01*
X14062067Y-10464010D01*
X14057305Y-10478295D01*
X14000162Y-10535438D01*
X14062067Y-10535438D01*
X15701967Y-10422738D02*
X15701967Y-10494167D01*
X15697205Y-10508452D01*
X15687681Y-10517976D01*
X15673395Y-10522738D01*
X15663871Y-10522738D01*
X15740062Y-10422738D02*
X15801967Y-10422738D01*
X15768633Y-10460833D01*
X15782919Y-10460833D01*
X15792443Y-10465595D01*
X15797205Y-10470357D01*
X15801967Y-10479881D01*
X15801967Y-10503691D01*
X15797205Y-10513214D01*
X15792443Y-10517976D01*
X15782919Y-10522738D01*
X15754348Y-10522738D01*
X15744824Y-10517976D01*
X15740062Y-10513214D01*
X17960191Y-7157238D02*
X17960191Y-7057238D01*
X17998286Y-7057238D01*
X18007810Y-7062000D01*
X18012572Y-7066762D01*
X18017333Y-7076286D01*
X18017333Y-7090571D01*
X18012572Y-7100095D01*
X18007810Y-7104857D01*
X17998286Y-7109619D01*
X17960191Y-7109619D01*
X18112572Y-7157238D02*
X18055429Y-7157238D01*
X18084000Y-7157238D02*
X18084000Y-7057238D01*
X18074476Y-7071524D01*
X18064952Y-7081048D01*
X18055429Y-7085809D01*
X11770333Y-9277238D02*
X11737000Y-9229619D01*
X11713190Y-9277238D02*
X11713190Y-9177238D01*
X11751286Y-9177238D01*
X11760810Y-9182000D01*
X11765571Y-9186762D01*
X11770333Y-9196286D01*
X11770333Y-9210571D01*
X11765571Y-9220095D01*
X11760810Y-9224857D01*
X11751286Y-9229619D01*
X11713190Y-9229619D01*
X11808429Y-9186762D02*
X11813190Y-9182000D01*
X11822714Y-9177238D01*
X11846524Y-9177238D01*
X11856048Y-9182000D01*
X11860810Y-9186762D01*
X11865571Y-9196286D01*
X11865571Y-9205810D01*
X11860810Y-9220095D01*
X11803667Y-9277238D01*
X11865571Y-9277238D01*
X17620333Y-7567238D02*
X17587000Y-7519619D01*
X17563191Y-7567238D02*
X17563191Y-7467238D01*
X17601286Y-7467238D01*
X17610810Y-7472000D01*
X17615572Y-7476762D01*
X17620333Y-7486286D01*
X17620333Y-7500571D01*
X17615572Y-7510095D01*
X17610810Y-7514857D01*
X17601286Y-7519619D01*
X17563191Y-7519619D01*
X17653667Y-7467238D02*
X17715572Y-7467238D01*
X17682238Y-7505333D01*
X17696524Y-7505333D01*
X17706048Y-7510095D01*
X17710810Y-7514857D01*
X17715572Y-7524381D01*
X17715572Y-7548190D01*
X17710810Y-7557714D01*
X17706048Y-7562476D01*
X17696524Y-7567238D01*
X17667952Y-7567238D01*
X17658429Y-7562476D01*
X17653667Y-7557714D01*
X13458033Y-9836938D02*
X13424700Y-9789319D01*
X13400890Y-9836938D02*
X13400890Y-9736938D01*
X13438986Y-9736938D01*
X13448510Y-9741700D01*
X13453271Y-9746462D01*
X13458033Y-9755986D01*
X13458033Y-9770271D01*
X13453271Y-9779795D01*
X13448510Y-9784557D01*
X13438986Y-9789319D01*
X13400890Y-9789319D01*
X13543748Y-9770271D02*
X13543748Y-9836938D01*
X13519938Y-9732176D02*
X13496129Y-9803605D01*
X13558033Y-9803605D01*
X16170333Y-9007714D02*
X16165571Y-9012476D01*
X16151286Y-9017238D01*
X16141762Y-9017238D01*
X16127476Y-9012476D01*
X16117952Y-9002952D01*
X16113190Y-8993429D01*
X16108429Y-8974381D01*
X16108429Y-8960095D01*
X16113190Y-8941048D01*
X16117952Y-8931524D01*
X16127476Y-8922000D01*
X16141762Y-8917238D01*
X16151286Y-8917238D01*
X16165571Y-8922000D01*
X16170333Y-8926762D01*
X16256048Y-8950571D02*
X16256048Y-9017238D01*
X16232238Y-8912476D02*
X16208429Y-8983905D01*
X16270333Y-8983905D01*
X16170333Y-8457714D02*
X16165571Y-8462476D01*
X16151286Y-8467238D01*
X16141762Y-8467238D01*
X16127476Y-8462476D01*
X16117952Y-8452952D01*
X16113190Y-8443429D01*
X16108429Y-8424381D01*
X16108429Y-8410095D01*
X16113190Y-8391048D01*
X16117952Y-8381524D01*
X16127476Y-8372000D01*
X16141762Y-8367238D01*
X16151286Y-8367238D01*
X16165571Y-8372000D01*
X16170333Y-8376762D01*
X16260810Y-8367238D02*
X16213190Y-8367238D01*
X16208429Y-8414857D01*
X16213190Y-8410095D01*
X16222714Y-8405333D01*
X16246524Y-8405333D01*
X16256048Y-8410095D01*
X16260810Y-8414857D01*
X16265571Y-8424381D01*
X16265571Y-8448191D01*
X16260810Y-8457714D01*
X16256048Y-8462476D01*
X16246524Y-8467238D01*
X16222714Y-8467238D01*
X16213190Y-8462476D01*
X16208429Y-8457714D01*
X12589809Y-9930838D02*
X12589809Y-10011791D01*
X12594571Y-10021314D01*
X12599333Y-10026076D01*
X12608857Y-10030838D01*
X12627905Y-10030838D01*
X12637429Y-10026076D01*
X12642190Y-10021314D01*
X12646952Y-10011791D01*
X12646952Y-9930838D01*
X12689809Y-9940362D02*
X12694571Y-9935600D01*
X12704095Y-9930838D01*
X12727905Y-9930838D01*
X12737429Y-9935600D01*
X12742190Y-9940362D01*
X12746952Y-9949886D01*
X12746952Y-9959410D01*
X12742190Y-9973695D01*
X12685048Y-10030838D01*
X12746952Y-10030838D01*
X17583381Y-8317119D02*
X17583381Y-8364738D01*
X17550048Y-8264738D02*
X17583381Y-8317119D01*
X17616714Y-8264738D01*
X17702429Y-8364738D02*
X17645286Y-8364738D01*
X17673857Y-8364738D02*
X17673857Y-8264738D01*
X17664333Y-8279024D01*
X17654810Y-8288548D01*
X17645286Y-8293309D01*
X19983467Y-7698576D02*
X19997752Y-7703338D01*
X20021562Y-7703338D01*
X20031086Y-7698576D01*
X20035848Y-7693814D01*
X20040610Y-7684290D01*
X20040610Y-7674767D01*
X20035848Y-7665243D01*
X20031086Y-7660481D01*
X20021562Y-7655719D01*
X20002514Y-7650957D01*
X19992991Y-7646195D01*
X19988229Y-7641433D01*
X19983467Y-7631909D01*
X19983467Y-7622386D01*
X19988229Y-7612862D01*
X19992991Y-7608100D01*
X20002514Y-7603338D01*
X20026324Y-7603338D01*
X20040610Y-7608100D01*
X20073943Y-7603338D02*
X20097752Y-7703338D01*
X20116800Y-7631909D01*
X20135848Y-7703338D01*
X20159657Y-7603338D01*
X20250133Y-7703338D02*
X20192991Y-7703338D01*
X20221562Y-7703338D02*
X20221562Y-7603338D01*
X20212038Y-7617624D01*
X20202514Y-7627148D01*
X20192991Y-7631909D01*
X15670333Y-8567238D02*
X15637000Y-8519619D01*
X15613190Y-8567238D02*
X15613190Y-8467238D01*
X15651286Y-8467238D01*
X15660810Y-8472000D01*
X15665571Y-8476762D01*
X15670333Y-8486286D01*
X15670333Y-8500571D01*
X15665571Y-8510095D01*
X15660810Y-8514857D01*
X15651286Y-8519619D01*
X15613190Y-8519619D01*
X15765571Y-8567238D02*
X15708429Y-8567238D01*
X15737000Y-8567238D02*
X15737000Y-8467238D01*
X15727476Y-8481524D01*
X15717952Y-8491048D01*
X15708429Y-8495810D01*
M02*
