G04 #@! TF.FileFunction,Soldermask,Bot*
%FSLAX45Y45*%
G04 Gerber Fmt 4.5, Leading zero omitted, Abs format (unit mm)*
G04 Created by KiCad (PCBNEW 4.0.6) date 08/17/17 22:48:44*
%MOMM*%
%LPD*%
G01*
G04 APERTURE LIST*
%ADD10C,0.100000*%
%ADD11C,0.200000*%
%ADD12O,3.000000X1.600000*%
%ADD13C,2.499360*%
%ADD14R,2.000000X1.600000*%
%ADD15O,2.000000X1.600000*%
%ADD16O,1.930400X3.860800*%
%ADD17O,1.300000X1.800000*%
%ADD18O,2.500000X1.651000*%
%ADD19R,1.500000X3.000000*%
%ADD20O,1.500000X3.000000*%
%ADD21R,1.700000X4.000000*%
%ADD22O,1.700000X4.000000*%
%ADD23R,1.651000X2.500000*%
%ADD24O,1.651000X2.500000*%
%ADD25C,2.500000*%
%ADD26O,1.600000X2.500000*%
%ADD27R,1.574800X3.000000*%
%ADD28O,1.574800X3.000000*%
%ADD29O,2.500000X2.500000*%
%ADD30R,3.000000X1.500000*%
%ADD31O,3.000000X1.500000*%
G04 APERTURE END LIST*
D10*
D11*
X10657000Y-6722000D02*
X11057000Y-6722000D01*
X10657000Y-7022000D02*
X11057000Y-7022000D01*
X11157000Y-6822000D02*
G75*
G03X11057000Y-6722000I-100000J0D01*
G01*
X11057000Y-7022000D02*
G75*
G03X11157000Y-6922000I0J100000D01*
G01*
X11157000Y-6922000D02*
X11157000Y-6822000D01*
X10557000Y-6922000D02*
X10557000Y-6822000D01*
X10557000Y-6922000D02*
G75*
G03X10657000Y-7022000I100000J0D01*
G01*
X10657000Y-6722000D02*
G75*
G03X10557000Y-6822000I0J-100000D01*
G01*
X19887000Y-10022000D02*
G75*
G03X19987000Y-10122000I100000J0D01*
G01*
X11057000Y-10122000D02*
G75*
G03X11157000Y-10022000I0J100000D01*
G01*
X20387000Y-10122000D02*
G75*
G03X20487000Y-10022000I0J100000D01*
G01*
X11157000Y-9922000D02*
G75*
G03X11057000Y-9822000I-100000J0D01*
G01*
X20487000Y-9922000D02*
G75*
G03X20387000Y-9822000I-100000J0D01*
G01*
X10557000Y-10022000D02*
G75*
G03X10657000Y-10122000I100000J0D01*
G01*
X10657000Y-9822000D02*
X11057000Y-9822000D01*
X19987000Y-9822000D02*
X20387000Y-9822000D01*
X10557000Y-10022000D02*
X10557000Y-9922000D01*
X19887000Y-10022000D02*
X19887000Y-9922000D01*
X10657000Y-9822000D02*
G75*
G03X10557000Y-9922000I0J-100000D01*
G01*
X19987000Y-9822000D02*
G75*
G03X19887000Y-9922000I0J-100000D01*
G01*
X10657000Y-10122000D02*
X11057000Y-10122000D01*
X19987000Y-10122000D02*
X20387000Y-10122000D01*
X11157000Y-10022000D02*
X11157000Y-9922000D01*
X20487000Y-10022000D02*
X20487000Y-9922000D01*
X19817000Y-7022000D02*
X20217000Y-7022000D01*
X19717000Y-6922000D02*
G75*
G03X19817000Y-7022000I100000J0D01*
G01*
X19717000Y-6922000D02*
X19717000Y-6822000D01*
X19817000Y-6722000D02*
G75*
G03X19717000Y-6822000I0J-100000D01*
G01*
X19817000Y-6722000D02*
X20217000Y-6722000D01*
X20317000Y-6822000D02*
G75*
G03X20217000Y-6722000I-100000J0D01*
G01*
X20317000Y-6922000D02*
X20317000Y-6822000D01*
X20217000Y-7022000D02*
G75*
G03X20317000Y-6922000I0J100000D01*
G01*
X11487000Y-7022000D02*
X11887000Y-7022000D01*
X18987000Y-10122000D02*
X19387000Y-10122000D01*
X11487000Y-10122000D02*
X11887000Y-10122000D01*
X11387000Y-6922000D02*
X11387000Y-6822000D01*
X18887000Y-10022000D02*
X18887000Y-9922000D01*
X11387000Y-10022000D02*
X11387000Y-9922000D01*
X11387000Y-6922000D02*
G75*
G03X11487000Y-7022000I100000J0D01*
G01*
X18887000Y-10022000D02*
G75*
G03X18987000Y-10122000I100000J0D01*
G01*
X11387000Y-10022000D02*
G75*
G03X11487000Y-10122000I100000J0D01*
G01*
X11487000Y-6722000D02*
X11887000Y-6722000D01*
X18987000Y-9822000D02*
X19387000Y-9822000D01*
X11487000Y-9822000D02*
X11887000Y-9822000D01*
X11987000Y-6822000D02*
G75*
G03X11887000Y-6722000I-100000J0D01*
G01*
X19487000Y-9922000D02*
G75*
G03X19387000Y-9822000I-100000J0D01*
G01*
X11987000Y-9922000D02*
G75*
G03X11887000Y-9822000I-100000J0D01*
G01*
X11887000Y-7022000D02*
G75*
G03X11987000Y-6922000I0J100000D01*
G01*
X19387000Y-10122000D02*
G75*
G03X19487000Y-10022000I0J100000D01*
G01*
X11887000Y-10122000D02*
G75*
G03X11987000Y-10022000I0J100000D01*
G01*
X11487000Y-6722000D02*
G75*
G03X11387000Y-6822000I0J-100000D01*
G01*
X18987000Y-9822000D02*
G75*
G03X18887000Y-9922000I0J-100000D01*
G01*
X11487000Y-9822000D02*
G75*
G03X11387000Y-9922000I0J-100000D01*
G01*
X11987000Y-6922000D02*
X11987000Y-6822000D01*
X19487000Y-10022000D02*
X19487000Y-9922000D01*
X11987000Y-10022000D02*
X11987000Y-9922000D01*
X19487000Y-6922000D02*
X19487000Y-6822000D01*
X18887000Y-6922000D02*
X18887000Y-6822000D01*
X18987000Y-6722000D02*
X19387000Y-6722000D01*
X18987000Y-7022000D02*
X19387000Y-7022000D01*
X19487000Y-6822000D02*
G75*
G03X19387000Y-6722000I-100000J0D01*
G01*
X19387000Y-7022000D02*
G75*
G03X19487000Y-6922000I0J100000D01*
G01*
X18987000Y-6722000D02*
G75*
G03X18887000Y-6822000I0J-100000D01*
G01*
X18887000Y-6922000D02*
G75*
G03X18987000Y-7022000I100000J0D01*
G01*
D10*
X10287000Y-6472000D02*
X10287000Y-6622000D01*
X20637000Y-6472000D02*
X10287000Y-6472000D01*
X20637000Y-10922000D02*
X20637000Y-6472000D01*
X10287000Y-10922000D02*
X20637000Y-10922000D01*
X10287000Y-6604000D02*
X10287000Y-10922000D01*
D12*
X11734800Y-8585200D03*
X11734800Y-8085200D03*
D13*
X11159236Y-7869936D03*
X10655300Y-8119872D03*
X10655300Y-7620000D03*
D14*
X14452600Y-8514600D03*
D15*
X14454600Y-8797200D03*
D16*
X12237000Y-6872000D03*
X12491000Y-6872000D03*
X12745000Y-6872000D03*
X12999000Y-6872000D03*
X13253000Y-6872000D03*
X13507000Y-6872000D03*
X13761000Y-6872000D03*
X14015000Y-6872000D03*
X14269000Y-6872000D03*
X14523000Y-6872000D03*
X14777000Y-6872000D03*
X15031000Y-6872000D03*
X15285000Y-6872000D03*
X15539000Y-6872000D03*
X15793000Y-6872000D03*
X16047000Y-6872000D03*
D17*
X16884000Y-6889000D03*
X16747000Y-7059000D03*
X17037000Y-7049000D03*
D18*
X13417000Y-7612000D03*
X13417000Y-7866000D03*
D19*
X17587000Y-10472000D03*
D20*
X17837000Y-10472000D03*
X18087000Y-10472000D03*
D19*
X14387000Y-10472000D03*
D20*
X14637000Y-10472000D03*
X14887000Y-10472000D03*
X15137000Y-10472000D03*
D19*
X16137000Y-10472000D03*
D20*
X16387000Y-10472000D03*
X16637000Y-10472000D03*
D21*
X17783000Y-6872000D03*
D22*
X18037000Y-6872000D03*
X18291000Y-6872000D03*
D23*
X13987000Y-7572000D03*
D24*
X14241000Y-7572000D03*
X14495000Y-7572000D03*
X14749000Y-7572000D03*
X15003000Y-7572000D03*
X15257000Y-7572000D03*
X15511000Y-7572000D03*
X15765000Y-7572000D03*
X16019000Y-7572000D03*
D25*
X12029000Y-9232000D03*
X13045000Y-9232000D03*
X16379000Y-7522000D03*
X17395000Y-7522000D03*
X13467000Y-8524000D03*
X13467000Y-9540000D03*
D26*
X16737000Y-8972000D03*
X16487000Y-8972000D03*
X16737000Y-8422000D03*
X16487000Y-8422000D03*
D27*
X13987000Y-9446000D03*
D28*
X14241000Y-9446000D03*
X14495000Y-9446000D03*
X14749000Y-9446000D03*
X15003000Y-9446000D03*
X15257000Y-9446000D03*
X15511000Y-9446000D03*
X15765000Y-9446000D03*
X16019000Y-9446000D03*
X16273000Y-9446000D03*
X16527000Y-9446000D03*
X16781000Y-9446000D03*
X17035000Y-9446000D03*
X17289000Y-9446000D03*
X17543000Y-9446000D03*
X17797000Y-9446000D03*
X18051000Y-9446000D03*
X18305000Y-9446000D03*
X18559000Y-9446000D03*
X18813000Y-9446000D03*
X18813000Y-7922000D03*
X18559000Y-7922000D03*
X18305000Y-7922000D03*
X18051000Y-7922000D03*
X17797000Y-7922000D03*
X17543000Y-7922000D03*
X17289000Y-7922000D03*
X17035000Y-7922000D03*
X16781000Y-7922000D03*
X16527000Y-7922000D03*
X16273000Y-7922000D03*
X16019000Y-7922000D03*
X15765000Y-7922000D03*
X15511000Y-7922000D03*
X15257000Y-7922000D03*
X15003000Y-7922000D03*
X14749000Y-7922000D03*
X14495000Y-7922000D03*
X14241000Y-7922000D03*
X13987000Y-7922000D03*
D27*
X12285000Y-10392000D03*
D28*
X12539000Y-10392000D03*
X12793000Y-10392000D03*
X13047000Y-10392000D03*
X13047000Y-9630000D03*
X12793000Y-9630000D03*
X12539000Y-9630000D03*
X12285000Y-9630000D03*
D29*
X17387000Y-8672000D03*
X17875000Y-8672000D03*
D30*
X20187000Y-8072000D03*
D31*
X20187000Y-8322000D03*
X20187000Y-8572000D03*
X20187000Y-8822000D03*
D25*
X15137000Y-8722000D03*
X16153000Y-8722000D03*
M02*
