G04 #@! TF.FileFunction,Copper,L2,Bot,Signal*
%FSLAX45Y45*%
G04 Gerber Fmt 4.5, Leading zero omitted, Abs format (unit mm)*
G04 Created by KiCad (PCBNEW 4.0.6) date 08/17/17 22:48:44*
%MOMM*%
%LPD*%
G01*
G04 APERTURE LIST*
%ADD10C,0.100000*%
%ADD11C,0.300000*%
%ADD12C,0.200000*%
%ADD13O,3.000000X1.600000*%
%ADD14C,2.499360*%
%ADD15R,2.000000X1.600000*%
%ADD16O,2.000000X1.600000*%
%ADD17O,1.930400X3.860800*%
%ADD18O,1.300000X1.800000*%
%ADD19O,2.500000X1.651000*%
%ADD20R,1.500000X3.000000*%
%ADD21O,1.500000X3.000000*%
%ADD22R,1.700000X4.000000*%
%ADD23O,1.700000X4.000000*%
%ADD24R,1.651000X2.500000*%
%ADD25O,1.651000X2.500000*%
%ADD26C,2.500000*%
%ADD27O,1.600000X2.500000*%
%ADD28R,1.574800X3.000000*%
%ADD29O,1.574800X3.000000*%
%ADD30O,2.500000X2.500000*%
%ADD31R,3.000000X1.500000*%
%ADD32O,3.000000X1.500000*%
%ADD33C,0.600000*%
%ADD34C,0.400000*%
%ADD35C,0.500000*%
%ADD36C,0.700000*%
%ADD37C,0.254000*%
G04 APERTURE END LIST*
D10*
D11*
X13688600Y-9196786D02*
X13667171Y-9203929D01*
X13660029Y-9211071D01*
X13652886Y-9225357D01*
X13652886Y-9246786D01*
X13660029Y-9261071D01*
X13667171Y-9268214D01*
X13681457Y-9275357D01*
X13738600Y-9275357D01*
X13738600Y-9125357D01*
X13688600Y-9125357D01*
X13674314Y-9132500D01*
X13667171Y-9139643D01*
X13660029Y-9153929D01*
X13660029Y-9168214D01*
X13667171Y-9182500D01*
X13674314Y-9189643D01*
X13688600Y-9196786D01*
X13738600Y-9196786D01*
X13560029Y-9125357D02*
X13531457Y-9125357D01*
X13517171Y-9132500D01*
X13502886Y-9146786D01*
X13495743Y-9175357D01*
X13495743Y-9225357D01*
X13502886Y-9253929D01*
X13517171Y-9268214D01*
X13531457Y-9275357D01*
X13560029Y-9275357D01*
X13574314Y-9268214D01*
X13588600Y-9253929D01*
X13595743Y-9225357D01*
X13595743Y-9175357D01*
X13588600Y-9146786D01*
X13574314Y-9132500D01*
X13560029Y-9125357D01*
X13452886Y-9125357D02*
X13367171Y-9125357D01*
X13410028Y-9275357D02*
X13410028Y-9125357D01*
D12*
X10657000Y-6722000D02*
X11057000Y-6722000D01*
X10657000Y-7022000D02*
X11057000Y-7022000D01*
X11157000Y-6822000D02*
G75*
G03X11057000Y-6722000I-100000J0D01*
G01*
X11057000Y-7022000D02*
G75*
G03X11157000Y-6922000I0J100000D01*
G01*
X11157000Y-6922000D02*
X11157000Y-6822000D01*
X10557000Y-6922000D02*
X10557000Y-6822000D01*
X10557000Y-6922000D02*
G75*
G03X10657000Y-7022000I100000J0D01*
G01*
X10657000Y-6722000D02*
G75*
G03X10557000Y-6822000I0J-100000D01*
G01*
X19887000Y-10022000D02*
G75*
G03X19987000Y-10122000I100000J0D01*
G01*
X11057000Y-10122000D02*
G75*
G03X11157000Y-10022000I0J100000D01*
G01*
X20387000Y-10122000D02*
G75*
G03X20487000Y-10022000I0J100000D01*
G01*
X11157000Y-9922000D02*
G75*
G03X11057000Y-9822000I-100000J0D01*
G01*
X20487000Y-9922000D02*
G75*
G03X20387000Y-9822000I-100000J0D01*
G01*
X10557000Y-10022000D02*
G75*
G03X10657000Y-10122000I100000J0D01*
G01*
X10657000Y-9822000D02*
X11057000Y-9822000D01*
X19987000Y-9822000D02*
X20387000Y-9822000D01*
X10557000Y-10022000D02*
X10557000Y-9922000D01*
X19887000Y-10022000D02*
X19887000Y-9922000D01*
X10657000Y-9822000D02*
G75*
G03X10557000Y-9922000I0J-100000D01*
G01*
X19987000Y-9822000D02*
G75*
G03X19887000Y-9922000I0J-100000D01*
G01*
X10657000Y-10122000D02*
X11057000Y-10122000D01*
X19987000Y-10122000D02*
X20387000Y-10122000D01*
X11157000Y-10022000D02*
X11157000Y-9922000D01*
X20487000Y-10022000D02*
X20487000Y-9922000D01*
X19817000Y-7022000D02*
X20217000Y-7022000D01*
X19717000Y-6922000D02*
G75*
G03X19817000Y-7022000I100000J0D01*
G01*
X19717000Y-6922000D02*
X19717000Y-6822000D01*
X19817000Y-6722000D02*
G75*
G03X19717000Y-6822000I0J-100000D01*
G01*
X19817000Y-6722000D02*
X20217000Y-6722000D01*
X20317000Y-6822000D02*
G75*
G03X20217000Y-6722000I-100000J0D01*
G01*
X20317000Y-6922000D02*
X20317000Y-6822000D01*
X20217000Y-7022000D02*
G75*
G03X20317000Y-6922000I0J100000D01*
G01*
X11487000Y-7022000D02*
X11887000Y-7022000D01*
X18987000Y-10122000D02*
X19387000Y-10122000D01*
X11487000Y-10122000D02*
X11887000Y-10122000D01*
X11387000Y-6922000D02*
X11387000Y-6822000D01*
X18887000Y-10022000D02*
X18887000Y-9922000D01*
X11387000Y-10022000D02*
X11387000Y-9922000D01*
X11387000Y-6922000D02*
G75*
G03X11487000Y-7022000I100000J0D01*
G01*
X18887000Y-10022000D02*
G75*
G03X18987000Y-10122000I100000J0D01*
G01*
X11387000Y-10022000D02*
G75*
G03X11487000Y-10122000I100000J0D01*
G01*
X11487000Y-6722000D02*
X11887000Y-6722000D01*
X18987000Y-9822000D02*
X19387000Y-9822000D01*
X11487000Y-9822000D02*
X11887000Y-9822000D01*
X11987000Y-6822000D02*
G75*
G03X11887000Y-6722000I-100000J0D01*
G01*
X19487000Y-9922000D02*
G75*
G03X19387000Y-9822000I-100000J0D01*
G01*
X11987000Y-9922000D02*
G75*
G03X11887000Y-9822000I-100000J0D01*
G01*
X11887000Y-7022000D02*
G75*
G03X11987000Y-6922000I0J100000D01*
G01*
X19387000Y-10122000D02*
G75*
G03X19487000Y-10022000I0J100000D01*
G01*
X11887000Y-10122000D02*
G75*
G03X11987000Y-10022000I0J100000D01*
G01*
X11487000Y-6722000D02*
G75*
G03X11387000Y-6822000I0J-100000D01*
G01*
X18987000Y-9822000D02*
G75*
G03X18887000Y-9922000I0J-100000D01*
G01*
X11487000Y-9822000D02*
G75*
G03X11387000Y-9922000I0J-100000D01*
G01*
X11987000Y-6922000D02*
X11987000Y-6822000D01*
X19487000Y-10022000D02*
X19487000Y-9922000D01*
X11987000Y-10022000D02*
X11987000Y-9922000D01*
X19487000Y-6922000D02*
X19487000Y-6822000D01*
X18887000Y-6922000D02*
X18887000Y-6822000D01*
X18987000Y-6722000D02*
X19387000Y-6722000D01*
X18987000Y-7022000D02*
X19387000Y-7022000D01*
X19487000Y-6822000D02*
G75*
G03X19387000Y-6722000I-100000J0D01*
G01*
X19387000Y-7022000D02*
G75*
G03X19487000Y-6922000I0J100000D01*
G01*
X18987000Y-6722000D02*
G75*
G03X18887000Y-6822000I0J-100000D01*
G01*
X18887000Y-6922000D02*
G75*
G03X18987000Y-7022000I100000J0D01*
G01*
D10*
X10287000Y-6472000D02*
X10287000Y-6622000D01*
X20637000Y-6472000D02*
X10287000Y-6472000D01*
X20637000Y-10922000D02*
X20637000Y-6472000D01*
X10287000Y-10922000D02*
X20637000Y-10922000D01*
X10287000Y-6604000D02*
X10287000Y-10922000D01*
D13*
X11734800Y-8585200D03*
X11734800Y-8085200D03*
D14*
X11159236Y-7869936D03*
X10655300Y-8119872D03*
X10655300Y-7620000D03*
D15*
X14452600Y-8514600D03*
D16*
X14454600Y-8797200D03*
D17*
X12237000Y-6872000D03*
X12491000Y-6872000D03*
X12745000Y-6872000D03*
X12999000Y-6872000D03*
X13253000Y-6872000D03*
X13507000Y-6872000D03*
X13761000Y-6872000D03*
X14015000Y-6872000D03*
X14269000Y-6872000D03*
X14523000Y-6872000D03*
X14777000Y-6872000D03*
X15031000Y-6872000D03*
X15285000Y-6872000D03*
X15539000Y-6872000D03*
X15793000Y-6872000D03*
X16047000Y-6872000D03*
D18*
X16884000Y-6889000D03*
X16747000Y-7059000D03*
X17037000Y-7049000D03*
D19*
X13417000Y-7612000D03*
X13417000Y-7866000D03*
D20*
X17587000Y-10472000D03*
D21*
X17837000Y-10472000D03*
X18087000Y-10472000D03*
D20*
X14387000Y-10472000D03*
D21*
X14637000Y-10472000D03*
X14887000Y-10472000D03*
X15137000Y-10472000D03*
D20*
X16137000Y-10472000D03*
D21*
X16387000Y-10472000D03*
X16637000Y-10472000D03*
D22*
X17783000Y-6872000D03*
D23*
X18037000Y-6872000D03*
X18291000Y-6872000D03*
D24*
X13987000Y-7572000D03*
D25*
X14241000Y-7572000D03*
X14495000Y-7572000D03*
X14749000Y-7572000D03*
X15003000Y-7572000D03*
X15257000Y-7572000D03*
X15511000Y-7572000D03*
X15765000Y-7572000D03*
X16019000Y-7572000D03*
D26*
X12029000Y-9232000D03*
X13045000Y-9232000D03*
X16379000Y-7522000D03*
X17395000Y-7522000D03*
X13467000Y-8524000D03*
X13467000Y-9540000D03*
D27*
X16737000Y-8972000D03*
X16487000Y-8972000D03*
X16737000Y-8422000D03*
X16487000Y-8422000D03*
D28*
X13987000Y-9446000D03*
D29*
X14241000Y-9446000D03*
X14495000Y-9446000D03*
X14749000Y-9446000D03*
X15003000Y-9446000D03*
X15257000Y-9446000D03*
X15511000Y-9446000D03*
X15765000Y-9446000D03*
X16019000Y-9446000D03*
X16273000Y-9446000D03*
X16527000Y-9446000D03*
X16781000Y-9446000D03*
X17035000Y-9446000D03*
X17289000Y-9446000D03*
X17543000Y-9446000D03*
X17797000Y-9446000D03*
X18051000Y-9446000D03*
X18305000Y-9446000D03*
X18559000Y-9446000D03*
X18813000Y-9446000D03*
X18813000Y-7922000D03*
X18559000Y-7922000D03*
X18305000Y-7922000D03*
X18051000Y-7922000D03*
X17797000Y-7922000D03*
X17543000Y-7922000D03*
X17289000Y-7922000D03*
X17035000Y-7922000D03*
X16781000Y-7922000D03*
X16527000Y-7922000D03*
X16273000Y-7922000D03*
X16019000Y-7922000D03*
X15765000Y-7922000D03*
X15511000Y-7922000D03*
X15257000Y-7922000D03*
X15003000Y-7922000D03*
X14749000Y-7922000D03*
X14495000Y-7922000D03*
X14241000Y-7922000D03*
X13987000Y-7922000D03*
D28*
X12285000Y-10392000D03*
D29*
X12539000Y-10392000D03*
X12793000Y-10392000D03*
X13047000Y-10392000D03*
X13047000Y-9630000D03*
X12793000Y-9630000D03*
X12539000Y-9630000D03*
X12285000Y-9630000D03*
D30*
X17387000Y-8672000D03*
X17875000Y-8672000D03*
D31*
X20187000Y-8072000D03*
D32*
X20187000Y-8322000D03*
X20187000Y-8572000D03*
X20187000Y-8822000D03*
D26*
X15137000Y-8722000D03*
X16153000Y-8722000D03*
D33*
X11734800Y-8085200D02*
X11006200Y-8085200D01*
X12029000Y-8100000D02*
X12014200Y-8085200D01*
X12014200Y-8085200D02*
X11734800Y-8085200D01*
X11006200Y-8085200D02*
X10655300Y-7734300D01*
X10655300Y-7734300D02*
X10655300Y-7620000D01*
X12623800Y-8085200D02*
X12014200Y-8085200D01*
X12029000Y-8293100D02*
X12029000Y-8100000D01*
X13417000Y-7612000D02*
X13097000Y-7612000D01*
X13097000Y-7612000D02*
X12623800Y-8085200D01*
X12029000Y-8792000D02*
X12029000Y-8293100D01*
D34*
X12029000Y-8293100D02*
X12027900Y-8292000D01*
D33*
X12491000Y-7378000D02*
X12249000Y-7620000D01*
X12491000Y-6872000D02*
X12491000Y-7378000D01*
X14554200Y-8229600D02*
X14437000Y-8346800D01*
X14437000Y-8346800D02*
X14437000Y-8522000D01*
X16175400Y-8229600D02*
X14554200Y-8229600D01*
X16273000Y-7922000D02*
X16273000Y-8132000D01*
X16273000Y-8132000D02*
X16175400Y-8229600D01*
X14437000Y-8522000D02*
X13987000Y-8522000D01*
X13987000Y-8522000D02*
X13469000Y-8522000D01*
X13987000Y-7922000D02*
X13987000Y-8522000D01*
X13469000Y-8522000D02*
X13467000Y-8524000D01*
X12029000Y-9232000D02*
X12205777Y-9232000D01*
X12205777Y-9232000D02*
X12285000Y-9311223D01*
X12285000Y-9311223D02*
X12285000Y-9420000D01*
X12285000Y-9420000D02*
X12285000Y-9630000D01*
X12029000Y-9232000D02*
X12029000Y-8792000D01*
X14637000Y-10472000D02*
X14637000Y-10172000D01*
X14637000Y-10172000D02*
X14557000Y-10092000D01*
X14557000Y-10092000D02*
X12457000Y-10092000D01*
X12457000Y-10092000D02*
X12285000Y-9920000D01*
X12285000Y-9920000D02*
X12285000Y-9630000D01*
X13417000Y-7612000D02*
X13947000Y-7612000D01*
X13947000Y-7612000D02*
X13987000Y-7572000D01*
X15793000Y-6872000D02*
X15793000Y-7068000D01*
X15793000Y-7068000D02*
X15957000Y-7232000D01*
X15957000Y-7232000D02*
X16267000Y-7232000D01*
X16379000Y-7344000D02*
X16379000Y-7522000D01*
X16267000Y-7232000D02*
X16379000Y-7344000D01*
X13987000Y-7572000D02*
X13987000Y-7922000D01*
X16273000Y-7922000D02*
X16273000Y-7628000D01*
X16273000Y-7628000D02*
X16379000Y-7522000D01*
X12249000Y-7620000D02*
X10655300Y-7620000D01*
X10655300Y-7620000D02*
X10655300Y-7700300D01*
X15137000Y-8722000D02*
X14960223Y-8722000D01*
X14960223Y-8722000D02*
X14885023Y-8797200D01*
X14885023Y-8797200D02*
X14614600Y-8797200D01*
X14614600Y-8797200D02*
X14454600Y-8797200D01*
X16019000Y-9446000D02*
X16019000Y-9236000D01*
X16019000Y-9236000D02*
X15505000Y-8722000D01*
X15505000Y-8722000D02*
X15313777Y-8722000D01*
X15313777Y-8722000D02*
X15137000Y-8722000D01*
X12285000Y-10392000D02*
X10582500Y-10392000D01*
X11734800Y-8585200D02*
X11120628Y-8585200D01*
X11120628Y-8585200D02*
X10655300Y-8119872D01*
X10418572Y-8119872D02*
X10655300Y-8119872D01*
X10414000Y-8115300D02*
X10414000Y-7878572D01*
X10414000Y-10223500D02*
X10414000Y-8115300D01*
X10414000Y-8115300D02*
X10418572Y-8119872D01*
X10582500Y-10392000D02*
X10414000Y-10223500D01*
X10414000Y-7353300D02*
X10414000Y-7878572D01*
X10541000Y-7226300D02*
X10414000Y-7353300D01*
X12135740Y-7226300D02*
X10541000Y-7226300D01*
X12237000Y-7125040D02*
X12135740Y-7226300D01*
D34*
X13233400Y-8458200D02*
X13417000Y-8274600D01*
X13233400Y-8674100D02*
X13233400Y-8458200D01*
X13639800Y-8775700D02*
X13335000Y-8775700D01*
X13760900Y-8654600D02*
X13639800Y-8775700D01*
X13335000Y-8775700D02*
X13233400Y-8674100D01*
X14751500Y-8654600D02*
X13760900Y-8654600D01*
X13417000Y-8274600D02*
X13417000Y-7866000D01*
X14984100Y-8422000D02*
X14751500Y-8654600D01*
X16487000Y-8422000D02*
X14984100Y-8422000D01*
D33*
X12237000Y-6872000D02*
X12237000Y-7125040D01*
X12539000Y-10392000D02*
X12285000Y-10392000D01*
X12793000Y-10392000D02*
X12539000Y-10392000D01*
X13047000Y-10392000D02*
X12793000Y-10392000D01*
X18007000Y-8212000D02*
X18813000Y-9018000D01*
X18813000Y-9018000D02*
X18813000Y-9446000D01*
X16652000Y-8212000D02*
X18007000Y-8212000D01*
X16487000Y-8422000D02*
X16487000Y-8377000D01*
X16487000Y-8377000D02*
X16652000Y-8212000D01*
D35*
X16487000Y-8722000D02*
X16487000Y-8972000D01*
X16487000Y-8422000D02*
X16487000Y-8722000D01*
D33*
X16477000Y-8722000D02*
X16143000Y-8722000D01*
X16737000Y-8972000D02*
X16737000Y-8927000D01*
X16737000Y-8927000D02*
X16992000Y-8672000D01*
X16992000Y-8672000D02*
X17210223Y-8672000D01*
X17210223Y-8672000D02*
X17387000Y-8672000D01*
D35*
X17387000Y-8672000D02*
X17387000Y-8892000D01*
X18305000Y-9160000D02*
X18305000Y-9446000D01*
X17387000Y-8892000D02*
X17497000Y-9002000D01*
X17497000Y-9002000D02*
X18147000Y-9002000D01*
X18147000Y-9002000D02*
X18305000Y-9160000D01*
X17875000Y-8672000D02*
X18117000Y-8672000D01*
X18117000Y-8672000D02*
X18559000Y-9114000D01*
X18559000Y-9114000D02*
X18559000Y-9246000D01*
X18559000Y-9246000D02*
X18559000Y-9446000D01*
D33*
X16737000Y-8422000D02*
X17625000Y-8422000D01*
X17625000Y-8422000D02*
X17875000Y-8672000D01*
X12409064Y-7869936D02*
X12745000Y-7534000D01*
X12745000Y-7534000D02*
X12745000Y-6872000D01*
X11159236Y-7869936D02*
X12409064Y-7869936D01*
X14241000Y-7572000D02*
X14241000Y-7922000D01*
X14241000Y-7522000D02*
X14241000Y-7436000D01*
X14241000Y-7436000D02*
X14147000Y-7342000D01*
X14147000Y-7342000D02*
X13177000Y-7342000D01*
X13177000Y-7342000D02*
X12999000Y-7164000D01*
X12999000Y-7164000D02*
X12999000Y-6872000D01*
X14495000Y-7572000D02*
X14495000Y-7922000D01*
X13507000Y-6872000D02*
X13507000Y-7102000D01*
X13507000Y-7102000D02*
X13597000Y-7192000D01*
X13597000Y-7192000D02*
X14350000Y-7192000D01*
X14350000Y-7192000D02*
X14495000Y-7337000D01*
X14495000Y-7337000D02*
X14495000Y-7522000D01*
X14777000Y-6872000D02*
X14777000Y-7049550D01*
X14777000Y-7049550D02*
X15257000Y-7529550D01*
X15257000Y-7529550D02*
X15257000Y-7572000D01*
X15257000Y-7922000D02*
X15257000Y-7572000D01*
X15257000Y-7522000D02*
X15257000Y-7482000D01*
X15031000Y-6872000D02*
X15031000Y-7049550D01*
X15031000Y-7049550D02*
X15511000Y-7529550D01*
X15511000Y-7529550D02*
X15511000Y-7572000D01*
X15511000Y-7922000D02*
X15511000Y-7572000D01*
X15511000Y-7479550D02*
X15511000Y-7522000D01*
X15285000Y-6872000D02*
X15285000Y-7049550D01*
X15285000Y-7049550D02*
X15765000Y-7529550D01*
X15765000Y-7529550D02*
X15765000Y-7572000D01*
X15765000Y-7922000D02*
X15765000Y-7522000D01*
X15539000Y-6872000D02*
X15539000Y-7049550D01*
X15539000Y-7049550D02*
X16019000Y-7529550D01*
X16019000Y-7529550D02*
X16019000Y-7572000D01*
X16019000Y-7479550D02*
X16019000Y-7522000D01*
X16019000Y-7922000D02*
X16019000Y-7522000D01*
D35*
X16757000Y-7059000D02*
X16484000Y-7059000D01*
X16484000Y-7059000D02*
X16297000Y-6872000D01*
X16297000Y-6872000D02*
X16047000Y-6872000D01*
D33*
X17587000Y-10472000D02*
X17587000Y-10382000D01*
X17587000Y-10382000D02*
X16781000Y-9576000D01*
X16781000Y-9576000D02*
X16781000Y-9446000D01*
X17669740Y-10152000D02*
X17842000Y-10152000D01*
X17842000Y-10152000D02*
X18087000Y-10397000D01*
X18087000Y-10397000D02*
X18087000Y-10472000D01*
X17035000Y-9446000D02*
X17035000Y-9517260D01*
X17035000Y-9517260D02*
X17669740Y-10152000D01*
X14749000Y-9446000D02*
X14749000Y-9754000D01*
X14749000Y-9754000D02*
X15137000Y-10142000D01*
X15137000Y-10142000D02*
X15137000Y-10262000D01*
X15137000Y-10262000D02*
X15137000Y-10472000D01*
X14495000Y-9446000D02*
X14495000Y-9760000D01*
X14495000Y-9760000D02*
X14887000Y-10152000D01*
X14887000Y-10152000D02*
X14887000Y-10262000D01*
X14887000Y-10262000D02*
X14887000Y-10472000D01*
X16387000Y-10472000D02*
X16387000Y-10262000D01*
X16387000Y-10262000D02*
X16227000Y-10102000D01*
X16227000Y-10102000D02*
X15377000Y-10102000D01*
X15377000Y-10102000D02*
X15003000Y-9728000D01*
X15003000Y-9728000D02*
X15003000Y-9656000D01*
X15003000Y-9656000D02*
X15003000Y-9446000D01*
X15257000Y-9446000D02*
X15257000Y-9722000D01*
X15257000Y-9722000D02*
X15487000Y-9952000D01*
X15487000Y-9952000D02*
X16347000Y-9952000D01*
X16347000Y-9952000D02*
X16637000Y-10242000D01*
X16637000Y-10242000D02*
X16637000Y-10472000D01*
D36*
X17797000Y-7922000D02*
X17797000Y-6886000D01*
X17797000Y-6886000D02*
X17783000Y-6872000D01*
X18051000Y-7922000D02*
X18051000Y-7702000D01*
X18051000Y-7702000D02*
X18291000Y-7462000D01*
X18291000Y-7462000D02*
X18291000Y-7142000D01*
X18291000Y-7142000D02*
X18291000Y-6872000D01*
D34*
X17043400Y-7522000D02*
X16958100Y-7522000D01*
X17090600Y-7522000D02*
X17043400Y-7522000D01*
X17043400Y-7522000D02*
X17035000Y-7530400D01*
X17035000Y-7530400D02*
X17035000Y-7922000D01*
X16958100Y-7522000D02*
X16884000Y-7447900D01*
X16884000Y-7447900D02*
X16884000Y-6889000D01*
X17090600Y-7522000D02*
X17395000Y-7522000D01*
D33*
X13035000Y-9232000D02*
X13035000Y-9618000D01*
X13035000Y-9618000D02*
X13047000Y-9630000D01*
X13987000Y-9446000D02*
X13987000Y-9072000D01*
X13987000Y-9072000D02*
X13871000Y-8956000D01*
X13871000Y-8956000D02*
X13163000Y-8956000D01*
X13163000Y-8956000D02*
X13041000Y-9078000D01*
X13041000Y-9078000D02*
X13041000Y-9226000D01*
X13041000Y-9226000D02*
X13035000Y-9232000D01*
X14241000Y-9446000D02*
X14241000Y-9858000D01*
X14241000Y-9858000D02*
X14187000Y-9912000D01*
X14187000Y-9912000D02*
X13467000Y-9912000D01*
X13467000Y-9912000D02*
X12877000Y-9912000D01*
X12877000Y-9912000D02*
X12793000Y-9828000D01*
X12793000Y-9828000D02*
X12793000Y-9630000D01*
X13467000Y-9540000D02*
X13467000Y-9912000D01*
X12787000Y-9572000D02*
X12787000Y-9742000D01*
X14749000Y-7572000D02*
X14749000Y-7922000D01*
X15003000Y-7572000D02*
X15003000Y-7922000D01*
D35*
X18559000Y-7922000D02*
X18559000Y-7750000D01*
X18559000Y-7750000D02*
X18637000Y-7672000D01*
X18637000Y-7672000D02*
X18987000Y-7672000D01*
X18987000Y-7672000D02*
X19387000Y-8072000D01*
X19387000Y-8072000D02*
X20187000Y-8072000D01*
X18305000Y-7922000D02*
X18305000Y-7993260D01*
X18305000Y-7993260D02*
X19333740Y-9022000D01*
X19333740Y-9022000D02*
X20337000Y-9022000D01*
X20337000Y-9022000D02*
X20402001Y-8956999D01*
X20402001Y-8956999D02*
X20402001Y-8637001D01*
X20402001Y-8637001D02*
X20337000Y-8572000D01*
X20337000Y-8572000D02*
X20187000Y-8572000D01*
X18813000Y-7922000D02*
X18813000Y-8248000D01*
X18813000Y-8248000D02*
X19387000Y-8822000D01*
X19387000Y-8822000D02*
X19987000Y-8822000D01*
X19987000Y-8822000D02*
X20187000Y-8822000D01*
D37*
G36*
X20568500Y-10853500D02*
X10355500Y-10853500D01*
X10355500Y-10420575D01*
X12142760Y-10420575D01*
X12142760Y-10554631D01*
X12152427Y-10577970D01*
X12170290Y-10595833D01*
X12193629Y-10605500D01*
X12256425Y-10605500D01*
X12272300Y-10589625D01*
X12272300Y-10404700D01*
X12297700Y-10404700D01*
X12297700Y-10589625D01*
X12313575Y-10605500D01*
X12376371Y-10605500D01*
X12399710Y-10595833D01*
X12417573Y-10577970D01*
X12427240Y-10554631D01*
X12427240Y-10547790D01*
X12447401Y-10572819D01*
X12496300Y-10599533D01*
X12504294Y-10601201D01*
X12526300Y-10588985D01*
X12526300Y-10404700D01*
X12551700Y-10404700D01*
X12551700Y-10588985D01*
X12573706Y-10601201D01*
X12581700Y-10599533D01*
X12630599Y-10572819D01*
X12665552Y-10529426D01*
X12666000Y-10527901D01*
X12666447Y-10529426D01*
X12701401Y-10572819D01*
X12750300Y-10599533D01*
X12758294Y-10601201D01*
X12780300Y-10588985D01*
X12780300Y-10404700D01*
X12805700Y-10404700D01*
X12805700Y-10588985D01*
X12827706Y-10601201D01*
X12835700Y-10599533D01*
X12884599Y-10572819D01*
X12919552Y-10529426D01*
X12920000Y-10527901D01*
X12920447Y-10529426D01*
X12955401Y-10572819D01*
X13004300Y-10599533D01*
X13012294Y-10601201D01*
X13034300Y-10588985D01*
X13034300Y-10404700D01*
X13059700Y-10404700D01*
X13059700Y-10588985D01*
X13081706Y-10601201D01*
X13089700Y-10599533D01*
X13138599Y-10572819D01*
X13173552Y-10529426D01*
X13182018Y-10500575D01*
X14248500Y-10500575D01*
X14248500Y-10634631D01*
X14258167Y-10657970D01*
X14276030Y-10675833D01*
X14299369Y-10685500D01*
X14358425Y-10685500D01*
X14374300Y-10669625D01*
X14374300Y-10484700D01*
X14264375Y-10484700D01*
X14248500Y-10500575D01*
X13182018Y-10500575D01*
X13189240Y-10475960D01*
X13189240Y-10404700D01*
X13059700Y-10404700D01*
X13034300Y-10404700D01*
X12805700Y-10404700D01*
X12780300Y-10404700D01*
X12551700Y-10404700D01*
X12526300Y-10404700D01*
X12297700Y-10404700D01*
X12272300Y-10404700D01*
X12158635Y-10404700D01*
X12142760Y-10420575D01*
X10355500Y-10420575D01*
X10355500Y-10229369D01*
X12142760Y-10229369D01*
X12142760Y-10363425D01*
X12158635Y-10379300D01*
X12272300Y-10379300D01*
X12272300Y-10194375D01*
X12256425Y-10178500D01*
X12193629Y-10178500D01*
X12170290Y-10188167D01*
X12152427Y-10206030D01*
X12142760Y-10229369D01*
X10355500Y-10229369D01*
X10355500Y-9922000D01*
X10483500Y-9922000D01*
X10483500Y-10022000D01*
X10484912Y-10029100D01*
X10484912Y-10036339D01*
X10492524Y-10074607D01*
X10503499Y-10101103D01*
X10525176Y-10133545D01*
X10538695Y-10147064D01*
X10545455Y-10153824D01*
X10577897Y-10175501D01*
X10584854Y-10178383D01*
X10604393Y-10186476D01*
X10642661Y-10194088D01*
X10649900Y-10194088D01*
X10657000Y-10195500D01*
X11057000Y-10195500D01*
X11064100Y-10194088D01*
X11071339Y-10194088D01*
X11109607Y-10186476D01*
X11136103Y-10175501D01*
X11168545Y-10153824D01*
X11182064Y-10140305D01*
X11188824Y-10133545D01*
X11210501Y-10101103D01*
X11216915Y-10085617D01*
X11221476Y-10074607D01*
X11229088Y-10036339D01*
X11229088Y-10029100D01*
X11230500Y-10022000D01*
X11230500Y-9922000D01*
X11313500Y-9922000D01*
X11313500Y-10022000D01*
X11314912Y-10029100D01*
X11314912Y-10036339D01*
X11322524Y-10074607D01*
X11333499Y-10101103D01*
X11355176Y-10133545D01*
X11368695Y-10147064D01*
X11375455Y-10153824D01*
X11407897Y-10175501D01*
X11414854Y-10178383D01*
X11434393Y-10186476D01*
X11472661Y-10194088D01*
X11479900Y-10194088D01*
X11487000Y-10195500D01*
X11887000Y-10195500D01*
X11894100Y-10194088D01*
X11901339Y-10194088D01*
X11939607Y-10186476D01*
X11966103Y-10175501D01*
X11998545Y-10153824D01*
X12012064Y-10140305D01*
X12018824Y-10133545D01*
X12040501Y-10101103D01*
X12046915Y-10085617D01*
X12051476Y-10074607D01*
X12059088Y-10036339D01*
X12059088Y-10029100D01*
X12060500Y-10022000D01*
X12060500Y-9922000D01*
X12059088Y-9914900D01*
X12059088Y-9907661D01*
X12051476Y-9869393D01*
X12042822Y-9848500D01*
X12040501Y-9842897D01*
X12018824Y-9810455D01*
X12012064Y-9803695D01*
X11998545Y-9790176D01*
X11966103Y-9768499D01*
X11939607Y-9757524D01*
X11901339Y-9749912D01*
X11894100Y-9749912D01*
X11887000Y-9748500D01*
X11487000Y-9748500D01*
X11479900Y-9749912D01*
X11472661Y-9749912D01*
X11434393Y-9757524D01*
X11419288Y-9763781D01*
X11407897Y-9768499D01*
X11375455Y-9790176D01*
X11369850Y-9795781D01*
X11355176Y-9810455D01*
X11333499Y-9842897D01*
X11328861Y-9854095D01*
X11322524Y-9869393D01*
X11314912Y-9907661D01*
X11314912Y-9914900D01*
X11313500Y-9922000D01*
X11230500Y-9922000D01*
X11229088Y-9914900D01*
X11229088Y-9907661D01*
X11221476Y-9869393D01*
X11212822Y-9848500D01*
X11210501Y-9842897D01*
X11188824Y-9810455D01*
X11182064Y-9803695D01*
X11168545Y-9790176D01*
X11136103Y-9768499D01*
X11109607Y-9757524D01*
X11071339Y-9749912D01*
X11064100Y-9749912D01*
X11057000Y-9748500D01*
X10657000Y-9748500D01*
X10649900Y-9749912D01*
X10642661Y-9749912D01*
X10604393Y-9757524D01*
X10589288Y-9763781D01*
X10577897Y-9768499D01*
X10545455Y-9790176D01*
X10539850Y-9795781D01*
X10525176Y-9810455D01*
X10503499Y-9842897D01*
X10498861Y-9854095D01*
X10492524Y-9869393D01*
X10484912Y-9907661D01*
X10484912Y-9914900D01*
X10483500Y-9922000D01*
X10355500Y-9922000D01*
X10355500Y-8620104D01*
X11525610Y-8620104D01*
X11527363Y-8628382D01*
X11554350Y-8677690D01*
X11598152Y-8712917D01*
X11652100Y-8728700D01*
X11722100Y-8728700D01*
X11722100Y-8597900D01*
X11537808Y-8597900D01*
X11525610Y-8620104D01*
X10355500Y-8620104D01*
X10355500Y-8550296D01*
X11525610Y-8550296D01*
X11537808Y-8572500D01*
X11722100Y-8572500D01*
X11722100Y-8441700D01*
X11652100Y-8441700D01*
X11598152Y-8457483D01*
X11554350Y-8492710D01*
X11527363Y-8542018D01*
X11525610Y-8550296D01*
X10355500Y-8550296D01*
X10355500Y-8253181D01*
X10539952Y-8253181D01*
X10552873Y-8282458D01*
X10622888Y-8309279D01*
X10697838Y-8307265D01*
X10757728Y-8282458D01*
X10770648Y-8253181D01*
X10655300Y-8137832D01*
X10539952Y-8253181D01*
X10355500Y-8253181D01*
X10355500Y-8087460D01*
X10465893Y-8087460D01*
X10467907Y-8162410D01*
X10492714Y-8222299D01*
X10521991Y-8235220D01*
X10637340Y-8119872D01*
X10521991Y-8004524D01*
X10492714Y-8017444D01*
X10465893Y-8087460D01*
X10355500Y-8087460D01*
X10355500Y-7657324D01*
X10466799Y-7657324D01*
X10495431Y-7726619D01*
X10548402Y-7779682D01*
X10585674Y-7795159D01*
X10589186Y-7800414D01*
X10738811Y-7950039D01*
X10687712Y-7930465D01*
X10612762Y-7932479D01*
X10552873Y-7957286D01*
X10539952Y-7986563D01*
X10655300Y-8101911D01*
X10656714Y-8100497D01*
X10674675Y-8118458D01*
X10673261Y-8119872D01*
X10788609Y-8235220D01*
X10817886Y-8222299D01*
X10844707Y-8152284D01*
X10842693Y-8077334D01*
X10826138Y-8037367D01*
X10940086Y-8151314D01*
X10970419Y-8171583D01*
X11006200Y-8178700D01*
X11553822Y-8178700D01*
X11559147Y-8186670D01*
X11605702Y-8217777D01*
X11660617Y-8228700D01*
X11808983Y-8228700D01*
X11863898Y-8217777D01*
X11910452Y-8186670D01*
X11915778Y-8178700D01*
X11935500Y-8178700D01*
X11935500Y-8529709D01*
X11915250Y-8492710D01*
X11871448Y-8457483D01*
X11817500Y-8441700D01*
X11747500Y-8441700D01*
X11747500Y-8572500D01*
X11749500Y-8572500D01*
X11749500Y-8597900D01*
X11747500Y-8597900D01*
X11747500Y-8728700D01*
X11817500Y-8728700D01*
X11871448Y-8712917D01*
X11915250Y-8677690D01*
X11935500Y-8640691D01*
X11935500Y-9066676D01*
X11922363Y-9072104D01*
X11869291Y-9125084D01*
X11840533Y-9194341D01*
X11840467Y-9269331D01*
X11869104Y-9338637D01*
X11922084Y-9391709D01*
X11991340Y-9420467D01*
X12066330Y-9420533D01*
X12135637Y-9391896D01*
X12184583Y-9343035D01*
X12191500Y-9349952D01*
X12191500Y-9449248D01*
X12184421Y-9453978D01*
X12153587Y-9500124D01*
X12142760Y-9554557D01*
X12142760Y-9705443D01*
X12153587Y-9759876D01*
X12184421Y-9806022D01*
X12191500Y-9810752D01*
X12191500Y-9920000D01*
X12198617Y-9955781D01*
X12218885Y-9986115D01*
X12390885Y-10158115D01*
X12421219Y-10178383D01*
X12457000Y-10185500D01*
X12494410Y-10185500D01*
X12447401Y-10211181D01*
X12427240Y-10236210D01*
X12427240Y-10229369D01*
X12417573Y-10206030D01*
X12399710Y-10188167D01*
X12376371Y-10178500D01*
X12313575Y-10178500D01*
X12297700Y-10194375D01*
X12297700Y-10379300D01*
X12526300Y-10379300D01*
X12526300Y-10377300D01*
X12551700Y-10377300D01*
X12551700Y-10379300D01*
X12780300Y-10379300D01*
X12780300Y-10377300D01*
X12805700Y-10377300D01*
X12805700Y-10379300D01*
X13034300Y-10379300D01*
X13034300Y-10377300D01*
X13059700Y-10377300D01*
X13059700Y-10379300D01*
X13189240Y-10379300D01*
X13189240Y-10309369D01*
X14248500Y-10309369D01*
X14248500Y-10443425D01*
X14264375Y-10459300D01*
X14374300Y-10459300D01*
X14374300Y-10274375D01*
X14358425Y-10258500D01*
X14299369Y-10258500D01*
X14276030Y-10268167D01*
X14258167Y-10286030D01*
X14248500Y-10309369D01*
X13189240Y-10309369D01*
X13189240Y-10308040D01*
X13173552Y-10254574D01*
X13138599Y-10211181D01*
X13091590Y-10185500D01*
X14518271Y-10185500D01*
X14543500Y-10210729D01*
X14543500Y-10291920D01*
X14539066Y-10294883D01*
X14525500Y-10315186D01*
X14525500Y-10309369D01*
X14515833Y-10286030D01*
X14497970Y-10268167D01*
X14474631Y-10258500D01*
X14415575Y-10258500D01*
X14399700Y-10274375D01*
X14399700Y-10459300D01*
X14401700Y-10459300D01*
X14401700Y-10484700D01*
X14399700Y-10484700D01*
X14399700Y-10669625D01*
X14415575Y-10685500D01*
X14474631Y-10685500D01*
X14497970Y-10675833D01*
X14515833Y-10657970D01*
X14525500Y-10634631D01*
X14525500Y-10628815D01*
X14539066Y-10649117D01*
X14583998Y-10679140D01*
X14637000Y-10689683D01*
X14690002Y-10679140D01*
X14734934Y-10649117D01*
X14762000Y-10608610D01*
X14789066Y-10649117D01*
X14833998Y-10679140D01*
X14887000Y-10689683D01*
X14940002Y-10679140D01*
X14984934Y-10649117D01*
X15012000Y-10608610D01*
X15039066Y-10649117D01*
X15083998Y-10679140D01*
X15137000Y-10689683D01*
X15190002Y-10679140D01*
X15234934Y-10649117D01*
X15264957Y-10604184D01*
X15275500Y-10551183D01*
X15275500Y-10500575D01*
X15998500Y-10500575D01*
X15998500Y-10634631D01*
X16008167Y-10657970D01*
X16026030Y-10675833D01*
X16049369Y-10685500D01*
X16108425Y-10685500D01*
X16124300Y-10669625D01*
X16124300Y-10484700D01*
X16014375Y-10484700D01*
X15998500Y-10500575D01*
X15275500Y-10500575D01*
X15275500Y-10392817D01*
X15264957Y-10339816D01*
X15244614Y-10309369D01*
X15998500Y-10309369D01*
X15998500Y-10443425D01*
X16014375Y-10459300D01*
X16124300Y-10459300D01*
X16124300Y-10274375D01*
X16108425Y-10258500D01*
X16049369Y-10258500D01*
X16026030Y-10268167D01*
X16008167Y-10286030D01*
X15998500Y-10309369D01*
X15244614Y-10309369D01*
X15234934Y-10294883D01*
X15230500Y-10291920D01*
X15230500Y-10142000D01*
X15223383Y-10106219D01*
X15203114Y-10075886D01*
X14842500Y-9715271D01*
X14842500Y-9626752D01*
X14849579Y-9622022D01*
X14876000Y-9582480D01*
X14902421Y-9622022D01*
X14909500Y-9626752D01*
X14909500Y-9728000D01*
X14916617Y-9763781D01*
X14936885Y-9794115D01*
X15310885Y-10168115D01*
X15341219Y-10188383D01*
X15377000Y-10195500D01*
X16188271Y-10195500D01*
X16288500Y-10295729D01*
X16275500Y-10315186D01*
X16275500Y-10309369D01*
X16265833Y-10286030D01*
X16247970Y-10268167D01*
X16224631Y-10258500D01*
X16165575Y-10258500D01*
X16149700Y-10274375D01*
X16149700Y-10459300D01*
X16151700Y-10459300D01*
X16151700Y-10484700D01*
X16149700Y-10484700D01*
X16149700Y-10669625D01*
X16165575Y-10685500D01*
X16224631Y-10685500D01*
X16247970Y-10675833D01*
X16265833Y-10657970D01*
X16275500Y-10634631D01*
X16275500Y-10628815D01*
X16289066Y-10649117D01*
X16333998Y-10679140D01*
X16387000Y-10689683D01*
X16440002Y-10679140D01*
X16484934Y-10649117D01*
X16512000Y-10608610D01*
X16539066Y-10649117D01*
X16583998Y-10679140D01*
X16637000Y-10689683D01*
X16690002Y-10679140D01*
X16734934Y-10649117D01*
X16764957Y-10604184D01*
X16775500Y-10551183D01*
X16775500Y-10392817D01*
X16764957Y-10339816D01*
X16734934Y-10294883D01*
X16730500Y-10291920D01*
X16730500Y-10242000D01*
X16723383Y-10206219D01*
X16703114Y-10175886D01*
X16413114Y-9885886D01*
X16382781Y-9865617D01*
X16347000Y-9858500D01*
X15525729Y-9858500D01*
X15350500Y-9683271D01*
X15350500Y-9626752D01*
X15357579Y-9622022D01*
X15384000Y-9582480D01*
X15410421Y-9622022D01*
X15456567Y-9652855D01*
X15511000Y-9663683D01*
X15565433Y-9652855D01*
X15611579Y-9622022D01*
X15638000Y-9582480D01*
X15664421Y-9622022D01*
X15710567Y-9652855D01*
X15765000Y-9663683D01*
X15819433Y-9652855D01*
X15865579Y-9622022D01*
X15892000Y-9582480D01*
X15918421Y-9622022D01*
X15964567Y-9652855D01*
X16019000Y-9663683D01*
X16073433Y-9652855D01*
X16119579Y-9622022D01*
X16146000Y-9582480D01*
X16172421Y-9622022D01*
X16218567Y-9652855D01*
X16273000Y-9663683D01*
X16327433Y-9652855D01*
X16373579Y-9622022D01*
X16400000Y-9582480D01*
X16426421Y-9622022D01*
X16472567Y-9652855D01*
X16527000Y-9663683D01*
X16581433Y-9652855D01*
X16627579Y-9622022D01*
X16654000Y-9582480D01*
X16680421Y-9622022D01*
X16723732Y-9650961D01*
X17447256Y-10374485D01*
X17447256Y-10622000D01*
X17451684Y-10645532D01*
X17465591Y-10667144D01*
X17486811Y-10681643D01*
X17512000Y-10686744D01*
X17662000Y-10686744D01*
X17685532Y-10682316D01*
X17707144Y-10668409D01*
X17721643Y-10647189D01*
X17725837Y-10626478D01*
X17748046Y-10653915D01*
X17795732Y-10679817D01*
X17802882Y-10681232D01*
X17824300Y-10668966D01*
X17824300Y-10484700D01*
X17822300Y-10484700D01*
X17822300Y-10459300D01*
X17824300Y-10459300D01*
X17824300Y-10457300D01*
X17849700Y-10457300D01*
X17849700Y-10459300D01*
X17851700Y-10459300D01*
X17851700Y-10484700D01*
X17849700Y-10484700D01*
X17849700Y-10668966D01*
X17871119Y-10681232D01*
X17878268Y-10679817D01*
X17925954Y-10653915D01*
X17960097Y-10611735D01*
X17961322Y-10607596D01*
X17989066Y-10649117D01*
X18033998Y-10679140D01*
X18087000Y-10689683D01*
X18140002Y-10679140D01*
X18184934Y-10649117D01*
X18214957Y-10604184D01*
X18225500Y-10551183D01*
X18225500Y-10392817D01*
X18214957Y-10339816D01*
X18184934Y-10294883D01*
X18140002Y-10264860D01*
X18087000Y-10254317D01*
X18078281Y-10256052D01*
X17908115Y-10085886D01*
X17877781Y-10065617D01*
X17842000Y-10058500D01*
X17708469Y-10058500D01*
X17571969Y-9922000D01*
X18813500Y-9922000D01*
X18813500Y-10022000D01*
X18814912Y-10029100D01*
X18814912Y-10036339D01*
X18822524Y-10074607D01*
X18833499Y-10101103D01*
X18855176Y-10133545D01*
X18868695Y-10147064D01*
X18875455Y-10153824D01*
X18907897Y-10175501D01*
X18914854Y-10178383D01*
X18934393Y-10186476D01*
X18972661Y-10194088D01*
X18979900Y-10194088D01*
X18987000Y-10195500D01*
X19387000Y-10195500D01*
X19394100Y-10194088D01*
X19401339Y-10194088D01*
X19439607Y-10186476D01*
X19466103Y-10175501D01*
X19498545Y-10153824D01*
X19512064Y-10140305D01*
X19518824Y-10133545D01*
X19540501Y-10101103D01*
X19546915Y-10085617D01*
X19551476Y-10074607D01*
X19559088Y-10036339D01*
X19559088Y-10029100D01*
X19560500Y-10022000D01*
X19560500Y-9922000D01*
X19813500Y-9922000D01*
X19813500Y-10022000D01*
X19814912Y-10029100D01*
X19814912Y-10036339D01*
X19822524Y-10074607D01*
X19833499Y-10101103D01*
X19855176Y-10133545D01*
X19868695Y-10147064D01*
X19875455Y-10153824D01*
X19907897Y-10175501D01*
X19914854Y-10178383D01*
X19934393Y-10186476D01*
X19972661Y-10194088D01*
X19979900Y-10194088D01*
X19987000Y-10195500D01*
X20387000Y-10195500D01*
X20394100Y-10194088D01*
X20401339Y-10194088D01*
X20439607Y-10186476D01*
X20466103Y-10175501D01*
X20498545Y-10153824D01*
X20512064Y-10140305D01*
X20518824Y-10133545D01*
X20540501Y-10101103D01*
X20546915Y-10085617D01*
X20551476Y-10074607D01*
X20559088Y-10036339D01*
X20559088Y-10029100D01*
X20560500Y-10022000D01*
X20560500Y-9922000D01*
X20559088Y-9914900D01*
X20559088Y-9907661D01*
X20551476Y-9869393D01*
X20542822Y-9848500D01*
X20540501Y-9842897D01*
X20518824Y-9810455D01*
X20512064Y-9803695D01*
X20498545Y-9790176D01*
X20466103Y-9768499D01*
X20439607Y-9757524D01*
X20401339Y-9749912D01*
X20394100Y-9749912D01*
X20387000Y-9748500D01*
X19987000Y-9748500D01*
X19979900Y-9749912D01*
X19972661Y-9749912D01*
X19934393Y-9757524D01*
X19919288Y-9763781D01*
X19907897Y-9768499D01*
X19875455Y-9790176D01*
X19869850Y-9795781D01*
X19855176Y-9810455D01*
X19833499Y-9842897D01*
X19828861Y-9854095D01*
X19822524Y-9869393D01*
X19814912Y-9907661D01*
X19814912Y-9914900D01*
X19813500Y-9922000D01*
X19560500Y-9922000D01*
X19559088Y-9914900D01*
X19559088Y-9907661D01*
X19551476Y-9869393D01*
X19542822Y-9848500D01*
X19540501Y-9842897D01*
X19518824Y-9810455D01*
X19512064Y-9803695D01*
X19498545Y-9790176D01*
X19466103Y-9768499D01*
X19439607Y-9757524D01*
X19401339Y-9749912D01*
X19394100Y-9749912D01*
X19387000Y-9748500D01*
X18987000Y-9748500D01*
X18979900Y-9749912D01*
X18972661Y-9749912D01*
X18934393Y-9757524D01*
X18919288Y-9763781D01*
X18907897Y-9768499D01*
X18875455Y-9790176D01*
X18869850Y-9795781D01*
X18855176Y-9810455D01*
X18833499Y-9842897D01*
X18828861Y-9854095D01*
X18822524Y-9869393D01*
X18814912Y-9907661D01*
X18814912Y-9914900D01*
X18813500Y-9922000D01*
X17571969Y-9922000D01*
X17309562Y-9659593D01*
X17343433Y-9652855D01*
X17389579Y-9622022D01*
X17416000Y-9582480D01*
X17442421Y-9622022D01*
X17488567Y-9652855D01*
X17543000Y-9663683D01*
X17597433Y-9652855D01*
X17643579Y-9622022D01*
X17670000Y-9582480D01*
X17696421Y-9622022D01*
X17742567Y-9652855D01*
X17797000Y-9663683D01*
X17851433Y-9652855D01*
X17897579Y-9622022D01*
X17924000Y-9582480D01*
X17950421Y-9622022D01*
X17996567Y-9652855D01*
X18051000Y-9663683D01*
X18105433Y-9652855D01*
X18151579Y-9622022D01*
X18178000Y-9582480D01*
X18204421Y-9622022D01*
X18250567Y-9652855D01*
X18305000Y-9663683D01*
X18359433Y-9652855D01*
X18405579Y-9622022D01*
X18432000Y-9582480D01*
X18458421Y-9622022D01*
X18504567Y-9652855D01*
X18559000Y-9663683D01*
X18613433Y-9652855D01*
X18659579Y-9622022D01*
X18686118Y-9582303D01*
X18686448Y-9583426D01*
X18721401Y-9626819D01*
X18770300Y-9653533D01*
X18778294Y-9655201D01*
X18800300Y-9642985D01*
X18800300Y-9458700D01*
X18825700Y-9458700D01*
X18825700Y-9642985D01*
X18847706Y-9655201D01*
X18855700Y-9653533D01*
X18904599Y-9626819D01*
X18939553Y-9583426D01*
X18955240Y-9529960D01*
X18955240Y-9458700D01*
X18825700Y-9458700D01*
X18800300Y-9458700D01*
X18798300Y-9458700D01*
X18798300Y-9433300D01*
X18800300Y-9433300D01*
X18800300Y-9249015D01*
X18825700Y-9249015D01*
X18825700Y-9433300D01*
X18955240Y-9433300D01*
X18955240Y-9362040D01*
X18939553Y-9308574D01*
X18904599Y-9265181D01*
X18855700Y-9238467D01*
X18847706Y-9236799D01*
X18825700Y-9249015D01*
X18800300Y-9249015D01*
X18778294Y-9236799D01*
X18770300Y-9238467D01*
X18721401Y-9265181D01*
X18686448Y-9308574D01*
X18686118Y-9309697D01*
X18659579Y-9269978D01*
X18647500Y-9261908D01*
X18647500Y-9114001D01*
X18647500Y-9114000D01*
X18640763Y-9080133D01*
X18640763Y-9080133D01*
X18621579Y-9051421D01*
X18621579Y-9051421D01*
X18179579Y-8609421D01*
X18170169Y-8603134D01*
X18150868Y-8590237D01*
X18142981Y-8588668D01*
X18117000Y-8583500D01*
X18117000Y-8583500D01*
X18041910Y-8583500D01*
X18011983Y-8538710D01*
X17950829Y-8497849D01*
X17878693Y-8483500D01*
X17871307Y-8483500D01*
X17827452Y-8492223D01*
X17691115Y-8355885D01*
X17660781Y-8335617D01*
X17625000Y-8328500D01*
X16871587Y-8328500D01*
X16869577Y-8318392D01*
X16838470Y-8271837D01*
X16791915Y-8240730D01*
X16737000Y-8229807D01*
X16682085Y-8240730D01*
X16635530Y-8271837D01*
X16612029Y-8307010D01*
X16579490Y-8266550D01*
X16530182Y-8239563D01*
X16521904Y-8237810D01*
X16499700Y-8250008D01*
X16499700Y-8409300D01*
X16501700Y-8409300D01*
X16501700Y-8434700D01*
X16499700Y-8434700D01*
X16499700Y-8593992D01*
X16521904Y-8606190D01*
X16530182Y-8604437D01*
X16579490Y-8577450D01*
X16612029Y-8536990D01*
X16635530Y-8572163D01*
X16682085Y-8603270D01*
X16737000Y-8614193D01*
X16791915Y-8603270D01*
X16838470Y-8572163D01*
X16869577Y-8525608D01*
X16871587Y-8515500D01*
X17284754Y-8515500D01*
X17250018Y-8538710D01*
X17223431Y-8578500D01*
X16992001Y-8578500D01*
X16992000Y-8578500D01*
X16966864Y-8583500D01*
X16956219Y-8585617D01*
X16930004Y-8603134D01*
X16925886Y-8605886D01*
X16749481Y-8782290D01*
X16737000Y-8779807D01*
X16682085Y-8790730D01*
X16635530Y-8821837D01*
X16612029Y-8857010D01*
X16579490Y-8816550D01*
X16530182Y-8789563D01*
X16521904Y-8787810D01*
X16499700Y-8800009D01*
X16499700Y-8959300D01*
X16501700Y-8959300D01*
X16501700Y-8984700D01*
X16499700Y-8984700D01*
X16499700Y-9143992D01*
X16521904Y-9156190D01*
X16530182Y-9154437D01*
X16579490Y-9127450D01*
X16612029Y-9086990D01*
X16635530Y-9122163D01*
X16682085Y-9153270D01*
X16737000Y-9164193D01*
X16791915Y-9153270D01*
X16838470Y-9122163D01*
X16869577Y-9075608D01*
X16880500Y-9020693D01*
X16880500Y-8923307D01*
X16879243Y-8916986D01*
X17030729Y-8765500D01*
X17223431Y-8765500D01*
X17250018Y-8805290D01*
X17298500Y-8837685D01*
X17298500Y-8892000D01*
X17298500Y-8892000D01*
X17304057Y-8919934D01*
X17305237Y-8925868D01*
X17315147Y-8940700D01*
X17324421Y-8954579D01*
X17434421Y-9064579D01*
X17434421Y-9064579D01*
X17463133Y-9083763D01*
X17467233Y-9084579D01*
X17497000Y-9090500D01*
X17497001Y-9090500D01*
X18110342Y-9090500D01*
X18216500Y-9196658D01*
X18216500Y-9261908D01*
X18204421Y-9269978D01*
X18178000Y-9309521D01*
X18151579Y-9269978D01*
X18105433Y-9239145D01*
X18051000Y-9228317D01*
X17996567Y-9239145D01*
X17950421Y-9269978D01*
X17924000Y-9309521D01*
X17897579Y-9269978D01*
X17851433Y-9239145D01*
X17797000Y-9228317D01*
X17742567Y-9239145D01*
X17696421Y-9269978D01*
X17670000Y-9309521D01*
X17643579Y-9269978D01*
X17597433Y-9239145D01*
X17543000Y-9228317D01*
X17488567Y-9239145D01*
X17442421Y-9269978D01*
X17416000Y-9309521D01*
X17389579Y-9269978D01*
X17343433Y-9239145D01*
X17289000Y-9228317D01*
X17234567Y-9239145D01*
X17188421Y-9269978D01*
X17162000Y-9309521D01*
X17135579Y-9269978D01*
X17089433Y-9239145D01*
X17035000Y-9228317D01*
X16980567Y-9239145D01*
X16934421Y-9269978D01*
X16908000Y-9309521D01*
X16881579Y-9269978D01*
X16835433Y-9239145D01*
X16781000Y-9228317D01*
X16726567Y-9239145D01*
X16680421Y-9269978D01*
X16654000Y-9309521D01*
X16627579Y-9269978D01*
X16581433Y-9239145D01*
X16527000Y-9228317D01*
X16472567Y-9239145D01*
X16426421Y-9269978D01*
X16400000Y-9309521D01*
X16373579Y-9269978D01*
X16327433Y-9239145D01*
X16273000Y-9228317D01*
X16218567Y-9239145D01*
X16172421Y-9269978D01*
X16146000Y-9309521D01*
X16119579Y-9269978D01*
X16112500Y-9265248D01*
X16112500Y-9236000D01*
X16105383Y-9200219D01*
X16085114Y-9169886D01*
X15899929Y-8984700D01*
X16343500Y-8984700D01*
X16343500Y-9029700D01*
X16359283Y-9083648D01*
X16394510Y-9127450D01*
X16443818Y-9154437D01*
X16452096Y-9156190D01*
X16474300Y-9143992D01*
X16474300Y-8984700D01*
X16343500Y-8984700D01*
X15899929Y-8984700D01*
X15829529Y-8914300D01*
X16343500Y-8914300D01*
X16343500Y-8959300D01*
X16474300Y-8959300D01*
X16474300Y-8800009D01*
X16452096Y-8787810D01*
X16443818Y-8789563D01*
X16394510Y-8816550D01*
X16359283Y-8860352D01*
X16343500Y-8914300D01*
X15829529Y-8914300D01*
X15770561Y-8855332D01*
X16037628Y-8855332D01*
X16050553Y-8884612D01*
X16120581Y-8911439D01*
X16195543Y-8909425D01*
X16255447Y-8884612D01*
X16268371Y-8855332D01*
X16153000Y-8739961D01*
X16037628Y-8855332D01*
X15770561Y-8855332D01*
X15604810Y-8689581D01*
X15963561Y-8689581D01*
X15965575Y-8764544D01*
X15990388Y-8824447D01*
X16019668Y-8837372D01*
X16135039Y-8722000D01*
X16170960Y-8722000D01*
X16286332Y-8837372D01*
X16315612Y-8824447D01*
X16342439Y-8754419D01*
X16340425Y-8679457D01*
X16315612Y-8619553D01*
X16286332Y-8606629D01*
X16170960Y-8722000D01*
X16135039Y-8722000D01*
X16019668Y-8606629D01*
X15990388Y-8619553D01*
X15963561Y-8689581D01*
X15604810Y-8689581D01*
X15571114Y-8655886D01*
X15540781Y-8635617D01*
X15505000Y-8628500D01*
X15302324Y-8628500D01*
X15296896Y-8615363D01*
X15270247Y-8588668D01*
X16037628Y-8588668D01*
X16153000Y-8704040D01*
X16268371Y-8588668D01*
X16255447Y-8559388D01*
X16185419Y-8532561D01*
X16110456Y-8534575D01*
X16050553Y-8559388D01*
X16037628Y-8588668D01*
X15270247Y-8588668D01*
X15243916Y-8562291D01*
X15174659Y-8533533D01*
X15099669Y-8533467D01*
X15030363Y-8562104D01*
X14977291Y-8615084D01*
X14971720Y-8628500D01*
X14960224Y-8628500D01*
X14960223Y-8628500D01*
X14930379Y-8634436D01*
X14924442Y-8635617D01*
X14897285Y-8653763D01*
X14894109Y-8655886D01*
X14846294Y-8703700D01*
X14584598Y-8703700D01*
X14579273Y-8695730D01*
X14532718Y-8664623D01*
X14506177Y-8659344D01*
X14552600Y-8659344D01*
X14576132Y-8654916D01*
X14597744Y-8641009D01*
X14612243Y-8619789D01*
X14617344Y-8594600D01*
X14617344Y-8434700D01*
X16343500Y-8434700D01*
X16343500Y-8479700D01*
X16359283Y-8533648D01*
X16394510Y-8577450D01*
X16443818Y-8604437D01*
X16452096Y-8606190D01*
X16474300Y-8593992D01*
X16474300Y-8434700D01*
X16343500Y-8434700D01*
X14617344Y-8434700D01*
X14617344Y-8434600D01*
X14612916Y-8411068D01*
X14599009Y-8389456D01*
X14577789Y-8374957D01*
X14552600Y-8369856D01*
X14546173Y-8369856D01*
X14551729Y-8364300D01*
X16343500Y-8364300D01*
X16343500Y-8409300D01*
X16474300Y-8409300D01*
X16474300Y-8250008D01*
X16452096Y-8237810D01*
X16443818Y-8239563D01*
X16394510Y-8266550D01*
X16359283Y-8310352D01*
X16343500Y-8364300D01*
X14551729Y-8364300D01*
X14592929Y-8323100D01*
X16175400Y-8323100D01*
X16211181Y-8315983D01*
X16241514Y-8295714D01*
X16339114Y-8198114D01*
X16359383Y-8167781D01*
X16366500Y-8132000D01*
X16366500Y-8102752D01*
X16373579Y-8098022D01*
X16400000Y-8058479D01*
X16426421Y-8098022D01*
X16472567Y-8128855D01*
X16527000Y-8139683D01*
X16581433Y-8128855D01*
X16627579Y-8098022D01*
X16654000Y-8058479D01*
X16680421Y-8098022D01*
X16726567Y-8128855D01*
X16781000Y-8139683D01*
X16835433Y-8128855D01*
X16881579Y-8098022D01*
X16908000Y-8058479D01*
X16934421Y-8098022D01*
X16980567Y-8128855D01*
X17035000Y-8139683D01*
X17089433Y-8128855D01*
X17135579Y-8098022D01*
X17162000Y-8058479D01*
X17188421Y-8098022D01*
X17234567Y-8128855D01*
X17289000Y-8139683D01*
X17343433Y-8128855D01*
X17389579Y-8098022D01*
X17416000Y-8058479D01*
X17442421Y-8098022D01*
X17488567Y-8128855D01*
X17543000Y-8139683D01*
X17597433Y-8128855D01*
X17643579Y-8098022D01*
X17670000Y-8058479D01*
X17696421Y-8098022D01*
X17742567Y-8128855D01*
X17797000Y-8139683D01*
X17851433Y-8128855D01*
X17897579Y-8098022D01*
X17924000Y-8058479D01*
X17950421Y-8098022D01*
X17996567Y-8128855D01*
X18051000Y-8139683D01*
X18105433Y-8128855D01*
X18151579Y-8098022D01*
X18178000Y-8058479D01*
X18204421Y-8098022D01*
X18250567Y-8128855D01*
X18305000Y-8139683D01*
X18322737Y-8136155D01*
X19271161Y-9084579D01*
X19271161Y-9084579D01*
X19290345Y-9097398D01*
X19299873Y-9103763D01*
X19333740Y-9110500D01*
X19333741Y-9110500D01*
X20337000Y-9110500D01*
X20337000Y-9110500D01*
X20365248Y-9104881D01*
X20370868Y-9103763D01*
X20399579Y-9084579D01*
X20464580Y-9019578D01*
X20464580Y-9019578D01*
X20483764Y-8990867D01*
X20485031Y-8984500D01*
X20490501Y-8956999D01*
X20490501Y-8956999D01*
X20490501Y-8637002D01*
X20490501Y-8637001D01*
X20484460Y-8606629D01*
X20483764Y-8603134D01*
X20464580Y-8574422D01*
X20464580Y-8574422D01*
X20399579Y-8509421D01*
X20382260Y-8497849D01*
X20378192Y-8495131D01*
X20364117Y-8474066D01*
X20322596Y-8446322D01*
X20326735Y-8445097D01*
X20368915Y-8410954D01*
X20394817Y-8363268D01*
X20396232Y-8356118D01*
X20383966Y-8334700D01*
X20199700Y-8334700D01*
X20199700Y-8336700D01*
X20174300Y-8336700D01*
X20174300Y-8334700D01*
X19990034Y-8334700D01*
X19977768Y-8356118D01*
X19979183Y-8363268D01*
X20005086Y-8410954D01*
X20047265Y-8445097D01*
X20051404Y-8446322D01*
X20009883Y-8474066D01*
X19979860Y-8518998D01*
X19969317Y-8572000D01*
X19979860Y-8625002D01*
X20009883Y-8669934D01*
X20050390Y-8697000D01*
X20009883Y-8724066D01*
X20003579Y-8733500D01*
X19423658Y-8733500D01*
X18901500Y-8211342D01*
X18901500Y-8106092D01*
X18913579Y-8098022D01*
X18944413Y-8051876D01*
X18955240Y-7997443D01*
X18955240Y-7846557D01*
X18944413Y-7792124D01*
X18923282Y-7760500D01*
X18950342Y-7760500D01*
X19324421Y-8134579D01*
X19324421Y-8134579D01*
X19349468Y-8151314D01*
X19353133Y-8153763D01*
X19387000Y-8160500D01*
X19387001Y-8160500D01*
X19974796Y-8160500D01*
X19976684Y-8170532D01*
X19990591Y-8192144D01*
X20011811Y-8206643D01*
X20032522Y-8210837D01*
X20005086Y-8233046D01*
X19979183Y-8280732D01*
X19977768Y-8287881D01*
X19990034Y-8309300D01*
X20174300Y-8309300D01*
X20174300Y-8307300D01*
X20199700Y-8307300D01*
X20199700Y-8309300D01*
X20383966Y-8309300D01*
X20396232Y-8287881D01*
X20394817Y-8280732D01*
X20368915Y-8233046D01*
X20341543Y-8210889D01*
X20360532Y-8207316D01*
X20382144Y-8193409D01*
X20396643Y-8172189D01*
X20401744Y-8147000D01*
X20401744Y-7997000D01*
X20397316Y-7973468D01*
X20383409Y-7951856D01*
X20362189Y-7937357D01*
X20337000Y-7932256D01*
X20037000Y-7932256D01*
X20013468Y-7936684D01*
X19991856Y-7950591D01*
X19977357Y-7971811D01*
X19974990Y-7983500D01*
X19423658Y-7983500D01*
X19049579Y-7609421D01*
X19040718Y-7603500D01*
X19020868Y-7590237D01*
X19015248Y-7589119D01*
X18987000Y-7583500D01*
X18987000Y-7583500D01*
X18637001Y-7583500D01*
X18637000Y-7583500D01*
X18603133Y-7590237D01*
X18603132Y-7590237D01*
X18603133Y-7590237D01*
X18574421Y-7609421D01*
X18574421Y-7609421D01*
X18496421Y-7687421D01*
X18477237Y-7716132D01*
X18476362Y-7720532D01*
X18473274Y-7736054D01*
X18458421Y-7745978D01*
X18432000Y-7785520D01*
X18405579Y-7745978D01*
X18359433Y-7715145D01*
X18305000Y-7704317D01*
X18250567Y-7715145D01*
X18204421Y-7745978D01*
X18178000Y-7785520D01*
X18151579Y-7745978D01*
X18149500Y-7744589D01*
X18149500Y-7742800D01*
X18360650Y-7531650D01*
X18382002Y-7499694D01*
X18389500Y-7462000D01*
X18389500Y-7101514D01*
X18396005Y-7097168D01*
X18428196Y-7048991D01*
X18439500Y-6992162D01*
X18439500Y-6822000D01*
X18813500Y-6822000D01*
X18813500Y-6922000D01*
X18814912Y-6929100D01*
X18814912Y-6936339D01*
X18822524Y-6974607D01*
X18833499Y-7001103D01*
X18855176Y-7033545D01*
X18867138Y-7045507D01*
X18875455Y-7053824D01*
X18907897Y-7075501D01*
X18913007Y-7077617D01*
X18934393Y-7086476D01*
X18972661Y-7094088D01*
X18979900Y-7094088D01*
X18987000Y-7095500D01*
X19387000Y-7095500D01*
X19394100Y-7094088D01*
X19401339Y-7094088D01*
X19439607Y-7086476D01*
X19466103Y-7075501D01*
X19498545Y-7053824D01*
X19512064Y-7040305D01*
X19518824Y-7033545D01*
X19540501Y-7001103D01*
X19547378Y-6984500D01*
X19551476Y-6974607D01*
X19559088Y-6936339D01*
X19559088Y-6929100D01*
X19560500Y-6922000D01*
X19560500Y-6822000D01*
X19643500Y-6822000D01*
X19643500Y-6922000D01*
X19644912Y-6929100D01*
X19644912Y-6936339D01*
X19652524Y-6974607D01*
X19663499Y-7001103D01*
X19685176Y-7033545D01*
X19697138Y-7045507D01*
X19705455Y-7053824D01*
X19737897Y-7075501D01*
X19743007Y-7077617D01*
X19764393Y-7086476D01*
X19802661Y-7094088D01*
X19809900Y-7094088D01*
X19817000Y-7095500D01*
X20217000Y-7095500D01*
X20224100Y-7094088D01*
X20231339Y-7094088D01*
X20269607Y-7086476D01*
X20296103Y-7075501D01*
X20328545Y-7053824D01*
X20342064Y-7040305D01*
X20348824Y-7033545D01*
X20370501Y-7001103D01*
X20377378Y-6984500D01*
X20381476Y-6974607D01*
X20389088Y-6936339D01*
X20389088Y-6929100D01*
X20390500Y-6922000D01*
X20390500Y-6822000D01*
X20389088Y-6814900D01*
X20389088Y-6807661D01*
X20381476Y-6769393D01*
X20370501Y-6742897D01*
X20370501Y-6742897D01*
X20348824Y-6710455D01*
X20340879Y-6702510D01*
X20328545Y-6690176D01*
X20296103Y-6668499D01*
X20269607Y-6657524D01*
X20231339Y-6649912D01*
X20224100Y-6649912D01*
X20217000Y-6648500D01*
X19817000Y-6648500D01*
X19809900Y-6649912D01*
X19802661Y-6649912D01*
X19764393Y-6657524D01*
X19745658Y-6665285D01*
X19737897Y-6668499D01*
X19705455Y-6690176D01*
X19698695Y-6696936D01*
X19685176Y-6710455D01*
X19663499Y-6742897D01*
X19663499Y-6742897D01*
X19652524Y-6769393D01*
X19644912Y-6807661D01*
X19644912Y-6814900D01*
X19643500Y-6822000D01*
X19560500Y-6822000D01*
X19559088Y-6814900D01*
X19559088Y-6807661D01*
X19551476Y-6769393D01*
X19540501Y-6742897D01*
X19540501Y-6742897D01*
X19518824Y-6710455D01*
X19510879Y-6702510D01*
X19498545Y-6690176D01*
X19466103Y-6668499D01*
X19439607Y-6657524D01*
X19401339Y-6649912D01*
X19394100Y-6649912D01*
X19387000Y-6648500D01*
X18987000Y-6648500D01*
X18979900Y-6649912D01*
X18972661Y-6649912D01*
X18934393Y-6657524D01*
X18915658Y-6665285D01*
X18907897Y-6668499D01*
X18875455Y-6690176D01*
X18868695Y-6696936D01*
X18855176Y-6710455D01*
X18833499Y-6742897D01*
X18833499Y-6742897D01*
X18822524Y-6769393D01*
X18814912Y-6807661D01*
X18814912Y-6814900D01*
X18813500Y-6822000D01*
X18439500Y-6822000D01*
X18439500Y-6751838D01*
X18428196Y-6695009D01*
X18396005Y-6646832D01*
X18347829Y-6614642D01*
X18291000Y-6603338D01*
X18234172Y-6614642D01*
X18185995Y-6646832D01*
X18163267Y-6680846D01*
X18133025Y-6643014D01*
X18082095Y-6614944D01*
X18072689Y-6612852D01*
X18049700Y-6624984D01*
X18049700Y-6859300D01*
X18051700Y-6859300D01*
X18051700Y-6884700D01*
X18049700Y-6884700D01*
X18049700Y-7119015D01*
X18072689Y-7131148D01*
X18082095Y-7129056D01*
X18133025Y-7100986D01*
X18163267Y-7063154D01*
X18185995Y-7097168D01*
X18192500Y-7101514D01*
X18192500Y-7421200D01*
X17981350Y-7632350D01*
X17959998Y-7664306D01*
X17952500Y-7702000D01*
X17952500Y-7744589D01*
X17950421Y-7745978D01*
X17924000Y-7785520D01*
X17897579Y-7745978D01*
X17895500Y-7744589D01*
X17895500Y-7129763D01*
X17913144Y-7118409D01*
X17927643Y-7097189D01*
X17929724Y-7086911D01*
X17940975Y-7100986D01*
X17991905Y-7129056D01*
X18001311Y-7131148D01*
X18024300Y-7119015D01*
X18024300Y-6884700D01*
X18022300Y-6884700D01*
X18022300Y-6859300D01*
X18024300Y-6859300D01*
X18024300Y-6624984D01*
X18001311Y-6612852D01*
X17991905Y-6614944D01*
X17940975Y-6643014D01*
X17929898Y-6656872D01*
X17928316Y-6648468D01*
X17914409Y-6626856D01*
X17893189Y-6612357D01*
X17868000Y-6607256D01*
X17698000Y-6607256D01*
X17674468Y-6611684D01*
X17652856Y-6625591D01*
X17638357Y-6646811D01*
X17633256Y-6672000D01*
X17633256Y-7072000D01*
X17637684Y-7095532D01*
X17651591Y-7117144D01*
X17672811Y-7131643D01*
X17698000Y-7136744D01*
X17698500Y-7136744D01*
X17698500Y-7744589D01*
X17696421Y-7745978D01*
X17670000Y-7785520D01*
X17643579Y-7745978D01*
X17597433Y-7715145D01*
X17543000Y-7704317D01*
X17488567Y-7715145D01*
X17442421Y-7745978D01*
X17416000Y-7785520D01*
X17389579Y-7745978D01*
X17343433Y-7715145D01*
X17289000Y-7704317D01*
X17234567Y-7715145D01*
X17188421Y-7745978D01*
X17162000Y-7785520D01*
X17135579Y-7745978D01*
X17118500Y-7734567D01*
X17118500Y-7605500D01*
X17225544Y-7605500D01*
X17235104Y-7628637D01*
X17288084Y-7681709D01*
X17357341Y-7710467D01*
X17432331Y-7710533D01*
X17501637Y-7681896D01*
X17554709Y-7628916D01*
X17583467Y-7559659D01*
X17583533Y-7484669D01*
X17554896Y-7415363D01*
X17501916Y-7362291D01*
X17432660Y-7333533D01*
X17357670Y-7333467D01*
X17288363Y-7362104D01*
X17235291Y-7415084D01*
X17225568Y-7438500D01*
X16992687Y-7438500D01*
X16967500Y-7413313D01*
X16967500Y-7180724D01*
X16994901Y-7196667D01*
X17004453Y-7198310D01*
X17024300Y-7185907D01*
X17024300Y-7061700D01*
X17049700Y-7061700D01*
X17049700Y-7185907D01*
X17069547Y-7198310D01*
X17079099Y-7196667D01*
X17122837Y-7171219D01*
X17153507Y-7130970D01*
X17166440Y-7082048D01*
X17150230Y-7061700D01*
X17049700Y-7061700D01*
X17024300Y-7061700D01*
X17022300Y-7061700D01*
X17022300Y-7036300D01*
X17024300Y-7036300D01*
X17024300Y-6912093D01*
X17049700Y-6912093D01*
X17049700Y-7036300D01*
X17150230Y-7036300D01*
X17166440Y-7015952D01*
X17153507Y-6967030D01*
X17122837Y-6926781D01*
X17079099Y-6901333D01*
X17069547Y-6899690D01*
X17049700Y-6912093D01*
X17024300Y-6912093D01*
X17012500Y-6904719D01*
X17012500Y-6860993D01*
X17002719Y-6811818D01*
X16974863Y-6770130D01*
X16933175Y-6742274D01*
X16884000Y-6732493D01*
X16834825Y-6742274D01*
X16793137Y-6770130D01*
X16765281Y-6811818D01*
X16755500Y-6860993D01*
X16755500Y-6904184D01*
X16747000Y-6902493D01*
X16697825Y-6912274D01*
X16656137Y-6940130D01*
X16635844Y-6970500D01*
X16520658Y-6970500D01*
X16359579Y-6809421D01*
X16348023Y-6801700D01*
X16330867Y-6790237D01*
X16325248Y-6789119D01*
X16297000Y-6783500D01*
X16296999Y-6783500D01*
X16207020Y-6783500D01*
X16207020Y-6770454D01*
X16194839Y-6709217D01*
X16160151Y-6657303D01*
X16108237Y-6622615D01*
X16047000Y-6610434D01*
X15985763Y-6622615D01*
X15933849Y-6657303D01*
X15920000Y-6678029D01*
X15906151Y-6657303D01*
X15854237Y-6622615D01*
X15793000Y-6610434D01*
X15731763Y-6622615D01*
X15679849Y-6657303D01*
X15666000Y-6678029D01*
X15652151Y-6657303D01*
X15600237Y-6622615D01*
X15539000Y-6610434D01*
X15477763Y-6622615D01*
X15425849Y-6657303D01*
X15412000Y-6678029D01*
X15398151Y-6657303D01*
X15346237Y-6622615D01*
X15285000Y-6610434D01*
X15223763Y-6622615D01*
X15171849Y-6657303D01*
X15158000Y-6678029D01*
X15144151Y-6657303D01*
X15092237Y-6622615D01*
X15031000Y-6610434D01*
X14969763Y-6622615D01*
X14917849Y-6657303D01*
X14904000Y-6678029D01*
X14890151Y-6657303D01*
X14838237Y-6622615D01*
X14777000Y-6610434D01*
X14715763Y-6622615D01*
X14663849Y-6657303D01*
X14650000Y-6678029D01*
X14636151Y-6657303D01*
X14584237Y-6622615D01*
X14523000Y-6610434D01*
X14461763Y-6622615D01*
X14409849Y-6657303D01*
X14396000Y-6678029D01*
X14382151Y-6657303D01*
X14330237Y-6622615D01*
X14269000Y-6610434D01*
X14207763Y-6622615D01*
X14155849Y-6657303D01*
X14142000Y-6678029D01*
X14128151Y-6657303D01*
X14076237Y-6622615D01*
X14015000Y-6610434D01*
X13953763Y-6622615D01*
X13901849Y-6657303D01*
X13888000Y-6678029D01*
X13874151Y-6657303D01*
X13822237Y-6622615D01*
X13761000Y-6610434D01*
X13699763Y-6622615D01*
X13647849Y-6657303D01*
X13634000Y-6678029D01*
X13620151Y-6657303D01*
X13568237Y-6622615D01*
X13507000Y-6610434D01*
X13445763Y-6622615D01*
X13393849Y-6657303D01*
X13378466Y-6680325D01*
X13357171Y-6653348D01*
X13302504Y-6622781D01*
X13290497Y-6619915D01*
X13265700Y-6631896D01*
X13265700Y-6859300D01*
X13267700Y-6859300D01*
X13267700Y-6884700D01*
X13265700Y-6884700D01*
X13265700Y-7112104D01*
X13290497Y-7124085D01*
X13302504Y-7121219D01*
X13357171Y-7090651D01*
X13378466Y-7063675D01*
X13393849Y-7086697D01*
X13413500Y-7099828D01*
X13413500Y-7102000D01*
X13420617Y-7137781D01*
X13440885Y-7168114D01*
X13521271Y-7248500D01*
X13215729Y-7248500D01*
X13092500Y-7125271D01*
X13092500Y-7099828D01*
X13112151Y-7086697D01*
X13127534Y-7063675D01*
X13148829Y-7090651D01*
X13203496Y-7121219D01*
X13215503Y-7124085D01*
X13240300Y-7112104D01*
X13240300Y-6884700D01*
X13238300Y-6884700D01*
X13238300Y-6859300D01*
X13240300Y-6859300D01*
X13240300Y-6631896D01*
X13215503Y-6619915D01*
X13203496Y-6622781D01*
X13148829Y-6653348D01*
X13127534Y-6680325D01*
X13112151Y-6657303D01*
X13060237Y-6622615D01*
X12999000Y-6610434D01*
X12937763Y-6622615D01*
X12885849Y-6657303D01*
X12872000Y-6678029D01*
X12858151Y-6657303D01*
X12806237Y-6622615D01*
X12745000Y-6610434D01*
X12683763Y-6622615D01*
X12631849Y-6657303D01*
X12618000Y-6678029D01*
X12604151Y-6657303D01*
X12552237Y-6622615D01*
X12491000Y-6610434D01*
X12429763Y-6622615D01*
X12377849Y-6657303D01*
X12362466Y-6680325D01*
X12341171Y-6653348D01*
X12286504Y-6622781D01*
X12274497Y-6619915D01*
X12249700Y-6631896D01*
X12249700Y-6859300D01*
X12251700Y-6859300D01*
X12251700Y-6884700D01*
X12249700Y-6884700D01*
X12249700Y-7112104D01*
X12274497Y-7124085D01*
X12286504Y-7121219D01*
X12341171Y-7090651D01*
X12362466Y-7063675D01*
X12377849Y-7086697D01*
X12397500Y-7099828D01*
X12397500Y-7339271D01*
X12210271Y-7526500D01*
X10820589Y-7526500D01*
X10815169Y-7513381D01*
X10762198Y-7460318D01*
X10692953Y-7431565D01*
X10617976Y-7431499D01*
X10548681Y-7460131D01*
X10495618Y-7513102D01*
X10466865Y-7582347D01*
X10466799Y-7657324D01*
X10355500Y-7657324D01*
X10355500Y-6822000D01*
X10483500Y-6822000D01*
X10483500Y-6922000D01*
X10484912Y-6929100D01*
X10484912Y-6936339D01*
X10492524Y-6974607D01*
X10503499Y-7001103D01*
X10525176Y-7033545D01*
X10537138Y-7045507D01*
X10545455Y-7053824D01*
X10577897Y-7075501D01*
X10583007Y-7077617D01*
X10604393Y-7086476D01*
X10642661Y-7094088D01*
X10649900Y-7094088D01*
X10657000Y-7095500D01*
X11057000Y-7095500D01*
X11064100Y-7094088D01*
X11071339Y-7094088D01*
X11109607Y-7086476D01*
X11136103Y-7075501D01*
X11168545Y-7053824D01*
X11182064Y-7040305D01*
X11188824Y-7033545D01*
X11210501Y-7001103D01*
X11217378Y-6984500D01*
X11221476Y-6974607D01*
X11229088Y-6936339D01*
X11229088Y-6929100D01*
X11230500Y-6922000D01*
X11230500Y-6822000D01*
X11313500Y-6822000D01*
X11313500Y-6922000D01*
X11314912Y-6929100D01*
X11314912Y-6936339D01*
X11322524Y-6974607D01*
X11333499Y-7001103D01*
X11355176Y-7033545D01*
X11367138Y-7045507D01*
X11375455Y-7053824D01*
X11407897Y-7075501D01*
X11413007Y-7077617D01*
X11434393Y-7086476D01*
X11472661Y-7094088D01*
X11479900Y-7094088D01*
X11487000Y-7095500D01*
X11887000Y-7095500D01*
X11894100Y-7094088D01*
X11901339Y-7094088D01*
X11939607Y-7086476D01*
X11966103Y-7075501D01*
X11998545Y-7053824D01*
X12012064Y-7040305D01*
X12018824Y-7033545D01*
X12040501Y-7001103D01*
X12047378Y-6984500D01*
X12051476Y-6974607D01*
X12059088Y-6936339D01*
X12059088Y-6929100D01*
X12060500Y-6922000D01*
X12060500Y-6884700D01*
X12076980Y-6884700D01*
X12076980Y-6981220D01*
X12094021Y-7041490D01*
X12132829Y-7090651D01*
X12187496Y-7121219D01*
X12199503Y-7124085D01*
X12224300Y-7112104D01*
X12224300Y-6884700D01*
X12076980Y-6884700D01*
X12060500Y-6884700D01*
X12060500Y-6822000D01*
X12059088Y-6814900D01*
X12059088Y-6807661D01*
X12051476Y-6769393D01*
X12048737Y-6762780D01*
X12076980Y-6762780D01*
X12076980Y-6859300D01*
X12224300Y-6859300D01*
X12224300Y-6631896D01*
X12199503Y-6619915D01*
X12187496Y-6622781D01*
X12132829Y-6653348D01*
X12094021Y-6702510D01*
X12076980Y-6762780D01*
X12048737Y-6762780D01*
X12040501Y-6742897D01*
X12040501Y-6742897D01*
X12018824Y-6710455D01*
X12010878Y-6702510D01*
X11998545Y-6690176D01*
X11966103Y-6668499D01*
X11939607Y-6657524D01*
X11901339Y-6649912D01*
X11894100Y-6649912D01*
X11887000Y-6648500D01*
X11487000Y-6648500D01*
X11479900Y-6649912D01*
X11472661Y-6649912D01*
X11434393Y-6657524D01*
X11415658Y-6665285D01*
X11407897Y-6668499D01*
X11375455Y-6690176D01*
X11368695Y-6696936D01*
X11355176Y-6710455D01*
X11333499Y-6742897D01*
X11333499Y-6742897D01*
X11322524Y-6769393D01*
X11314912Y-6807661D01*
X11314912Y-6814900D01*
X11313500Y-6822000D01*
X11230500Y-6822000D01*
X11229088Y-6814900D01*
X11229088Y-6807661D01*
X11221476Y-6769393D01*
X11210501Y-6742897D01*
X11210501Y-6742897D01*
X11188824Y-6710455D01*
X11180879Y-6702510D01*
X11168545Y-6690176D01*
X11136103Y-6668499D01*
X11109607Y-6657524D01*
X11071339Y-6649912D01*
X11064100Y-6649912D01*
X11057000Y-6648500D01*
X10657000Y-6648500D01*
X10649900Y-6649912D01*
X10642661Y-6649912D01*
X10604393Y-6657524D01*
X10585658Y-6665285D01*
X10577897Y-6668499D01*
X10545455Y-6690176D01*
X10538695Y-6696936D01*
X10525176Y-6710455D01*
X10503499Y-6742897D01*
X10503499Y-6742897D01*
X10492524Y-6769393D01*
X10484912Y-6807661D01*
X10484912Y-6814900D01*
X10483500Y-6822000D01*
X10355500Y-6822000D01*
X10355500Y-6540500D01*
X20568500Y-6540500D01*
X20568500Y-10853500D01*
X20568500Y-10853500D01*
G37*
X20568500Y-10853500D02*
X10355500Y-10853500D01*
X10355500Y-10420575D01*
X12142760Y-10420575D01*
X12142760Y-10554631D01*
X12152427Y-10577970D01*
X12170290Y-10595833D01*
X12193629Y-10605500D01*
X12256425Y-10605500D01*
X12272300Y-10589625D01*
X12272300Y-10404700D01*
X12297700Y-10404700D01*
X12297700Y-10589625D01*
X12313575Y-10605500D01*
X12376371Y-10605500D01*
X12399710Y-10595833D01*
X12417573Y-10577970D01*
X12427240Y-10554631D01*
X12427240Y-10547790D01*
X12447401Y-10572819D01*
X12496300Y-10599533D01*
X12504294Y-10601201D01*
X12526300Y-10588985D01*
X12526300Y-10404700D01*
X12551700Y-10404700D01*
X12551700Y-10588985D01*
X12573706Y-10601201D01*
X12581700Y-10599533D01*
X12630599Y-10572819D01*
X12665552Y-10529426D01*
X12666000Y-10527901D01*
X12666447Y-10529426D01*
X12701401Y-10572819D01*
X12750300Y-10599533D01*
X12758294Y-10601201D01*
X12780300Y-10588985D01*
X12780300Y-10404700D01*
X12805700Y-10404700D01*
X12805700Y-10588985D01*
X12827706Y-10601201D01*
X12835700Y-10599533D01*
X12884599Y-10572819D01*
X12919552Y-10529426D01*
X12920000Y-10527901D01*
X12920447Y-10529426D01*
X12955401Y-10572819D01*
X13004300Y-10599533D01*
X13012294Y-10601201D01*
X13034300Y-10588985D01*
X13034300Y-10404700D01*
X13059700Y-10404700D01*
X13059700Y-10588985D01*
X13081706Y-10601201D01*
X13089700Y-10599533D01*
X13138599Y-10572819D01*
X13173552Y-10529426D01*
X13182018Y-10500575D01*
X14248500Y-10500575D01*
X14248500Y-10634631D01*
X14258167Y-10657970D01*
X14276030Y-10675833D01*
X14299369Y-10685500D01*
X14358425Y-10685500D01*
X14374300Y-10669625D01*
X14374300Y-10484700D01*
X14264375Y-10484700D01*
X14248500Y-10500575D01*
X13182018Y-10500575D01*
X13189240Y-10475960D01*
X13189240Y-10404700D01*
X13059700Y-10404700D01*
X13034300Y-10404700D01*
X12805700Y-10404700D01*
X12780300Y-10404700D01*
X12551700Y-10404700D01*
X12526300Y-10404700D01*
X12297700Y-10404700D01*
X12272300Y-10404700D01*
X12158635Y-10404700D01*
X12142760Y-10420575D01*
X10355500Y-10420575D01*
X10355500Y-10229369D01*
X12142760Y-10229369D01*
X12142760Y-10363425D01*
X12158635Y-10379300D01*
X12272300Y-10379300D01*
X12272300Y-10194375D01*
X12256425Y-10178500D01*
X12193629Y-10178500D01*
X12170290Y-10188167D01*
X12152427Y-10206030D01*
X12142760Y-10229369D01*
X10355500Y-10229369D01*
X10355500Y-9922000D01*
X10483500Y-9922000D01*
X10483500Y-10022000D01*
X10484912Y-10029100D01*
X10484912Y-10036339D01*
X10492524Y-10074607D01*
X10503499Y-10101103D01*
X10525176Y-10133545D01*
X10538695Y-10147064D01*
X10545455Y-10153824D01*
X10577897Y-10175501D01*
X10584854Y-10178383D01*
X10604393Y-10186476D01*
X10642661Y-10194088D01*
X10649900Y-10194088D01*
X10657000Y-10195500D01*
X11057000Y-10195500D01*
X11064100Y-10194088D01*
X11071339Y-10194088D01*
X11109607Y-10186476D01*
X11136103Y-10175501D01*
X11168545Y-10153824D01*
X11182064Y-10140305D01*
X11188824Y-10133545D01*
X11210501Y-10101103D01*
X11216915Y-10085617D01*
X11221476Y-10074607D01*
X11229088Y-10036339D01*
X11229088Y-10029100D01*
X11230500Y-10022000D01*
X11230500Y-9922000D01*
X11313500Y-9922000D01*
X11313500Y-10022000D01*
X11314912Y-10029100D01*
X11314912Y-10036339D01*
X11322524Y-10074607D01*
X11333499Y-10101103D01*
X11355176Y-10133545D01*
X11368695Y-10147064D01*
X11375455Y-10153824D01*
X11407897Y-10175501D01*
X11414854Y-10178383D01*
X11434393Y-10186476D01*
X11472661Y-10194088D01*
X11479900Y-10194088D01*
X11487000Y-10195500D01*
X11887000Y-10195500D01*
X11894100Y-10194088D01*
X11901339Y-10194088D01*
X11939607Y-10186476D01*
X11966103Y-10175501D01*
X11998545Y-10153824D01*
X12012064Y-10140305D01*
X12018824Y-10133545D01*
X12040501Y-10101103D01*
X12046915Y-10085617D01*
X12051476Y-10074607D01*
X12059088Y-10036339D01*
X12059088Y-10029100D01*
X12060500Y-10022000D01*
X12060500Y-9922000D01*
X12059088Y-9914900D01*
X12059088Y-9907661D01*
X12051476Y-9869393D01*
X12042822Y-9848500D01*
X12040501Y-9842897D01*
X12018824Y-9810455D01*
X12012064Y-9803695D01*
X11998545Y-9790176D01*
X11966103Y-9768499D01*
X11939607Y-9757524D01*
X11901339Y-9749912D01*
X11894100Y-9749912D01*
X11887000Y-9748500D01*
X11487000Y-9748500D01*
X11479900Y-9749912D01*
X11472661Y-9749912D01*
X11434393Y-9757524D01*
X11419288Y-9763781D01*
X11407897Y-9768499D01*
X11375455Y-9790176D01*
X11369850Y-9795781D01*
X11355176Y-9810455D01*
X11333499Y-9842897D01*
X11328861Y-9854095D01*
X11322524Y-9869393D01*
X11314912Y-9907661D01*
X11314912Y-9914900D01*
X11313500Y-9922000D01*
X11230500Y-9922000D01*
X11229088Y-9914900D01*
X11229088Y-9907661D01*
X11221476Y-9869393D01*
X11212822Y-9848500D01*
X11210501Y-9842897D01*
X11188824Y-9810455D01*
X11182064Y-9803695D01*
X11168545Y-9790176D01*
X11136103Y-9768499D01*
X11109607Y-9757524D01*
X11071339Y-9749912D01*
X11064100Y-9749912D01*
X11057000Y-9748500D01*
X10657000Y-9748500D01*
X10649900Y-9749912D01*
X10642661Y-9749912D01*
X10604393Y-9757524D01*
X10589288Y-9763781D01*
X10577897Y-9768499D01*
X10545455Y-9790176D01*
X10539850Y-9795781D01*
X10525176Y-9810455D01*
X10503499Y-9842897D01*
X10498861Y-9854095D01*
X10492524Y-9869393D01*
X10484912Y-9907661D01*
X10484912Y-9914900D01*
X10483500Y-9922000D01*
X10355500Y-9922000D01*
X10355500Y-8620104D01*
X11525610Y-8620104D01*
X11527363Y-8628382D01*
X11554350Y-8677690D01*
X11598152Y-8712917D01*
X11652100Y-8728700D01*
X11722100Y-8728700D01*
X11722100Y-8597900D01*
X11537808Y-8597900D01*
X11525610Y-8620104D01*
X10355500Y-8620104D01*
X10355500Y-8550296D01*
X11525610Y-8550296D01*
X11537808Y-8572500D01*
X11722100Y-8572500D01*
X11722100Y-8441700D01*
X11652100Y-8441700D01*
X11598152Y-8457483D01*
X11554350Y-8492710D01*
X11527363Y-8542018D01*
X11525610Y-8550296D01*
X10355500Y-8550296D01*
X10355500Y-8253181D01*
X10539952Y-8253181D01*
X10552873Y-8282458D01*
X10622888Y-8309279D01*
X10697838Y-8307265D01*
X10757728Y-8282458D01*
X10770648Y-8253181D01*
X10655300Y-8137832D01*
X10539952Y-8253181D01*
X10355500Y-8253181D01*
X10355500Y-8087460D01*
X10465893Y-8087460D01*
X10467907Y-8162410D01*
X10492714Y-8222299D01*
X10521991Y-8235220D01*
X10637340Y-8119872D01*
X10521991Y-8004524D01*
X10492714Y-8017444D01*
X10465893Y-8087460D01*
X10355500Y-8087460D01*
X10355500Y-7657324D01*
X10466799Y-7657324D01*
X10495431Y-7726619D01*
X10548402Y-7779682D01*
X10585674Y-7795159D01*
X10589186Y-7800414D01*
X10738811Y-7950039D01*
X10687712Y-7930465D01*
X10612762Y-7932479D01*
X10552873Y-7957286D01*
X10539952Y-7986563D01*
X10655300Y-8101911D01*
X10656714Y-8100497D01*
X10674675Y-8118458D01*
X10673261Y-8119872D01*
X10788609Y-8235220D01*
X10817886Y-8222299D01*
X10844707Y-8152284D01*
X10842693Y-8077334D01*
X10826138Y-8037367D01*
X10940086Y-8151314D01*
X10970419Y-8171583D01*
X11006200Y-8178700D01*
X11553822Y-8178700D01*
X11559147Y-8186670D01*
X11605702Y-8217777D01*
X11660617Y-8228700D01*
X11808983Y-8228700D01*
X11863898Y-8217777D01*
X11910452Y-8186670D01*
X11915778Y-8178700D01*
X11935500Y-8178700D01*
X11935500Y-8529709D01*
X11915250Y-8492710D01*
X11871448Y-8457483D01*
X11817500Y-8441700D01*
X11747500Y-8441700D01*
X11747500Y-8572500D01*
X11749500Y-8572500D01*
X11749500Y-8597900D01*
X11747500Y-8597900D01*
X11747500Y-8728700D01*
X11817500Y-8728700D01*
X11871448Y-8712917D01*
X11915250Y-8677690D01*
X11935500Y-8640691D01*
X11935500Y-9066676D01*
X11922363Y-9072104D01*
X11869291Y-9125084D01*
X11840533Y-9194341D01*
X11840467Y-9269331D01*
X11869104Y-9338637D01*
X11922084Y-9391709D01*
X11991340Y-9420467D01*
X12066330Y-9420533D01*
X12135637Y-9391896D01*
X12184583Y-9343035D01*
X12191500Y-9349952D01*
X12191500Y-9449248D01*
X12184421Y-9453978D01*
X12153587Y-9500124D01*
X12142760Y-9554557D01*
X12142760Y-9705443D01*
X12153587Y-9759876D01*
X12184421Y-9806022D01*
X12191500Y-9810752D01*
X12191500Y-9920000D01*
X12198617Y-9955781D01*
X12218885Y-9986115D01*
X12390885Y-10158115D01*
X12421219Y-10178383D01*
X12457000Y-10185500D01*
X12494410Y-10185500D01*
X12447401Y-10211181D01*
X12427240Y-10236210D01*
X12427240Y-10229369D01*
X12417573Y-10206030D01*
X12399710Y-10188167D01*
X12376371Y-10178500D01*
X12313575Y-10178500D01*
X12297700Y-10194375D01*
X12297700Y-10379300D01*
X12526300Y-10379300D01*
X12526300Y-10377300D01*
X12551700Y-10377300D01*
X12551700Y-10379300D01*
X12780300Y-10379300D01*
X12780300Y-10377300D01*
X12805700Y-10377300D01*
X12805700Y-10379300D01*
X13034300Y-10379300D01*
X13034300Y-10377300D01*
X13059700Y-10377300D01*
X13059700Y-10379300D01*
X13189240Y-10379300D01*
X13189240Y-10309369D01*
X14248500Y-10309369D01*
X14248500Y-10443425D01*
X14264375Y-10459300D01*
X14374300Y-10459300D01*
X14374300Y-10274375D01*
X14358425Y-10258500D01*
X14299369Y-10258500D01*
X14276030Y-10268167D01*
X14258167Y-10286030D01*
X14248500Y-10309369D01*
X13189240Y-10309369D01*
X13189240Y-10308040D01*
X13173552Y-10254574D01*
X13138599Y-10211181D01*
X13091590Y-10185500D01*
X14518271Y-10185500D01*
X14543500Y-10210729D01*
X14543500Y-10291920D01*
X14539066Y-10294883D01*
X14525500Y-10315186D01*
X14525500Y-10309369D01*
X14515833Y-10286030D01*
X14497970Y-10268167D01*
X14474631Y-10258500D01*
X14415575Y-10258500D01*
X14399700Y-10274375D01*
X14399700Y-10459300D01*
X14401700Y-10459300D01*
X14401700Y-10484700D01*
X14399700Y-10484700D01*
X14399700Y-10669625D01*
X14415575Y-10685500D01*
X14474631Y-10685500D01*
X14497970Y-10675833D01*
X14515833Y-10657970D01*
X14525500Y-10634631D01*
X14525500Y-10628815D01*
X14539066Y-10649117D01*
X14583998Y-10679140D01*
X14637000Y-10689683D01*
X14690002Y-10679140D01*
X14734934Y-10649117D01*
X14762000Y-10608610D01*
X14789066Y-10649117D01*
X14833998Y-10679140D01*
X14887000Y-10689683D01*
X14940002Y-10679140D01*
X14984934Y-10649117D01*
X15012000Y-10608610D01*
X15039066Y-10649117D01*
X15083998Y-10679140D01*
X15137000Y-10689683D01*
X15190002Y-10679140D01*
X15234934Y-10649117D01*
X15264957Y-10604184D01*
X15275500Y-10551183D01*
X15275500Y-10500575D01*
X15998500Y-10500575D01*
X15998500Y-10634631D01*
X16008167Y-10657970D01*
X16026030Y-10675833D01*
X16049369Y-10685500D01*
X16108425Y-10685500D01*
X16124300Y-10669625D01*
X16124300Y-10484700D01*
X16014375Y-10484700D01*
X15998500Y-10500575D01*
X15275500Y-10500575D01*
X15275500Y-10392817D01*
X15264957Y-10339816D01*
X15244614Y-10309369D01*
X15998500Y-10309369D01*
X15998500Y-10443425D01*
X16014375Y-10459300D01*
X16124300Y-10459300D01*
X16124300Y-10274375D01*
X16108425Y-10258500D01*
X16049369Y-10258500D01*
X16026030Y-10268167D01*
X16008167Y-10286030D01*
X15998500Y-10309369D01*
X15244614Y-10309369D01*
X15234934Y-10294883D01*
X15230500Y-10291920D01*
X15230500Y-10142000D01*
X15223383Y-10106219D01*
X15203114Y-10075886D01*
X14842500Y-9715271D01*
X14842500Y-9626752D01*
X14849579Y-9622022D01*
X14876000Y-9582480D01*
X14902421Y-9622022D01*
X14909500Y-9626752D01*
X14909500Y-9728000D01*
X14916617Y-9763781D01*
X14936885Y-9794115D01*
X15310885Y-10168115D01*
X15341219Y-10188383D01*
X15377000Y-10195500D01*
X16188271Y-10195500D01*
X16288500Y-10295729D01*
X16275500Y-10315186D01*
X16275500Y-10309369D01*
X16265833Y-10286030D01*
X16247970Y-10268167D01*
X16224631Y-10258500D01*
X16165575Y-10258500D01*
X16149700Y-10274375D01*
X16149700Y-10459300D01*
X16151700Y-10459300D01*
X16151700Y-10484700D01*
X16149700Y-10484700D01*
X16149700Y-10669625D01*
X16165575Y-10685500D01*
X16224631Y-10685500D01*
X16247970Y-10675833D01*
X16265833Y-10657970D01*
X16275500Y-10634631D01*
X16275500Y-10628815D01*
X16289066Y-10649117D01*
X16333998Y-10679140D01*
X16387000Y-10689683D01*
X16440002Y-10679140D01*
X16484934Y-10649117D01*
X16512000Y-10608610D01*
X16539066Y-10649117D01*
X16583998Y-10679140D01*
X16637000Y-10689683D01*
X16690002Y-10679140D01*
X16734934Y-10649117D01*
X16764957Y-10604184D01*
X16775500Y-10551183D01*
X16775500Y-10392817D01*
X16764957Y-10339816D01*
X16734934Y-10294883D01*
X16730500Y-10291920D01*
X16730500Y-10242000D01*
X16723383Y-10206219D01*
X16703114Y-10175886D01*
X16413114Y-9885886D01*
X16382781Y-9865617D01*
X16347000Y-9858500D01*
X15525729Y-9858500D01*
X15350500Y-9683271D01*
X15350500Y-9626752D01*
X15357579Y-9622022D01*
X15384000Y-9582480D01*
X15410421Y-9622022D01*
X15456567Y-9652855D01*
X15511000Y-9663683D01*
X15565433Y-9652855D01*
X15611579Y-9622022D01*
X15638000Y-9582480D01*
X15664421Y-9622022D01*
X15710567Y-9652855D01*
X15765000Y-9663683D01*
X15819433Y-9652855D01*
X15865579Y-9622022D01*
X15892000Y-9582480D01*
X15918421Y-9622022D01*
X15964567Y-9652855D01*
X16019000Y-9663683D01*
X16073433Y-9652855D01*
X16119579Y-9622022D01*
X16146000Y-9582480D01*
X16172421Y-9622022D01*
X16218567Y-9652855D01*
X16273000Y-9663683D01*
X16327433Y-9652855D01*
X16373579Y-9622022D01*
X16400000Y-9582480D01*
X16426421Y-9622022D01*
X16472567Y-9652855D01*
X16527000Y-9663683D01*
X16581433Y-9652855D01*
X16627579Y-9622022D01*
X16654000Y-9582480D01*
X16680421Y-9622022D01*
X16723732Y-9650961D01*
X17447256Y-10374485D01*
X17447256Y-10622000D01*
X17451684Y-10645532D01*
X17465591Y-10667144D01*
X17486811Y-10681643D01*
X17512000Y-10686744D01*
X17662000Y-10686744D01*
X17685532Y-10682316D01*
X17707144Y-10668409D01*
X17721643Y-10647189D01*
X17725837Y-10626478D01*
X17748046Y-10653915D01*
X17795732Y-10679817D01*
X17802882Y-10681232D01*
X17824300Y-10668966D01*
X17824300Y-10484700D01*
X17822300Y-10484700D01*
X17822300Y-10459300D01*
X17824300Y-10459300D01*
X17824300Y-10457300D01*
X17849700Y-10457300D01*
X17849700Y-10459300D01*
X17851700Y-10459300D01*
X17851700Y-10484700D01*
X17849700Y-10484700D01*
X17849700Y-10668966D01*
X17871119Y-10681232D01*
X17878268Y-10679817D01*
X17925954Y-10653915D01*
X17960097Y-10611735D01*
X17961322Y-10607596D01*
X17989066Y-10649117D01*
X18033998Y-10679140D01*
X18087000Y-10689683D01*
X18140002Y-10679140D01*
X18184934Y-10649117D01*
X18214957Y-10604184D01*
X18225500Y-10551183D01*
X18225500Y-10392817D01*
X18214957Y-10339816D01*
X18184934Y-10294883D01*
X18140002Y-10264860D01*
X18087000Y-10254317D01*
X18078281Y-10256052D01*
X17908115Y-10085886D01*
X17877781Y-10065617D01*
X17842000Y-10058500D01*
X17708469Y-10058500D01*
X17571969Y-9922000D01*
X18813500Y-9922000D01*
X18813500Y-10022000D01*
X18814912Y-10029100D01*
X18814912Y-10036339D01*
X18822524Y-10074607D01*
X18833499Y-10101103D01*
X18855176Y-10133545D01*
X18868695Y-10147064D01*
X18875455Y-10153824D01*
X18907897Y-10175501D01*
X18914854Y-10178383D01*
X18934393Y-10186476D01*
X18972661Y-10194088D01*
X18979900Y-10194088D01*
X18987000Y-10195500D01*
X19387000Y-10195500D01*
X19394100Y-10194088D01*
X19401339Y-10194088D01*
X19439607Y-10186476D01*
X19466103Y-10175501D01*
X19498545Y-10153824D01*
X19512064Y-10140305D01*
X19518824Y-10133545D01*
X19540501Y-10101103D01*
X19546915Y-10085617D01*
X19551476Y-10074607D01*
X19559088Y-10036339D01*
X19559088Y-10029100D01*
X19560500Y-10022000D01*
X19560500Y-9922000D01*
X19813500Y-9922000D01*
X19813500Y-10022000D01*
X19814912Y-10029100D01*
X19814912Y-10036339D01*
X19822524Y-10074607D01*
X19833499Y-10101103D01*
X19855176Y-10133545D01*
X19868695Y-10147064D01*
X19875455Y-10153824D01*
X19907897Y-10175501D01*
X19914854Y-10178383D01*
X19934393Y-10186476D01*
X19972661Y-10194088D01*
X19979900Y-10194088D01*
X19987000Y-10195500D01*
X20387000Y-10195500D01*
X20394100Y-10194088D01*
X20401339Y-10194088D01*
X20439607Y-10186476D01*
X20466103Y-10175501D01*
X20498545Y-10153824D01*
X20512064Y-10140305D01*
X20518824Y-10133545D01*
X20540501Y-10101103D01*
X20546915Y-10085617D01*
X20551476Y-10074607D01*
X20559088Y-10036339D01*
X20559088Y-10029100D01*
X20560500Y-10022000D01*
X20560500Y-9922000D01*
X20559088Y-9914900D01*
X20559088Y-9907661D01*
X20551476Y-9869393D01*
X20542822Y-9848500D01*
X20540501Y-9842897D01*
X20518824Y-9810455D01*
X20512064Y-9803695D01*
X20498545Y-9790176D01*
X20466103Y-9768499D01*
X20439607Y-9757524D01*
X20401339Y-9749912D01*
X20394100Y-9749912D01*
X20387000Y-9748500D01*
X19987000Y-9748500D01*
X19979900Y-9749912D01*
X19972661Y-9749912D01*
X19934393Y-9757524D01*
X19919288Y-9763781D01*
X19907897Y-9768499D01*
X19875455Y-9790176D01*
X19869850Y-9795781D01*
X19855176Y-9810455D01*
X19833499Y-9842897D01*
X19828861Y-9854095D01*
X19822524Y-9869393D01*
X19814912Y-9907661D01*
X19814912Y-9914900D01*
X19813500Y-9922000D01*
X19560500Y-9922000D01*
X19559088Y-9914900D01*
X19559088Y-9907661D01*
X19551476Y-9869393D01*
X19542822Y-9848500D01*
X19540501Y-9842897D01*
X19518824Y-9810455D01*
X19512064Y-9803695D01*
X19498545Y-9790176D01*
X19466103Y-9768499D01*
X19439607Y-9757524D01*
X19401339Y-9749912D01*
X19394100Y-9749912D01*
X19387000Y-9748500D01*
X18987000Y-9748500D01*
X18979900Y-9749912D01*
X18972661Y-9749912D01*
X18934393Y-9757524D01*
X18919288Y-9763781D01*
X18907897Y-9768499D01*
X18875455Y-9790176D01*
X18869850Y-9795781D01*
X18855176Y-9810455D01*
X18833499Y-9842897D01*
X18828861Y-9854095D01*
X18822524Y-9869393D01*
X18814912Y-9907661D01*
X18814912Y-9914900D01*
X18813500Y-9922000D01*
X17571969Y-9922000D01*
X17309562Y-9659593D01*
X17343433Y-9652855D01*
X17389579Y-9622022D01*
X17416000Y-9582480D01*
X17442421Y-9622022D01*
X17488567Y-9652855D01*
X17543000Y-9663683D01*
X17597433Y-9652855D01*
X17643579Y-9622022D01*
X17670000Y-9582480D01*
X17696421Y-9622022D01*
X17742567Y-9652855D01*
X17797000Y-9663683D01*
X17851433Y-9652855D01*
X17897579Y-9622022D01*
X17924000Y-9582480D01*
X17950421Y-9622022D01*
X17996567Y-9652855D01*
X18051000Y-9663683D01*
X18105433Y-9652855D01*
X18151579Y-9622022D01*
X18178000Y-9582480D01*
X18204421Y-9622022D01*
X18250567Y-9652855D01*
X18305000Y-9663683D01*
X18359433Y-9652855D01*
X18405579Y-9622022D01*
X18432000Y-9582480D01*
X18458421Y-9622022D01*
X18504567Y-9652855D01*
X18559000Y-9663683D01*
X18613433Y-9652855D01*
X18659579Y-9622022D01*
X18686118Y-9582303D01*
X18686448Y-9583426D01*
X18721401Y-9626819D01*
X18770300Y-9653533D01*
X18778294Y-9655201D01*
X18800300Y-9642985D01*
X18800300Y-9458700D01*
X18825700Y-9458700D01*
X18825700Y-9642985D01*
X18847706Y-9655201D01*
X18855700Y-9653533D01*
X18904599Y-9626819D01*
X18939553Y-9583426D01*
X18955240Y-9529960D01*
X18955240Y-9458700D01*
X18825700Y-9458700D01*
X18800300Y-9458700D01*
X18798300Y-9458700D01*
X18798300Y-9433300D01*
X18800300Y-9433300D01*
X18800300Y-9249015D01*
X18825700Y-9249015D01*
X18825700Y-9433300D01*
X18955240Y-9433300D01*
X18955240Y-9362040D01*
X18939553Y-9308574D01*
X18904599Y-9265181D01*
X18855700Y-9238467D01*
X18847706Y-9236799D01*
X18825700Y-9249015D01*
X18800300Y-9249015D01*
X18778294Y-9236799D01*
X18770300Y-9238467D01*
X18721401Y-9265181D01*
X18686448Y-9308574D01*
X18686118Y-9309697D01*
X18659579Y-9269978D01*
X18647500Y-9261908D01*
X18647500Y-9114001D01*
X18647500Y-9114000D01*
X18640763Y-9080133D01*
X18640763Y-9080133D01*
X18621579Y-9051421D01*
X18621579Y-9051421D01*
X18179579Y-8609421D01*
X18170169Y-8603134D01*
X18150868Y-8590237D01*
X18142981Y-8588668D01*
X18117000Y-8583500D01*
X18117000Y-8583500D01*
X18041910Y-8583500D01*
X18011983Y-8538710D01*
X17950829Y-8497849D01*
X17878693Y-8483500D01*
X17871307Y-8483500D01*
X17827452Y-8492223D01*
X17691115Y-8355885D01*
X17660781Y-8335617D01*
X17625000Y-8328500D01*
X16871587Y-8328500D01*
X16869577Y-8318392D01*
X16838470Y-8271837D01*
X16791915Y-8240730D01*
X16737000Y-8229807D01*
X16682085Y-8240730D01*
X16635530Y-8271837D01*
X16612029Y-8307010D01*
X16579490Y-8266550D01*
X16530182Y-8239563D01*
X16521904Y-8237810D01*
X16499700Y-8250008D01*
X16499700Y-8409300D01*
X16501700Y-8409300D01*
X16501700Y-8434700D01*
X16499700Y-8434700D01*
X16499700Y-8593992D01*
X16521904Y-8606190D01*
X16530182Y-8604437D01*
X16579490Y-8577450D01*
X16612029Y-8536990D01*
X16635530Y-8572163D01*
X16682085Y-8603270D01*
X16737000Y-8614193D01*
X16791915Y-8603270D01*
X16838470Y-8572163D01*
X16869577Y-8525608D01*
X16871587Y-8515500D01*
X17284754Y-8515500D01*
X17250018Y-8538710D01*
X17223431Y-8578500D01*
X16992001Y-8578500D01*
X16992000Y-8578500D01*
X16966864Y-8583500D01*
X16956219Y-8585617D01*
X16930004Y-8603134D01*
X16925886Y-8605886D01*
X16749481Y-8782290D01*
X16737000Y-8779807D01*
X16682085Y-8790730D01*
X16635530Y-8821837D01*
X16612029Y-8857010D01*
X16579490Y-8816550D01*
X16530182Y-8789563D01*
X16521904Y-8787810D01*
X16499700Y-8800009D01*
X16499700Y-8959300D01*
X16501700Y-8959300D01*
X16501700Y-8984700D01*
X16499700Y-8984700D01*
X16499700Y-9143992D01*
X16521904Y-9156190D01*
X16530182Y-9154437D01*
X16579490Y-9127450D01*
X16612029Y-9086990D01*
X16635530Y-9122163D01*
X16682085Y-9153270D01*
X16737000Y-9164193D01*
X16791915Y-9153270D01*
X16838470Y-9122163D01*
X16869577Y-9075608D01*
X16880500Y-9020693D01*
X16880500Y-8923307D01*
X16879243Y-8916986D01*
X17030729Y-8765500D01*
X17223431Y-8765500D01*
X17250018Y-8805290D01*
X17298500Y-8837685D01*
X17298500Y-8892000D01*
X17298500Y-8892000D01*
X17304057Y-8919934D01*
X17305237Y-8925868D01*
X17315147Y-8940700D01*
X17324421Y-8954579D01*
X17434421Y-9064579D01*
X17434421Y-9064579D01*
X17463133Y-9083763D01*
X17467233Y-9084579D01*
X17497000Y-9090500D01*
X17497001Y-9090500D01*
X18110342Y-9090500D01*
X18216500Y-9196658D01*
X18216500Y-9261908D01*
X18204421Y-9269978D01*
X18178000Y-9309521D01*
X18151579Y-9269978D01*
X18105433Y-9239145D01*
X18051000Y-9228317D01*
X17996567Y-9239145D01*
X17950421Y-9269978D01*
X17924000Y-9309521D01*
X17897579Y-9269978D01*
X17851433Y-9239145D01*
X17797000Y-9228317D01*
X17742567Y-9239145D01*
X17696421Y-9269978D01*
X17670000Y-9309521D01*
X17643579Y-9269978D01*
X17597433Y-9239145D01*
X17543000Y-9228317D01*
X17488567Y-9239145D01*
X17442421Y-9269978D01*
X17416000Y-9309521D01*
X17389579Y-9269978D01*
X17343433Y-9239145D01*
X17289000Y-9228317D01*
X17234567Y-9239145D01*
X17188421Y-9269978D01*
X17162000Y-9309521D01*
X17135579Y-9269978D01*
X17089433Y-9239145D01*
X17035000Y-9228317D01*
X16980567Y-9239145D01*
X16934421Y-9269978D01*
X16908000Y-9309521D01*
X16881579Y-9269978D01*
X16835433Y-9239145D01*
X16781000Y-9228317D01*
X16726567Y-9239145D01*
X16680421Y-9269978D01*
X16654000Y-9309521D01*
X16627579Y-9269978D01*
X16581433Y-9239145D01*
X16527000Y-9228317D01*
X16472567Y-9239145D01*
X16426421Y-9269978D01*
X16400000Y-9309521D01*
X16373579Y-9269978D01*
X16327433Y-9239145D01*
X16273000Y-9228317D01*
X16218567Y-9239145D01*
X16172421Y-9269978D01*
X16146000Y-9309521D01*
X16119579Y-9269978D01*
X16112500Y-9265248D01*
X16112500Y-9236000D01*
X16105383Y-9200219D01*
X16085114Y-9169886D01*
X15899929Y-8984700D01*
X16343500Y-8984700D01*
X16343500Y-9029700D01*
X16359283Y-9083648D01*
X16394510Y-9127450D01*
X16443818Y-9154437D01*
X16452096Y-9156190D01*
X16474300Y-9143992D01*
X16474300Y-8984700D01*
X16343500Y-8984700D01*
X15899929Y-8984700D01*
X15829529Y-8914300D01*
X16343500Y-8914300D01*
X16343500Y-8959300D01*
X16474300Y-8959300D01*
X16474300Y-8800009D01*
X16452096Y-8787810D01*
X16443818Y-8789563D01*
X16394510Y-8816550D01*
X16359283Y-8860352D01*
X16343500Y-8914300D01*
X15829529Y-8914300D01*
X15770561Y-8855332D01*
X16037628Y-8855332D01*
X16050553Y-8884612D01*
X16120581Y-8911439D01*
X16195543Y-8909425D01*
X16255447Y-8884612D01*
X16268371Y-8855332D01*
X16153000Y-8739961D01*
X16037628Y-8855332D01*
X15770561Y-8855332D01*
X15604810Y-8689581D01*
X15963561Y-8689581D01*
X15965575Y-8764544D01*
X15990388Y-8824447D01*
X16019668Y-8837372D01*
X16135039Y-8722000D01*
X16170960Y-8722000D01*
X16286332Y-8837372D01*
X16315612Y-8824447D01*
X16342439Y-8754419D01*
X16340425Y-8679457D01*
X16315612Y-8619553D01*
X16286332Y-8606629D01*
X16170960Y-8722000D01*
X16135039Y-8722000D01*
X16019668Y-8606629D01*
X15990388Y-8619553D01*
X15963561Y-8689581D01*
X15604810Y-8689581D01*
X15571114Y-8655886D01*
X15540781Y-8635617D01*
X15505000Y-8628500D01*
X15302324Y-8628500D01*
X15296896Y-8615363D01*
X15270247Y-8588668D01*
X16037628Y-8588668D01*
X16153000Y-8704040D01*
X16268371Y-8588668D01*
X16255447Y-8559388D01*
X16185419Y-8532561D01*
X16110456Y-8534575D01*
X16050553Y-8559388D01*
X16037628Y-8588668D01*
X15270247Y-8588668D01*
X15243916Y-8562291D01*
X15174659Y-8533533D01*
X15099669Y-8533467D01*
X15030363Y-8562104D01*
X14977291Y-8615084D01*
X14971720Y-8628500D01*
X14960224Y-8628500D01*
X14960223Y-8628500D01*
X14930379Y-8634436D01*
X14924442Y-8635617D01*
X14897285Y-8653763D01*
X14894109Y-8655886D01*
X14846294Y-8703700D01*
X14584598Y-8703700D01*
X14579273Y-8695730D01*
X14532718Y-8664623D01*
X14506177Y-8659344D01*
X14552600Y-8659344D01*
X14576132Y-8654916D01*
X14597744Y-8641009D01*
X14612243Y-8619789D01*
X14617344Y-8594600D01*
X14617344Y-8434700D01*
X16343500Y-8434700D01*
X16343500Y-8479700D01*
X16359283Y-8533648D01*
X16394510Y-8577450D01*
X16443818Y-8604437D01*
X16452096Y-8606190D01*
X16474300Y-8593992D01*
X16474300Y-8434700D01*
X16343500Y-8434700D01*
X14617344Y-8434700D01*
X14617344Y-8434600D01*
X14612916Y-8411068D01*
X14599009Y-8389456D01*
X14577789Y-8374957D01*
X14552600Y-8369856D01*
X14546173Y-8369856D01*
X14551729Y-8364300D01*
X16343500Y-8364300D01*
X16343500Y-8409300D01*
X16474300Y-8409300D01*
X16474300Y-8250008D01*
X16452096Y-8237810D01*
X16443818Y-8239563D01*
X16394510Y-8266550D01*
X16359283Y-8310352D01*
X16343500Y-8364300D01*
X14551729Y-8364300D01*
X14592929Y-8323100D01*
X16175400Y-8323100D01*
X16211181Y-8315983D01*
X16241514Y-8295714D01*
X16339114Y-8198114D01*
X16359383Y-8167781D01*
X16366500Y-8132000D01*
X16366500Y-8102752D01*
X16373579Y-8098022D01*
X16400000Y-8058479D01*
X16426421Y-8098022D01*
X16472567Y-8128855D01*
X16527000Y-8139683D01*
X16581433Y-8128855D01*
X16627579Y-8098022D01*
X16654000Y-8058479D01*
X16680421Y-8098022D01*
X16726567Y-8128855D01*
X16781000Y-8139683D01*
X16835433Y-8128855D01*
X16881579Y-8098022D01*
X16908000Y-8058479D01*
X16934421Y-8098022D01*
X16980567Y-8128855D01*
X17035000Y-8139683D01*
X17089433Y-8128855D01*
X17135579Y-8098022D01*
X17162000Y-8058479D01*
X17188421Y-8098022D01*
X17234567Y-8128855D01*
X17289000Y-8139683D01*
X17343433Y-8128855D01*
X17389579Y-8098022D01*
X17416000Y-8058479D01*
X17442421Y-8098022D01*
X17488567Y-8128855D01*
X17543000Y-8139683D01*
X17597433Y-8128855D01*
X17643579Y-8098022D01*
X17670000Y-8058479D01*
X17696421Y-8098022D01*
X17742567Y-8128855D01*
X17797000Y-8139683D01*
X17851433Y-8128855D01*
X17897579Y-8098022D01*
X17924000Y-8058479D01*
X17950421Y-8098022D01*
X17996567Y-8128855D01*
X18051000Y-8139683D01*
X18105433Y-8128855D01*
X18151579Y-8098022D01*
X18178000Y-8058479D01*
X18204421Y-8098022D01*
X18250567Y-8128855D01*
X18305000Y-8139683D01*
X18322737Y-8136155D01*
X19271161Y-9084579D01*
X19271161Y-9084579D01*
X19290345Y-9097398D01*
X19299873Y-9103763D01*
X19333740Y-9110500D01*
X19333741Y-9110500D01*
X20337000Y-9110500D01*
X20337000Y-9110500D01*
X20365248Y-9104881D01*
X20370868Y-9103763D01*
X20399579Y-9084579D01*
X20464580Y-9019578D01*
X20464580Y-9019578D01*
X20483764Y-8990867D01*
X20485031Y-8984500D01*
X20490501Y-8956999D01*
X20490501Y-8956999D01*
X20490501Y-8637002D01*
X20490501Y-8637001D01*
X20484460Y-8606629D01*
X20483764Y-8603134D01*
X20464580Y-8574422D01*
X20464580Y-8574422D01*
X20399579Y-8509421D01*
X20382260Y-8497849D01*
X20378192Y-8495131D01*
X20364117Y-8474066D01*
X20322596Y-8446322D01*
X20326735Y-8445097D01*
X20368915Y-8410954D01*
X20394817Y-8363268D01*
X20396232Y-8356118D01*
X20383966Y-8334700D01*
X20199700Y-8334700D01*
X20199700Y-8336700D01*
X20174300Y-8336700D01*
X20174300Y-8334700D01*
X19990034Y-8334700D01*
X19977768Y-8356118D01*
X19979183Y-8363268D01*
X20005086Y-8410954D01*
X20047265Y-8445097D01*
X20051404Y-8446322D01*
X20009883Y-8474066D01*
X19979860Y-8518998D01*
X19969317Y-8572000D01*
X19979860Y-8625002D01*
X20009883Y-8669934D01*
X20050390Y-8697000D01*
X20009883Y-8724066D01*
X20003579Y-8733500D01*
X19423658Y-8733500D01*
X18901500Y-8211342D01*
X18901500Y-8106092D01*
X18913579Y-8098022D01*
X18944413Y-8051876D01*
X18955240Y-7997443D01*
X18955240Y-7846557D01*
X18944413Y-7792124D01*
X18923282Y-7760500D01*
X18950342Y-7760500D01*
X19324421Y-8134579D01*
X19324421Y-8134579D01*
X19349468Y-8151314D01*
X19353133Y-8153763D01*
X19387000Y-8160500D01*
X19387001Y-8160500D01*
X19974796Y-8160500D01*
X19976684Y-8170532D01*
X19990591Y-8192144D01*
X20011811Y-8206643D01*
X20032522Y-8210837D01*
X20005086Y-8233046D01*
X19979183Y-8280732D01*
X19977768Y-8287881D01*
X19990034Y-8309300D01*
X20174300Y-8309300D01*
X20174300Y-8307300D01*
X20199700Y-8307300D01*
X20199700Y-8309300D01*
X20383966Y-8309300D01*
X20396232Y-8287881D01*
X20394817Y-8280732D01*
X20368915Y-8233046D01*
X20341543Y-8210889D01*
X20360532Y-8207316D01*
X20382144Y-8193409D01*
X20396643Y-8172189D01*
X20401744Y-8147000D01*
X20401744Y-7997000D01*
X20397316Y-7973468D01*
X20383409Y-7951856D01*
X20362189Y-7937357D01*
X20337000Y-7932256D01*
X20037000Y-7932256D01*
X20013468Y-7936684D01*
X19991856Y-7950591D01*
X19977357Y-7971811D01*
X19974990Y-7983500D01*
X19423658Y-7983500D01*
X19049579Y-7609421D01*
X19040718Y-7603500D01*
X19020868Y-7590237D01*
X19015248Y-7589119D01*
X18987000Y-7583500D01*
X18987000Y-7583500D01*
X18637001Y-7583500D01*
X18637000Y-7583500D01*
X18603133Y-7590237D01*
X18603132Y-7590237D01*
X18603133Y-7590237D01*
X18574421Y-7609421D01*
X18574421Y-7609421D01*
X18496421Y-7687421D01*
X18477237Y-7716132D01*
X18476362Y-7720532D01*
X18473274Y-7736054D01*
X18458421Y-7745978D01*
X18432000Y-7785520D01*
X18405579Y-7745978D01*
X18359433Y-7715145D01*
X18305000Y-7704317D01*
X18250567Y-7715145D01*
X18204421Y-7745978D01*
X18178000Y-7785520D01*
X18151579Y-7745978D01*
X18149500Y-7744589D01*
X18149500Y-7742800D01*
X18360650Y-7531650D01*
X18382002Y-7499694D01*
X18389500Y-7462000D01*
X18389500Y-7101514D01*
X18396005Y-7097168D01*
X18428196Y-7048991D01*
X18439500Y-6992162D01*
X18439500Y-6822000D01*
X18813500Y-6822000D01*
X18813500Y-6922000D01*
X18814912Y-6929100D01*
X18814912Y-6936339D01*
X18822524Y-6974607D01*
X18833499Y-7001103D01*
X18855176Y-7033545D01*
X18867138Y-7045507D01*
X18875455Y-7053824D01*
X18907897Y-7075501D01*
X18913007Y-7077617D01*
X18934393Y-7086476D01*
X18972661Y-7094088D01*
X18979900Y-7094088D01*
X18987000Y-7095500D01*
X19387000Y-7095500D01*
X19394100Y-7094088D01*
X19401339Y-7094088D01*
X19439607Y-7086476D01*
X19466103Y-7075501D01*
X19498545Y-7053824D01*
X19512064Y-7040305D01*
X19518824Y-7033545D01*
X19540501Y-7001103D01*
X19547378Y-6984500D01*
X19551476Y-6974607D01*
X19559088Y-6936339D01*
X19559088Y-6929100D01*
X19560500Y-6922000D01*
X19560500Y-6822000D01*
X19643500Y-6822000D01*
X19643500Y-6922000D01*
X19644912Y-6929100D01*
X19644912Y-6936339D01*
X19652524Y-6974607D01*
X19663499Y-7001103D01*
X19685176Y-7033545D01*
X19697138Y-7045507D01*
X19705455Y-7053824D01*
X19737897Y-7075501D01*
X19743007Y-7077617D01*
X19764393Y-7086476D01*
X19802661Y-7094088D01*
X19809900Y-7094088D01*
X19817000Y-7095500D01*
X20217000Y-7095500D01*
X20224100Y-7094088D01*
X20231339Y-7094088D01*
X20269607Y-7086476D01*
X20296103Y-7075501D01*
X20328545Y-7053824D01*
X20342064Y-7040305D01*
X20348824Y-7033545D01*
X20370501Y-7001103D01*
X20377378Y-6984500D01*
X20381476Y-6974607D01*
X20389088Y-6936339D01*
X20389088Y-6929100D01*
X20390500Y-6922000D01*
X20390500Y-6822000D01*
X20389088Y-6814900D01*
X20389088Y-6807661D01*
X20381476Y-6769393D01*
X20370501Y-6742897D01*
X20370501Y-6742897D01*
X20348824Y-6710455D01*
X20340879Y-6702510D01*
X20328545Y-6690176D01*
X20296103Y-6668499D01*
X20269607Y-6657524D01*
X20231339Y-6649912D01*
X20224100Y-6649912D01*
X20217000Y-6648500D01*
X19817000Y-6648500D01*
X19809900Y-6649912D01*
X19802661Y-6649912D01*
X19764393Y-6657524D01*
X19745658Y-6665285D01*
X19737897Y-6668499D01*
X19705455Y-6690176D01*
X19698695Y-6696936D01*
X19685176Y-6710455D01*
X19663499Y-6742897D01*
X19663499Y-6742897D01*
X19652524Y-6769393D01*
X19644912Y-6807661D01*
X19644912Y-6814900D01*
X19643500Y-6822000D01*
X19560500Y-6822000D01*
X19559088Y-6814900D01*
X19559088Y-6807661D01*
X19551476Y-6769393D01*
X19540501Y-6742897D01*
X19540501Y-6742897D01*
X19518824Y-6710455D01*
X19510879Y-6702510D01*
X19498545Y-6690176D01*
X19466103Y-6668499D01*
X19439607Y-6657524D01*
X19401339Y-6649912D01*
X19394100Y-6649912D01*
X19387000Y-6648500D01*
X18987000Y-6648500D01*
X18979900Y-6649912D01*
X18972661Y-6649912D01*
X18934393Y-6657524D01*
X18915658Y-6665285D01*
X18907897Y-6668499D01*
X18875455Y-6690176D01*
X18868695Y-6696936D01*
X18855176Y-6710455D01*
X18833499Y-6742897D01*
X18833499Y-6742897D01*
X18822524Y-6769393D01*
X18814912Y-6807661D01*
X18814912Y-6814900D01*
X18813500Y-6822000D01*
X18439500Y-6822000D01*
X18439500Y-6751838D01*
X18428196Y-6695009D01*
X18396005Y-6646832D01*
X18347829Y-6614642D01*
X18291000Y-6603338D01*
X18234172Y-6614642D01*
X18185995Y-6646832D01*
X18163267Y-6680846D01*
X18133025Y-6643014D01*
X18082095Y-6614944D01*
X18072689Y-6612852D01*
X18049700Y-6624984D01*
X18049700Y-6859300D01*
X18051700Y-6859300D01*
X18051700Y-6884700D01*
X18049700Y-6884700D01*
X18049700Y-7119015D01*
X18072689Y-7131148D01*
X18082095Y-7129056D01*
X18133025Y-7100986D01*
X18163267Y-7063154D01*
X18185995Y-7097168D01*
X18192500Y-7101514D01*
X18192500Y-7421200D01*
X17981350Y-7632350D01*
X17959998Y-7664306D01*
X17952500Y-7702000D01*
X17952500Y-7744589D01*
X17950421Y-7745978D01*
X17924000Y-7785520D01*
X17897579Y-7745978D01*
X17895500Y-7744589D01*
X17895500Y-7129763D01*
X17913144Y-7118409D01*
X17927643Y-7097189D01*
X17929724Y-7086911D01*
X17940975Y-7100986D01*
X17991905Y-7129056D01*
X18001311Y-7131148D01*
X18024300Y-7119015D01*
X18024300Y-6884700D01*
X18022300Y-6884700D01*
X18022300Y-6859300D01*
X18024300Y-6859300D01*
X18024300Y-6624984D01*
X18001311Y-6612852D01*
X17991905Y-6614944D01*
X17940975Y-6643014D01*
X17929898Y-6656872D01*
X17928316Y-6648468D01*
X17914409Y-6626856D01*
X17893189Y-6612357D01*
X17868000Y-6607256D01*
X17698000Y-6607256D01*
X17674468Y-6611684D01*
X17652856Y-6625591D01*
X17638357Y-6646811D01*
X17633256Y-6672000D01*
X17633256Y-7072000D01*
X17637684Y-7095532D01*
X17651591Y-7117144D01*
X17672811Y-7131643D01*
X17698000Y-7136744D01*
X17698500Y-7136744D01*
X17698500Y-7744589D01*
X17696421Y-7745978D01*
X17670000Y-7785520D01*
X17643579Y-7745978D01*
X17597433Y-7715145D01*
X17543000Y-7704317D01*
X17488567Y-7715145D01*
X17442421Y-7745978D01*
X17416000Y-7785520D01*
X17389579Y-7745978D01*
X17343433Y-7715145D01*
X17289000Y-7704317D01*
X17234567Y-7715145D01*
X17188421Y-7745978D01*
X17162000Y-7785520D01*
X17135579Y-7745978D01*
X17118500Y-7734567D01*
X17118500Y-7605500D01*
X17225544Y-7605500D01*
X17235104Y-7628637D01*
X17288084Y-7681709D01*
X17357341Y-7710467D01*
X17432331Y-7710533D01*
X17501637Y-7681896D01*
X17554709Y-7628916D01*
X17583467Y-7559659D01*
X17583533Y-7484669D01*
X17554896Y-7415363D01*
X17501916Y-7362291D01*
X17432660Y-7333533D01*
X17357670Y-7333467D01*
X17288363Y-7362104D01*
X17235291Y-7415084D01*
X17225568Y-7438500D01*
X16992687Y-7438500D01*
X16967500Y-7413313D01*
X16967500Y-7180724D01*
X16994901Y-7196667D01*
X17004453Y-7198310D01*
X17024300Y-7185907D01*
X17024300Y-7061700D01*
X17049700Y-7061700D01*
X17049700Y-7185907D01*
X17069547Y-7198310D01*
X17079099Y-7196667D01*
X17122837Y-7171219D01*
X17153507Y-7130970D01*
X17166440Y-7082048D01*
X17150230Y-7061700D01*
X17049700Y-7061700D01*
X17024300Y-7061700D01*
X17022300Y-7061700D01*
X17022300Y-7036300D01*
X17024300Y-7036300D01*
X17024300Y-6912093D01*
X17049700Y-6912093D01*
X17049700Y-7036300D01*
X17150230Y-7036300D01*
X17166440Y-7015952D01*
X17153507Y-6967030D01*
X17122837Y-6926781D01*
X17079099Y-6901333D01*
X17069547Y-6899690D01*
X17049700Y-6912093D01*
X17024300Y-6912093D01*
X17012500Y-6904719D01*
X17012500Y-6860993D01*
X17002719Y-6811818D01*
X16974863Y-6770130D01*
X16933175Y-6742274D01*
X16884000Y-6732493D01*
X16834825Y-6742274D01*
X16793137Y-6770130D01*
X16765281Y-6811818D01*
X16755500Y-6860993D01*
X16755500Y-6904184D01*
X16747000Y-6902493D01*
X16697825Y-6912274D01*
X16656137Y-6940130D01*
X16635844Y-6970500D01*
X16520658Y-6970500D01*
X16359579Y-6809421D01*
X16348023Y-6801700D01*
X16330867Y-6790237D01*
X16325248Y-6789119D01*
X16297000Y-6783500D01*
X16296999Y-6783500D01*
X16207020Y-6783500D01*
X16207020Y-6770454D01*
X16194839Y-6709217D01*
X16160151Y-6657303D01*
X16108237Y-6622615D01*
X16047000Y-6610434D01*
X15985763Y-6622615D01*
X15933849Y-6657303D01*
X15920000Y-6678029D01*
X15906151Y-6657303D01*
X15854237Y-6622615D01*
X15793000Y-6610434D01*
X15731763Y-6622615D01*
X15679849Y-6657303D01*
X15666000Y-6678029D01*
X15652151Y-6657303D01*
X15600237Y-6622615D01*
X15539000Y-6610434D01*
X15477763Y-6622615D01*
X15425849Y-6657303D01*
X15412000Y-6678029D01*
X15398151Y-6657303D01*
X15346237Y-6622615D01*
X15285000Y-6610434D01*
X15223763Y-6622615D01*
X15171849Y-6657303D01*
X15158000Y-6678029D01*
X15144151Y-6657303D01*
X15092237Y-6622615D01*
X15031000Y-6610434D01*
X14969763Y-6622615D01*
X14917849Y-6657303D01*
X14904000Y-6678029D01*
X14890151Y-6657303D01*
X14838237Y-6622615D01*
X14777000Y-6610434D01*
X14715763Y-6622615D01*
X14663849Y-6657303D01*
X14650000Y-6678029D01*
X14636151Y-6657303D01*
X14584237Y-6622615D01*
X14523000Y-6610434D01*
X14461763Y-6622615D01*
X14409849Y-6657303D01*
X14396000Y-6678029D01*
X14382151Y-6657303D01*
X14330237Y-6622615D01*
X14269000Y-6610434D01*
X14207763Y-6622615D01*
X14155849Y-6657303D01*
X14142000Y-6678029D01*
X14128151Y-6657303D01*
X14076237Y-6622615D01*
X14015000Y-6610434D01*
X13953763Y-6622615D01*
X13901849Y-6657303D01*
X13888000Y-6678029D01*
X13874151Y-6657303D01*
X13822237Y-6622615D01*
X13761000Y-6610434D01*
X13699763Y-6622615D01*
X13647849Y-6657303D01*
X13634000Y-6678029D01*
X13620151Y-6657303D01*
X13568237Y-6622615D01*
X13507000Y-6610434D01*
X13445763Y-6622615D01*
X13393849Y-6657303D01*
X13378466Y-6680325D01*
X13357171Y-6653348D01*
X13302504Y-6622781D01*
X13290497Y-6619915D01*
X13265700Y-6631896D01*
X13265700Y-6859300D01*
X13267700Y-6859300D01*
X13267700Y-6884700D01*
X13265700Y-6884700D01*
X13265700Y-7112104D01*
X13290497Y-7124085D01*
X13302504Y-7121219D01*
X13357171Y-7090651D01*
X13378466Y-7063675D01*
X13393849Y-7086697D01*
X13413500Y-7099828D01*
X13413500Y-7102000D01*
X13420617Y-7137781D01*
X13440885Y-7168114D01*
X13521271Y-7248500D01*
X13215729Y-7248500D01*
X13092500Y-7125271D01*
X13092500Y-7099828D01*
X13112151Y-7086697D01*
X13127534Y-7063675D01*
X13148829Y-7090651D01*
X13203496Y-7121219D01*
X13215503Y-7124085D01*
X13240300Y-7112104D01*
X13240300Y-6884700D01*
X13238300Y-6884700D01*
X13238300Y-6859300D01*
X13240300Y-6859300D01*
X13240300Y-6631896D01*
X13215503Y-6619915D01*
X13203496Y-6622781D01*
X13148829Y-6653348D01*
X13127534Y-6680325D01*
X13112151Y-6657303D01*
X13060237Y-6622615D01*
X12999000Y-6610434D01*
X12937763Y-6622615D01*
X12885849Y-6657303D01*
X12872000Y-6678029D01*
X12858151Y-6657303D01*
X12806237Y-6622615D01*
X12745000Y-6610434D01*
X12683763Y-6622615D01*
X12631849Y-6657303D01*
X12618000Y-6678029D01*
X12604151Y-6657303D01*
X12552237Y-6622615D01*
X12491000Y-6610434D01*
X12429763Y-6622615D01*
X12377849Y-6657303D01*
X12362466Y-6680325D01*
X12341171Y-6653348D01*
X12286504Y-6622781D01*
X12274497Y-6619915D01*
X12249700Y-6631896D01*
X12249700Y-6859300D01*
X12251700Y-6859300D01*
X12251700Y-6884700D01*
X12249700Y-6884700D01*
X12249700Y-7112104D01*
X12274497Y-7124085D01*
X12286504Y-7121219D01*
X12341171Y-7090651D01*
X12362466Y-7063675D01*
X12377849Y-7086697D01*
X12397500Y-7099828D01*
X12397500Y-7339271D01*
X12210271Y-7526500D01*
X10820589Y-7526500D01*
X10815169Y-7513381D01*
X10762198Y-7460318D01*
X10692953Y-7431565D01*
X10617976Y-7431499D01*
X10548681Y-7460131D01*
X10495618Y-7513102D01*
X10466865Y-7582347D01*
X10466799Y-7657324D01*
X10355500Y-7657324D01*
X10355500Y-6822000D01*
X10483500Y-6822000D01*
X10483500Y-6922000D01*
X10484912Y-6929100D01*
X10484912Y-6936339D01*
X10492524Y-6974607D01*
X10503499Y-7001103D01*
X10525176Y-7033545D01*
X10537138Y-7045507D01*
X10545455Y-7053824D01*
X10577897Y-7075501D01*
X10583007Y-7077617D01*
X10604393Y-7086476D01*
X10642661Y-7094088D01*
X10649900Y-7094088D01*
X10657000Y-7095500D01*
X11057000Y-7095500D01*
X11064100Y-7094088D01*
X11071339Y-7094088D01*
X11109607Y-7086476D01*
X11136103Y-7075501D01*
X11168545Y-7053824D01*
X11182064Y-7040305D01*
X11188824Y-7033545D01*
X11210501Y-7001103D01*
X11217378Y-6984500D01*
X11221476Y-6974607D01*
X11229088Y-6936339D01*
X11229088Y-6929100D01*
X11230500Y-6922000D01*
X11230500Y-6822000D01*
X11313500Y-6822000D01*
X11313500Y-6922000D01*
X11314912Y-6929100D01*
X11314912Y-6936339D01*
X11322524Y-6974607D01*
X11333499Y-7001103D01*
X11355176Y-7033545D01*
X11367138Y-7045507D01*
X11375455Y-7053824D01*
X11407897Y-7075501D01*
X11413007Y-7077617D01*
X11434393Y-7086476D01*
X11472661Y-7094088D01*
X11479900Y-7094088D01*
X11487000Y-7095500D01*
X11887000Y-7095500D01*
X11894100Y-7094088D01*
X11901339Y-7094088D01*
X11939607Y-7086476D01*
X11966103Y-7075501D01*
X11998545Y-7053824D01*
X12012064Y-7040305D01*
X12018824Y-7033545D01*
X12040501Y-7001103D01*
X12047378Y-6984500D01*
X12051476Y-6974607D01*
X12059088Y-6936339D01*
X12059088Y-6929100D01*
X12060500Y-6922000D01*
X12060500Y-6884700D01*
X12076980Y-6884700D01*
X12076980Y-6981220D01*
X12094021Y-7041490D01*
X12132829Y-7090651D01*
X12187496Y-7121219D01*
X12199503Y-7124085D01*
X12224300Y-7112104D01*
X12224300Y-6884700D01*
X12076980Y-6884700D01*
X12060500Y-6884700D01*
X12060500Y-6822000D01*
X12059088Y-6814900D01*
X12059088Y-6807661D01*
X12051476Y-6769393D01*
X12048737Y-6762780D01*
X12076980Y-6762780D01*
X12076980Y-6859300D01*
X12224300Y-6859300D01*
X12224300Y-6631896D01*
X12199503Y-6619915D01*
X12187496Y-6622781D01*
X12132829Y-6653348D01*
X12094021Y-6702510D01*
X12076980Y-6762780D01*
X12048737Y-6762780D01*
X12040501Y-6742897D01*
X12040501Y-6742897D01*
X12018824Y-6710455D01*
X12010878Y-6702510D01*
X11998545Y-6690176D01*
X11966103Y-6668499D01*
X11939607Y-6657524D01*
X11901339Y-6649912D01*
X11894100Y-6649912D01*
X11887000Y-6648500D01*
X11487000Y-6648500D01*
X11479900Y-6649912D01*
X11472661Y-6649912D01*
X11434393Y-6657524D01*
X11415658Y-6665285D01*
X11407897Y-6668499D01*
X11375455Y-6690176D01*
X11368695Y-6696936D01*
X11355176Y-6710455D01*
X11333499Y-6742897D01*
X11333499Y-6742897D01*
X11322524Y-6769393D01*
X11314912Y-6807661D01*
X11314912Y-6814900D01*
X11313500Y-6822000D01*
X11230500Y-6822000D01*
X11229088Y-6814900D01*
X11229088Y-6807661D01*
X11221476Y-6769393D01*
X11210501Y-6742897D01*
X11210501Y-6742897D01*
X11188824Y-6710455D01*
X11180879Y-6702510D01*
X11168545Y-6690176D01*
X11136103Y-6668499D01*
X11109607Y-6657524D01*
X11071339Y-6649912D01*
X11064100Y-6649912D01*
X11057000Y-6648500D01*
X10657000Y-6648500D01*
X10649900Y-6649912D01*
X10642661Y-6649912D01*
X10604393Y-6657524D01*
X10585658Y-6665285D01*
X10577897Y-6668499D01*
X10545455Y-6690176D01*
X10538695Y-6696936D01*
X10525176Y-6710455D01*
X10503499Y-6742897D01*
X10503499Y-6742897D01*
X10492524Y-6769393D01*
X10484912Y-6807661D01*
X10484912Y-6814900D01*
X10483500Y-6822000D01*
X10355500Y-6822000D01*
X10355500Y-6540500D01*
X20568500Y-6540500D01*
X20568500Y-10853500D01*
G36*
X13267584Y-7715273D02*
X13303094Y-7739000D01*
X13262297Y-7771707D01*
X13234757Y-7821842D01*
X13232831Y-7830696D01*
X13244996Y-7853300D01*
X13404300Y-7853300D01*
X13404300Y-7851300D01*
X13429700Y-7851300D01*
X13429700Y-7853300D01*
X13589004Y-7853300D01*
X13601169Y-7830696D01*
X13599243Y-7821842D01*
X13571703Y-7771707D01*
X13530906Y-7739000D01*
X13566416Y-7715273D01*
X13572946Y-7705500D01*
X13841305Y-7705500D01*
X13844134Y-7720532D01*
X13858041Y-7742144D01*
X13879261Y-7756643D01*
X13879291Y-7756649D01*
X13855587Y-7792124D01*
X13844760Y-7846557D01*
X13844760Y-7997443D01*
X13855587Y-8051876D01*
X13886421Y-8098022D01*
X13893500Y-8102752D01*
X13893500Y-8428500D01*
X13631497Y-8428500D01*
X13626896Y-8417363D01*
X13573916Y-8364291D01*
X13504659Y-8335533D01*
X13429669Y-8335467D01*
X13360363Y-8364104D01*
X13307291Y-8417084D01*
X13278533Y-8486341D01*
X13278467Y-8561331D01*
X13307104Y-8630637D01*
X13360084Y-8683709D01*
X13429340Y-8712467D01*
X13504330Y-8712533D01*
X13573637Y-8683896D01*
X13626709Y-8630916D01*
X13633111Y-8615500D01*
X14291789Y-8615500D01*
X14292284Y-8618132D01*
X14306191Y-8639744D01*
X14327411Y-8654243D01*
X14352600Y-8659344D01*
X14403022Y-8659344D01*
X14376482Y-8664623D01*
X14329927Y-8695730D01*
X14298820Y-8742285D01*
X14287897Y-8797200D01*
X14298820Y-8852115D01*
X14329927Y-8898670D01*
X14376482Y-8929777D01*
X14431397Y-8940700D01*
X14477803Y-8940700D01*
X14532718Y-8929777D01*
X14579273Y-8898670D01*
X14584598Y-8890700D01*
X14885023Y-8890700D01*
X14920804Y-8883583D01*
X14951138Y-8863315D01*
X14981456Y-8832996D01*
X15030084Y-8881709D01*
X15099340Y-8910467D01*
X15174330Y-8910533D01*
X15243637Y-8881896D01*
X15296709Y-8828916D01*
X15302280Y-8815500D01*
X15466271Y-8815500D01*
X15919817Y-9269046D01*
X15918421Y-9269978D01*
X15892000Y-9309521D01*
X15865579Y-9269978D01*
X15819433Y-9239145D01*
X15765000Y-9228317D01*
X15710567Y-9239145D01*
X15664421Y-9269978D01*
X15638000Y-9309521D01*
X15611579Y-9269978D01*
X15565433Y-9239145D01*
X15511000Y-9228317D01*
X15456567Y-9239145D01*
X15410421Y-9269978D01*
X15384000Y-9309521D01*
X15357579Y-9269978D01*
X15311433Y-9239145D01*
X15257000Y-9228317D01*
X15202567Y-9239145D01*
X15156421Y-9269978D01*
X15130000Y-9309521D01*
X15103579Y-9269978D01*
X15057433Y-9239145D01*
X15003000Y-9228317D01*
X14948567Y-9239145D01*
X14902421Y-9269978D01*
X14876000Y-9309521D01*
X14849579Y-9269978D01*
X14803433Y-9239145D01*
X14749000Y-9228317D01*
X14694567Y-9239145D01*
X14648421Y-9269978D01*
X14622000Y-9309521D01*
X14595579Y-9269978D01*
X14549433Y-9239145D01*
X14495000Y-9228317D01*
X14440567Y-9239145D01*
X14394421Y-9269978D01*
X14368000Y-9309521D01*
X14341579Y-9269978D01*
X14295433Y-9239145D01*
X14241000Y-9228317D01*
X14186567Y-9239145D01*
X14140421Y-9269978D01*
X14128847Y-9287300D01*
X14126056Y-9272468D01*
X14112149Y-9250856D01*
X14090929Y-9236357D01*
X14080500Y-9234245D01*
X14080500Y-9072000D01*
X14073383Y-9036219D01*
X14053114Y-9005886D01*
X13937114Y-8889886D01*
X13906781Y-8869617D01*
X13871000Y-8862500D01*
X13163000Y-8862500D01*
X13163000Y-8862500D01*
X13133379Y-8868392D01*
X13127219Y-8869617D01*
X13103449Y-8885500D01*
X13096885Y-8889886D01*
X12974885Y-9011886D01*
X12954617Y-9042219D01*
X12949596Y-9067463D01*
X12938363Y-9072104D01*
X12885291Y-9125084D01*
X12856533Y-9194341D01*
X12856467Y-9269331D01*
X12885104Y-9338637D01*
X12938084Y-9391709D01*
X12941500Y-9393128D01*
X12941500Y-9461343D01*
X12920000Y-9493521D01*
X12893579Y-9453978D01*
X12847433Y-9423145D01*
X12793000Y-9412317D01*
X12738567Y-9423145D01*
X12692421Y-9453978D01*
X12666000Y-9493521D01*
X12639579Y-9453978D01*
X12593433Y-9423145D01*
X12539000Y-9412317D01*
X12484567Y-9423145D01*
X12438421Y-9453978D01*
X12412000Y-9493521D01*
X12385579Y-9453978D01*
X12378500Y-9449248D01*
X12378500Y-9311223D01*
X12371383Y-9275443D01*
X12351114Y-9245109D01*
X12271891Y-9165886D01*
X12241557Y-9145617D01*
X12205777Y-9138500D01*
X12194324Y-9138500D01*
X12188896Y-9125363D01*
X12135916Y-9072291D01*
X12122500Y-9066720D01*
X12122500Y-8178700D01*
X12623800Y-8178700D01*
X12659581Y-8171583D01*
X12689914Y-8151314D01*
X12939925Y-7901304D01*
X13232831Y-7901304D01*
X13234757Y-7910158D01*
X13262297Y-7960293D01*
X13306926Y-7996072D01*
X13361850Y-8012050D01*
X13404300Y-8012050D01*
X13404300Y-7878700D01*
X13429700Y-7878700D01*
X13429700Y-8012050D01*
X13472150Y-8012050D01*
X13527074Y-7996072D01*
X13571703Y-7960293D01*
X13599243Y-7910158D01*
X13601169Y-7901304D01*
X13589004Y-7878700D01*
X13429700Y-7878700D01*
X13404300Y-7878700D01*
X13244996Y-7878700D01*
X13232831Y-7901304D01*
X12939925Y-7901304D01*
X13135729Y-7705500D01*
X13261054Y-7705500D01*
X13267584Y-7715273D01*
X13267584Y-7715273D01*
G37*
X13267584Y-7715273D02*
X13303094Y-7739000D01*
X13262297Y-7771707D01*
X13234757Y-7821842D01*
X13232831Y-7830696D01*
X13244996Y-7853300D01*
X13404300Y-7853300D01*
X13404300Y-7851300D01*
X13429700Y-7851300D01*
X13429700Y-7853300D01*
X13589004Y-7853300D01*
X13601169Y-7830696D01*
X13599243Y-7821842D01*
X13571703Y-7771707D01*
X13530906Y-7739000D01*
X13566416Y-7715273D01*
X13572946Y-7705500D01*
X13841305Y-7705500D01*
X13844134Y-7720532D01*
X13858041Y-7742144D01*
X13879261Y-7756643D01*
X13879291Y-7756649D01*
X13855587Y-7792124D01*
X13844760Y-7846557D01*
X13844760Y-7997443D01*
X13855587Y-8051876D01*
X13886421Y-8098022D01*
X13893500Y-8102752D01*
X13893500Y-8428500D01*
X13631497Y-8428500D01*
X13626896Y-8417363D01*
X13573916Y-8364291D01*
X13504659Y-8335533D01*
X13429669Y-8335467D01*
X13360363Y-8364104D01*
X13307291Y-8417084D01*
X13278533Y-8486341D01*
X13278467Y-8561331D01*
X13307104Y-8630637D01*
X13360084Y-8683709D01*
X13429340Y-8712467D01*
X13504330Y-8712533D01*
X13573637Y-8683896D01*
X13626709Y-8630916D01*
X13633111Y-8615500D01*
X14291789Y-8615500D01*
X14292284Y-8618132D01*
X14306191Y-8639744D01*
X14327411Y-8654243D01*
X14352600Y-8659344D01*
X14403022Y-8659344D01*
X14376482Y-8664623D01*
X14329927Y-8695730D01*
X14298820Y-8742285D01*
X14287897Y-8797200D01*
X14298820Y-8852115D01*
X14329927Y-8898670D01*
X14376482Y-8929777D01*
X14431397Y-8940700D01*
X14477803Y-8940700D01*
X14532718Y-8929777D01*
X14579273Y-8898670D01*
X14584598Y-8890700D01*
X14885023Y-8890700D01*
X14920804Y-8883583D01*
X14951138Y-8863315D01*
X14981456Y-8832996D01*
X15030084Y-8881709D01*
X15099340Y-8910467D01*
X15174330Y-8910533D01*
X15243637Y-8881896D01*
X15296709Y-8828916D01*
X15302280Y-8815500D01*
X15466271Y-8815500D01*
X15919817Y-9269046D01*
X15918421Y-9269978D01*
X15892000Y-9309521D01*
X15865579Y-9269978D01*
X15819433Y-9239145D01*
X15765000Y-9228317D01*
X15710567Y-9239145D01*
X15664421Y-9269978D01*
X15638000Y-9309521D01*
X15611579Y-9269978D01*
X15565433Y-9239145D01*
X15511000Y-9228317D01*
X15456567Y-9239145D01*
X15410421Y-9269978D01*
X15384000Y-9309521D01*
X15357579Y-9269978D01*
X15311433Y-9239145D01*
X15257000Y-9228317D01*
X15202567Y-9239145D01*
X15156421Y-9269978D01*
X15130000Y-9309521D01*
X15103579Y-9269978D01*
X15057433Y-9239145D01*
X15003000Y-9228317D01*
X14948567Y-9239145D01*
X14902421Y-9269978D01*
X14876000Y-9309521D01*
X14849579Y-9269978D01*
X14803433Y-9239145D01*
X14749000Y-9228317D01*
X14694567Y-9239145D01*
X14648421Y-9269978D01*
X14622000Y-9309521D01*
X14595579Y-9269978D01*
X14549433Y-9239145D01*
X14495000Y-9228317D01*
X14440567Y-9239145D01*
X14394421Y-9269978D01*
X14368000Y-9309521D01*
X14341579Y-9269978D01*
X14295433Y-9239145D01*
X14241000Y-9228317D01*
X14186567Y-9239145D01*
X14140421Y-9269978D01*
X14128847Y-9287300D01*
X14126056Y-9272468D01*
X14112149Y-9250856D01*
X14090929Y-9236357D01*
X14080500Y-9234245D01*
X14080500Y-9072000D01*
X14073383Y-9036219D01*
X14053114Y-9005886D01*
X13937114Y-8889886D01*
X13906781Y-8869617D01*
X13871000Y-8862500D01*
X13163000Y-8862500D01*
X13163000Y-8862500D01*
X13133379Y-8868392D01*
X13127219Y-8869617D01*
X13103449Y-8885500D01*
X13096885Y-8889886D01*
X12974885Y-9011886D01*
X12954617Y-9042219D01*
X12949596Y-9067463D01*
X12938363Y-9072104D01*
X12885291Y-9125084D01*
X12856533Y-9194341D01*
X12856467Y-9269331D01*
X12885104Y-9338637D01*
X12938084Y-9391709D01*
X12941500Y-9393128D01*
X12941500Y-9461343D01*
X12920000Y-9493521D01*
X12893579Y-9453978D01*
X12847433Y-9423145D01*
X12793000Y-9412317D01*
X12738567Y-9423145D01*
X12692421Y-9453978D01*
X12666000Y-9493521D01*
X12639579Y-9453978D01*
X12593433Y-9423145D01*
X12539000Y-9412317D01*
X12484567Y-9423145D01*
X12438421Y-9453978D01*
X12412000Y-9493521D01*
X12385579Y-9453978D01*
X12378500Y-9449248D01*
X12378500Y-9311223D01*
X12371383Y-9275443D01*
X12351114Y-9245109D01*
X12271891Y-9165886D01*
X12241557Y-9145617D01*
X12205777Y-9138500D01*
X12194324Y-9138500D01*
X12188896Y-9125363D01*
X12135916Y-9072291D01*
X12122500Y-9066720D01*
X12122500Y-8178700D01*
X12623800Y-8178700D01*
X12659581Y-8171583D01*
X12689914Y-8151314D01*
X12939925Y-7901304D01*
X13232831Y-7901304D01*
X13234757Y-7910158D01*
X13262297Y-7960293D01*
X13306926Y-7996072D01*
X13361850Y-8012050D01*
X13404300Y-8012050D01*
X13404300Y-7878700D01*
X13429700Y-7878700D01*
X13429700Y-8012050D01*
X13472150Y-8012050D01*
X13527074Y-7996072D01*
X13571703Y-7960293D01*
X13599243Y-7910158D01*
X13601169Y-7901304D01*
X13589004Y-7878700D01*
X13429700Y-7878700D01*
X13404300Y-7878700D01*
X13244996Y-7878700D01*
X13232831Y-7901304D01*
X12939925Y-7901304D01*
X13135729Y-7705500D01*
X13261054Y-7705500D01*
X13267584Y-7715273D01*
M02*
