G04 Layer_Color=65535*
%FSLAX23Y23*%
%MOIN*%
G70*
G01*
G75*
%ADD17C,0.004*%
%ADD19C,0.008*%
%ADD20C,0.010*%
%ADD37C,0.039*%
%ADD38C,0.006*%
%ADD39C,0.005*%
%ADD40C,0.010*%
%ADD41C,0.006*%
D17*
X356Y908D02*
Y884D01*
X357Y879D01*
X360Y875D01*
X365Y874D01*
X368D01*
X373Y875D01*
X377Y879D01*
X378Y884D01*
Y908D01*
X389Y900D02*
Y901D01*
X391Y905D01*
X392Y906D01*
X396Y908D01*
X402D01*
X405Y906D01*
X407Y905D01*
X409Y901D01*
Y898D01*
X407Y895D01*
X404Y890D01*
X388Y874D01*
X410D01*
D19*
X730Y604D02*
Y1028D01*
X615D02*
X730D01*
X615Y604D02*
Y1028D01*
Y604D02*
X730D01*
X2115Y2340D02*
X2249D01*
X2086Y2312D02*
X2115Y2340D01*
X1712D02*
X1846D01*
X1875Y2312D01*
X644Y1250D02*
X785D01*
X624Y1227D02*
X805D01*
X608Y1203D02*
X817D01*
X600Y1180D02*
X829D01*
X600Y1156D02*
X829D01*
X3173Y1463D02*
Y1604D01*
X3150Y1443D02*
Y1624D01*
X3126Y1431D02*
Y1640D01*
X3102Y1419D02*
Y1648D01*
X3079Y1419D02*
Y1648D01*
X3472Y1463D02*
Y1604D01*
X3448Y1443D02*
Y1624D01*
X3425Y1431D02*
Y1640D01*
X3401Y1419D02*
Y1648D01*
X3377Y1419D02*
Y1648D01*
X3410Y1908D02*
X3552D01*
X3391Y1885D02*
X3572D01*
X3375Y1861D02*
X3583D01*
X3367Y1837D02*
X3595D01*
X3367Y1814D02*
X3595D01*
X1284Y859D02*
Y1001D01*
X1308Y840D02*
Y1021D01*
X1332Y824D02*
Y1032D01*
X1355Y816D02*
Y1044D01*
X1379Y816D02*
Y1044D01*
X1284Y1121D02*
Y1263D01*
X1308Y1101D02*
Y1282D01*
X1332Y1085D02*
Y1294D01*
X1355Y1078D02*
Y1306D01*
X1379Y1078D02*
Y1306D01*
X1284Y1382D02*
Y1524D01*
X1308Y1362D02*
Y1543D01*
X1332Y1346D02*
Y1555D01*
X1355Y1339D02*
Y1567D01*
X1379Y1339D02*
Y1567D01*
X1267Y74D02*
Y216D01*
X1291Y55D02*
Y236D01*
X1314Y39D02*
Y248D01*
X1338Y31D02*
Y259D01*
X1362Y31D02*
Y259D01*
X1634Y455D02*
X1776D01*
X1614Y479D02*
X1795D01*
X1603Y503D02*
X1811D01*
X1591Y526D02*
X1819D01*
X1591Y550D02*
X1819D01*
X3154Y1909D02*
X3296D01*
X3135Y1885D02*
X3316D01*
X3119Y1861D02*
X3328D01*
X3111Y1838D02*
X3339D01*
X3111Y1814D02*
X3339D01*
X2910Y1909D02*
X3052D01*
X2891Y1885D02*
X3072D01*
X2875Y1861D02*
X3084D01*
X2867Y1838D02*
X3095D01*
X2867Y1814D02*
X3095D01*
X3311Y345D02*
X3453D01*
X3291Y368D02*
X3472D01*
X3279Y392D02*
X3488D01*
X3268Y416D02*
X3496D01*
X3268Y439D02*
X3496D01*
X2654Y1909D02*
X2796D01*
X2635Y1885D02*
X2816D01*
X2619Y1861D02*
X2828D01*
X2611Y1838D02*
X2839D01*
X2611Y1814D02*
X2839D01*
X3472Y632D02*
Y774D01*
X3449Y612D02*
Y793D01*
X3425Y601D02*
Y809D01*
X3402Y589D02*
Y817D01*
X3378Y589D02*
Y817D01*
X1267Y336D02*
Y478D01*
X1291Y316D02*
Y497D01*
X1314Y301D02*
Y509D01*
X1338Y293D02*
Y521D01*
X1362Y293D02*
Y521D01*
X3307Y1321D02*
X3449D01*
X3287Y1297D02*
X3468D01*
X3272Y1274D02*
X3480D01*
X3264Y1250D02*
X3492D01*
X3264Y1227D02*
X3492D01*
X3307Y1057D02*
X3449D01*
X3287Y1034D02*
X3468D01*
X3272Y1010D02*
X3480D01*
X3264Y986D02*
X3492D01*
X3264Y963D02*
X3492D01*
X2819Y455D02*
X2961D01*
X2799Y479D02*
X2980D01*
X2787Y503D02*
X2996D01*
X2776Y526D02*
X3004D01*
X2776Y550D02*
X3004D01*
X2583Y455D02*
X2724D01*
X2563Y479D02*
X2744D01*
X2551Y503D02*
X2760D01*
X2539Y526D02*
X2768D01*
X2539Y550D02*
X2768D01*
X2346Y455D02*
X2488D01*
X2327Y479D02*
X2508D01*
X2315Y503D02*
X2524D01*
X2303Y526D02*
X2532D01*
X2303Y550D02*
X2532D01*
X2110Y455D02*
X2252D01*
X2091Y479D02*
X2272D01*
X2079Y503D02*
X2287D01*
X2067Y526D02*
X2295D01*
X2067Y550D02*
X2295D01*
X1874Y455D02*
X2016D01*
X1854Y479D02*
X2035D01*
X1843Y503D02*
X2051D01*
X1831Y526D02*
X2059D01*
X1831Y550D02*
X2059D01*
X2315Y91D02*
X2342D01*
X2498Y60D02*
Y312D01*
X1653D02*
X2498D01*
X1653Y60D02*
Y312D01*
X447Y2014D02*
Y2319D01*
X332D02*
X447D01*
X332Y2014D02*
Y2319D01*
Y2014D02*
X447D01*
X602D02*
Y2319D01*
X487D02*
X602D01*
X487Y2014D02*
Y2319D01*
Y2014D02*
X602D01*
X756D02*
Y2319D01*
X641D02*
X756D01*
X641Y2014D02*
Y2319D01*
Y2014D02*
X756D01*
X911D02*
Y2319D01*
X796D02*
X911D01*
X796Y2014D02*
Y2319D01*
Y2014D02*
X911D01*
X1065D02*
Y2319D01*
X950D02*
X1065D01*
X950Y2014D02*
Y2319D01*
Y2014D02*
X1065D01*
X1220D02*
Y2319D01*
X1105D02*
X1220D01*
X1105Y2014D02*
Y2319D01*
Y2014D02*
X1220D01*
X537Y1672D02*
X617D01*
X537Y1432D02*
X617D01*
X577Y1672D02*
Y1712D01*
Y1392D02*
Y1432D01*
X617D02*
Y1672D01*
X537Y1432D02*
Y1672D01*
X582Y1447D02*
Y1457D01*
Y1497D02*
Y1512D01*
X572Y1467D02*
X582Y1477D01*
X572Y1487D02*
X582Y1497D01*
X572Y1467D02*
X582Y1457D01*
X572Y1487D02*
X582Y1477D01*
X1712Y2088D02*
Y2340D01*
X1875Y2312D02*
X2086D01*
X2249Y2088D02*
Y2340D01*
X1712Y2088D02*
X2249D01*
X2398Y2195D02*
X2470D01*
X1342Y2171D02*
X1415D01*
X265Y569D02*
X363D01*
X265Y539D02*
Y609D01*
Y539D02*
X282Y522D01*
X245Y629D02*
X265Y609D01*
X104Y569D02*
X220D01*
X265D02*
X265D01*
X220Y614D02*
X265Y569D01*
X220Y524D02*
Y614D01*
Y524D02*
X265Y569D01*
X378Y1674D02*
X458D01*
X378Y1434D02*
X458D01*
X418Y1674D02*
Y1714D01*
Y1394D02*
Y1434D01*
X458D02*
Y1674D01*
X378Y1434D02*
Y1674D01*
X423Y1449D02*
Y1459D01*
Y1499D02*
Y1514D01*
X413Y1469D02*
X423Y1479D01*
X413Y1489D02*
X423Y1499D01*
X413Y1469D02*
X423Y1459D01*
X413Y1489D02*
X423Y1479D01*
X200Y773D02*
Y1078D01*
X85D02*
X200D01*
X85Y773D02*
Y1078D01*
Y773D02*
X200D01*
X519Y87D02*
X661D01*
X500Y111D02*
X681D01*
X488Y135D02*
X696D01*
X476Y158D02*
X704D01*
X476Y182D02*
X704D01*
X258Y369D02*
Y449D01*
X498Y369D02*
Y449D01*
X218Y409D02*
X258D01*
X498D02*
X538D01*
X258Y449D02*
X498D01*
X258Y369D02*
X498D01*
X473Y414D02*
X483D01*
X418D02*
X433D01*
X453D02*
X463Y404D01*
X433Y414D02*
X443Y404D01*
X463D02*
X473Y414D01*
X443Y404D02*
X453Y414D01*
X2283Y60D02*
X2315Y91D01*
X1810Y93D02*
X1837D01*
X2342Y91D02*
X2373Y60D01*
X2498D01*
X1777D02*
X1810Y93D01*
X1653Y60D02*
X1777D01*
X1837Y93D02*
X1870Y60D01*
X2283D01*
X987Y641D02*
Y668D01*
X955Y485D02*
X1207D01*
Y1330D01*
X955D02*
X1207D01*
X955Y700D02*
X987Y668D01*
X989Y1146D02*
Y1173D01*
X955Y610D02*
X987Y641D01*
X955Y485D02*
Y610D01*
Y1206D02*
X989Y1173D01*
X955Y1206D02*
Y1330D01*
Y1113D02*
X989Y1146D01*
X955Y700D02*
Y1113D01*
X3466Y2120D02*
X3493D01*
X3649Y2089D02*
Y2341D01*
X2804D02*
X3649D01*
X2804Y2089D02*
Y2341D01*
X3435Y2089D02*
X3466Y2120D01*
X2962Y2122D02*
X2988D01*
X3493Y2120D02*
X3524Y2089D01*
X3649D01*
X2928D02*
X2962Y2122D01*
X2804Y2089D02*
X2928D01*
X2988Y2122D02*
X3021Y2089D01*
X3435D01*
D20*
X1477Y673D02*
G03*
X1477Y673I-101J0D01*
G01*
X833Y1156D02*
G03*
X833Y1156I-118J0D01*
G01*
X3197Y1534D02*
G03*
X3197Y1534I-118J0D01*
G01*
X3495D02*
G03*
X3495Y1534I-118J0D01*
G01*
X3599Y1814D02*
G03*
X3599Y1814I-118J0D01*
G01*
X1497Y930D02*
G03*
X1497Y930I-118J0D01*
G01*
Y1192D02*
G03*
X1497Y1192I-118J0D01*
G01*
Y1453D02*
G03*
X1497Y1453I-118J0D01*
G01*
X1480Y145D02*
G03*
X1480Y145I-118J0D01*
G01*
X1823Y550D02*
G03*
X1823Y550I-118J0D01*
G01*
X3248Y439D02*
G03*
X3248Y439I-118J0D01*
G01*
X3343Y1814D02*
G03*
X3343Y1814I-118J0D01*
G01*
X3099D02*
G03*
X3099Y1814I-118J0D01*
G01*
X3500Y439D02*
G03*
X3500Y439I-118J0D01*
G01*
X2843Y1814D02*
G03*
X2843Y1814I-118J0D01*
G01*
X3496Y703D02*
G03*
X3496Y703I-118J0D01*
G01*
X1480Y407D02*
G03*
X1480Y407I-118J0D01*
G01*
X3496Y1227D02*
G03*
X3496Y1227I-118J0D01*
G01*
Y963D02*
G03*
X3496Y963I-118J0D01*
G01*
X3008Y550D02*
G03*
X3008Y550I-118J0D01*
G01*
X2772D02*
G03*
X2772Y550I-118J0D01*
G01*
X2535D02*
G03*
X2535Y550I-118J0D01*
G01*
X2299D02*
G03*
X2299Y550I-118J0D01*
G01*
X2063D02*
G03*
X2063Y550I-118J0D01*
G01*
X3499Y174D02*
G03*
X3499Y174I-118J0D01*
G01*
X3007Y886D02*
G03*
X3007Y886I-118J0D01*
G01*
X2770D02*
G03*
X2770Y886I-118J0D01*
G01*
X1903Y1934D02*
G03*
X1903Y1934I-118J0D01*
G01*
X2796Y2335D02*
G03*
X2796Y2335I-101J0D01*
G01*
X2172Y1935D02*
G03*
X2172Y1935I-118J0D01*
G01*
X1607Y2333D02*
G03*
X1607Y2333I-101J0D01*
G01*
X1644Y2006D02*
G03*
X1644Y2006I-101J0D01*
G01*
X2469Y1932D02*
G03*
X2469Y1932I-101J0D01*
G01*
X296Y1712D02*
G03*
X296Y1712I-101J0D01*
G01*
X328Y1410D02*
G03*
X328Y1410I-101J0D01*
G01*
X487Y1144D02*
G03*
X487Y1144I-101J0D01*
G01*
X883Y1414D02*
G03*
X883Y1414I-101J0D01*
G01*
X888Y433D02*
G03*
X888Y433I-101J0D01*
G01*
X409Y792D02*
G03*
X359Y792I-25J0D01*
G01*
X708Y182D02*
G03*
X708Y182I-118J0D01*
G01*
X409Y792D02*
X434D01*
Y972D01*
X334D02*
X434D01*
X334Y792D02*
Y972D01*
Y792D02*
X359D01*
D37*
X2569Y1185D02*
G03*
X2569Y1185I-4J0D01*
G01*
D38*
X1146Y83D02*
X1182D01*
X1120Y108D02*
X1146Y83D01*
X892D02*
X936D01*
X962Y108D01*
X3595Y759D02*
Y799D01*
Y759D02*
X3624Y730D01*
X3602Y508D02*
Y550D01*
X3624Y572D01*
X3620Y1832D02*
X3835D01*
Y1427D02*
Y1832D01*
X3620Y1427D02*
X3835D01*
X3620D02*
Y1832D01*
X3595Y799D02*
X3854D01*
Y508D02*
Y799D01*
X3602Y508D02*
X3854D01*
X3624Y572D02*
Y730D01*
X1836Y773D02*
X2091D01*
X1836D02*
Y1178D01*
X2091D01*
X2064Y893D02*
Y1050D01*
X892Y83D02*
Y338D01*
X1182D01*
Y83D02*
Y338D01*
X962Y108D02*
X1120D01*
X2064Y893D02*
X2091Y867D01*
Y773D02*
Y867D01*
X2064Y1050D02*
X2091Y1076D01*
Y1178D01*
D39*
X1349Y575D02*
Y773D01*
X1290Y626D02*
Y725D01*
X1306Y599D02*
Y747D01*
X1330Y581D02*
Y764D01*
X1369Y571D02*
Y774D01*
X2597Y2361D02*
X2794D01*
X2648Y2420D02*
X2747D01*
X2620Y2405D02*
X2769D01*
X2603Y2381D02*
X2786D01*
X2593Y2342D02*
X2796D01*
X1407Y2360D02*
X1605D01*
X1458Y2419D02*
X1557D01*
X1430Y2403D02*
X1579D01*
X1413Y2379D02*
X1596D01*
X1403Y2340D02*
X1606D01*
X1444Y2033D02*
X1642D01*
X1495Y2092D02*
X1594D01*
X1468Y2076D02*
X1617D01*
X1451Y2052D02*
X1634D01*
X1440Y2013D02*
X1644D01*
X2394Y1833D02*
Y2031D01*
X2453Y1881D02*
Y1980D01*
X2437Y1859D02*
Y2007D01*
X2413Y1841D02*
Y2024D01*
X2374Y1831D02*
Y2035D01*
X96Y1739D02*
X294D01*
X147Y1798D02*
X246D01*
X119Y1782D02*
X268D01*
X102Y1758D02*
X285D01*
X92Y1719D02*
X295D01*
X128Y1437D02*
X326D01*
X179Y1496D02*
X278D01*
X151Y1480D02*
X300D01*
X134Y1456D02*
X317D01*
X124Y1417D02*
X327D01*
X288Y1171D02*
X485D01*
X339Y1230D02*
X438D01*
X311Y1214D02*
X460D01*
X294Y1190D02*
X477D01*
X284Y1151D02*
X487D01*
X683Y1440D02*
X881D01*
X735Y1499D02*
X833D01*
X707Y1483D02*
X856D01*
X690Y1460D02*
X873D01*
X679Y1420D02*
X883D01*
X813Y334D02*
Y531D01*
X873Y381D02*
Y480D01*
X857Y359D02*
Y508D01*
X833Y342D02*
Y525D01*
X794Y332D02*
Y535D01*
D40*
X2504Y2339D02*
X2579D01*
X2504Y2195D02*
X2579D01*
Y2339D01*
X2504Y2195D02*
Y2339D01*
X2542Y2145D02*
Y2195D01*
Y2339D02*
Y2389D01*
X1251Y2213D02*
X1326D01*
X1251Y2357D02*
X1326D01*
X1251Y2213D02*
Y2357D01*
X1326Y2213D02*
Y2357D01*
X1289D02*
Y2407D01*
Y2163D02*
Y2213D01*
X2269Y2249D02*
X2344D01*
X2269Y2393D02*
X2344D01*
X2269Y2249D02*
Y2393D01*
X2344Y2249D02*
Y2393D01*
X2307D02*
Y2443D01*
Y2199D02*
Y2249D01*
X3824Y1070D02*
Y1145D01*
X3968Y1070D02*
Y1145D01*
X3824D02*
X3968D01*
X3824Y1070D02*
X3968D01*
Y1107D02*
X4018D01*
X3774D02*
X3824D01*
X92Y2084D02*
X167D01*
X92Y2228D02*
X167D01*
X92Y2084D02*
Y2228D01*
X167Y2084D02*
Y2228D01*
X130D02*
Y2278D01*
Y2034D02*
Y2084D01*
X206Y2086D02*
X281D01*
X206Y2230D02*
X281D01*
X206Y2086D02*
Y2230D01*
X281Y2086D02*
Y2230D01*
X244D02*
Y2280D01*
Y2036D02*
Y2086D01*
X2397Y2098D02*
Y2242D01*
X2472Y2098D02*
Y2242D01*
X2434D02*
Y2292D01*
Y2048D02*
Y2098D01*
X2397D02*
X2472D01*
X2397Y2242D02*
X2472D01*
X2717Y1983D02*
Y2058D01*
X2573Y1983D02*
Y2058D01*
Y1983D02*
X2717D01*
X2573Y2058D02*
X2717D01*
X2523Y2020D02*
X2573D01*
X2717D02*
X2767D01*
X1618Y2251D02*
X1693D01*
X1618Y2394D02*
X1693D01*
X1618Y2251D02*
Y2394D01*
X1693Y2251D02*
Y2394D01*
X1656D02*
Y2444D01*
Y2201D02*
Y2251D01*
X1417Y2070D02*
Y2213D01*
X1342Y2070D02*
Y2213D01*
X1379Y2020D02*
Y2070D01*
Y2213D02*
Y2263D01*
X1342Y2213D02*
X1417D01*
X1342Y2070D02*
X1417D01*
D41*
X561Y802D02*
X557Y800D01*
X552Y795D01*
X550Y791D01*
Y781D01*
X552Y777D01*
X557Y772D01*
X561Y770D01*
X568Y767D01*
X580D01*
X587Y770D01*
X592Y772D01*
X596Y777D01*
X599Y781D01*
Y791D01*
X596Y795D01*
X592Y800D01*
X587Y802D01*
X550Y840D02*
X582Y816D01*
Y851D01*
X550Y840D02*
X599D01*
X550Y865D02*
Y890D01*
X568Y876D01*
Y883D01*
X571Y888D01*
X573Y890D01*
X580Y893D01*
X585D01*
X592Y890D01*
X596Y886D01*
X599Y879D01*
Y872D01*
X596Y865D01*
X594Y862D01*
X589Y860D01*
X1524Y664D02*
X1519Y661D01*
X1514Y657D01*
X1512Y652D01*
Y643D01*
X1514Y638D01*
X1519Y633D01*
X1524Y631D01*
X1531Y629D01*
X1542D01*
X1549Y631D01*
X1554Y633D01*
X1559Y638D01*
X1561Y643D01*
Y652D01*
X1559Y657D01*
X1554Y661D01*
X1549Y664D01*
X1524Y680D02*
X1521D01*
X1517Y682D01*
X1514Y685D01*
X1512Y689D01*
Y699D01*
X1514Y703D01*
X1517Y706D01*
X1521Y708D01*
X1526D01*
X1531Y706D01*
X1538Y701D01*
X1561Y678D01*
Y710D01*
X1512Y735D02*
X1514Y728D01*
X1521Y724D01*
X1533Y721D01*
X1540D01*
X1552Y724D01*
X1559Y728D01*
X1561Y735D01*
Y740D01*
X1559Y747D01*
X1552Y752D01*
X1540Y754D01*
X1533D01*
X1521Y752D01*
X1514Y747D01*
X1512Y740D01*
Y735D01*
X605Y1312D02*
X603Y1317D01*
X598Y1322D01*
X594Y1324D01*
X584D01*
X580Y1322D01*
X575Y1317D01*
X573Y1312D01*
X570Y1305D01*
Y1294D01*
X573Y1287D01*
X575Y1282D01*
X580Y1277D01*
X584Y1275D01*
X594D01*
X598Y1277D01*
X603Y1282D01*
X605Y1287D01*
X643Y1324D02*
X619Y1291D01*
X654D01*
X643Y1324D02*
Y1275D01*
X686Y1324D02*
X663Y1291D01*
X698D01*
X686Y1324D02*
Y1275D01*
X2476Y2505D02*
Y2456D01*
Y2505D02*
X2497D01*
X2504Y2502D01*
X2506Y2500D01*
X2508Y2495D01*
Y2491D01*
X2506Y2486D01*
X2504Y2484D01*
X2497Y2481D01*
X2476D01*
X2492D02*
X2508Y2456D01*
X2531Y2505D02*
X2524Y2502D01*
X2522Y2498D01*
Y2493D01*
X2524Y2488D01*
X2529Y2486D01*
X2538Y2484D01*
X2545Y2481D01*
X2550Y2477D01*
X2552Y2472D01*
Y2465D01*
X2550Y2460D01*
X2548Y2458D01*
X2541Y2456D01*
X2531D01*
X2524Y2458D01*
X2522Y2460D01*
X2519Y2465D01*
Y2472D01*
X2522Y2477D01*
X2527Y2481D01*
X2534Y2484D01*
X2543Y2486D01*
X2548Y2488D01*
X2550Y2493D01*
Y2498D01*
X2548Y2502D01*
X2541Y2505D01*
X2531D01*
X1262Y1980D02*
X1311D01*
X1262D02*
Y2001D01*
X1264Y2008D01*
X1266Y2011D01*
X1271Y2013D01*
X1276D01*
X1280Y2011D01*
X1283Y2008D01*
X1285Y2001D01*
Y1980D01*
Y1997D02*
X1311Y2013D01*
X1269Y2052D02*
X1264Y2050D01*
X1262Y2043D01*
Y2038D01*
X1264Y2031D01*
X1271Y2026D01*
X1283Y2024D01*
X1294D01*
X1304Y2026D01*
X1308Y2031D01*
X1311Y2038D01*
Y2041D01*
X1308Y2048D01*
X1304Y2052D01*
X1297Y2055D01*
X1294D01*
X1287Y2052D01*
X1283Y2048D01*
X1280Y2041D01*
Y2038D01*
X1283Y2031D01*
X1287Y2026D01*
X1294Y2024D01*
X2252Y2506D02*
Y2468D01*
X2250Y2461D01*
X2247Y2459D01*
X2242Y2457D01*
X2238D01*
X2233Y2459D01*
X2231Y2461D01*
X2228Y2468D01*
Y2473D01*
X2265Y2497D02*
X2269Y2499D01*
X2276Y2506D01*
Y2457D01*
X3666Y1073D02*
X3704D01*
X3711Y1070D01*
X3713Y1068D01*
X3715Y1063D01*
Y1059D01*
X3713Y1054D01*
X3711Y1052D01*
X3704Y1049D01*
X3699D01*
X3678Y1088D02*
X3676D01*
X3671Y1090D01*
X3669Y1092D01*
X3666Y1097D01*
Y1106D01*
X3669Y1111D01*
X3671Y1113D01*
X3676Y1116D01*
X3680D01*
X3685Y1113D01*
X3692Y1109D01*
X3715Y1085D01*
Y1118D01*
X3047Y1382D02*
X3045Y1387D01*
X3040Y1392D01*
X3035Y1394D01*
X3026D01*
X3021Y1392D01*
X3016Y1387D01*
X3014Y1382D01*
X3012Y1375D01*
Y1363D01*
X3014Y1356D01*
X3016Y1352D01*
X3021Y1347D01*
X3026Y1345D01*
X3035D01*
X3040Y1347D01*
X3045Y1352D01*
X3047Y1356D01*
X3061Y1384D02*
X3065Y1387D01*
X3072Y1394D01*
Y1345D01*
X3097Y1384D02*
X3101Y1387D01*
X3109Y1394D01*
Y1345D01*
X3218Y1390D02*
X3214Y1388D01*
X3209Y1383D01*
X3207Y1378D01*
Y1369D01*
X3209Y1364D01*
X3214Y1360D01*
X3218Y1357D01*
X3225Y1355D01*
X3237D01*
X3244Y1357D01*
X3249Y1360D01*
X3253Y1364D01*
X3256Y1369D01*
Y1378D01*
X3253Y1383D01*
X3249Y1388D01*
X3244Y1390D01*
X3216Y1404D02*
X3214Y1409D01*
X3207Y1416D01*
X3256D01*
X3207Y1445D02*
Y1471D01*
X3225Y1456D01*
Y1463D01*
X3228Y1468D01*
X3230Y1471D01*
X3237Y1473D01*
X3242D01*
X3249Y1471D01*
X3253Y1466D01*
X3256Y1459D01*
Y1452D01*
X3253Y1445D01*
X3251Y1442D01*
X3246Y1440D01*
X3500Y1979D02*
X3498Y1984D01*
X3493Y1988D01*
X3488Y1991D01*
X3479D01*
X3474Y1988D01*
X3470Y1984D01*
X3467Y1979D01*
X3465Y1972D01*
Y1960D01*
X3467Y1953D01*
X3470Y1949D01*
X3474Y1944D01*
X3479Y1942D01*
X3488D01*
X3493Y1944D01*
X3498Y1949D01*
X3500Y1953D01*
X3514Y1981D02*
X3519Y1984D01*
X3526Y1991D01*
Y1942D01*
X3578Y1991D02*
X3555D01*
X3552Y1970D01*
X3555Y1972D01*
X3562Y1974D01*
X3569D01*
X3576Y1972D01*
X3580Y1967D01*
X3583Y1960D01*
Y1956D01*
X3580Y1949D01*
X3576Y1944D01*
X3569Y1942D01*
X3562D01*
X3555Y1944D01*
X3552Y1946D01*
X3550Y1951D01*
X1536Y925D02*
X1531Y922D01*
X1526Y918D01*
X1524Y913D01*
Y904D01*
X1526Y899D01*
X1531Y894D01*
X1536Y892D01*
X1543Y890D01*
X1554D01*
X1561Y892D01*
X1566Y894D01*
X1571Y899D01*
X1573Y904D01*
Y913D01*
X1571Y918D01*
X1566Y922D01*
X1561Y925D01*
X1533Y939D02*
X1531Y943D01*
X1524Y950D01*
X1573D01*
X1524Y986D02*
X1526Y979D01*
X1531Y977D01*
X1536D01*
X1540Y979D01*
X1543Y984D01*
X1545Y993D01*
X1547Y1001D01*
X1552Y1005D01*
X1557Y1008D01*
X1564D01*
X1568Y1005D01*
X1571Y1003D01*
X1573Y996D01*
Y986D01*
X1571Y979D01*
X1568Y977D01*
X1564Y975D01*
X1557D01*
X1552Y977D01*
X1547Y982D01*
X1545Y989D01*
X1543Y998D01*
X1540Y1003D01*
X1536Y1005D01*
X1531D01*
X1526Y1003D01*
X1524Y996D01*
Y986D01*
X1536Y1195D02*
X1531Y1192D01*
X1526Y1188D01*
X1524Y1183D01*
Y1174D01*
X1526Y1169D01*
X1531Y1164D01*
X1536Y1162D01*
X1543Y1160D01*
X1554D01*
X1561Y1162D01*
X1566Y1164D01*
X1571Y1169D01*
X1573Y1174D01*
Y1183D01*
X1571Y1188D01*
X1566Y1192D01*
X1561Y1195D01*
X1533Y1209D02*
X1531Y1213D01*
X1524Y1220D01*
X1573D01*
X1531Y1273D02*
X1526Y1271D01*
X1524Y1263D01*
Y1259D01*
X1526Y1252D01*
X1533Y1247D01*
X1545Y1245D01*
X1557D01*
X1566Y1247D01*
X1571Y1252D01*
X1573Y1259D01*
Y1261D01*
X1571Y1268D01*
X1566Y1273D01*
X1559Y1275D01*
X1557D01*
X1550Y1273D01*
X1545Y1268D01*
X1543Y1261D01*
Y1259D01*
X1545Y1252D01*
X1550Y1247D01*
X1557Y1245D01*
X1541Y1444D02*
X1536Y1442D01*
X1531Y1437D01*
X1529Y1432D01*
Y1423D01*
X1531Y1418D01*
X1536Y1414D01*
X1541Y1411D01*
X1548Y1409D01*
X1559D01*
X1566Y1411D01*
X1571Y1414D01*
X1576Y1418D01*
X1578Y1423D01*
Y1432D01*
X1576Y1437D01*
X1571Y1442D01*
X1566Y1444D01*
X1538Y1458D02*
X1536Y1463D01*
X1529Y1470D01*
X1578D01*
X1529Y1518D02*
X1562Y1494D01*
Y1529D01*
X1529Y1518D02*
X1578D01*
X1512Y145D02*
X1507Y143D01*
X1503Y138D01*
X1500Y134D01*
Y124D01*
X1503Y120D01*
X1507Y115D01*
X1512Y112D01*
X1519Y110D01*
X1531D01*
X1538Y112D01*
X1542Y115D01*
X1547Y120D01*
X1549Y124D01*
Y134D01*
X1547Y138D01*
X1542Y143D01*
X1538Y145D01*
X1512Y161D02*
X1510D01*
X1505Y164D01*
X1503Y166D01*
X1500Y171D01*
Y180D01*
X1503Y185D01*
X1505Y187D01*
X1510Y190D01*
X1514D01*
X1519Y187D01*
X1526Y183D01*
X1549Y159D01*
Y192D01*
X1500Y208D02*
Y233D01*
X1519Y219D01*
Y226D01*
X1521Y231D01*
X1524Y233D01*
X1531Y236D01*
X1535D01*
X1542Y233D01*
X1547Y229D01*
X1549Y222D01*
Y215D01*
X1547Y208D01*
X1545Y205D01*
X1540Y203D01*
X1677Y729D02*
X1674Y733D01*
X1670Y738D01*
X1665Y740D01*
X1656D01*
X1651Y738D01*
X1646Y733D01*
X1644Y729D01*
X1642Y722D01*
Y710D01*
X1644Y703D01*
X1646Y698D01*
X1651Y693D01*
X1656Y691D01*
X1665D01*
X1670Y693D01*
X1674Y698D01*
X1677Y703D01*
X1695Y740D02*
X1721D01*
X1707Y722D01*
X1714D01*
X1719Y719D01*
X1721Y717D01*
X1723Y710D01*
Y705D01*
X1721Y698D01*
X1716Y693D01*
X1709Y691D01*
X1702D01*
X1695Y693D01*
X1693Y696D01*
X1691Y700D01*
X1749Y740D02*
X1741Y738D01*
X1737Y731D01*
X1734Y719D01*
Y712D01*
X1737Y700D01*
X1741Y693D01*
X1749Y691D01*
X1753D01*
X1760Y693D01*
X1765Y700D01*
X1767Y712D01*
Y719D01*
X1765Y731D01*
X1760Y738D01*
X1753Y740D01*
X1749D01*
X3093Y291D02*
X3090Y295D01*
X3086Y300D01*
X3081Y302D01*
X3071D01*
X3067Y300D01*
X3062Y295D01*
X3060Y291D01*
X3057Y284D01*
Y272D01*
X3060Y265D01*
X3062Y260D01*
X3067Y255D01*
X3071Y253D01*
X3081D01*
X3086Y255D01*
X3090Y260D01*
X3093Y265D01*
X3109Y291D02*
Y293D01*
X3111Y298D01*
X3113Y300D01*
X3118Y302D01*
X3127D01*
X3132Y300D01*
X3134Y298D01*
X3137Y293D01*
Y288D01*
X3134Y284D01*
X3130Y277D01*
X3106Y253D01*
X3139D01*
X3174Y302D02*
X3150Y270D01*
X3185D01*
X3174Y302D02*
Y253D01*
X3205Y1977D02*
X3203Y1982D01*
X3198Y1987D01*
X3193Y1989D01*
X3184D01*
X3179Y1987D01*
X3175Y1982D01*
X3172Y1977D01*
X3170Y1970D01*
Y1959D01*
X3172Y1952D01*
X3175Y1947D01*
X3179Y1942D01*
X3184Y1940D01*
X3193D01*
X3198Y1942D01*
X3203Y1947D01*
X3205Y1952D01*
X3249Y1973D02*
X3247Y1966D01*
X3242Y1961D01*
X3235Y1959D01*
X3233D01*
X3226Y1961D01*
X3221Y1966D01*
X3219Y1973D01*
Y1975D01*
X3221Y1982D01*
X3226Y1987D01*
X3233Y1989D01*
X3235D01*
X3242Y1987D01*
X3247Y1982D01*
X3249Y1973D01*
Y1961D01*
X3247Y1949D01*
X3242Y1942D01*
X3235Y1940D01*
X3231D01*
X3224Y1942D01*
X3221Y1947D01*
X2882Y1666D02*
X2880Y1671D01*
X2875Y1676D01*
X2871Y1678D01*
X2861D01*
X2857Y1676D01*
X2852Y1671D01*
X2850Y1666D01*
X2847Y1659D01*
Y1648D01*
X2850Y1641D01*
X2852Y1636D01*
X2857Y1631D01*
X2861Y1629D01*
X2871D01*
X2875Y1631D01*
X2880Y1636D01*
X2882Y1641D01*
X2908Y1678D02*
X2901Y1676D01*
X2899Y1671D01*
Y1666D01*
X2901Y1662D01*
X2906Y1659D01*
X2915Y1657D01*
X2922Y1655D01*
X2927Y1650D01*
X2929Y1645D01*
Y1638D01*
X2927Y1634D01*
X2924Y1631D01*
X2917Y1629D01*
X2908D01*
X2901Y1631D01*
X2899Y1634D01*
X2896Y1638D01*
Y1645D01*
X2899Y1650D01*
X2903Y1655D01*
X2910Y1657D01*
X2920Y1659D01*
X2924Y1662D01*
X2927Y1666D01*
Y1671D01*
X2924Y1676D01*
X2917Y1678D01*
X2908D01*
X3524Y344D02*
X3519Y342D01*
X3515Y337D01*
X3512Y333D01*
Y323D01*
X3515Y319D01*
X3519Y314D01*
X3524Y312D01*
X3531Y309D01*
X3543D01*
X3550Y312D01*
X3555Y314D01*
X3559Y319D01*
X3562Y323D01*
Y333D01*
X3559Y337D01*
X3555Y342D01*
X3550Y344D01*
X3512Y363D02*
Y389D01*
X3531Y375D01*
Y382D01*
X3533Y386D01*
X3536Y389D01*
X3543Y391D01*
X3548D01*
X3555Y389D01*
X3559Y384D01*
X3562Y377D01*
Y370D01*
X3559Y363D01*
X3557Y361D01*
X3552Y358D01*
X3512Y430D02*
Y407D01*
X3533Y404D01*
X3531Y407D01*
X3529Y414D01*
Y421D01*
X3531Y428D01*
X3536Y433D01*
X3543Y435D01*
X3548D01*
X3555Y433D01*
X3559Y428D01*
X3562Y421D01*
Y414D01*
X3559Y407D01*
X3557Y404D01*
X3552Y402D01*
X2686Y1666D02*
X2684Y1671D01*
X2679Y1676D01*
X2674Y1678D01*
X2665D01*
X2660Y1676D01*
X2656Y1671D01*
X2653Y1666D01*
X2651Y1659D01*
Y1648D01*
X2653Y1641D01*
X2656Y1636D01*
X2660Y1631D01*
X2665Y1629D01*
X2674D01*
X2679Y1631D01*
X2684Y1636D01*
X2686Y1641D01*
X2733Y1678D02*
X2709Y1629D01*
X2700Y1678D02*
X2733D01*
X3207Y686D02*
X3202Y684D01*
X3197Y679D01*
X3195Y674D01*
Y665D01*
X3197Y660D01*
X3202Y655D01*
X3207Y653D01*
X3214Y651D01*
X3225D01*
X3232Y653D01*
X3237Y655D01*
X3242Y660D01*
X3244Y665D01*
Y674D01*
X3242Y679D01*
X3237Y684D01*
X3232Y686D01*
X3207Y702D02*
X3204D01*
X3200Y704D01*
X3197Y707D01*
X3195Y711D01*
Y721D01*
X3197Y725D01*
X3200Y728D01*
X3204Y730D01*
X3209D01*
X3214Y728D01*
X3221Y723D01*
X3244Y700D01*
Y733D01*
X3207Y746D02*
X3204D01*
X3200Y748D01*
X3197Y751D01*
X3195Y755D01*
Y765D01*
X3197Y769D01*
X3200Y772D01*
X3204Y774D01*
X3209D01*
X3214Y772D01*
X3221Y767D01*
X3244Y744D01*
Y776D01*
X1512Y383D02*
X1507Y380D01*
X1503Y376D01*
X1500Y371D01*
Y362D01*
X1503Y357D01*
X1507Y352D01*
X1512Y350D01*
X1519Y348D01*
X1531D01*
X1538Y350D01*
X1542Y352D01*
X1547Y357D01*
X1549Y362D01*
Y371D01*
X1547Y376D01*
X1542Y380D01*
X1538Y383D01*
X1512Y399D02*
X1510D01*
X1505Y401D01*
X1503Y404D01*
X1500Y408D01*
Y418D01*
X1503Y422D01*
X1505Y425D01*
X1510Y427D01*
X1514D01*
X1519Y425D01*
X1526Y420D01*
X1549Y397D01*
Y429D01*
X1510Y440D02*
X1507Y445D01*
X1500Y452D01*
X1549D01*
X3207Y1214D02*
X3202Y1212D01*
X3197Y1207D01*
X3195Y1203D01*
Y1193D01*
X3197Y1189D01*
X3202Y1184D01*
X3207Y1182D01*
X3214Y1179D01*
X3225D01*
X3232Y1182D01*
X3237Y1184D01*
X3242Y1189D01*
X3244Y1193D01*
Y1203D01*
X3242Y1207D01*
X3237Y1212D01*
X3232Y1214D01*
X3204Y1228D02*
X3202Y1233D01*
X3195Y1240D01*
X3244D01*
X3195Y1297D02*
X3244Y1274D01*
X3195Y1264D02*
Y1297D01*
X3207Y954D02*
X3202Y951D01*
X3197Y947D01*
X3195Y942D01*
Y933D01*
X3197Y928D01*
X3202Y923D01*
X3207Y921D01*
X3214Y918D01*
X3225D01*
X3232Y921D01*
X3237Y923D01*
X3242Y928D01*
X3244Y933D01*
Y942D01*
X3242Y947D01*
X3237Y951D01*
X3232Y954D01*
X3204Y967D02*
X3202Y972D01*
X3195Y979D01*
X3244D01*
X3211Y1034D02*
X3218Y1032D01*
X3223Y1027D01*
X3225Y1020D01*
Y1018D01*
X3223Y1011D01*
X3218Y1006D01*
X3211Y1004D01*
X3209D01*
X3202Y1006D01*
X3197Y1011D01*
X3195Y1018D01*
Y1020D01*
X3197Y1027D01*
X3202Y1032D01*
X3211Y1034D01*
X3223D01*
X3235Y1032D01*
X3242Y1027D01*
X3244Y1020D01*
Y1015D01*
X3242Y1008D01*
X3237Y1006D01*
X2866Y729D02*
X2863Y733D01*
X2859Y738D01*
X2854Y740D01*
X2845D01*
X2840Y738D01*
X2835Y733D01*
X2833Y729D01*
X2831Y722D01*
Y710D01*
X2833Y703D01*
X2835Y698D01*
X2840Y693D01*
X2845Y691D01*
X2854D01*
X2859Y693D01*
X2863Y698D01*
X2866Y703D01*
X2882Y729D02*
Y731D01*
X2884Y736D01*
X2887Y738D01*
X2891Y740D01*
X2901D01*
X2905Y738D01*
X2908Y736D01*
X2910Y731D01*
Y726D01*
X2908Y722D01*
X2903Y715D01*
X2880Y691D01*
X2912D01*
X2954Y724D02*
X2952Y717D01*
X2947Y712D01*
X2940Y710D01*
X2937D01*
X2930Y712D01*
X2926Y717D01*
X2923Y724D01*
Y726D01*
X2926Y733D01*
X2930Y738D01*
X2937Y740D01*
X2940D01*
X2947Y738D01*
X2952Y733D01*
X2954Y724D01*
Y712D01*
X2952Y700D01*
X2947Y693D01*
X2940Y691D01*
X2935D01*
X2928Y693D01*
X2926Y698D01*
X2628Y729D02*
X2626Y733D01*
X2621Y738D01*
X2616Y740D01*
X2607D01*
X2602Y738D01*
X2598Y733D01*
X2595Y729D01*
X2593Y722D01*
Y710D01*
X2595Y703D01*
X2598Y698D01*
X2602Y693D01*
X2607Y691D01*
X2616D01*
X2621Y693D01*
X2626Y698D01*
X2628Y703D01*
X2647Y740D02*
X2672D01*
X2658Y722D01*
X2665D01*
X2670Y719D01*
X2672Y717D01*
X2675Y710D01*
Y705D01*
X2672Y698D01*
X2668Y693D01*
X2661Y691D01*
X2654D01*
X2647Y693D01*
X2644Y696D01*
X2642Y700D01*
X2688Y729D02*
Y731D01*
X2690Y736D01*
X2693Y738D01*
X2697Y740D01*
X2707D01*
X2711Y738D01*
X2714Y736D01*
X2716Y731D01*
Y726D01*
X2714Y722D01*
X2709Y715D01*
X2686Y691D01*
X2718D01*
X2390Y729D02*
X2388Y733D01*
X2383Y738D01*
X2378Y740D01*
X2369D01*
X2364Y738D01*
X2360Y733D01*
X2357Y729D01*
X2355Y722D01*
Y710D01*
X2357Y703D01*
X2360Y698D01*
X2364Y693D01*
X2369Y691D01*
X2378D01*
X2383Y693D01*
X2388Y698D01*
X2390Y703D01*
X2406Y729D02*
Y731D01*
X2409Y736D01*
X2411Y738D01*
X2416Y740D01*
X2425D01*
X2430Y738D01*
X2432Y736D01*
X2434Y731D01*
Y726D01*
X2432Y722D01*
X2427Y715D01*
X2404Y691D01*
X2437D01*
X2460Y740D02*
X2453Y738D01*
X2450Y733D01*
Y729D01*
X2453Y724D01*
X2457Y722D01*
X2467Y719D01*
X2474Y717D01*
X2478Y712D01*
X2481Y708D01*
Y700D01*
X2478Y696D01*
X2476Y693D01*
X2469Y691D01*
X2460D01*
X2453Y693D01*
X2450Y696D01*
X2448Y700D01*
Y708D01*
X2450Y712D01*
X2455Y717D01*
X2462Y719D01*
X2471Y722D01*
X2476Y724D01*
X2478Y729D01*
Y733D01*
X2476Y738D01*
X2469Y740D01*
X2460D01*
X2152Y729D02*
X2150Y733D01*
X2145Y738D01*
X2141Y740D01*
X2131D01*
X2127Y738D01*
X2122Y733D01*
X2120Y729D01*
X2117Y722D01*
Y710D01*
X2120Y703D01*
X2122Y698D01*
X2127Y693D01*
X2131Y691D01*
X2141D01*
X2145Y693D01*
X2150Y698D01*
X2152Y703D01*
X2171Y740D02*
X2197D01*
X2183Y722D01*
X2190D01*
X2194Y719D01*
X2197Y717D01*
X2199Y710D01*
Y705D01*
X2197Y698D01*
X2192Y693D01*
X2185Y691D01*
X2178D01*
X2171Y693D01*
X2169Y696D01*
X2166Y700D01*
X2210Y731D02*
X2215Y733D01*
X2222Y740D01*
Y691D01*
X1915Y729D02*
X1912Y733D01*
X1908Y738D01*
X1903Y740D01*
X1894D01*
X1889Y738D01*
X1884Y733D01*
X1882Y729D01*
X1879Y722D01*
Y710D01*
X1882Y703D01*
X1884Y698D01*
X1889Y693D01*
X1894Y691D01*
X1903D01*
X1908Y693D01*
X1912Y698D01*
X1915Y703D01*
X1931Y729D02*
Y731D01*
X1933Y736D01*
X1935Y738D01*
X1940Y740D01*
X1950D01*
X1954Y738D01*
X1957Y736D01*
X1959Y731D01*
Y726D01*
X1957Y722D01*
X1952Y715D01*
X1928Y691D01*
X1961D01*
X2005Y740D02*
X1982Y691D01*
X1972Y740D02*
X2005D01*
X2553Y199D02*
X2529D01*
X2527Y178D01*
X2529Y180D01*
X2536Y183D01*
X2543D01*
X2550Y180D01*
X2555Y176D01*
X2557Y169D01*
Y164D01*
X2555Y157D01*
X2550Y152D01*
X2543Y150D01*
X2536D01*
X2529Y152D01*
X2527Y155D01*
X2525Y159D01*
X2571Y155D02*
X2568Y152D01*
X2571Y150D01*
X2573Y152D01*
X2571Y155D01*
X2584Y190D02*
X2589Y192D01*
X2596Y199D01*
Y150D01*
X2659Y199D02*
Y150D01*
X2669Y199D02*
Y150D01*
Y199D02*
X2702Y150D01*
Y199D02*
Y150D01*
X3952Y1515D02*
X3987D01*
X3994Y1518D01*
X3999Y1522D01*
X4001Y1529D01*
Y1534D01*
X3999Y1541D01*
X3994Y1546D01*
X3987Y1548D01*
X3952D01*
X3959Y1595D02*
X3955Y1590D01*
X3952Y1583D01*
Y1574D01*
X3955Y1567D01*
X3959Y1562D01*
X3964D01*
X3969Y1564D01*
X3971Y1567D01*
X3973Y1571D01*
X3978Y1585D01*
X3980Y1590D01*
X3983Y1592D01*
X3987Y1595D01*
X3994D01*
X3999Y1590D01*
X4001Y1583D01*
Y1574D01*
X3999Y1567D01*
X3994Y1562D01*
X3952Y1606D02*
X4001D01*
X3952D02*
Y1627D01*
X3955Y1634D01*
X3957Y1636D01*
X3962Y1638D01*
X3966D01*
X3971Y1636D01*
X3973Y1634D01*
X3976Y1627D01*
Y1606D02*
Y1627D01*
X3978Y1634D01*
X3980Y1636D01*
X3985Y1638D01*
X3992D01*
X3997Y1636D01*
X3999Y1634D01*
X4001Y1627D01*
Y1606D01*
X3952Y1688D02*
X4001D01*
X3952Y1698D02*
X4001D01*
X3952D02*
X4001Y1731D01*
X3952D02*
X4001D01*
X3630Y455D02*
X3651D01*
X3658Y457D01*
X3660Y459D01*
X3663Y464D01*
Y471D01*
X3660Y476D01*
X3658Y478D01*
X3651Y480D01*
X3630D01*
Y431D01*
X3688Y480D02*
X3683Y478D01*
X3678Y473D01*
X3676Y469D01*
X3674Y462D01*
Y450D01*
X3676Y443D01*
X3678Y438D01*
X3683Y434D01*
X3688Y431D01*
X3697D01*
X3702Y434D01*
X3706Y438D01*
X3709Y443D01*
X3711Y450D01*
Y462D01*
X3709Y469D01*
X3706Y473D01*
X3702Y478D01*
X3697Y480D01*
X3688D01*
X3723D02*
X3734Y431D01*
X3746Y480D02*
X3734Y431D01*
X3746Y480D02*
X3758Y431D01*
X3769Y480D02*
X3758Y431D01*
X3810Y480D02*
X3779D01*
Y431D01*
X3810D01*
X3779Y457D02*
X3798D01*
X3818Y480D02*
Y431D01*
Y480D02*
X3839D01*
X3846Y478D01*
X3848Y476D01*
X3851Y471D01*
Y466D01*
X3848Y462D01*
X3846Y459D01*
X3839Y457D01*
X3818D01*
X3834D02*
X3851Y431D01*
X1882Y1271D02*
Y1211D01*
Y1271D02*
X1905Y1211D01*
X1928Y1271D02*
X1905Y1211D01*
X1928Y1271D02*
Y1211D01*
X1988Y1256D02*
X1985Y1262D01*
X1979Y1268D01*
X1973Y1271D01*
X1962D01*
X1956Y1268D01*
X1950Y1262D01*
X1948Y1256D01*
X1945Y1248D01*
Y1234D01*
X1948Y1225D01*
X1950Y1219D01*
X1956Y1214D01*
X1962Y1211D01*
X1973D01*
X1979Y1214D01*
X1985Y1219D01*
X1988Y1225D01*
X2004Y1271D02*
Y1228D01*
X2007Y1219D01*
X2013Y1214D01*
X2022Y1211D01*
X2027D01*
X2036Y1214D01*
X2042Y1219D01*
X2044Y1228D01*
Y1271D01*
X385Y1902D02*
X381Y1900D01*
X376Y1895D01*
X374Y1890D01*
Y1881D01*
X376Y1876D01*
X381Y1872D01*
X385Y1869D01*
X392Y1867D01*
X404D01*
X411Y1869D01*
X416Y1872D01*
X420Y1876D01*
X423Y1881D01*
Y1890D01*
X420Y1895D01*
X416Y1900D01*
X411Y1902D01*
X383Y1916D02*
X381Y1920D01*
X374Y1928D01*
X423D01*
X385Y1954D02*
X383D01*
X378Y1957D01*
X376Y1959D01*
X374Y1964D01*
Y1973D01*
X376Y1978D01*
X378Y1980D01*
X383Y1982D01*
X388D01*
X392Y1980D01*
X399Y1975D01*
X423Y1952D01*
Y1985D01*
X539Y1902D02*
X535Y1900D01*
X530Y1895D01*
X528Y1890D01*
Y1881D01*
X530Y1876D01*
X535Y1872D01*
X539Y1869D01*
X546Y1867D01*
X558D01*
X565Y1869D01*
X570Y1872D01*
X575Y1876D01*
X577Y1881D01*
Y1890D01*
X575Y1895D01*
X570Y1900D01*
X565Y1902D01*
X537Y1916D02*
X535Y1920D01*
X528Y1928D01*
X577D01*
X528Y1966D02*
X530Y1959D01*
X537Y1954D01*
X549Y1952D01*
X556D01*
X568Y1954D01*
X575Y1959D01*
X577Y1966D01*
Y1971D01*
X575Y1978D01*
X568Y1982D01*
X556Y1985D01*
X549D01*
X537Y1982D01*
X530Y1978D01*
X528Y1971D01*
Y1966D01*
X694Y1959D02*
X690Y1957D01*
X685Y1952D01*
X683Y1947D01*
Y1938D01*
X685Y1933D01*
X690Y1929D01*
X694Y1926D01*
X701Y1924D01*
X713D01*
X720Y1926D01*
X725Y1929D01*
X729Y1933D01*
X732Y1938D01*
Y1947D01*
X729Y1952D01*
X725Y1957D01*
X720Y1959D01*
X692Y1973D02*
X690Y1978D01*
X683Y1985D01*
X732D01*
X849Y1938D02*
X844Y1936D01*
X839Y1931D01*
X837Y1926D01*
Y1917D01*
X839Y1912D01*
X844Y1908D01*
X849Y1905D01*
X856Y1903D01*
X867D01*
X875Y1905D01*
X879Y1908D01*
X884Y1912D01*
X886Y1917D01*
Y1926D01*
X884Y1931D01*
X879Y1936D01*
X875Y1938D01*
X837Y1957D02*
Y1982D01*
X856Y1968D01*
Y1975D01*
X858Y1980D01*
X860Y1982D01*
X867Y1985D01*
X872D01*
X879Y1982D01*
X884Y1978D01*
X886Y1971D01*
Y1964D01*
X884Y1957D01*
X882Y1954D01*
X877Y1952D01*
X1003Y1936D02*
X999Y1933D01*
X994Y1929D01*
X992Y1924D01*
Y1915D01*
X994Y1910D01*
X999Y1905D01*
X1003Y1903D01*
X1010Y1901D01*
X1022D01*
X1029Y1903D01*
X1034Y1905D01*
X1038Y1910D01*
X1041Y1915D01*
Y1924D01*
X1038Y1929D01*
X1034Y1933D01*
X1029Y1936D01*
X992Y1973D02*
X1024Y1950D01*
Y1985D01*
X992Y1973D02*
X1041D01*
X1158Y1938D02*
X1153Y1936D01*
X1148Y1931D01*
X1146Y1926D01*
Y1917D01*
X1148Y1912D01*
X1153Y1908D01*
X1158Y1905D01*
X1165Y1903D01*
X1176D01*
X1184Y1905D01*
X1188Y1908D01*
X1193Y1912D01*
X1195Y1917D01*
Y1926D01*
X1193Y1931D01*
X1188Y1936D01*
X1184Y1938D01*
X1158Y1954D02*
X1155D01*
X1151Y1957D01*
X1148Y1959D01*
X1146Y1964D01*
Y1973D01*
X1148Y1978D01*
X1151Y1980D01*
X1155Y1982D01*
X1160D01*
X1165Y1980D01*
X1172Y1975D01*
X1195Y1952D01*
Y1985D01*
X100Y1926D02*
X150D01*
X100D02*
Y1947D01*
X103Y1954D01*
X105Y1956D01*
X110Y1958D01*
X115D01*
X119Y1956D01*
X122Y1954D01*
X124Y1947D01*
Y1926D01*
Y1942D02*
X150Y1958D01*
X112Y1972D02*
X110D01*
X105Y1974D01*
X103Y1976D01*
X100Y1981D01*
Y1991D01*
X103Y1995D01*
X105Y1998D01*
X110Y2000D01*
X115D01*
X119Y1998D01*
X126Y1993D01*
X150Y1969D01*
Y2002D01*
X216Y1907D02*
X266D01*
X216D02*
Y1928D01*
X219Y1935D01*
X221Y1938D01*
X226Y1940D01*
X231D01*
X235Y1938D01*
X238Y1935D01*
X240Y1928D01*
Y1907D01*
Y1924D02*
X266Y1940D01*
X226Y1951D02*
X223Y1956D01*
X216Y1963D01*
X266D01*
X634Y1520D02*
X683D01*
X634D02*
Y1541D01*
X636Y1548D01*
X638Y1550D01*
X643Y1552D01*
X648D01*
X652Y1550D01*
X655Y1548D01*
X657Y1541D01*
Y1520D01*
Y1536D02*
X683Y1552D01*
X634Y1587D02*
X667Y1563D01*
Y1599D01*
X634Y1587D02*
X683D01*
X3529Y134D02*
X3524Y132D01*
X3520Y127D01*
X3517Y123D01*
Y113D01*
X3520Y109D01*
X3524Y104D01*
X3529Y102D01*
X3536Y99D01*
X3548D01*
X3555Y102D01*
X3560Y104D01*
X3564Y109D01*
X3567Y113D01*
Y123D01*
X3564Y127D01*
X3560Y132D01*
X3555Y134D01*
X3529Y151D02*
X3527D01*
X3522Y153D01*
X3520Y155D01*
X3517Y160D01*
Y169D01*
X3520Y174D01*
X3522Y176D01*
X3527Y179D01*
X3531D01*
X3536Y176D01*
X3543Y172D01*
X3567Y148D01*
Y181D01*
X3517Y220D02*
Y197D01*
X3539Y194D01*
X3536Y197D01*
X3534Y204D01*
Y211D01*
X3536Y218D01*
X3541Y222D01*
X3548Y225D01*
X3553D01*
X3560Y222D01*
X3564Y218D01*
X3567Y211D01*
Y204D01*
X3564Y197D01*
X3562Y194D01*
X3557Y192D01*
X2857Y1062D02*
X2854Y1066D01*
X2850Y1071D01*
X2845Y1073D01*
X2836D01*
X2831Y1071D01*
X2826Y1066D01*
X2824Y1062D01*
X2822Y1055D01*
Y1043D01*
X2824Y1036D01*
X2826Y1031D01*
X2831Y1027D01*
X2836Y1024D01*
X2845D01*
X2850Y1027D01*
X2854Y1031D01*
X2857Y1036D01*
X2875Y1073D02*
X2901D01*
X2887Y1055D01*
X2894D01*
X2899Y1052D01*
X2901Y1050D01*
X2903Y1043D01*
Y1038D01*
X2901Y1031D01*
X2896Y1027D01*
X2889Y1024D01*
X2882D01*
X2875Y1027D01*
X2873Y1029D01*
X2871Y1034D01*
X2919Y1073D02*
X2945D01*
X2931Y1055D01*
X2938D01*
X2942Y1052D01*
X2945Y1050D01*
X2947Y1043D01*
Y1038D01*
X2945Y1031D01*
X2940Y1027D01*
X2933Y1024D01*
X2926D01*
X2919Y1027D01*
X2917Y1029D01*
X2914Y1034D01*
X2620Y1062D02*
X2618Y1066D01*
X2613Y1071D01*
X2609Y1073D01*
X2599D01*
X2595Y1071D01*
X2590Y1066D01*
X2588Y1062D01*
X2585Y1055D01*
Y1043D01*
X2588Y1036D01*
X2590Y1031D01*
X2595Y1027D01*
X2599Y1024D01*
X2609D01*
X2613Y1027D01*
X2618Y1031D01*
X2620Y1036D01*
X2639Y1073D02*
X2665D01*
X2651Y1055D01*
X2658D01*
X2662Y1052D01*
X2665Y1050D01*
X2667Y1043D01*
Y1038D01*
X2665Y1031D01*
X2660Y1027D01*
X2653Y1024D01*
X2646D01*
X2639Y1027D01*
X2637Y1029D01*
X2634Y1034D01*
X2702Y1073D02*
X2678Y1041D01*
X2713D01*
X2702Y1073D02*
Y1024D01*
X1757Y1789D02*
X1755Y1793D01*
X1750Y1798D01*
X1746Y1800D01*
X1736D01*
X1731Y1798D01*
X1727Y1793D01*
X1724Y1789D01*
X1722Y1782D01*
Y1770D01*
X1724Y1763D01*
X1727Y1758D01*
X1731Y1753D01*
X1736Y1751D01*
X1746D01*
X1750Y1753D01*
X1755Y1758D01*
X1757Y1763D01*
X1799Y1800D02*
X1776D01*
X1773Y1779D01*
X1776Y1782D01*
X1783Y1784D01*
X1790D01*
X1797Y1782D01*
X1802Y1777D01*
X1804Y1770D01*
Y1765D01*
X1802Y1758D01*
X1797Y1753D01*
X1790Y1751D01*
X1783D01*
X1776Y1753D01*
X1773Y1756D01*
X1771Y1760D01*
X1873Y2495D02*
Y2446D01*
Y2495D02*
X1890D01*
X1897Y2493D01*
X1901Y2488D01*
X1904Y2484D01*
X1906Y2477D01*
Y2465D01*
X1904Y2458D01*
X1901Y2453D01*
X1897Y2448D01*
X1890Y2446D01*
X1873D01*
X1917Y2495D02*
Y2446D01*
X1960Y2488D02*
X1956Y2493D01*
X1949Y2495D01*
X1939D01*
X1932Y2493D01*
X1927Y2488D01*
Y2484D01*
X1930Y2479D01*
X1932Y2477D01*
X1937Y2474D01*
X1951Y2469D01*
X1956Y2467D01*
X1958Y2465D01*
X1960Y2460D01*
Y2453D01*
X1956Y2448D01*
X1949Y2446D01*
X1939D01*
X1932Y2448D01*
X1927Y2453D01*
X1971Y2469D02*
X1992D01*
X1999Y2472D01*
X2002Y2474D01*
X2004Y2479D01*
Y2486D01*
X2002Y2491D01*
X1999Y2493D01*
X1992Y2495D01*
X1971D01*
Y2446D01*
X2015Y2495D02*
Y2446D01*
X2043D01*
X2086D02*
X2067Y2495D01*
X2049Y2446D01*
X2056Y2462D02*
X2079D01*
X2098Y2495D02*
X2116Y2472D01*
Y2446D01*
X2135Y2495D02*
X2116Y2472D01*
X2405Y2365D02*
X2454D01*
X2405D02*
Y2381D01*
X2407Y2388D01*
X2412Y2393D01*
X2417Y2395D01*
X2424Y2397D01*
X2435D01*
X2442Y2395D01*
X2447Y2393D01*
X2452Y2388D01*
X2454Y2381D01*
Y2365D01*
X2414Y2408D02*
X2412Y2413D01*
X2405Y2420D01*
X2454D01*
X2662Y2493D02*
X2659Y2498D01*
X2655Y2502D01*
X2650Y2505D01*
X2641D01*
X2636Y2502D01*
X2631Y2498D01*
X2629Y2493D01*
X2626Y2486D01*
Y2474D01*
X2629Y2467D01*
X2631Y2463D01*
X2636Y2458D01*
X2641Y2456D01*
X2650D01*
X2655Y2458D01*
X2659Y2463D01*
X2662Y2467D01*
X2699Y2505D02*
X2675Y2472D01*
X2711D01*
X2699Y2505D02*
Y2456D01*
X2731Y2505D02*
X2724Y2502D01*
X2722Y2498D01*
Y2493D01*
X2724Y2488D01*
X2729Y2486D01*
X2738Y2484D01*
X2745Y2481D01*
X2750Y2477D01*
X2752Y2472D01*
Y2465D01*
X2750Y2460D01*
X2747Y2458D01*
X2740Y2456D01*
X2731D01*
X2724Y2458D01*
X2722Y2460D01*
X2719Y2465D01*
Y2472D01*
X2722Y2477D01*
X2726Y2481D01*
X2733Y2484D01*
X2743Y2486D01*
X2747Y2488D01*
X2750Y2493D01*
Y2498D01*
X2747Y2502D01*
X2740Y2505D01*
X2731D01*
X2501Y1965D02*
Y1915D01*
Y1965D02*
X2522D01*
X2529Y1962D01*
X2532Y1960D01*
X2534Y1955D01*
Y1950D01*
X2532Y1946D01*
X2529Y1943D01*
X2522Y1941D01*
X2501D01*
X2518D02*
X2534Y1915D01*
X2576Y1948D02*
X2573Y1941D01*
X2569Y1936D01*
X2561Y1934D01*
X2559D01*
X2552Y1936D01*
X2547Y1941D01*
X2545Y1948D01*
Y1950D01*
X2547Y1958D01*
X2552Y1962D01*
X2559Y1965D01*
X2561D01*
X2569Y1962D01*
X2573Y1958D01*
X2576Y1948D01*
Y1936D01*
X2573Y1925D01*
X2569Y1918D01*
X2561Y1915D01*
X2557D01*
X2550Y1918D01*
X2547Y1922D01*
X2026Y1789D02*
X2024Y1794D01*
X2019Y1799D01*
X2014Y1801D01*
X2005D01*
X2000Y1799D01*
X1996Y1794D01*
X1993Y1789D01*
X1991Y1782D01*
Y1770D01*
X1993Y1763D01*
X1996Y1759D01*
X2000Y1754D01*
X2005Y1752D01*
X2014D01*
X2019Y1754D01*
X2024Y1759D01*
X2026Y1763D01*
X2068Y1794D02*
X2066Y1799D01*
X2059Y1801D01*
X2054D01*
X2047Y1799D01*
X2042Y1792D01*
X2040Y1780D01*
Y1768D01*
X2042Y1759D01*
X2047Y1754D01*
X2054Y1752D01*
X2056D01*
X2063Y1754D01*
X2068Y1759D01*
X2070Y1766D01*
Y1768D01*
X2068Y1775D01*
X2063Y1780D01*
X2056Y1782D01*
X2054D01*
X2047Y1780D01*
X2042Y1775D01*
X2040Y1768D01*
X1492Y2214D02*
Y2165D01*
Y2214D02*
X1513D01*
X1520Y2212D01*
X1522Y2209D01*
X1525Y2205D01*
Y2200D01*
X1522Y2195D01*
X1520Y2193D01*
X1513Y2191D01*
X1492D01*
X1508D02*
X1525Y2165D01*
X1568Y2214D02*
X1545Y2165D01*
X1536Y2214D02*
X1568D01*
X1498Y2497D02*
X1495Y2501D01*
X1491Y2506D01*
X1486Y2508D01*
X1477D01*
X1472Y2506D01*
X1467Y2501D01*
X1465Y2497D01*
X1463Y2490D01*
Y2478D01*
X1465Y2471D01*
X1467Y2466D01*
X1472Y2461D01*
X1477Y2459D01*
X1486D01*
X1491Y2461D01*
X1495Y2466D01*
X1498Y2471D01*
X1535Y2508D02*
X1512Y2475D01*
X1547D01*
X1535Y2508D02*
Y2459D01*
X1584Y2501D02*
X1581Y2506D01*
X1574Y2508D01*
X1570D01*
X1563Y2506D01*
X1558Y2499D01*
X1555Y2487D01*
Y2475D01*
X1558Y2466D01*
X1563Y2461D01*
X1570Y2459D01*
X1572D01*
X1579Y2461D01*
X1584Y2466D01*
X1586Y2473D01*
Y2475D01*
X1584Y2482D01*
X1579Y2487D01*
X1572Y2490D01*
X1570D01*
X1563Y2487D01*
X1558Y2482D01*
X1555Y2475D01*
X1341Y1944D02*
Y1895D01*
Y1944D02*
X1358D01*
X1365Y1942D01*
X1370Y1937D01*
X1372Y1933D01*
X1374Y1926D01*
Y1914D01*
X1372Y1907D01*
X1370Y1902D01*
X1365Y1898D01*
X1358Y1895D01*
X1341D01*
X1388Y1933D02*
Y1935D01*
X1390Y1940D01*
X1392Y1942D01*
X1397Y1944D01*
X1406D01*
X1411Y1942D01*
X1413Y1940D01*
X1416Y1935D01*
Y1930D01*
X1413Y1926D01*
X1409Y1919D01*
X1385Y1895D01*
X1418D01*
X1506Y1877D02*
X1504Y1881D01*
X1499Y1886D01*
X1494Y1888D01*
X1485D01*
X1480Y1886D01*
X1475Y1881D01*
X1473Y1877D01*
X1471Y1870D01*
Y1858D01*
X1473Y1851D01*
X1475Y1846D01*
X1480Y1842D01*
X1485Y1839D01*
X1494D01*
X1499Y1842D01*
X1504Y1846D01*
X1506Y1851D01*
X1543Y1888D02*
X1520Y1856D01*
X1555D01*
X1543Y1888D02*
Y1839D01*
X1592Y1888D02*
X1568D01*
X1566Y1867D01*
X1568Y1870D01*
X1575Y1872D01*
X1582D01*
X1589Y1870D01*
X1594Y1865D01*
X1596Y1858D01*
Y1853D01*
X1594Y1846D01*
X1589Y1842D01*
X1582Y1839D01*
X1575D01*
X1568Y1842D01*
X1566Y1844D01*
X1564Y1849D01*
X2340Y1790D02*
X2338Y1795D01*
X2333Y1800D01*
X2328Y1802D01*
X2319D01*
X2314Y1800D01*
X2310Y1795D01*
X2307Y1790D01*
X2305Y1783D01*
Y1771D01*
X2307Y1764D01*
X2310Y1760D01*
X2314Y1755D01*
X2319Y1753D01*
X2328D01*
X2333Y1755D01*
X2338Y1760D01*
X2340Y1764D01*
X2377Y1802D02*
X2354Y1769D01*
X2389D01*
X2377Y1802D02*
Y1753D01*
X2431Y1802D02*
X2407Y1753D01*
X2398Y1802D02*
X2431D01*
X244Y704D02*
X211Y654D01*
Y704D02*
X244D01*
X211Y654D02*
X244D01*
X255Y704D02*
Y654D01*
Y704D02*
X271D01*
X278Y701D01*
X283Y697D01*
X285Y692D01*
X287Y685D01*
Y673D01*
X285Y666D01*
X283Y661D01*
X278Y657D01*
X271Y654D01*
X255D01*
X475Y1522D02*
X524D01*
X475D02*
Y1543D01*
X478Y1550D01*
X480Y1552D01*
X485Y1555D01*
X489D01*
X494Y1552D01*
X496Y1550D01*
X499Y1543D01*
Y1522D01*
Y1538D02*
X524Y1555D01*
X475Y1570D02*
Y1596D01*
X494Y1582D01*
Y1589D01*
X496Y1594D01*
X499Y1596D01*
X506Y1599D01*
X510D01*
X517Y1596D01*
X522Y1592D01*
X524Y1584D01*
Y1577D01*
X522Y1570D01*
X520Y1568D01*
X515Y1566D01*
X43Y1691D02*
X38Y1689D01*
X34Y1684D01*
X31Y1679D01*
Y1670D01*
X34Y1665D01*
X38Y1660D01*
X43Y1658D01*
X50Y1656D01*
X62D01*
X69Y1658D01*
X73Y1660D01*
X78Y1665D01*
X80Y1670D01*
Y1679D01*
X78Y1684D01*
X73Y1689D01*
X69Y1691D01*
X31Y1709D02*
Y1735D01*
X50Y1721D01*
Y1728D01*
X52Y1733D01*
X55Y1735D01*
X62Y1737D01*
X66D01*
X73Y1735D01*
X78Y1730D01*
X80Y1723D01*
Y1716D01*
X78Y1709D01*
X76Y1707D01*
X71Y1705D01*
X48Y1779D02*
X55Y1777D01*
X59Y1772D01*
X62Y1765D01*
Y1763D01*
X59Y1756D01*
X55Y1751D01*
X48Y1748D01*
X45D01*
X38Y1751D01*
X34Y1756D01*
X31Y1763D01*
Y1765D01*
X34Y1772D01*
X38Y1777D01*
X48Y1779D01*
X59D01*
X71Y1777D01*
X78Y1772D01*
X80Y1765D01*
Y1760D01*
X78Y1753D01*
X73Y1751D01*
X206Y1563D02*
X203Y1567D01*
X199Y1572D01*
X194Y1574D01*
X184D01*
X180Y1572D01*
X175Y1567D01*
X173Y1563D01*
X170Y1556D01*
Y1544D01*
X173Y1537D01*
X175Y1532D01*
X180Y1527D01*
X184Y1525D01*
X194D01*
X199Y1527D01*
X203Y1532D01*
X206Y1537D01*
X224Y1574D02*
X250D01*
X236Y1556D01*
X243D01*
X248Y1553D01*
X250Y1551D01*
X252Y1544D01*
Y1539D01*
X250Y1532D01*
X245Y1527D01*
X238Y1525D01*
X231D01*
X224Y1527D01*
X222Y1530D01*
X219Y1534D01*
X275Y1574D02*
X268Y1572D01*
X266Y1567D01*
Y1563D01*
X268Y1558D01*
X273Y1556D01*
X282Y1553D01*
X289Y1551D01*
X294Y1546D01*
X296Y1542D01*
Y1534D01*
X294Y1530D01*
X291Y1527D01*
X284Y1525D01*
X275D01*
X268Y1527D01*
X266Y1530D01*
X263Y1534D01*
Y1542D01*
X266Y1546D01*
X270Y1551D01*
X277Y1553D01*
X287Y1556D01*
X291Y1558D01*
X294Y1563D01*
Y1567D01*
X291Y1572D01*
X284Y1574D01*
X275D01*
X356Y1299D02*
X353Y1303D01*
X349Y1308D01*
X344Y1310D01*
X335D01*
X330Y1308D01*
X325Y1303D01*
X323Y1299D01*
X321Y1292D01*
Y1280D01*
X323Y1273D01*
X325Y1268D01*
X330Y1264D01*
X335Y1261D01*
X344D01*
X349Y1264D01*
X353Y1268D01*
X356Y1273D01*
X393Y1310D02*
X370Y1278D01*
X405D01*
X393Y1310D02*
Y1261D01*
X416Y1299D02*
Y1301D01*
X418Y1306D01*
X420Y1308D01*
X425Y1310D01*
X434D01*
X439Y1308D01*
X441Y1306D01*
X444Y1301D01*
Y1296D01*
X441Y1292D01*
X437Y1285D01*
X413Y1261D01*
X446D01*
X774Y1577D02*
X772Y1582D01*
X767Y1586D01*
X763Y1589D01*
X753D01*
X749Y1586D01*
X744Y1582D01*
X742Y1577D01*
X739Y1570D01*
Y1558D01*
X742Y1551D01*
X744Y1546D01*
X749Y1542D01*
X753Y1539D01*
X763D01*
X767Y1542D01*
X772Y1546D01*
X774Y1551D01*
X812Y1589D02*
X788Y1556D01*
X823D01*
X812Y1589D02*
Y1539D01*
X832Y1579D02*
X837Y1582D01*
X844Y1589D01*
Y1539D01*
X617Y547D02*
X614Y552D01*
X610Y557D01*
X605Y559D01*
X595D01*
X591Y557D01*
X586Y552D01*
X584Y547D01*
X581Y540D01*
Y529D01*
X584Y522D01*
X586Y517D01*
X591Y512D01*
X595Y510D01*
X605D01*
X610Y512D01*
X614Y517D01*
X617Y522D01*
X635Y559D02*
X661D01*
X647Y540D01*
X654D01*
X658Y538D01*
X661Y536D01*
X663Y529D01*
Y524D01*
X661Y517D01*
X656Y512D01*
X649Y510D01*
X642D01*
X635Y512D01*
X633Y515D01*
X630Y519D01*
X702Y552D02*
X700Y557D01*
X693Y559D01*
X688D01*
X681Y557D01*
X677Y550D01*
X674Y538D01*
Y526D01*
X677Y517D01*
X681Y512D01*
X688Y510D01*
X691D01*
X698Y512D01*
X702Y517D01*
X705Y524D01*
Y526D01*
X702Y533D01*
X698Y538D01*
X691Y540D01*
X688D01*
X681Y538D01*
X677Y533D01*
X674Y526D01*
X114Y1134D02*
X112Y1138D01*
X107Y1143D01*
X102Y1145D01*
X93D01*
X88Y1143D01*
X84Y1138D01*
X81Y1134D01*
X79Y1127D01*
Y1115D01*
X81Y1108D01*
X84Y1103D01*
X88Y1099D01*
X93Y1096D01*
X102D01*
X107Y1099D01*
X112Y1103D01*
X114Y1108D01*
X133Y1145D02*
X158D01*
X144Y1127D01*
X151D01*
X156Y1124D01*
X158Y1122D01*
X161Y1115D01*
Y1110D01*
X158Y1103D01*
X154Y1099D01*
X147Y1096D01*
X140D01*
X133Y1099D01*
X130Y1101D01*
X128Y1106D01*
X204Y1145D02*
X181Y1096D01*
X172Y1145D02*
X204D01*
X412Y185D02*
X408Y183D01*
X403Y178D01*
X401Y174D01*
Y164D01*
X403Y159D01*
X408Y155D01*
X412Y152D01*
X419Y150D01*
X431D01*
X438Y152D01*
X443Y155D01*
X448Y159D01*
X450Y164D01*
Y174D01*
X448Y178D01*
X443Y183D01*
X438Y185D01*
X401Y223D02*
X433Y199D01*
Y234D01*
X401Y223D02*
X450D01*
X401Y257D02*
X403Y250D01*
X410Y245D01*
X422Y243D01*
X429D01*
X441Y245D01*
X448Y250D01*
X450Y257D01*
Y262D01*
X448Y269D01*
X441Y273D01*
X429Y276D01*
X422D01*
X410Y273D01*
X403Y269D01*
X401Y262D01*
Y257D01*
X435Y517D02*
Y468D01*
Y517D02*
X456D01*
X463Y515D01*
X465Y512D01*
X468Y507D01*
Y503D01*
X465Y498D01*
X463Y496D01*
X456Y493D01*
X435D01*
X451D02*
X468Y468D01*
X507Y517D02*
X483D01*
X481Y496D01*
X483Y498D01*
X490Y500D01*
X497D01*
X504Y498D01*
X509Y493D01*
X511Y486D01*
Y482D01*
X509Y475D01*
X504Y470D01*
X497Y468D01*
X490D01*
X483Y470D01*
X481Y472D01*
X479Y477D01*
X980Y457D02*
X956D01*
X954Y436D01*
X956Y439D01*
X963Y441D01*
X970D01*
X977Y439D01*
X982Y434D01*
X984Y427D01*
Y422D01*
X982Y415D01*
X977Y411D01*
X970Y408D01*
X963D01*
X956Y411D01*
X954Y413D01*
X951Y418D01*
X998Y413D02*
X995Y411D01*
X998Y408D01*
X1000Y411D01*
X998Y413D01*
X1011Y448D02*
X1015Y450D01*
X1022Y457D01*
Y408D01*
X1100Y457D02*
X1095Y455D01*
X1090Y450D01*
X1088Y446D01*
X1085Y439D01*
Y427D01*
X1088Y420D01*
X1090Y415D01*
X1095Y411D01*
X1100Y408D01*
X1109D01*
X1114Y411D01*
X1118Y415D01*
X1121Y420D01*
X1123Y427D01*
Y439D01*
X1121Y446D01*
X1118Y450D01*
X1114Y455D01*
X1109Y457D01*
X1100D01*
X1134D02*
Y422D01*
X1137Y415D01*
X1141Y411D01*
X1149Y408D01*
X1153D01*
X1160Y411D01*
X1165Y415D01*
X1167Y422D01*
Y457D01*
X1197D02*
Y408D01*
X1181Y457D02*
X1214D01*
X3863Y1713D02*
X3913D01*
Y1741D01*
X3863Y1514D02*
X3913D01*
X3863D02*
Y1535D01*
X3866Y1542D01*
X3868Y1544D01*
X3873Y1547D01*
X3877D01*
X3882Y1544D01*
X3884Y1542D01*
X3887Y1535D01*
Y1514D01*
Y1530D02*
X3913Y1547D01*
X3875Y1651D02*
X3870Y1649D01*
X3866Y1644D01*
X3863Y1640D01*
Y1630D01*
X3866Y1626D01*
X3870Y1621D01*
X3875Y1618D01*
X3882Y1616D01*
X3894D01*
X3901Y1618D01*
X3906Y1621D01*
X3910Y1626D01*
X3913Y1630D01*
Y1640D01*
X3910Y1644D01*
X3906Y1649D01*
X3901Y1651D01*
X3894D01*
Y1640D02*
Y1651D01*
X2889Y2366D02*
X2938D01*
Y2394D01*
X2898Y2399D02*
X2896Y2404D01*
X2889Y2411D01*
X2938D01*
X2991Y2366D02*
X3040D01*
X2991D02*
Y2387D01*
X2993Y2394D01*
X2995Y2396D01*
X3000Y2399D01*
X3005D01*
X3009Y2396D01*
X3012Y2394D01*
X3014Y2387D01*
Y2366D01*
Y2382D02*
X3040Y2399D01*
X3000Y2410D02*
X2998Y2414D01*
X2991Y2421D01*
X3040D01*
X3092Y2366D02*
X3142D01*
Y2394D01*
X3104Y2402D02*
X3102D01*
X3097Y2404D01*
X3095Y2406D01*
X3092Y2411D01*
Y2420D01*
X3095Y2425D01*
X3097Y2427D01*
X3102Y2430D01*
X3106D01*
X3111Y2427D01*
X3118Y2423D01*
X3142Y2399D01*
Y2432D01*
X3194Y2366D02*
X3243D01*
X3194D02*
Y2387D01*
X3196Y2394D01*
X3199Y2396D01*
X3203Y2399D01*
X3208D01*
X3213Y2396D01*
X3215Y2394D01*
X3218Y2387D01*
Y2366D01*
Y2382D02*
X3243Y2399D01*
X3206Y2412D02*
X3203D01*
X3199Y2414D01*
X3196Y2417D01*
X3194Y2421D01*
Y2431D01*
X3196Y2435D01*
X3199Y2438D01*
X3203Y2440D01*
X3208D01*
X3213Y2438D01*
X3220Y2433D01*
X3243Y2410D01*
Y2442D01*
X3511Y2401D02*
X3506Y2399D01*
X3502Y2394D01*
X3499Y2389D01*
Y2380D01*
X3502Y2375D01*
X3506Y2370D01*
X3511Y2368D01*
X3518Y2366D01*
X3530D01*
X3537Y2368D01*
X3541Y2370D01*
X3546Y2375D01*
X3549Y2380D01*
Y2389D01*
X3546Y2394D01*
X3541Y2399D01*
X3537Y2401D01*
X3530D01*
Y2389D02*
Y2401D01*
X3398Y2366D02*
X3447D01*
X3398D02*
Y2387D01*
X3400Y2394D01*
X3402Y2396D01*
X3407Y2399D01*
X3412D01*
X3416Y2396D01*
X3419Y2394D01*
X3421Y2387D01*
Y2366D01*
Y2382D02*
X3447Y2399D01*
X3398Y2414D02*
Y2440D01*
X3416Y2426D01*
Y2433D01*
X3419Y2438D01*
X3421Y2440D01*
X3428Y2442D01*
X3433D01*
X3440Y2440D01*
X3444Y2435D01*
X3447Y2428D01*
Y2421D01*
X3444Y2414D01*
X3442Y2412D01*
X3437Y2410D01*
X3296Y2366D02*
X3345D01*
Y2394D01*
X3296Y2404D02*
Y2430D01*
X3315Y2416D01*
Y2423D01*
X3317Y2427D01*
X3319Y2430D01*
X3326Y2432D01*
X3331D01*
X3338Y2430D01*
X3343Y2425D01*
X3345Y2418D01*
Y2411D01*
X3343Y2404D01*
X3340Y2402D01*
X3336Y2399D01*
X2107Y2413D02*
Y2370D01*
X2086Y2391D02*
X2128D01*
X2170Y2420D02*
X2147D01*
X2145Y2398D01*
X2147Y2401D01*
X2154Y2403D01*
X2161D01*
X2168Y2401D01*
X2173Y2396D01*
X2175Y2389D01*
Y2384D01*
X2173Y2377D01*
X2168Y2373D01*
X2161Y2370D01*
X2154D01*
X2147Y2373D01*
X2145Y2375D01*
X2142Y2380D01*
X2186Y2420D02*
X2205Y2370D01*
X2224Y2420D02*
X2205Y2370D01*
X1951Y2408D02*
X1949Y2413D01*
X1944Y2417D01*
X1939Y2420D01*
X1930D01*
X1925Y2417D01*
X1920Y2413D01*
X1918Y2408D01*
X1916Y2401D01*
Y2389D01*
X1918Y2382D01*
X1920Y2377D01*
X1925Y2373D01*
X1930Y2370D01*
X1939D01*
X1944Y2373D01*
X1949Y2377D01*
X1951Y2382D01*
Y2389D01*
X1939D02*
X1951D01*
X2019Y2410D02*
X2023Y2413D01*
X2030Y2420D01*
Y2370D01*
X1820Y2408D02*
Y2410D01*
X1823Y2415D01*
X1825Y2417D01*
X1830Y2420D01*
X1839D01*
X1844Y2417D01*
X1846Y2415D01*
X1848Y2410D01*
Y2405D01*
X1846Y2401D01*
X1841Y2394D01*
X1818Y2370D01*
X1851D01*
X3923Y624D02*
X3920Y629D01*
X3916Y634D01*
X3911Y636D01*
X3902D01*
X3897Y634D01*
X3892Y629D01*
X3890Y624D01*
X3887Y617D01*
Y606D01*
X3890Y599D01*
X3892Y594D01*
X3897Y589D01*
X3902Y587D01*
X3911D01*
X3916Y589D01*
X3920Y594D01*
X3923Y599D01*
Y606D01*
X3911D02*
X3923D01*
X3934Y636D02*
Y587D01*
Y636D02*
X3967Y587D01*
Y636D02*
Y587D01*
X3980Y636D02*
Y587D01*
Y636D02*
X3997D01*
X4004Y634D01*
X4008Y629D01*
X4011Y624D01*
X4013Y617D01*
Y606D01*
X4011Y599D01*
X4008Y594D01*
X4004Y589D01*
X3997Y587D01*
X3980D01*
X3909Y715D02*
Y672D01*
X3887Y694D02*
X3930D01*
X3972Y722D02*
X3949D01*
X3947Y701D01*
X3949Y703D01*
X3956Y705D01*
X3963D01*
X3970Y703D01*
X3975Y698D01*
X3977Y691D01*
Y686D01*
X3975Y679D01*
X3970Y675D01*
X3963Y672D01*
X3956D01*
X3949Y675D01*
X3947Y677D01*
X3944Y682D01*
X3988Y722D02*
X4007Y672D01*
X4025Y722D02*
X4007Y672D01*
X1752Y367D02*
X1747Y363D01*
X1745Y356D01*
Y346D01*
X1747Y339D01*
X1752Y335D01*
X1757D01*
X1761Y337D01*
X1764Y339D01*
X1766Y344D01*
X1771Y358D01*
X1773Y363D01*
X1775Y365D01*
X1780Y367D01*
X1787D01*
X1792Y363D01*
X1794Y356D01*
Y346D01*
X1792Y339D01*
X1787Y335D01*
X1745Y378D02*
X1794D01*
X1745D02*
Y399D01*
X1747Y406D01*
X1750Y409D01*
X1754Y411D01*
X1759D01*
X1764Y409D01*
X1766Y406D01*
X1768Y399D01*
Y378D01*
Y395D02*
X1794Y411D01*
X1853Y372D02*
X1848Y367D01*
X1846Y360D01*
Y351D01*
X1848Y344D01*
X1853Y339D01*
X1858D01*
X1862Y342D01*
X1865Y344D01*
X1867Y349D01*
X1872Y363D01*
X1874Y367D01*
X1876Y370D01*
X1881Y372D01*
X1888D01*
X1893Y367D01*
X1895Y360D01*
Y351D01*
X1893Y344D01*
X1888Y339D01*
X1846Y383D02*
X1895D01*
Y411D01*
X1954Y359D02*
X1949Y354D01*
X1947Y347D01*
Y338D01*
X1949Y330D01*
X1954Y326D01*
X1958D01*
X1963Y328D01*
X1966Y330D01*
X1968Y335D01*
X1973Y349D01*
X1975Y354D01*
X1977Y356D01*
X1982Y359D01*
X1989D01*
X1994Y354D01*
X1996Y347D01*
Y338D01*
X1994Y330D01*
X1989Y326D01*
X1947Y370D02*
X1996Y381D01*
X1947Y393D02*
X1996Y381D01*
X1947Y393D02*
X1996Y405D01*
X1947Y416D02*
X1996Y405D01*
X2059Y367D02*
X2055Y365D01*
X2050Y360D01*
X2048Y355D01*
Y346D01*
X2050Y341D01*
X2055Y336D01*
X2059Y334D01*
X2066Y332D01*
X2078D01*
X2085Y334D01*
X2090Y336D01*
X2095Y341D01*
X2097Y346D01*
Y355D01*
X2095Y360D01*
X2090Y365D01*
X2085Y367D01*
X2048Y411D02*
Y381D01*
X2097D01*
Y411D01*
X2071Y381D02*
Y399D01*
X2362Y385D02*
X2357Y383D01*
X2353Y378D01*
X2350Y373D01*
Y364D01*
X2353Y359D01*
X2357Y355D01*
X2362Y352D01*
X2369Y350D01*
X2381D01*
X2388Y352D01*
X2393Y355D01*
X2397Y359D01*
X2400Y364D01*
Y373D01*
X2397Y378D01*
X2393Y383D01*
X2388Y385D01*
X2381D01*
Y373D02*
Y385D01*
X2249Y347D02*
X2299D01*
X2249D02*
Y377D01*
X2273Y347D02*
Y366D01*
X2249Y383D02*
X2299D01*
Y411D01*
X2149Y342D02*
X2198D01*
X2149D02*
Y373D01*
X2172Y342D02*
Y361D01*
X2149Y378D02*
X2198D01*
X2149D02*
Y399D01*
X2151Y406D01*
X2153Y409D01*
X2158Y411D01*
X2163D01*
X2167Y409D01*
X2170Y406D01*
X2172Y399D01*
Y378D01*
Y395D02*
X2198Y411D01*
X3088Y2061D02*
X3083Y2065D01*
X3076Y2068D01*
X3067D01*
X3060Y2065D01*
X3055Y2061D01*
Y2056D01*
X3057Y2051D01*
X3060Y2049D01*
X3064Y2047D01*
X3079Y2042D01*
X3083Y2040D01*
X3086Y2037D01*
X3088Y2032D01*
Y2025D01*
X3083Y2021D01*
X3076Y2018D01*
X3067D01*
X3060Y2021D01*
X3055Y2025D01*
X3115Y2068D02*
Y2018D01*
X3099Y2068D02*
X3132D01*
X3168D02*
X3138D01*
Y2018D01*
X3168D01*
X3138Y2044D02*
X3156D01*
X3176Y2068D02*
Y2018D01*
Y2068D02*
X3197D01*
X3204Y2065D01*
X3207Y2063D01*
X3209Y2058D01*
Y2054D01*
X3207Y2049D01*
X3204Y2047D01*
X3197Y2044D01*
X3176D01*
X3193D02*
X3209Y2018D01*
X3250Y2068D02*
X3220D01*
Y2018D01*
X3250D01*
X3220Y2044D02*
X3239D01*
X3273Y2068D02*
X3268Y2065D01*
X3263Y2061D01*
X3261Y2056D01*
X3259Y2049D01*
Y2037D01*
X3261Y2030D01*
X3263Y2025D01*
X3268Y2021D01*
X3273Y2018D01*
X3282D01*
X3287Y2021D01*
X3291Y2025D01*
X3294Y2030D01*
X3296Y2037D01*
Y2049D01*
X3294Y2056D01*
X3291Y2061D01*
X3287Y2065D01*
X3282Y2068D01*
X3273D01*
X3346D02*
Y2018D01*
X3357Y2068D02*
Y2018D01*
Y2068D02*
X3389Y2018D01*
Y2068D02*
Y2018D01*
X885Y813D02*
X880Y817D01*
X873Y820D01*
X863D01*
X856Y817D01*
X852Y813D01*
Y808D01*
X854Y803D01*
X856Y801D01*
X861Y799D01*
X875Y794D01*
X880Y792D01*
X882Y789D01*
X885Y785D01*
Y778D01*
X880Y773D01*
X873Y771D01*
X863D01*
X856Y773D01*
X852Y778D01*
X896Y820D02*
Y771D01*
X924D01*
X885Y710D02*
X880Y715D01*
X873Y717D01*
X863D01*
X856Y715D01*
X852Y710D01*
Y705D01*
X854Y701D01*
X856Y698D01*
X861Y696D01*
X875Y691D01*
X880Y689D01*
X882Y687D01*
X885Y682D01*
Y675D01*
X880Y670D01*
X873Y668D01*
X863D01*
X856Y670D01*
X852Y675D01*
X896Y717D02*
Y668D01*
Y717D02*
X917D01*
X924Y715D01*
X926Y712D01*
X928Y708D01*
Y703D01*
X926Y698D01*
X924Y696D01*
X917Y694D01*
X896D01*
X912D02*
X928Y668D01*
X887Y609D02*
X885Y613D01*
X880Y618D01*
X875Y620D01*
X866D01*
X861Y618D01*
X856Y613D01*
X854Y609D01*
X852Y602D01*
Y590D01*
X854Y583D01*
X856Y578D01*
X861Y574D01*
X866Y571D01*
X875D01*
X880Y574D01*
X885Y578D01*
X887Y583D01*
Y590D01*
X875D02*
X887D01*
X885Y918D02*
X880Y923D01*
X873Y925D01*
X863D01*
X856Y923D01*
X852Y918D01*
Y914D01*
X854Y909D01*
X856Y907D01*
X861Y904D01*
X875Y900D01*
X880Y897D01*
X882Y895D01*
X885Y890D01*
Y883D01*
X880Y879D01*
X873Y876D01*
X863D01*
X856Y879D01*
X852Y883D01*
X896Y925D02*
X907Y876D01*
X919Y925D02*
X907Y876D01*
X919Y925D02*
X931Y876D01*
X942Y925D02*
X931Y876D01*
X887Y1014D02*
X885Y1018D01*
X880Y1023D01*
X875Y1025D01*
X866D01*
X861Y1023D01*
X856Y1018D01*
X854Y1014D01*
X852Y1007D01*
Y995D01*
X854Y988D01*
X856Y983D01*
X861Y979D01*
X866Y976D01*
X875D01*
X880Y979D01*
X885Y983D01*
X887Y988D01*
X931Y1025D02*
X901D01*
Y976D01*
X931D01*
X901Y1002D02*
X919D01*
X852Y1133D02*
Y1084D01*
Y1133D02*
X882D01*
X852Y1110D02*
X871D01*
X888Y1133D02*
Y1084D01*
Y1133D02*
X909D01*
X916Y1131D01*
X918Y1128D01*
X921Y1124D01*
Y1119D01*
X918Y1114D01*
X916Y1112D01*
X909Y1110D01*
X888D01*
X904D02*
X921Y1084D01*
X852Y1234D02*
Y1185D01*
Y1234D02*
X882D01*
X852Y1211D02*
X871D01*
X888Y1234D02*
Y1185D01*
X916D01*
X1642Y893D02*
Y833D01*
Y893D02*
X1662D01*
X1670Y890D01*
X1676Y884D01*
X1679Y879D01*
X1682Y870D01*
Y856D01*
X1679Y847D01*
X1676Y841D01*
X1670Y836D01*
X1662Y833D01*
X1642D01*
X1741D02*
X1718Y893D01*
X1695Y833D01*
X1704Y853D02*
X1732D01*
X1775Y893D02*
Y833D01*
X1755Y893D02*
X1795D01*
X1685Y1083D02*
X1682Y1089D01*
X1676Y1095D01*
X1670Y1098D01*
X1659D01*
X1653Y1095D01*
X1647Y1089D01*
X1645Y1083D01*
X1642Y1075D01*
Y1060D01*
X1645Y1052D01*
X1647Y1046D01*
X1653Y1040D01*
X1659Y1038D01*
X1670D01*
X1676Y1040D01*
X1682Y1046D01*
X1685Y1052D01*
X1701Y1098D02*
Y1038D01*
X1736D01*
X1742Y1098D02*
Y1038D01*
X1782Y1098D02*
X1742Y1058D01*
X1757Y1072D02*
X1782Y1038D01*
X1685Y981D02*
X1682Y987D01*
X1676Y992D01*
X1670Y995D01*
X1659D01*
X1653Y992D01*
X1647Y987D01*
X1645Y981D01*
X1642Y972D01*
Y958D01*
X1645Y949D01*
X1647Y944D01*
X1653Y938D01*
X1659Y935D01*
X1670D01*
X1676Y938D01*
X1682Y944D01*
X1685Y949D01*
Y958D01*
X1670D02*
X1685D01*
X1698Y995D02*
Y935D01*
Y995D02*
X1738Y935D01*
Y995D02*
Y935D01*
X1755Y995D02*
Y935D01*
Y995D02*
X1775D01*
X1783Y992D01*
X1789Y987D01*
X1792Y981D01*
X1795Y972D01*
Y958D01*
X1792Y949D01*
X1789Y944D01*
X1783Y938D01*
X1775Y935D01*
X1755D01*
X831Y149D02*
X873D01*
X852Y128D02*
Y170D01*
X833Y185D02*
X831Y190D01*
X824Y197D01*
X873D01*
X836Y223D02*
X833D01*
X828Y226D01*
X826Y228D01*
X824Y233D01*
Y242D01*
X826Y247D01*
X828Y249D01*
X833Y252D01*
X838D01*
X843Y249D01*
X850Y244D01*
X873Y221D01*
Y254D01*
X824Y265D02*
X873Y284D01*
X824Y302D02*
X873Y284D01*
X1201Y212D02*
X1197Y209D01*
X1192Y205D01*
X1190Y200D01*
Y191D01*
X1192Y186D01*
X1197Y181D01*
X1201Y179D01*
X1208Y176D01*
X1220D01*
X1227Y179D01*
X1232Y181D01*
X1236Y186D01*
X1239Y191D01*
Y200D01*
X1236Y205D01*
X1232Y209D01*
X1227Y212D01*
X1220D01*
Y200D02*
Y212D01*
X1190Y223D02*
X1239D01*
X1190D02*
X1239Y256D01*
X1190D02*
X1239D01*
X1190Y269D02*
X1239D01*
X1190D02*
Y286D01*
X1192Y293D01*
X1197Y297D01*
X1201Y300D01*
X1208Y302D01*
X1220D01*
X1227Y300D01*
X1232Y297D01*
X1236Y293D01*
X1239Y286D01*
Y269D01*
M02*
