G04 Layer_Physical_Order=4*
G04 Layer_Color=16711680*
%FSLAX23Y23*%
%MOIN*%
G70*
G01*
G75*
%ADD10C,0.024*%
%ADD11C,0.020*%
%ADD12O,0.016X0.098*%
G04:AMPARAMS|DCode=13|XSize=16mil|YSize=98mil|CornerRadius=0mil|HoleSize=0mil|Usage=FLASHONLY|Rotation=0.000|XOffset=0mil|YOffset=0mil|HoleType=Round|Shape=Octagon|*
%AMOCTAGOND13*
4,1,8,-0.004,0.049,0.004,0.049,0.008,0.045,0.008,-0.045,0.004,-0.049,-0.004,-0.049,-0.008,-0.045,-0.008,0.045,-0.004,0.049,0.0*
%
%ADD13OCTAGOND13*%

%ADD14O,0.098X0.016*%
%ADD15R,0.065X0.026*%
%ADD16C,0.016*%
%ADD17C,0.004*%
%ADD18C,0.028*%
%ADD19C,0.008*%
%ADD20C,0.010*%
%ADD21R,0.190X0.065*%
%ADD22O,0.098X0.080*%
%ADD23O,0.098X0.080*%
%ADD24O,0.079X0.098*%
%ADD25O,0.071X0.098*%
%ADD26O,0.098X0.071*%
%ADD27O,0.071X0.098*%
%ADD28C,0.060*%
%ADD29O,0.080X0.098*%
%ADD30O,0.067X0.157*%
%ADD31O,0.157X0.067*%
%ADD32O,0.118X0.080*%
%ADD33C,0.098*%
%ADD34O,0.069X0.098*%
%ADD35O,0.098X0.079*%
%ADD36O,0.098X0.071*%
G36*
X2230Y2369D02*
X2228Y2367D01*
X1342Y2367D01*
X1191Y2216D01*
X981Y2216D01*
X952Y2246D01*
Y2333D01*
X919Y2366D01*
X308D01*
X285Y2343D01*
Y2261D01*
X255Y2231D01*
X119D01*
X52Y2164D01*
Y1979D01*
X104Y1926D01*
X254D01*
X301Y1880D01*
Y1725D01*
X375Y1650D01*
X659D01*
X910Y1400D01*
Y990D01*
X815Y895D01*
X810Y901D01*
Y1097D01*
X746Y1161D01*
X674D01*
X653Y1182D01*
X653Y1245D01*
X684Y1276D01*
X858D01*
X877Y1295D01*
Y1376D01*
X819Y1433D01*
X397D01*
X281Y1549D01*
Y1684D01*
X239Y1726D01*
X142D01*
X111Y1695D01*
Y1347D01*
X231Y1227D01*
Y1138D01*
X191Y1098D01*
X93D01*
X60Y1065D01*
Y777D01*
X148Y689D01*
Y544D01*
X87Y483D01*
Y361D01*
X144Y304D01*
X374D01*
X492Y186D01*
X606Y186D01*
X728Y64D01*
X1033D01*
X1054Y85D01*
X1054Y599D01*
X1117D01*
Y346D01*
X1194Y270D01*
Y112D01*
X1241Y65D01*
X1506D01*
X1610Y170D01*
Y417D01*
X1691Y336D01*
Y86D01*
X1749Y27D01*
X29D01*
X27Y25D01*
Y2481D01*
X2119Y2481D01*
X2230Y2369D01*
D02*
G37*
G36*
X2353Y2247D02*
Y2181D01*
X2283Y2111D01*
X2122D01*
X2102Y2131D01*
Y2244D01*
X2125Y2267D01*
X2333D01*
X2353Y2247D01*
D02*
G37*
G36*
X2026Y2355D02*
X1970Y2298D01*
Y2130D01*
X1947Y2108D01*
X1921D01*
X1900Y2129D01*
Y2293D01*
X1835Y2359D01*
X2022D01*
X2026Y2355D01*
D02*
G37*
G36*
X1867Y2244D02*
Y2138D01*
X1836Y2107D01*
Y2104D01*
X1689D01*
X1586Y2206D01*
X1370D01*
X1345Y2231D01*
Y2288D01*
X1367Y2310D01*
X1801D01*
X1867Y2244D01*
D02*
G37*
G36*
X2486Y2283D02*
X2629D01*
X2658Y2313D01*
X2722D01*
X2742Y2293D01*
Y2254D01*
X2585Y2097D01*
X2523D01*
X2476Y2144D01*
X2386D01*
X2390Y2148D01*
Y2310D01*
X2413Y2333D01*
X2436D01*
X2486Y2283D01*
D02*
G37*
G36*
X1350Y2162D02*
X1559D01*
X1601Y2120D01*
Y2082D01*
X1538Y2019D01*
X1447D01*
X1399Y1971D01*
X1363D01*
X1342Y1992D01*
Y2048D01*
X1254Y2136D01*
Y2193D01*
X1273Y2211D01*
X1301D01*
X1350Y2162D01*
D02*
G37*
G36*
X1057Y2085D02*
Y1967D01*
X1047D01*
X1045Y1966D01*
X961Y2050D01*
Y2080D01*
X988Y2107D01*
X1035D01*
X1057Y2085D01*
D02*
G37*
G36*
X1212Y2087D02*
Y1957D01*
X1200D01*
X1117Y2041D01*
Y2087D01*
X1137Y2107D01*
X1192D01*
X1212Y2087D01*
D02*
G37*
G36*
X600Y2084D02*
Y2032D01*
X697Y1935D01*
X704D01*
X705Y1933D01*
X698D01*
X697Y1935D01*
X516D01*
X493Y1958D01*
Y2088D01*
X514Y2109D01*
X573D01*
X574Y2110D01*
X600Y2084D01*
D02*
G37*
G36*
X449Y2083D02*
Y1920D01*
X395Y1960D01*
X342Y2013D01*
Y2095D01*
X359Y2111D01*
X421D01*
X449Y2083D01*
D02*
G37*
G36*
X2342Y1965D02*
Y1895D01*
X2160D01*
X2159Y1894D01*
X2134Y1918D01*
X2089D01*
Y1963D01*
X2115Y1989D01*
X2318D01*
X2342Y1965D01*
D02*
G37*
G36*
X2495Y2050D02*
X2550D01*
X2573Y2028D01*
Y1993D01*
X2466Y1887D01*
X2416Y1887D01*
X2386Y1917D01*
Y2060D01*
X2421Y2096D01*
X2449D01*
X2495Y2050D01*
D02*
G37*
G36*
X3457Y1987D02*
X3530Y1914D01*
Y1874D01*
X3508Y1853D01*
X3456D01*
X3419Y1890D01*
Y2048D01*
X3394Y2073D01*
Y2168D01*
X3426D01*
X3457Y2198D01*
Y1987D01*
D02*
G37*
G36*
X3058Y2252D02*
Y1891D01*
X3011Y1844D01*
X2969D01*
X2926Y1887D01*
Y1929D01*
X2990Y1993D01*
Y2246D01*
X3012Y2268D01*
X3042D01*
X3058Y2252D01*
D02*
G37*
G36*
X2017Y1962D02*
Y1925D01*
X2101Y1841D01*
X1950D01*
X1947Y1838D01*
X1934Y1851D01*
Y1965D01*
X1955Y1986D01*
X1993D01*
X2017Y1962D01*
D02*
G37*
G36*
X2958Y2157D02*
Y2027D01*
X2768Y1837D01*
X2730D01*
Y1926D01*
X2748Y1944D01*
X2811D01*
X2895Y2028D01*
Y2161D01*
X2954D01*
X2958Y2157D01*
D02*
G37*
G36*
X3158Y2041D02*
X3274Y1924D01*
Y1880D01*
X3231Y1837D01*
X3158D01*
X3094Y1900D01*
Y2163D01*
X3149D01*
X3158Y2172D01*
Y2041D01*
D02*
G37*
G36*
X1897Y1987D02*
X1897Y1825D01*
X1928Y1793D01*
X1828Y1793D01*
X1806Y1815D01*
Y1984D01*
X1731Y2059D01*
X1825D01*
X1897Y1987D01*
D02*
G37*
G36*
X902Y2089D02*
Y1972D01*
X1098Y1776D01*
X1080D01*
X804Y2052D01*
Y2089D01*
X825Y2110D01*
X881D01*
X902Y2089D01*
D02*
G37*
G36*
X1770Y1956D02*
Y1786D01*
X1805Y1751D01*
Y1749D01*
X1800Y1744D01*
X1675D01*
X1642Y1777D01*
Y1957D01*
X1668Y1983D01*
X1743D01*
X1770Y1956D01*
D02*
G37*
G36*
X749Y2084D02*
Y2000D01*
X1031Y1725D01*
X983D01*
X651Y2057D01*
Y2087D01*
X652D01*
X673Y2108D01*
X725D01*
X749Y2084D01*
D02*
G37*
G36*
X3029Y1752D02*
Y1719D01*
X3007Y1698D01*
X2844D01*
Y1713D01*
X2904Y1772D01*
X3007D01*
X3007Y1773D01*
X3029Y1752D01*
D02*
G37*
G36*
X2694Y1689D02*
X2556Y1689D01*
X2536Y1669D01*
Y1574D01*
X2535D01*
X2528Y1567D01*
X2528Y1682D01*
X2610Y1764D01*
X2694D01*
X2694Y1689D01*
D02*
G37*
G36*
X3273Y1755D02*
Y1717D01*
X3181Y1625D01*
X3000D01*
X3006Y1631D01*
X3025D01*
X3131Y1737D01*
Y1744D01*
X3160Y1774D01*
X3254D01*
X3273Y1755D01*
D02*
G37*
G36*
X3541Y1749D02*
Y1573D01*
X3534D01*
X3432Y1675D01*
Y1755D01*
X3452Y1774D01*
X3515D01*
X3541Y1749D01*
D02*
G37*
G36*
X3039Y1559D02*
X3039Y1559D01*
Y1507D01*
X2997Y1465D01*
X2891D01*
X2878Y1477D01*
X2983Y1581D01*
X3017D01*
X3039Y1559D01*
D02*
G37*
G36*
X3337Y1560D02*
Y1501D01*
X3269Y1433D01*
X3223D01*
X3212Y1445D01*
X3200D01*
X3199Y1445D01*
X3262Y1508D01*
Y1560D01*
X3283Y1581D01*
X3316D01*
X3337Y1560D01*
D02*
G37*
G36*
X1578Y1407D02*
X1442D01*
X1438Y1403D01*
X1420Y1421D01*
Y1480D01*
X1437Y1498D01*
X1480D01*
X1484Y1501D01*
X1578Y1407D01*
D02*
G37*
G36*
X3454Y1331D02*
Y1302D01*
X3417Y1266D01*
X3354D01*
Y1270D01*
X3331Y1294D01*
Y1324D01*
X3350Y1343D01*
X3465D01*
X3454Y1331D01*
D02*
G37*
G36*
X2622Y1318D02*
Y1308D01*
X2422D01*
X2264Y1150D01*
X2249D01*
X2252Y1153D01*
Y1161D01*
X2265D01*
X2422Y1319D01*
X2621D01*
X2622Y1318D01*
D02*
G37*
G36*
X1721Y1229D02*
X1634Y1142D01*
X1439D01*
X1416Y1165D01*
Y1219D01*
X1437Y1240D01*
Y1241D01*
X1721D01*
Y1229D01*
D02*
G37*
G36*
X3368Y1187D02*
X3403D01*
X3425Y1165D01*
Y1132D01*
X3402Y1109D01*
X3269D01*
X3241Y1139D01*
X3240Y1148D01*
X3205Y1180D01*
X3015Y1382D01*
X3173D01*
X3368Y1187D01*
D02*
G37*
G36*
X2180Y1219D02*
X2174Y1213D01*
X2089D01*
X2052Y1176D01*
Y1075D01*
X1947D01*
X1944Y1078D01*
Y1093D01*
X2075Y1224D01*
X2180D01*
Y1219D01*
D02*
G37*
G36*
X3792Y1546D02*
Y1520D01*
X3751Y1479D01*
Y1351D01*
X3403Y1003D01*
X3356D01*
X3330Y1029D01*
Y1061D01*
X3347Y1078D01*
Y1078D01*
X3349Y1080D01*
X3436D01*
X3594Y1238D01*
Y1385D01*
X3638Y1429D01*
Y1541D01*
X3654Y1557D01*
Y1567D01*
X3772D01*
X3792Y1546D01*
D02*
G37*
G36*
X2635Y1008D02*
X2910D01*
X2937Y980D01*
Y953D01*
X2914Y929D01*
X2630D01*
X2591Y969D01*
Y1045D01*
X2598D01*
X2635Y1008D01*
D02*
G37*
G36*
X1572Y976D02*
X1479Y883D01*
X1440D01*
X1418Y904D01*
Y966D01*
X1437Y984D01*
X1572D01*
Y976D01*
D02*
G37*
G36*
X3297Y1033D02*
Y978D01*
X3356Y919D01*
Y855D01*
X3291D01*
X3256Y890D01*
Y1074D01*
X3297Y1033D01*
D02*
G37*
G36*
X2173Y1182D02*
X2172Y1181D01*
X2134D01*
X2119Y1165D01*
Y922D01*
X2032Y835D01*
X2012D01*
Y898D01*
X2000Y909D01*
X2060D01*
X2107Y957D01*
Y1169D01*
X2130Y1193D01*
X2173D01*
Y1182D01*
D02*
G37*
G36*
X768Y1098D02*
Y829D01*
X754Y816D01*
X654D01*
X567Y903D01*
X583Y911D01*
X619Y946D01*
Y1104D01*
X635Y1120D01*
X746D01*
X768Y1098D01*
D02*
G37*
G36*
X1989Y941D02*
X1985Y937D01*
X1910D01*
X1886Y913D01*
Y799D01*
X1898Y788D01*
X1863D01*
X1875Y799D01*
Y980D01*
X1900Y1006D01*
X1989D01*
Y941D01*
D02*
G37*
G36*
X2936Y824D02*
Y792D01*
X2915Y770D01*
X2866D01*
X2747Y890D01*
X2746D01*
X2749Y892D01*
X2865D01*
X2866Y894D01*
X2936Y824D01*
D02*
G37*
G36*
X2700D02*
Y792D01*
X2679Y770D01*
X2633D01*
Y778D01*
X2573Y839D01*
Y845D01*
X2679D01*
X2700Y824D01*
D02*
G37*
G36*
X2724Y723D02*
X2720D01*
X2717Y726D01*
X2724Y723D01*
D02*
G37*
G36*
X3801Y1132D02*
X3804D01*
Y1072D01*
X3749Y1017D01*
Y760D01*
X3793Y716D01*
Y687D01*
X3773Y667D01*
X3609D01*
X3594Y683D01*
X3589D01*
X3698Y791D01*
Y1093D01*
X3756Y1152D01*
X3782D01*
X3801Y1132D01*
D02*
G37*
G36*
X3342Y725D02*
Y679D01*
X3319Y656D01*
X3285D01*
X3191Y750D01*
Y876D01*
X3342Y725D01*
D02*
G37*
G36*
X1473Y732D02*
X1477Y728D01*
X1476Y728D01*
Y635D01*
X1460Y619D01*
X1416D01*
X1395Y640D01*
Y700D01*
X1433Y738D01*
X1473D01*
Y732D01*
D02*
G37*
G36*
X2230Y613D02*
X2208Y591D01*
X2155D01*
X2133Y612D01*
Y645D01*
X2181Y693D01*
X2199D01*
X2230Y723D01*
Y613D01*
D02*
G37*
G36*
X2075Y651D02*
X2014Y591D01*
X1919D01*
X1897Y612D01*
Y645D01*
X1919Y666D01*
X2075D01*
Y651D01*
D02*
G37*
G36*
X1844Y656D02*
X1778Y591D01*
X1679D01*
X1657Y612D01*
Y645D01*
X1679Y666D01*
X1844D01*
Y656D01*
D02*
G37*
G36*
X2795Y719D02*
X2857Y657D01*
X2866Y665D01*
X2916D01*
X2937Y644D01*
Y612D01*
X2916Y590D01*
X2863D01*
X2737Y717D01*
X2724Y723D01*
X2795D01*
Y719D01*
D02*
G37*
G36*
X2701Y644D02*
Y612D01*
X2680Y590D01*
X2629D01*
X2574Y645D01*
Y665D01*
X2680D01*
X2701Y644D01*
D02*
G37*
G36*
X2465D02*
Y612D01*
X2443Y590D01*
X2398D01*
X2368Y621D01*
Y720D01*
X2377Y730D01*
X2379D01*
X2465Y644D01*
D02*
G37*
G36*
X3452Y548D02*
Y512D01*
X3414Y475D01*
X3345D01*
X3275Y545D01*
X3279Y550D01*
Y555D01*
X3459D01*
X3452Y548D01*
D02*
G37*
G36*
X2936Y485D02*
Y455D01*
X2911Y429D01*
X2747D01*
X2826Y508D01*
X2913D01*
X2936Y485D01*
D02*
G37*
G36*
X2464Y486D02*
Y454D01*
X2398Y388D01*
X2224D01*
Y407D01*
X2325Y507D01*
X2442D01*
X2464Y486D01*
D02*
G37*
G36*
X1521Y522D02*
Y400D01*
X1477Y357D01*
X1442D01*
X1414Y384D01*
Y431D01*
X1513Y530D01*
X1521Y522D01*
D02*
G37*
G36*
X2700Y486D02*
Y454D01*
X2583Y336D01*
X2582Y337D01*
X2465D01*
Y349D01*
X2623Y507D01*
X2679D01*
X2700Y486D01*
D02*
G37*
G36*
X3063Y200D02*
X3145D01*
X3320Y25D01*
X2380D01*
Y30D01*
X2300D01*
X2341Y71D01*
Y219D01*
X2366Y244D01*
X2415D01*
Y242D01*
X2652D01*
X2800Y390D01*
X2873D01*
X3063Y200D01*
D02*
G37*
G36*
X3178Y536D02*
X3178Y535D01*
Y525D01*
X3178D01*
Y450D01*
X3338Y291D01*
X3408D01*
X3429Y269D01*
Y237D01*
X3408Y216D01*
X3369D01*
X3085Y500D01*
Y542D01*
X3089Y546D01*
Y624D01*
X3091D01*
X3178Y536D01*
D02*
G37*
G36*
X1991Y486D02*
Y454D01*
X1906Y369D01*
Y212D01*
X1846D01*
X1843Y215D01*
Y438D01*
X1913Y507D01*
X1970D01*
X1991Y486D01*
D02*
G37*
G36*
X1806Y425D02*
Y221D01*
X1785Y200D01*
X1743D01*
Y367D01*
X1656Y454D01*
Y487D01*
X1678Y508D01*
X1723D01*
X1806Y425D01*
D02*
G37*
G36*
X2228Y486D02*
Y454D01*
X2203Y429D01*
X2158D01*
X2006Y277D01*
Y182D01*
X1960D01*
X1943Y199D01*
Y294D01*
X2156Y507D01*
X2206D01*
X2228Y486D01*
D02*
G37*
G36*
X1569Y196D02*
X1473Y100D01*
X1434D01*
X1416Y118D01*
Y166D01*
X1556Y306D01*
X1566D01*
X1567Y307D01*
X1569Y309D01*
Y196D01*
D02*
G37*
G36*
X3358Y133D02*
X3407D01*
X3428Y111D01*
Y79D01*
X3407Y58D01*
X3357D01*
X3168Y246D01*
Y254D01*
X3170Y256D01*
X3234D01*
X3358Y133D01*
D02*
G37*
G36*
X3931Y2323D02*
Y1048D01*
X4056Y924D01*
Y27D01*
X3441D01*
X3437Y31D01*
X3461Y54D01*
Y297D01*
X3436Y322D01*
X3368D01*
X3361Y330D01*
X3381Y349D01*
Y371D01*
X3611Y602D01*
X3781D01*
X3835Y655D01*
Y771D01*
X3788Y818D01*
Y965D01*
X3883Y1060D01*
Y1163D01*
X3832Y1214D01*
X3732Y1214D01*
X3654Y1137D01*
Y845D01*
X3511Y702D01*
X3506Y706D01*
X3406D01*
Y763D01*
X3505Y863D01*
Y1028D01*
X3801Y1324D01*
Y1327D01*
X3805Y1330D01*
Y1435D01*
X3845Y1475D01*
Y1815D01*
X3670Y1990D01*
X3595D01*
X3492Y2093D01*
Y2282D01*
X3457Y2317D01*
X2866D01*
X2819Y2270D01*
Y2007D01*
X2794Y1982D01*
X2694D01*
X2616Y1904D01*
Y1825D01*
X2536Y1745D01*
X2536Y1874D01*
X2612Y1950D01*
X2612Y2052D01*
X2776Y2216D01*
Y2306D01*
X2730Y2352D01*
X2643D01*
X2623Y2332D01*
X2518D01*
X2449Y2401D01*
X3853D01*
X3931Y2323D01*
D02*
G37*
%LPC*%
G36*
X3805Y1328D02*
X3801Y1324D01*
Y1296D01*
X3805Y1300D01*
Y1328D01*
D02*
G37*
%LPD*%
D10*
X2577Y1185D02*
G03*
X2577Y1185I-12J0D01*
G01*
D11*
X3049Y1534D02*
G03*
X3049Y1534I-49J0D01*
G01*
X3348D02*
G03*
X3348Y1534I-49J0D01*
G01*
X3207Y1532D02*
G03*
X3207Y1532I-49J0D01*
G01*
X2774Y1736D02*
G03*
X2774Y1736I-49J0D01*
G01*
X3030D02*
G03*
X3030Y1736I-49J0D01*
G01*
X2775Y1894D02*
G03*
X2775Y1894I-49J0D01*
G01*
X3031D02*
G03*
X3031Y1894I-49J0D01*
G01*
X3275D02*
G03*
X3275Y1894I-49J0D01*
G01*
X2939Y628D02*
G03*
X2939Y628I-49J0D01*
G01*
X2937Y470D02*
G03*
X2937Y470I-49J0D01*
G01*
X2701D02*
G03*
X2701Y470I-49J0D01*
G01*
X2702Y628D02*
G03*
X2702Y628I-49J0D01*
G01*
X1754D02*
G03*
X1754Y628I-49J0D01*
G01*
X1994D02*
G03*
X1994Y628I-49J0D01*
G01*
X2230D02*
G03*
X2230Y628I-49J0D01*
G01*
X2466D02*
G03*
X2466Y628I-49J0D01*
G01*
X2465Y470D02*
G03*
X2465Y470I-49J0D01*
G01*
X2229D02*
G03*
X2229Y470I-49J0D01*
G01*
X1993D02*
G03*
X1993Y470I-49J0D01*
G01*
X1753D02*
G03*
X1753Y470I-49J0D01*
G01*
X3348Y703D02*
G03*
X3348Y703I-49J0D01*
G01*
X3506Y702D02*
G03*
X3506Y702I-49J0D01*
G01*
X3427Y885D02*
G03*
X3427Y885I-49J0D01*
G01*
X3431Y517D02*
G03*
X3431Y517I-49J0D01*
G01*
X3180Y519D02*
G03*
X3180Y519I-49J0D01*
G01*
X548Y857D02*
X582Y823D01*
Y738D02*
Y823D01*
Y738D02*
X662Y659D01*
X674D01*
X494Y857D02*
X548D01*
X360Y907D02*
X390Y877D01*
Y691D02*
Y877D01*
Y691D02*
X566Y515D01*
X494Y676D02*
Y807D01*
X630Y515D02*
X712Y433D01*
X566Y515D02*
X630D01*
X761Y581D02*
X814Y633D01*
X590Y581D02*
X761D01*
X494Y676D02*
X590Y581D01*
X675Y945D02*
Y988D01*
X494Y907D02*
X598D01*
X712Y433D02*
X721D01*
X814Y633D02*
Y948D01*
X885Y540D02*
Y847D01*
X845Y500D02*
X885Y540D01*
X845Y433D02*
Y500D01*
X386Y1084D02*
X425D01*
X386Y1202D02*
X522D01*
X1230Y459D02*
X1282Y408D01*
X1135Y708D02*
X1174Y670D01*
Y375D02*
Y670D01*
Y375D02*
X1282Y266D01*
X946Y908D02*
X1055D01*
X885Y847D02*
X946Y908D01*
X27Y25D02*
Y2481D01*
Y25D02*
X870D01*
X2389Y2405D02*
X2459D01*
X2119Y2481D02*
X2230Y2369D01*
X27Y2481D02*
X2119D01*
X4056Y27D02*
Y924D01*
X815Y25D02*
X4054D01*
X3919Y1060D02*
X4056Y924D01*
X577Y1352D02*
X780D01*
X782Y1354D01*
X194Y1534D02*
Y1652D01*
Y1534D02*
X375Y1354D01*
X418D01*
X522Y1202D02*
X577Y1258D01*
Y1352D01*
X1282Y146D02*
Y266D01*
X226Y1350D02*
X274Y1302D01*
Y957D02*
Y1302D01*
X494Y957D02*
Y1015D01*
X425Y1084D02*
X494Y1015D01*
X205Y907D02*
X274D01*
X144Y968D02*
X205Y907D01*
X144Y968D02*
Y1018D01*
X174Y857D02*
X274D01*
X144Y828D02*
X174Y857D01*
X274Y907D02*
X360D01*
X700Y1208D02*
X725D01*
X1055Y708D02*
X1135D01*
X1055Y808D02*
X1181D01*
X1230Y759D01*
Y459D02*
Y759D01*
X702Y2277D02*
X856D01*
X293Y2363D02*
X2347D01*
X2389Y2405D01*
X263Y2038D02*
Y2085D01*
X267Y2166D02*
X378Y2277D01*
X547D01*
X143Y2038D02*
Y2118D01*
X191Y2166D01*
X267D01*
X263Y2085D02*
X347Y2168D01*
X593D01*
X702Y2277D01*
D12*
X2468Y1538D02*
D03*
X2563Y1089D02*
D03*
X2531D02*
D03*
X2500D02*
D03*
X2468D02*
D03*
X2437D02*
D03*
X2405D02*
D03*
X2374D02*
D03*
X2342D02*
D03*
X2311D02*
D03*
X2279D02*
D03*
Y1538D02*
D03*
X2311D02*
D03*
X2342D02*
D03*
X2374D02*
D03*
X2405D02*
D03*
X2437D02*
D03*
X2500D02*
D03*
X2531D02*
D03*
X2563D02*
D03*
X2594D02*
D03*
D13*
X2594Y1089D02*
D03*
D14*
X2213Y1156D02*
D03*
Y1187D02*
D03*
Y1219D02*
D03*
Y1250D02*
D03*
Y1282D02*
D03*
Y1313D02*
D03*
Y1345D02*
D03*
Y1376D02*
D03*
Y1408D02*
D03*
Y1439D02*
D03*
Y1471D02*
D03*
X2661D02*
D03*
Y1439D02*
D03*
Y1408D02*
D03*
Y1376D02*
D03*
Y1345D02*
D03*
Y1313D02*
D03*
Y1282D02*
D03*
Y1250D02*
D03*
Y1219D02*
D03*
Y1187D02*
D03*
Y1156D02*
D03*
D15*
X494Y807D02*
D03*
Y857D02*
D03*
Y907D02*
D03*
Y957D02*
D03*
X274D02*
D03*
Y907D02*
D03*
Y857D02*
D03*
Y807D02*
D03*
D16*
X668Y1866D02*
X903Y1631D01*
X497Y1866D02*
X668D01*
X393Y1970D02*
X497Y1866D01*
X1787Y1750D02*
X2323D01*
X2025Y1844D02*
X2338D01*
X1970Y1899D02*
Y1917D01*
X1165Y2000D02*
X1289Y1876D01*
X2500Y1538D02*
Y1737D01*
X2342Y1895D02*
X2500Y1737D01*
X2168Y1895D02*
X2342D01*
X1897Y1799D02*
X2323D01*
X2338Y1844D02*
X2468Y1714D01*
Y1538D02*
Y1714D01*
X3025Y1631D02*
X3131Y1736D01*
X2929Y1631D02*
X3025D01*
X2836Y1538D02*
X2929Y1631D01*
X2583Y1649D02*
X2789D01*
X2563Y1629D02*
X2583Y1649D01*
X2563Y1538D02*
Y1629D01*
X2594Y1538D02*
X2836D01*
X1643Y1711D02*
X2309D01*
X1478Y1876D02*
X1643Y1711D01*
X1289Y1876D02*
X1478D01*
X1626Y1671D02*
X2161D01*
X1468Y1829D02*
X1626Y1671D01*
X1617Y1624D02*
X2291D01*
X1459Y1782D02*
X1617Y1624D01*
X1642Y1538D02*
X2279D01*
X1449Y1731D02*
X1642Y1538D01*
X1643Y1471D02*
X2213D01*
X1433Y1681D02*
X1643Y1471D01*
X1613Y1439D02*
X2213D01*
X1422Y1631D02*
X1613Y1439D01*
X3739Y1222D02*
X3772D01*
X3654Y1137D02*
X3739Y1222D01*
X3654Y845D02*
Y1137D01*
X3406Y763D02*
X3505Y863D01*
X3406Y706D02*
Y763D01*
Y706D02*
X3412Y700D01*
X3505Y863D02*
Y1028D01*
X3825Y1348D01*
X3511Y702D02*
X3654Y845D01*
X3458Y702D02*
X3511D01*
X3781Y602D02*
X3835Y655D01*
X3611Y602D02*
X3781D01*
X3402Y393D02*
X3611Y602D01*
X3707Y703D02*
X3721Y689D01*
X3788Y818D02*
Y965D01*
Y818D02*
X3835Y771D01*
X1930Y1345D02*
X2213D01*
X1495Y910D02*
X1930Y1345D01*
X1474Y910D02*
X1495D01*
X1962Y1313D02*
X2213D01*
X1722Y1073D02*
X1962Y1313D01*
X1722Y989D02*
Y1073D01*
X2323Y1799D02*
X2437Y1685D01*
X1425Y693D02*
X1722Y989D01*
X1773Y1060D02*
X1995Y1282D01*
X1773Y969D02*
Y1060D01*
X1517Y712D02*
X1773Y969D01*
X1829Y1044D02*
X2035Y1250D01*
X1829Y949D02*
Y1044D01*
X1563Y683D02*
X1829Y949D01*
X1676Y1192D02*
X1860Y1376D01*
X1995Y1282D02*
X2213D01*
X1425Y660D02*
Y693D01*
X1563Y252D02*
Y683D01*
X1517Y468D02*
Y712D01*
X3035Y432D02*
X3040Y427D01*
X3035Y432D02*
Y455D01*
X3040Y427D02*
X3135Y333D01*
X3038Y442D02*
X3132Y347D01*
X3037Y479D02*
X3132Y385D01*
X3037Y468D02*
X3131Y373D01*
X3035Y455D02*
X3130Y361D01*
X3146Y700D02*
X3311Y534D01*
X3361Y393D02*
X3402D01*
X3535Y1485D02*
Y1617D01*
X3457Y1408D02*
X3535Y1485D01*
X3835Y1660D02*
X3847Y1672D01*
X3835Y1605D02*
X3847Y1593D01*
X1732Y782D02*
X1913D01*
X2789Y1649D02*
X2875Y1736D01*
X3648Y1731D02*
X3715D01*
X3835Y655D02*
Y771D01*
X2791Y1408D02*
X3457D01*
X1610Y659D02*
X1732Y782D01*
X2661Y1471D02*
X2937D01*
X3216Y1894D02*
X3226D01*
X2661Y1408D02*
X2791D01*
X2661Y1376D02*
X2764D01*
X2661Y1345D02*
X2744D01*
X3707Y604D02*
X3713Y599D01*
X3712Y1537D02*
X3715Y1534D01*
X3379Y1042D02*
X3402D01*
X2972Y1282D02*
X3197Y1057D01*
X2661Y1282D02*
X2972D01*
X3146Y683D02*
Y1038D01*
X2933Y1250D02*
X3146Y1038D01*
X2661Y1250D02*
X2933D01*
X3090Y548D02*
Y1026D01*
X2898Y1219D02*
X3090Y1026D01*
X2661Y1219D02*
X2898D01*
X3035Y455D02*
Y1018D01*
X2866Y1187D02*
X3035Y1018D01*
X2661Y1187D02*
X2866D01*
X2831Y1156D02*
X2980Y1006D01*
X2661Y1156D02*
X2831D01*
X3146Y683D02*
X3311Y517D01*
X2035Y782D02*
X2213Y959D01*
X1913Y782D02*
X2035D01*
X2291Y1624D02*
X2311Y1604D01*
Y1538D02*
Y1604D01*
X2603Y808D02*
X2652D01*
X2468Y943D02*
X2603Y808D01*
X2468Y943D02*
Y1089D01*
X2598Y628D02*
X2653D01*
X2405Y821D02*
X2598Y628D01*
X2405Y821D02*
Y1089D01*
X2602Y723D02*
X2795D01*
X2437Y888D02*
X2602Y723D01*
X2437Y888D02*
Y1089D01*
X1807Y628D02*
X1898Y719D01*
X2795Y723D02*
X2890Y628D01*
X2374Y671D02*
Y1089D01*
X2610Y888D02*
X2809D01*
X2531Y967D02*
X2610Y888D01*
X2531Y967D02*
Y1089D01*
X2043Y628D02*
X2311Y896D01*
Y1089D01*
X2035Y1250D02*
X2213D01*
Y959D02*
Y1156D01*
X1898Y719D02*
X2059D01*
X2279Y939D01*
Y1089D01*
X1860Y1376D02*
X2213D01*
X2764D02*
X3012D01*
X3240Y1148D01*
X2744Y1345D02*
X2976D01*
X3197Y806D02*
Y1057D01*
X2976Y1345D02*
X3256Y1065D01*
X1610Y149D02*
Y659D01*
X1502Y1408D02*
X2213D01*
X2980Y368D02*
Y1006D01*
Y368D02*
X3098Y250D01*
X3226D01*
X2181Y680D02*
X2342Y841D01*
Y1089D01*
X2661Y1439D02*
X3261D01*
X3256Y890D02*
Y1065D01*
Y890D02*
X3291Y855D01*
X3356D01*
X3197Y800D02*
Y848D01*
X2374Y1538D02*
Y1646D01*
X2161Y1671D02*
X2294D01*
X2342Y1623D01*
Y1538D02*
Y1623D01*
X2323Y1750D02*
X2405Y1667D01*
Y1538D02*
Y1667D01*
X2437Y1538D02*
Y1685D01*
X2309Y1711D02*
X2374Y1646D01*
X3788Y965D02*
X3875Y1052D01*
Y1171D01*
X3832Y1214D02*
X3875Y1171D01*
X891Y1986D02*
X1095Y1782D01*
X1459D01*
X702Y2046D02*
Y2087D01*
Y2046D02*
X1017Y1731D01*
X1449D01*
X1011Y2008D02*
Y2087D01*
Y2008D02*
X1190Y1829D01*
X1468D01*
X903Y1631D02*
X1422D01*
X547Y2087D02*
X953Y1681D01*
X1433D01*
D17*
X567Y903D02*
X654Y816D01*
X754D01*
X768Y829D01*
Y1098D01*
X746Y1120D02*
X768Y1098D01*
X635Y1120D02*
X746D01*
X619Y1104D02*
X635Y1120D01*
X619Y946D02*
Y1104D01*
X583Y911D02*
X619Y946D01*
X578Y911D02*
X583D01*
X3698Y1093D02*
X3756Y1152D01*
X3698Y791D02*
Y1093D01*
X3589Y683D02*
X3698Y791D01*
X3756Y1152D02*
X3782D01*
X3601Y667D02*
X3773D01*
X3793Y687D01*
Y716D01*
X3749Y760D02*
X3793Y716D01*
X3749Y760D02*
Y1017D01*
X3804Y1072D01*
Y1136D01*
X2017Y1925D02*
X2101Y1841D01*
X2017Y1925D02*
Y1962D01*
X1947Y1838D02*
X2056D01*
X1934Y1851D02*
X1947Y1838D01*
X1934Y1851D02*
Y1965D01*
X1955Y1986D01*
X1958D01*
X1993D02*
X2017Y1962D01*
X1958Y1986D02*
X1993D01*
X2473Y2387D02*
X2474Y2388D01*
X2375Y2387D02*
X2473D01*
X2353Y2181D02*
Y2247D01*
X2333Y2267D02*
X2353Y2247D01*
X2125Y2267D02*
X2333D01*
X2102Y2244D02*
X2125Y2267D01*
X2102Y2131D02*
Y2244D01*
Y2131D02*
X2122Y2111D01*
X2283D01*
X2353Y2181D01*
X1675Y1744D02*
X1800D01*
X1642Y1777D02*
X1675Y1744D01*
X1642Y1777D02*
Y1957D01*
X1770Y1786D02*
X1805Y1751D01*
X1770Y1786D02*
Y1956D01*
X1743Y1983D02*
X1770Y1956D01*
X1699Y1983D02*
X1743D01*
X1668D02*
X1699D01*
X1642Y1957D02*
X1668Y1983D01*
X1731Y2059D02*
X1825D01*
X1897Y1987D01*
Y1824D02*
X1921Y1800D01*
X1897Y1824D02*
Y1987D01*
X1828Y1793D02*
X1942D01*
X1806Y1815D02*
X1828Y1793D01*
X1806Y1815D02*
Y1983D01*
X3116Y1730D02*
X3160Y1774D01*
X3000Y1625D02*
X3181D01*
X3273Y1717D01*
Y1755D01*
X3254Y1774D02*
X3273Y1755D01*
X3160Y1774D02*
X3254D01*
X3432Y1675D02*
X3531Y1577D01*
X3432Y1675D02*
Y1755D01*
X3452Y1774D01*
X3541Y1603D02*
Y1749D01*
X3515Y1774D02*
X3541Y1749D01*
X3452Y1774D02*
X3515D01*
X3530Y1874D02*
Y1914D01*
X3508Y1853D02*
X3530Y1874D01*
X3456Y1853D02*
X3508D01*
X3419Y1890D02*
X3456Y1853D01*
X3419Y1890D02*
Y2048D01*
X3394Y2073D02*
X3419Y2048D01*
X3394Y2073D02*
Y2194D01*
X3457Y1987D02*
Y2198D01*
X2730Y1837D02*
X2768D01*
X2895Y2028D02*
Y2161D01*
X2811Y1944D02*
X2895Y2028D01*
X2748Y1944D02*
X2811D01*
X2958Y2027D02*
Y2157D01*
X2768Y1837D02*
X2958Y2027D01*
X3158Y1837D02*
X3231D01*
X3158Y2041D02*
X3258Y1940D01*
X3158Y2041D02*
Y2172D01*
X3094Y1900D02*
Y2163D01*
Y1900D02*
X3158Y1837D01*
X2926Y1889D02*
Y1929D01*
X3011Y1844D02*
X3058Y1891D01*
Y2252D01*
X3042Y2268D02*
X3058Y2252D01*
X3012Y2268D02*
X3042D01*
X2990Y2246D02*
X3012Y2268D01*
X2990Y1993D02*
Y2246D01*
X2926Y1929D02*
X2990Y1993D01*
X3457Y1987D02*
X3530Y1914D01*
X2610Y1764D02*
X2682D01*
X2528Y1682D02*
X2610Y1764D01*
X2528Y1567D02*
Y1682D01*
X3415Y1570D02*
X3421Y1564D01*
X3120Y1506D02*
Y1526D01*
X3437Y31D02*
X3461Y54D01*
Y297D01*
X3436Y322D02*
X3461Y297D01*
X3362Y322D02*
X3436D01*
X3361Y323D02*
X3362Y322D01*
X3361Y323D02*
Y330D01*
Y393D01*
X2264Y1150D02*
X2422Y1307D01*
X2249Y1150D02*
X2264D01*
X2422Y1307D02*
X2622D01*
X2621Y1308D02*
Y1319D01*
Y1308D02*
X2622Y1307D01*
X2422Y1319D02*
X2621D01*
X2265Y1161D02*
X2422Y1319D01*
X2252Y1161D02*
X2265D01*
X2536Y1574D02*
Y1669D01*
X2556Y1689D01*
X2592Y1698D02*
X2710D01*
X2714Y1702D01*
Y1773D01*
X2591Y969D02*
Y1045D01*
Y969D02*
X2630Y929D01*
X2914D01*
X2937Y953D01*
Y980D01*
X2910Y1008D02*
X2937Y980D01*
X2635Y1008D02*
X2910D01*
X2594Y1048D02*
X2635Y1008D01*
X2594Y1048D02*
Y1089D01*
X2497Y1579D02*
Y1583D01*
X1863Y788D02*
X1906D01*
X1863D02*
X1875Y799D01*
X1886Y799D02*
X1898Y788D01*
X1886Y799D02*
Y913D01*
X1910Y937D01*
X1985D01*
X1875Y799D02*
Y980D01*
X1900Y1006D01*
X1989D01*
X2052Y1075D02*
Y1176D01*
X2089Y1213D01*
X2174D01*
X2075Y1224D02*
X2180D01*
X1944Y1093D02*
X2075Y1224D01*
X1944Y1062D02*
Y1093D01*
X2173Y1182D02*
Y1193D01*
X2172Y1181D02*
X2173Y1182D01*
X2134Y1181D02*
X2172D01*
X2119Y1165D02*
X2134Y1181D01*
X2119Y922D02*
Y1165D01*
X2130Y1193D02*
X2173D01*
X2107Y1169D02*
X2130Y1193D01*
X2107Y957D02*
Y1169D01*
X2060Y909D02*
X2107Y957D01*
X2000Y909D02*
X2060D01*
X2463Y1580D02*
X2468Y1574D01*
X2474D01*
X2431Y1574D02*
X2438Y1581D01*
X2443D01*
X2679Y1878D02*
X2700Y1857D01*
X2679Y1878D02*
Y1910D01*
X2905Y1773D02*
X3007D01*
X2844Y1698D02*
X3007D01*
X3007Y1773D02*
X3029Y1752D01*
Y1719D02*
Y1752D01*
X3007Y1698D02*
X3029Y1719D01*
X2935Y1878D02*
X2956Y1857D01*
X2935Y1878D02*
Y1910D01*
X2956Y1857D02*
X3008D01*
X3216Y1922D02*
X3238Y1901D01*
X3274Y1877D02*
Y1910D01*
X3253Y1856D02*
X3274Y1877D01*
X2872Y1740D02*
X2905Y1773D01*
X2866Y770D02*
X2915D01*
X2866Y894D02*
X2936Y824D01*
Y792D02*
Y824D01*
X2915Y770D02*
X2936Y792D01*
X2755Y882D02*
X2866Y770D01*
X2794Y894D02*
X2866D01*
X2573Y845D02*
X2679D01*
X2633Y770D02*
X2679D01*
X2679Y845D02*
X2700Y824D01*
Y792D02*
Y824D01*
X2679Y770D02*
X2700Y792D01*
X2593Y811D02*
X2633Y770D01*
X2680Y590D02*
X2701Y612D01*
Y644D01*
X2680Y665D02*
X2701Y644D01*
X2635Y590D02*
X2680D01*
X2567Y665D02*
X2680D01*
X2628Y590D02*
X2635D01*
X2587Y631D02*
X2628Y590D01*
X2916D02*
X2937Y612D01*
Y644D01*
X2916Y665D02*
X2937Y644D01*
X2859Y665D02*
X2916D01*
X2719Y717D02*
X2737D01*
X2863Y590D01*
X2916D01*
X2368Y621D02*
X2398Y590D01*
X2443D02*
X2465Y612D01*
Y644D01*
X2379Y730D02*
X2465Y644D01*
X2398Y590D02*
X2443D01*
X2368Y621D02*
Y685D01*
X2133Y645D02*
X2339Y850D01*
X2133Y612D02*
Y645D01*
Y612D02*
X2155Y591D01*
X2208D01*
X2230Y613D01*
Y723D01*
X1897Y645D02*
X1919Y666D01*
X1897Y612D02*
Y645D01*
Y612D02*
X1919Y591D01*
X1919Y666D02*
X2075D01*
X1919Y591D02*
X2014D01*
X2060Y636D01*
X1657Y645D02*
X1679Y666D01*
X1657Y612D02*
Y645D01*
Y612D02*
X1679Y591D01*
X1679Y666D02*
X1844D01*
X1679Y591D02*
X1778D01*
X1822Y634D01*
X1656Y487D02*
X1678Y508D01*
X1656Y454D02*
Y487D01*
Y454D02*
X1743Y367D01*
X1678Y508D02*
X1723D01*
X1906Y369D02*
X1991Y454D01*
Y486D01*
X1970Y507D02*
X1991Y486D01*
X1913Y507D02*
X1970D01*
X1843Y438D02*
X1913Y507D01*
X2228Y454D02*
Y486D01*
X2206Y507D02*
X2228Y486D01*
X2203Y429D02*
X2228Y454D01*
X2398Y388D02*
X2464Y454D01*
Y486D01*
X2442Y507D02*
X2464Y486D01*
X2325Y507D02*
X2442D01*
X2224Y388D02*
X2398D01*
X2224Y407D02*
X2325Y507D01*
X2583Y336D02*
X2700Y454D01*
Y486D01*
X2679Y507D02*
X2700Y486D01*
X2623Y507D02*
X2679D01*
X2468Y352D02*
X2623Y507D01*
X2529Y336D02*
X2583D01*
X2774Y458D02*
X2776D01*
X2826Y508D01*
X2913D01*
X2936Y485D01*
Y455D02*
Y485D01*
X2911Y429D02*
X2936Y455D01*
X2765Y429D02*
X2911D01*
X2756Y420D02*
X2765Y429D01*
X3407Y58D02*
X3428Y79D01*
Y111D01*
X3407Y133D02*
X3428Y111D01*
X3358Y133D02*
X3407D01*
X3168Y246D02*
X3357Y58D01*
X3407D01*
X3211Y256D02*
X3234D01*
X3358Y133D01*
X3408Y216D02*
X3429Y237D01*
Y269D01*
X3408Y291D02*
X3429Y269D01*
X3178Y450D02*
Y525D01*
Y450D02*
X3338Y291D01*
X3408D01*
X3085Y502D02*
Y568D01*
Y502D02*
X3371Y216D01*
X3408D01*
X3178Y525D02*
Y536D01*
X3091Y624D02*
X3178Y536D01*
X3089Y624D02*
X3091D01*
X2997Y1465D02*
X3039Y1507D01*
X2926Y1465D02*
X2997D01*
X2878Y1474D02*
Y1477D01*
X2983Y1581D01*
X3017D01*
X3039Y1559D01*
Y1507D02*
Y1559D01*
X3283Y1581D02*
X3316D01*
X3250Y1433D02*
X3269D01*
X3120Y1506D02*
X3142Y1485D01*
X3174D01*
X3199Y1510D01*
Y1560D01*
X3494Y1506D02*
Y1559D01*
X3350Y1343D02*
X3465D01*
X3331Y1324D02*
X3350Y1343D01*
X3331Y1290D02*
Y1324D01*
Y1290D02*
X3354Y1266D01*
X3417D01*
X3454Y1302D01*
X3403Y1187D02*
X3425Y1165D01*
Y1132D02*
Y1165D01*
X3402Y1109D02*
X3425Y1132D01*
X3270Y1109D02*
X3402D01*
X3228Y1152D02*
X3270Y1109D01*
X3349Y1080D02*
X3436D01*
X3594Y1238D01*
X3330Y1061D02*
X3349Y1080D01*
X3330Y1029D02*
Y1061D01*
Y1029D02*
X3356Y1003D01*
X3403D01*
X3751Y1351D01*
Y1479D01*
X3594Y1238D02*
Y1385D01*
X3638Y1429D01*
Y1541D01*
X3751Y1479D02*
X3792Y1520D01*
Y1546D01*
X3772Y1567D02*
X3792Y1546D01*
X3654Y1567D02*
X3772D01*
X3638Y1550D02*
X3654Y1567D01*
X3638Y1541D02*
Y1550D01*
X3004Y1382D02*
X3173D01*
X3368Y1187D01*
X3403D01*
X3356Y919D02*
X3393D01*
X3297Y978D02*
X3356Y919D01*
X3297Y978D02*
Y1033D01*
X3252Y1078D02*
X3297Y1033D01*
X3191Y750D02*
Y857D01*
Y750D02*
X3285Y656D01*
X3319D01*
X3297Y748D02*
X3310D01*
X3319Y656D02*
X3342Y679D01*
Y725D01*
X3199Y868D02*
X3342Y725D01*
X3279Y555D02*
X3476D01*
X3477Y556D01*
X3275Y545D02*
X3345Y475D01*
X3414D01*
X3452Y512D01*
X1743Y200D02*
Y367D01*
X1723Y508D02*
X1806Y425D01*
Y203D02*
Y425D01*
X1843Y201D02*
Y438D01*
X1906Y192D02*
Y369D01*
X1943Y199D02*
Y294D01*
X2156Y507D01*
X2206D01*
X2006Y182D02*
Y277D01*
X2158Y429D01*
X2203D01*
X3193Y1439D02*
X3260Y1506D01*
Y1558D01*
X3283Y1581D01*
X3269Y1433D02*
X3339Y1503D01*
Y1558D01*
X3316Y1581D02*
X3339Y1558D01*
X2032Y835D02*
X2119Y922D01*
X2012Y835D02*
X2032D01*
X2927Y2230D02*
X2934Y2223D01*
X909Y2373D02*
X952Y2331D01*
Y2246D02*
Y2331D01*
Y2246D02*
X981Y2216D01*
X1190D01*
X1341Y2367D01*
X359Y2111D02*
X421D01*
X449Y2083D01*
Y1920D02*
Y2083D01*
X359Y2111D02*
X359D01*
X342Y2095D02*
X359Y2111D01*
X342Y2013D02*
Y2095D01*
Y2013D02*
X395Y1960D01*
X514Y2110D02*
X574D01*
X600Y2084D01*
Y2032D02*
Y2084D01*
X514Y2109D02*
Y2110D01*
X493Y2088D02*
X514Y2109D01*
X493Y1958D02*
Y2088D01*
Y1958D02*
X516Y1935D01*
X704D01*
X705Y1933D01*
X673Y2108D02*
X725D01*
X749Y2084D01*
Y2000D02*
Y2084D01*
X672Y2108D02*
X673D01*
X651Y2087D02*
X672Y2108D01*
X651Y2057D02*
Y2087D01*
Y2057D02*
X983Y1725D01*
X1031D01*
X825Y2110D02*
X881D01*
X902Y2089D01*
Y1972D02*
Y2089D01*
X804Y2089D02*
X825Y2110D01*
X804Y2052D02*
Y2089D01*
Y2052D02*
X1080Y1776D01*
X1106D01*
X1057Y1967D02*
Y2085D01*
X1035Y2107D02*
X1057Y2085D01*
X988Y2107D02*
X1035D01*
X961Y2080D02*
X988Y2107D01*
X961Y2050D02*
Y2080D01*
Y2050D02*
X1030Y1981D01*
X1139Y2107D02*
X1192D01*
X1212Y2087D01*
Y1957D02*
Y2087D01*
X1137Y2107D02*
X1139D01*
X1117Y2087D02*
X1137Y2107D01*
X1117Y2041D02*
Y2087D01*
Y2041D02*
X1175Y1982D01*
D18*
X820Y178D02*
X993D01*
X588Y409D02*
X820Y178D01*
X578Y409D02*
X588D01*
X400Y590D02*
X401Y592D01*
X400Y423D02*
Y590D01*
X3319Y1697D02*
Y1973D01*
X3226Y2067D02*
X3319Y1973D01*
X3226Y2067D02*
Y2189D01*
X3371Y1619D02*
Y2016D01*
X3326Y2062D02*
X3371Y2016D01*
X3326Y2062D02*
Y2189D01*
X2291Y2052D02*
X2431Y2191D01*
X2066Y2052D02*
X2291D01*
X3904Y2484D02*
X4018Y2371D01*
X2379Y2484D02*
X3904D01*
X2323Y2429D02*
X2379Y2484D01*
X2391Y2401D02*
X3853D01*
X1551Y1943D02*
X1655Y2047D01*
X1755D01*
X1868Y1934D01*
X2034Y2084D02*
X2066Y2052D01*
X2034Y2084D02*
Y2188D01*
X4018Y1107D02*
Y2371D01*
X3189Y1567D02*
X3319Y1697D01*
X3179Y1567D02*
X3189D01*
X3371Y1619D02*
X3450Y1540D01*
X1381Y769D02*
Y1531D01*
X1336Y1576D02*
X1381Y1531D01*
X1282Y670D02*
X1381Y769D01*
X3590Y1456D02*
Y1673D01*
X3440Y1306D02*
X3590Y1456D01*
X3379Y1306D02*
X3440D01*
X1944Y454D02*
Y470D01*
X3590Y1673D02*
X3648Y1731D01*
X2278Y139D02*
Y223D01*
X2178Y139D02*
Y237D01*
X2078Y139D02*
Y243D01*
X3440Y517D02*
X3620Y697D01*
X2378Y35D02*
Y139D01*
X2078Y243D02*
X2234Y400D01*
X2178Y237D02*
X2288Y347D01*
X2529D01*
X2278Y223D02*
X2344Y290D01*
X2622D01*
X2803Y470D01*
X3919Y1060D02*
Y2335D01*
X3853Y2401D02*
X3919Y2335D01*
X418Y1752D02*
X661D01*
X836Y1576D01*
X1336D01*
X1123Y1454D02*
X1299D01*
X1055Y1386D02*
X1123Y1454D01*
X1055Y1208D02*
Y1386D01*
Y1108D02*
X1147D01*
X1232Y1193D01*
X1299D01*
X1055Y1008D02*
X1222D01*
X1299Y931D01*
X175Y423D02*
X400D01*
X562Y260D01*
X590D01*
X274Y694D02*
Y798D01*
Y694D02*
X375Y593D01*
D19*
X372Y306D02*
X492Y186D01*
X142Y306D02*
X372D01*
X87Y361D02*
X142Y306D01*
X858Y1276D02*
X877Y1295D01*
X684Y1276D02*
X858D01*
X653Y1245D02*
X684Y1276D01*
X653Y1182D02*
Y1245D01*
X728Y64D02*
X1045D01*
X606Y186D02*
X728Y64D01*
X492Y186D02*
X606D01*
X1822Y2359D02*
X1835D01*
X2742Y2254D02*
Y2293D01*
X2585Y2097D02*
X2742Y2254D01*
X2523Y2097D02*
X2585D01*
X2643Y2352D02*
X2730D01*
X2623Y2332D02*
X2643Y2352D01*
X2518Y2332D02*
X2623D01*
X2776Y2216D02*
Y2306D01*
X2730Y2352D02*
X2776Y2306D01*
X2413Y2333D02*
X2436D01*
X2390Y2310D02*
X2413Y2333D01*
X2390Y2157D02*
Y2310D01*
X2436Y2333D02*
X2466Y2303D01*
X2486Y2283D02*
X2629D01*
X2466Y2303D02*
X2486Y2283D01*
X2629D02*
X2658Y2313D01*
X2722D01*
X2742Y2293D01*
X2476Y2144D02*
X2523Y2097D01*
X2386Y2144D02*
X2476D01*
X2449Y2402D02*
X2518Y2332D01*
X2612Y2052D02*
X2776Y2216D01*
X2536Y1745D02*
X2616Y1825D01*
Y1904D01*
X2694Y1982D01*
X2819Y2007D02*
Y2270D01*
X2794Y1982D02*
X2819Y2007D01*
X2694Y1982D02*
X2794D01*
X2421Y2096D02*
X2449D01*
X2386Y2060D02*
X2421Y2096D01*
X2386Y1915D02*
Y2060D01*
X2449Y2096D02*
X2495Y2050D01*
X2550D01*
X2573Y2028D01*
X2386Y1915D02*
X2414Y1887D01*
X3492Y2093D02*
Y2282D01*
X3457Y2317D02*
X3492Y2282D01*
X2866Y2317D02*
X3457D01*
X3492Y2093D02*
X3595Y1990D01*
X1447Y2019D02*
X1538D01*
X1399Y1971D02*
X1447Y2019D01*
X1363Y1971D02*
X1399D01*
X1538Y2019D02*
X1601Y2082D01*
Y2120D01*
X1559Y2162D02*
X1601Y2120D01*
X1350Y2162D02*
X1559D01*
X1324Y2189D02*
X1350Y2162D01*
X1301Y2211D02*
X1324Y2189D01*
X1273Y2211D02*
X1301D01*
X1254Y2193D02*
X1273Y2211D01*
X1345Y2288D02*
X1367Y2310D01*
X1345Y2231D02*
Y2288D01*
Y2231D02*
X1370Y2206D01*
X1367Y2310D02*
X1801D01*
X1370Y2206D02*
X1586D01*
X1689Y2104D01*
X1836D01*
X1867Y2134D01*
Y2244D01*
X1801Y2310D02*
X1867Y2244D01*
X1342Y1992D02*
X1363Y1971D01*
X1342Y1992D02*
Y2048D01*
X1254Y2136D02*
X1342Y2048D01*
X2342Y1895D02*
Y1965D01*
X2318Y1989D02*
X2342Y1965D01*
X2115Y1989D02*
X2318D01*
X2089Y1963D02*
X2115Y1989D01*
X2113Y1894D02*
X2204D01*
X2089Y1918D02*
X2113Y1894D01*
X2089Y1918D02*
Y1963D01*
X1970Y2298D02*
X2026Y2355D01*
X1835Y2359D02*
X1900Y2293D01*
X1352Y728D02*
X1390Y766D01*
X1438Y1403D02*
X1510D01*
X1420Y1421D02*
X1438Y1403D01*
X1420Y1421D02*
Y1480D01*
X1441Y1501D01*
Y1501D01*
X1578Y1407D02*
X1580D01*
X1484Y1501D02*
X1578Y1407D01*
X1441Y1501D02*
X1484D01*
X1416Y1219D02*
X1437Y1240D01*
X1416Y1165D02*
Y1219D01*
X1437Y1241D02*
X1721D01*
X1632Y1142D02*
X1681Y1191D01*
X1439Y1142D02*
X1632D01*
X1416Y1165D02*
X1439Y1142D01*
X1933Y1337D02*
Y1342D01*
X1479Y883D02*
X1933Y1337D01*
X1440Y883D02*
X1479D01*
X1437Y984D02*
X1572D01*
X1418Y966D02*
X1437Y984D01*
X1418Y904D02*
X1440Y883D01*
X1418Y904D02*
Y966D01*
X1395Y700D02*
X1433Y738D01*
X1395Y640D02*
Y700D01*
Y640D02*
X1416Y619D01*
X1460D01*
X1414Y431D02*
X1513Y530D01*
X1521Y400D02*
Y485D01*
X1477Y357D02*
X1521Y400D01*
X1442Y357D02*
X1477D01*
X1414Y384D02*
X1442Y357D01*
X1414Y384D02*
Y431D01*
X1567Y194D02*
Y257D01*
X1473Y100D02*
X1567Y194D01*
X1434Y100D02*
X1473D01*
X1416Y118D02*
X1434Y100D01*
X1416Y166D02*
X1556Y306D01*
X1416Y118D02*
Y166D01*
X1610Y417D02*
X1691Y336D01*
X1610Y170D02*
Y417D01*
X1506Y65D02*
X1610Y170D01*
X1691Y86D02*
X1749Y27D01*
X1691Y86D02*
Y336D01*
X1970Y2130D02*
Y2298D01*
X1947Y2108D02*
X1970Y2130D01*
X1921Y2108D02*
X1947D01*
X1900Y2129D02*
X1921Y2108D01*
X1900Y2129D02*
Y2293D01*
X1241Y65D02*
X1506D01*
X2300Y30D02*
X2341Y71D01*
Y219D01*
X2364Y242D01*
X2375D01*
X3805Y1435D02*
X3845Y1475D01*
X3805Y1295D02*
Y1435D01*
X3845Y1475D02*
Y1815D01*
X3670Y1990D02*
X3845Y1815D01*
X3145Y200D02*
X3320Y25D01*
X2652Y242D02*
X2800Y390D01*
X2375Y242D02*
X2652D01*
X2800Y390D02*
X2877D01*
X3067Y200D01*
X3145D01*
X3595Y1990D02*
X3670D01*
X2819Y2270D02*
X2866Y2317D01*
X1433Y738D02*
X1473D01*
X1460Y619D02*
X1476Y635D01*
Y741D01*
X2414Y1887D02*
X2470D01*
X2573Y1989D01*
Y2028D01*
X2536Y1745D02*
Y1874D01*
X2612Y1950D01*
Y2052D01*
X301Y1725D02*
X375Y1650D01*
X659D01*
X239Y1726D02*
X281Y1684D01*
Y1549D02*
Y1684D01*
Y1549D02*
X397Y1433D01*
X819D01*
X148Y544D02*
Y689D01*
X1194Y112D02*
X1241Y65D01*
X1194Y112D02*
Y270D01*
X1117Y346D02*
X1194Y270D01*
X1117Y346D02*
Y599D01*
X87Y361D02*
Y483D01*
X148Y544D01*
X60Y777D02*
X148Y689D01*
X60Y777D02*
Y1065D01*
X93Y1098D01*
X191D01*
X231Y1138D01*
X111Y1347D02*
X231Y1227D01*
Y1138D02*
Y1227D01*
X111Y1347D02*
Y1695D01*
X142Y1726D01*
X239D01*
X803Y1505D02*
X812D01*
X653Y1182D02*
X674Y1161D01*
X746D01*
X808Y1099D01*
Y664D02*
Y1099D01*
X815Y895D02*
X910Y990D01*
Y1400D01*
X659Y1650D02*
X910Y1400D01*
X819Y1433D02*
X877Y1376D01*
Y1295D02*
Y1376D01*
X301Y1725D02*
Y1880D01*
X254Y1926D02*
X301Y1880D01*
X104Y1926D02*
X254D01*
X119Y2231D02*
X255D01*
X285Y2261D01*
Y2343D01*
X308Y2366D01*
X52Y1979D02*
X104Y1926D01*
X52Y1979D02*
Y2164D01*
X119Y2231D01*
D20*
X1016Y1509D02*
X1022Y1515D01*
X1030Y1517D01*
X1042D01*
X1050Y1515D01*
X1056Y1509D01*
Y1503D01*
X1053Y1497D01*
X1050Y1495D01*
X1045Y1492D01*
X1028Y1486D01*
X1022Y1483D01*
X1019Y1480D01*
X1016Y1475D01*
Y1466D01*
X1022Y1460D01*
X1030Y1457D01*
X1042D01*
X1050Y1460D01*
X1056Y1466D01*
X986Y1517D02*
X991Y1515D01*
X997Y1509D01*
X1000Y1503D01*
X1003Y1495D01*
Y1480D01*
X1000Y1472D01*
X997Y1466D01*
X991Y1460D01*
X986Y1457D01*
X974D01*
X968Y1460D01*
X963Y1466D01*
X960Y1472D01*
X957Y1480D01*
Y1495D01*
X960Y1503D01*
X963Y1509D01*
X968Y1515D01*
X974Y1517D01*
X986D01*
X943D02*
Y1457D01*
X909D01*
D21*
X3760Y1633D02*
D03*
D22*
X674Y853D02*
D03*
D23*
X674Y974D02*
D03*
Y659D02*
D03*
X716Y1236D02*
D03*
X715Y1078D02*
D03*
X3482Y1893D02*
D03*
X3481Y1735D02*
D03*
X1704Y470D02*
D03*
X1705Y628D02*
D03*
X3131Y519D02*
D03*
X3130Y361D02*
D03*
X3226Y1894D02*
D03*
X3225Y1736D02*
D03*
X2982Y1894D02*
D03*
X2981Y1736D02*
D03*
X3381Y359D02*
D03*
X3382Y517D02*
D03*
X2726Y1894D02*
D03*
X2725Y1736D02*
D03*
X3379Y1306D02*
D03*
X3378Y1148D02*
D03*
X3379Y1042D02*
D03*
X3378Y885D02*
D03*
X2889Y470D02*
D03*
X2890Y628D02*
D03*
X2652Y470D02*
D03*
X2653Y628D02*
D03*
X2416Y470D02*
D03*
X2417Y628D02*
D03*
X2180Y470D02*
D03*
X2181Y628D02*
D03*
X1944Y470D02*
D03*
X1945Y628D02*
D03*
X391Y2259D02*
D03*
Y2069D02*
D03*
X546Y2259D02*
D03*
Y2069D02*
D03*
X700Y2259D02*
D03*
Y2069D02*
D03*
X855Y2259D02*
D03*
Y2069D02*
D03*
X1009Y2259D02*
D03*
Y2069D02*
D03*
X1164Y2259D02*
D03*
Y2069D02*
D03*
X3382Y254D02*
D03*
X3381Y96D02*
D03*
X2890Y966D02*
D03*
X2889Y808D02*
D03*
X2653Y966D02*
D03*
X2652Y808D02*
D03*
X144Y1018D02*
D03*
Y828D02*
D03*
X589Y102D02*
D03*
X590Y260D02*
D03*
D24*
X1436Y673D02*
D03*
X1318D02*
D03*
X2307Y1932D02*
D03*
X2426D02*
D03*
X727Y433D02*
D03*
X845D02*
D03*
D25*
X2542Y2389D02*
D03*
Y2145D02*
D03*
X1289Y2163D02*
D03*
Y2407D02*
D03*
X130Y2034D02*
D03*
Y2278D02*
D03*
X244Y2036D02*
D03*
Y2280D02*
D03*
X1656Y2201D02*
D03*
Y2444D02*
D03*
D26*
X2307Y2199D02*
D03*
Y2443D02*
D03*
D27*
X3774Y1107D02*
D03*
X4018D02*
D03*
D28*
X3823Y2244D02*
D03*
X3863Y211D02*
D03*
X212Y179D02*
D03*
D29*
X3158Y1532D02*
D03*
X3000Y1534D02*
D03*
X3457Y1532D02*
D03*
X3299Y1534D02*
D03*
X1299Y931D02*
D03*
X1457Y930D02*
D03*
X1299Y1193D02*
D03*
X1457Y1192D02*
D03*
X1299Y1454D02*
D03*
X1457Y1453D02*
D03*
X1282Y146D02*
D03*
X1440Y145D02*
D03*
X3458Y702D02*
D03*
X3300Y703D02*
D03*
X1282Y408D02*
D03*
X1440Y407D02*
D03*
X1705Y1936D02*
D03*
X1863Y1934D02*
D03*
X1974Y1936D02*
D03*
X2132Y1935D02*
D03*
D30*
X1775Y160D02*
D03*
X1875D02*
D03*
X1975D02*
D03*
X2075D02*
D03*
X2275D02*
D03*
X2375D02*
D03*
X2175D02*
D03*
X2134Y2188D02*
D03*
X2034D02*
D03*
X1934D02*
D03*
X1834D02*
D03*
X993Y178D02*
D03*
X1092D02*
D03*
X2926Y2189D02*
D03*
X3026D02*
D03*
X3126D02*
D03*
X3226D02*
D03*
X3426D02*
D03*
X3526D02*
D03*
X3326D02*
D03*
D31*
X3715Y1534D02*
D03*
Y1731D02*
D03*
Y1632D02*
D03*
X3713Y697D02*
D03*
Y599D02*
D03*
X1055Y1208D02*
D03*
Y1108D02*
D03*
Y1008D02*
D03*
Y908D02*
D03*
Y708D02*
D03*
Y608D02*
D03*
Y808D02*
D03*
D32*
X1996Y1071D02*
D03*
Y874D02*
D03*
Y973D02*
D03*
D33*
X577Y1752D02*
D03*
Y1352D02*
D03*
X379Y569D02*
D03*
X92D02*
D03*
X418Y1754D02*
D03*
Y1354D02*
D03*
X178Y409D02*
D03*
X578D02*
D03*
D34*
X2434Y2048D02*
D03*
Y2292D02*
D03*
X1379Y2263D02*
D03*
Y2020D02*
D03*
D35*
X2695Y2275D02*
D03*
Y2393D02*
D03*
X1505Y2273D02*
D03*
Y2391D02*
D03*
X1543Y1946D02*
D03*
Y2064D02*
D03*
X194Y1652D02*
D03*
Y1770D02*
D03*
X226Y1350D02*
D03*
Y1468D02*
D03*
X386Y1084D02*
D03*
Y1202D02*
D03*
X782Y1354D02*
D03*
Y1472D02*
D03*
D36*
X2767Y2020D02*
D03*
X2523D02*
D03*
M02*
