M48
;Layer_Color=9474304
;FILE_FORMAT=2:3
INCH,LZ
;TYPE=PLATED
T1F00S00C0.028
T2F00S00C0.030
T3F00S00C0.031
T4F00S00C0.035
T5F00S00C0.039
T6F00S00C0.138
%
T01
X00144Y00828
Y01018
X00674Y00974
Y00659
X007Y02069
X00546
X00391
Y02259
X00546
X007
X00855
X01009
X01164
Y02069
X01009
X00855
T02
X00092Y00569
X00379
X00727Y00433
X00845
X0059Y0026
X00589Y00102
X01282Y00146
X0144Y00145
Y00407
X01282Y00408
X01318Y00673
X01436
X01457Y0093
X01299Y00931
Y01193
X01457Y01192
Y01453
X01299Y01454
X00782Y01472
Y01354
X00716Y01236
X00715Y01078
X00674Y00853
X00386Y01084
Y01202
X00226Y0135
Y01468
X01705Y00628
X01704Y0047
X01944
X01945Y00628
X02181
X0218Y0047
X02416
X02417Y00628
X02653
X02652Y0047
X02889
X0289Y00628
X02889Y00808
X0289Y00966
X02653
X02652Y00808
X03Y01534
X03158Y01532
X03299Y01534
X03457Y01532
X03379Y01306
X03378Y01148
X03379Y01042
X03378Y00885
X033Y00703
X03458Y00702
X03382Y00517
X03381Y00359
X03382Y00254
X03381Y00096
X0313Y00361
X03131Y00519
X03225Y01736
X03226Y01894
X03482Y01893
X03481Y01735
X02981Y01736
X02982Y01894
X02726
X02725Y01736
X02426Y01932
X02307
X02132Y01935
X01974Y01936
X01863Y01934
X01705Y01936
X01543Y01946
Y02064
X01505Y02273
Y02391
X02695Y02393
Y02275
X00194Y0177
Y01652
T03
X03774Y01107
X04018
X02767Y0202
X02523
X02434Y02048
X02542Y02145
Y02389
X02434Y02292
X02307Y02199
Y02443
X01656Y02444
Y02201
X01379Y02263
X01289Y02163
X01379Y0202
X01289Y02407
X00244Y0228
X0013Y02278
Y02034
X00244Y02036
T04
X00178Y00409
X00578
X00577Y01352
X00418Y01354
Y01754
X00577Y01752
T05
X00993Y00178
X01092
X01055Y00608
Y00708
Y00808
Y00908
Y01008
Y01108
Y01208
X01996Y01071
Y00973
Y00874
X01975Y0016
X01875
X01775
X02075
X02175
X02275
X02375
X03713Y00599
Y00697
X03715Y01534
Y01632
Y01731
X03526Y02189
X03426
X03326
X03226
X03126
X03026
X02926
X02134Y02188
X02034
X01934
X01834
T06
X00212Y00179
X03863Y00211
X03823Y02244
M30
